<svg width="23" height="23" viewBox="0 0 23 23" fill="none" xmlns="http://www.w3.org/2000/svg">
<path d="M21.4409 9.11305C21.4409 15.3666 12.1688 20.4283 11.7739 20.6374C11.6698 20.6934 11.5535 20.7227 11.4353 20.7227C11.3171 20.7227 11.2008 20.6934 11.0967 20.6374C10.7975 20.4766 5.41943 17.5383 2.81707 13.411C2.78351 13.3569 2.76498 13.2949 2.76342 13.2313C2.76186 13.1677 2.77731 13.1048 2.80819 13.0491C2.83906 12.9935 2.88423 12.9471 2.93904 12.9148C2.99384 12.8824 3.05629 12.8653 3.11992 12.8652H6.4325C6.55019 12.8652 6.66608 12.8362 6.76988 12.7808C6.87367 12.7253 6.96216 12.645 7.02748 12.5471L7.86188 11.2964L10.1256 14.6912C10.2124 14.8213 10.3394 14.9193 10.4872 14.9703C10.635 15.0213 10.7955 15.0224 10.944 14.9735C11.1015 14.9201 11.2363 14.8149 11.3263 14.6751L12.5324 12.8652H14.2941C14.392 12.8654 14.489 12.8454 14.579 12.8066C14.6689 12.7678 14.7499 12.7108 14.8169 12.6394C14.884 12.5679 14.9356 12.4834 14.9686 12.3912C15.0016 12.2989 15.0152 12.2009 15.0088 12.1031C14.9928 11.9194 14.9079 11.7486 14.7712 11.6248C14.6345 11.501 14.4561 11.4335 14.2717 11.4358H12.15C12.0323 11.4357 11.9164 11.4647 11.8126 11.5202C11.7088 11.5757 11.6203 11.6559 11.555 11.7538L10.7206 13.0045L8.45685 9.60975C8.37007 9.47948 8.24291 9.3813 8.09491 9.3303C7.94691 9.2793 7.78626 9.2783 7.63764 9.32745C7.48051 9.3811 7.34609 9.48624 7.25618 9.62584L6.05014 11.4358H2.10239C2.02602 11.436 1.95159 11.4117 1.89001 11.3666C1.82843 11.3214 1.78295 11.2577 1.76023 11.1847C1.54468 10.5152 1.4332 9.81646 1.42969 9.11305C1.43134 7.64457 2.01543 6.23671 3.0538 5.19833C4.09217 4.15996 5.50004 3.57587 6.96852 3.57422C8.8133 3.57422 10.4285 4.36752 11.4353 5.70845C12.4421 4.36752 14.0573 3.57422 15.9021 3.57422C17.3706 3.57587 18.7785 4.15996 19.8168 5.19833C20.8552 6.23671 21.4393 7.64457 21.4409 9.11305Z" fill="#800000"/>
</svg>
