<svg width="23" height="23" viewBox="0 0 23 23" fill="none" xmlns="http://www.w3.org/2000/svg">
<path d="M19.297 6.43297H11.7312L9.29141 3.99321C9.1591 3.85998 9.00166 3.75434 8.82822 3.68242C8.65477 3.6105 8.46878 3.57372 8.28102 3.57422H3.57391C3.19481 3.57422 2.83125 3.72482 2.56319 3.99288C2.29513 4.26094 2.14453 4.62451 2.14453 5.0036V17.9234C2.14524 18.2877 2.29035 18.6369 2.54806 18.8945C2.80577 19.152 3.15507 19.2969 3.51941 19.2973H19.3765C19.7344 19.2969 20.0775 19.1545 20.3305 18.9015C20.5836 18.6484 20.7259 18.3053 20.7264 17.9475V7.86235C20.7264 7.48326 20.5758 7.11969 20.3078 6.85163C20.0397 6.58357 19.6761 6.43297 19.297 6.43297ZM3.57391 5.0036H8.28102L9.71039 6.43297H3.57391V5.0036Z" fill="#810100"/>
</svg>
