<svg width="23" height="23" viewBox="0 0 23 23" fill="none" xmlns="http://www.w3.org/2000/svg">
<path d="M21.4414 7.88392C21.4056 9.12806 20.894 10.3111 20.0121 11.1893L16.9076 14.2956C16.4555 14.7502 15.9177 15.1106 15.3253 15.3559C14.7329 15.6013 14.0978 15.7267 13.4566 15.7249H13.4521C12.8 15.7245 12.1546 15.5933 11.554 15.3392C10.9534 15.0852 10.4099 14.7133 9.95541 14.2456C9.50096 13.7779 9.14485 13.2239 8.90811 12.6162C8.67137 12.0086 8.55881 11.3597 8.57707 10.7078C8.5824 10.5183 8.66281 10.3386 8.80061 10.2084C8.93841 10.0781 9.12231 10.0079 9.31186 10.0132C9.50141 10.0186 9.68107 10.099 9.81133 10.2368C9.94159 10.3746 10.0118 10.5585 10.0064 10.748C9.99343 11.2089 10.0729 11.6678 10.2403 12.0974C10.4076 12.5271 10.6593 12.9189 10.9806 13.2496C11.3019 13.5803 11.6863 13.8432 12.1109 14.0229C12.5356 14.2025 12.9919 14.2953 13.453 14.2956C13.9063 14.2967 14.3553 14.208 14.7741 14.0346C15.1928 13.8612 15.5731 13.6065 15.8928 13.2852L18.9972 10.1807C19.6377 9.53217 19.9956 8.65654 19.9928 7.74501C19.9899 6.83348 19.6265 5.9601 18.982 5.31555C18.3374 4.67099 17.4641 4.30763 16.5525 4.30477C15.641 4.30192 14.7654 4.65982 14.1168 5.30032L13.1341 6.28302C12.999 6.41139 12.8191 6.4819 12.6327 6.47951C12.4463 6.47713 12.2683 6.40203 12.1365 6.27024C12.0047 6.13846 11.9296 5.9604 11.9272 5.77403C11.9248 5.58767 11.9953 5.40775 12.1237 5.27263L13.1064 4.28993C13.5598 3.8364 14.0981 3.47663 14.6905 3.23117C15.283 2.98571 15.918 2.85938 16.5592 2.85938C17.2005 2.85938 17.8355 2.98571 18.428 3.23117C19.0204 3.47663 19.5587 3.8364 20.0121 4.28993C20.4817 4.76069 20.8506 5.32209 21.0963 5.93996C21.342 6.55782 21.4595 7.21923 21.4414 7.88392ZM9.73844 16.5879L8.75574 17.5706C8.43523 17.8933 8.05377 18.149 7.63355 18.3229C7.21333 18.4968 6.76273 18.5855 6.30794 18.5837C5.62568 18.5831 4.9589 18.3804 4.39183 18.001C3.82476 17.6217 3.38286 17.0827 3.12197 16.4523C2.86107 15.8219 2.79288 15.1283 2.92601 14.4592C3.05915 13.7901 3.38763 13.1754 3.86996 12.6929L6.96903 9.58845C7.45715 9.09775 8.08153 8.76516 8.7611 8.63388C9.44066 8.5026 10.144 8.57868 10.7798 8.85225C11.4155 9.12583 11.9544 9.58425 12.3262 10.168C12.6981 10.7517 12.8859 11.4338 12.8652 12.1256C12.8599 12.3151 12.9301 12.499 13.0603 12.6368C13.1906 12.7746 13.3702 12.855 13.5598 12.8604C13.7493 12.8657 13.9332 12.7955 14.071 12.6653C14.2088 12.535 14.2892 12.3553 14.2946 12.1658C14.3117 11.5021 14.1939 10.8419 13.9482 10.2252C13.7025 9.60847 13.334 9.04809 12.8652 8.57806C11.9497 7.66292 10.7082 7.14884 9.4137 7.14884C8.11923 7.14884 6.87774 7.66292 5.96221 8.57806L2.85957 11.6825C2.17725 12.3645 1.71242 13.2335 1.52383 14.1797C1.33524 15.1258 1.43134 16.1066 1.8 16.9981C2.16866 17.8897 2.79333 18.6519 3.59507 19.1886C4.3968 19.7252 5.33962 20.0121 6.30437 20.0131C6.94568 20.0149 7.581 19.8895 8.17353 19.6442C8.76606 19.3988 9.30403 19.0384 9.75631 18.5837L10.739 17.601C10.8547 17.4648 10.9151 17.2901 10.9084 17.1115C10.9016 16.933 10.8282 16.7634 10.7027 16.6362C10.5771 16.5091 10.4084 16.4336 10.2299 16.4247C10.0515 16.4157 9.8761 16.474 9.73844 16.5879Z" fill="#800000"/>
</svg>
