<svg width="23" height="23" viewBox="0 0 23 23" fill="none" xmlns="http://www.w3.org/2000/svg">
<path d="M19.2973 2.85922V17.153C19.2973 17.3425 19.222 17.5243 19.088 17.6583C18.954 17.7924 18.7722 17.8677 18.5827 17.8677H6.43297C6.05388 17.8677 5.69031 18.0183 5.42225 18.2863C5.15419 18.5544 5.00359 18.9179 5.00359 19.297H17.1533C17.3428 19.297 17.5246 19.3723 17.6586 19.5064C17.7927 19.6404 17.868 19.8222 17.868 20.0117C17.868 20.2013 17.7927 20.383 17.6586 20.5171C17.5246 20.6511 17.3428 20.7264 17.1533 20.7264H4.28891C4.09936 20.7264 3.91758 20.6511 3.78355 20.5171C3.64952 20.383 3.57422 20.2013 3.57422 20.0117V5.00328C3.57422 4.24509 3.87541 3.51796 4.41153 2.98184C4.94765 2.44572 5.67478 2.14453 6.43297 2.14453H18.5827C18.7722 2.14453 18.954 2.21983 19.088 2.35386C19.222 2.48789 19.2973 2.66967 19.2973 2.85922Z" fill="#800000"/>
</svg>
