<svg width="366" height="170" viewBox="0 0 366 170" fill="none" xmlns="http://www.w3.org/2000/svg">
<g filter="url(#filter0_d_1979_933)">
<rect x="4" y="2" width="358" height="162" rx="20" fill="#FDFBF7"/>
</g>
<rect x="324" y="123" width="25.45" height="25" rx="5" fill="#EDEADC"/>
<path d="M343.342 135.102L338.514 139.93C338.447 139.998 338.361 140.044 338.267 140.063C338.173 140.081 338.076 140.072 337.988 140.035C337.9 139.999 337.824 139.937 337.771 139.857C337.718 139.778 337.69 139.684 337.69 139.589V137.188C334.244 137.384 331.881 139.619 331.218 140.327C331.114 140.438 330.977 140.514 330.827 140.543C330.678 140.572 330.523 140.553 330.385 140.489C330.246 140.425 330.132 140.319 330.057 140.186C329.983 140.053 329.952 139.9 329.97 139.749C330.194 137.802 331.26 135.929 332.973 134.476C334.395 133.269 336.124 132.503 337.69 132.369V129.932C337.69 129.837 337.718 129.743 337.771 129.664C337.824 129.585 337.9 129.523 337.988 129.486C338.076 129.449 338.173 129.44 338.267 129.459C338.361 129.477 338.447 129.523 338.514 129.591L343.342 134.419C343.387 134.464 343.423 134.517 343.447 134.576C343.471 134.634 343.484 134.697 343.484 134.761C343.484 134.824 343.471 134.887 343.447 134.945C343.423 135.004 343.387 135.057 343.342 135.102Z" fill="#810100"/>
<rect x="21" y="123" width="60" height="25" rx="5" fill="#EDEADC"/>
<path d="M55.0549 133.672C55.0151 133.3 54.8475 133.01 54.552 132.803C54.2594 132.595 53.8787 132.491 53.41 132.491C53.0804 132.491 52.7978 132.541 52.562 132.641C52.3262 132.74 52.1458 132.875 52.0208 133.045C51.8958 133.216 51.8319 133.411 51.829 133.629C51.829 133.811 51.8702 133.969 51.9526 134.102C52.0378 134.236 52.1529 134.349 52.2978 134.443C52.4426 134.534 52.6032 134.611 52.7793 134.673C52.9554 134.736 53.133 134.788 53.312 134.831L54.1301 135.036C54.4597 135.112 54.7765 135.216 55.0804 135.347C55.3873 135.477 55.6614 135.642 55.9029 135.841C56.1472 136.04 56.3404 136.28 56.4824 136.561C56.6245 136.842 56.6955 137.172 56.6955 137.55C56.6955 138.061 56.5648 138.511 56.3034 138.901C56.0421 139.287 55.6642 139.589 55.1699 139.808C54.6784 140.024 54.0833 140.132 53.3844 140.132C52.7054 140.132 52.1159 140.027 51.6159 139.817C51.1188 139.607 50.7296 139.3 50.4483 138.896C50.1699 138.493 50.0194 138.001 49.9966 137.422H51.552C51.5748 137.726 51.6685 137.979 51.8333 138.18C51.998 138.382 52.2125 138.533 52.4767 138.632C52.7438 138.732 53.0421 138.781 53.3716 138.781C53.7154 138.781 54.0165 138.73 54.275 138.628C54.5364 138.523 54.7409 138.378 54.8887 138.193C55.0364 138.006 55.1117 137.787 55.1145 137.537C55.1117 137.31 55.0449 137.122 54.9142 136.974C54.7836 136.824 54.6003 136.699 54.3645 136.599C54.1316 136.497 53.8588 136.406 53.5463 136.327L52.5534 136.071C51.8347 135.886 51.2665 135.607 50.8489 135.232C50.4341 134.854 50.2267 134.352 50.2267 133.727C50.2267 133.213 50.3659 132.763 50.6444 132.376C50.9256 131.99 51.3077 131.69 51.7907 131.477C52.2736 131.261 52.8205 131.153 53.4313 131.153C54.0506 131.153 54.5932 131.261 55.0591 131.477C55.5279 131.69 55.8958 131.987 56.1628 132.368C56.4299 132.746 56.5676 133.18 56.5762 133.672H55.0549ZM59.085 140H57.3975L60.47 131.273H62.4217L65.4984 140H63.8109L61.4799 133.062H61.4118L59.085 140ZM59.1404 136.578H63.7427V137.848H59.1404V136.578ZM69.6053 140H66.6479V131.273H69.665C70.5314 131.273 71.2757 131.447 71.8979 131.797C72.5229 132.143 73.003 132.642 73.3382 133.293C73.6735 133.943 73.8411 134.722 73.8411 135.628C73.8411 136.537 73.6721 137.318 73.334 137.972C72.9988 138.625 72.5144 139.126 71.8809 139.476C71.2502 139.825 70.4917 140 69.6053 140ZM68.2289 138.632H69.5286C70.1365 138.632 70.6436 138.521 71.0499 138.3C71.4561 138.075 71.7615 137.741 71.9661 137.298C72.1706 136.852 72.2729 136.295 72.2729 135.628C72.2729 134.96 72.1706 134.406 71.9661 133.966C71.7615 133.523 71.459 133.192 71.0584 132.973C70.6607 132.751 70.1664 132.641 69.5755 132.641H68.2289V138.632Z" fill="#181717"/>
<path d="M33.7263 129.449C32.4848 129.449 31.2712 129.817 30.2389 130.507C29.2067 131.197 28.4021 132.177 27.927 133.324C27.4519 134.471 27.3276 135.733 27.5698 136.951C27.812 138.168 28.4099 139.287 29.2877 140.165C30.1656 141.043 31.284 141.64 32.5017 141.883C33.7193 142.125 34.9814 142.001 36.1284 141.525C37.2754 141.05 38.2557 140.246 38.9454 139.214C39.6352 138.181 40.0033 136.968 40.0033 135.726C40.0015 134.062 39.3397 132.466 38.1629 131.29C36.9861 130.113 35.3905 129.451 33.7263 129.449ZM31.5534 133.795C31.6967 133.795 31.8367 133.837 31.9558 133.917C32.0749 133.997 32.1678 134.11 32.2226 134.242C32.2774 134.374 32.2917 134.52 32.2638 134.66C32.2359 134.801 32.1669 134.93 32.0656 135.031C31.9643 135.133 31.8352 135.202 31.6947 135.229C31.5542 135.257 31.4086 135.243 31.2763 135.188C31.1439 135.133 31.0308 135.041 30.9512 134.922C30.8716 134.802 30.8292 134.662 30.8292 134.519C30.8292 134.327 30.9055 134.143 31.0413 134.007C31.1771 133.871 31.3614 133.795 31.5534 133.795ZM36.3819 139.041C36.2711 139.105 36.1395 139.122 36.0159 139.089C35.8924 139.056 35.787 138.975 35.7228 138.865C35.272 138.086 34.5634 137.658 33.7263 137.658C32.8891 137.658 32.1805 138.086 31.7297 138.865C31.6995 138.922 31.6579 138.973 31.6075 139.015C31.5571 139.056 31.4989 139.087 31.4364 139.105C31.3738 139.123 31.3083 139.128 31.2436 139.12C31.179 139.112 31.1166 139.092 31.0602 139.059C31.0038 139.026 30.9546 138.983 30.9155 138.931C30.8765 138.879 30.8483 138.819 30.8328 138.756C30.8174 138.693 30.8148 138.627 30.8254 138.563C30.836 138.498 30.8594 138.437 30.8944 138.382C31.5154 137.308 32.5475 136.692 33.7263 136.692C34.905 136.692 35.9371 137.308 36.5582 138.382C36.6221 138.493 36.6394 138.624 36.6064 138.748C36.5733 138.871 36.4926 138.977 36.3819 139.041ZM35.8991 135.243C35.7558 135.243 35.6158 135.201 35.4967 135.121C35.3776 135.042 35.2848 134.929 35.2299 134.796C35.1751 134.664 35.1608 134.518 35.1887 134.378C35.2167 134.237 35.2857 134.108 35.3869 134.007C35.4882 133.906 35.6173 133.837 35.7578 133.809C35.8983 133.781 36.0439 133.795 36.1762 133.85C36.3086 133.905 36.4217 133.998 36.5013 134.117C36.5809 134.236 36.6234 134.376 36.6234 134.519C36.6234 134.711 36.547 134.895 36.4112 135.031C36.2754 135.167 36.0912 135.243 35.8991 135.243Z" fill="#810100"/>
<rect x="89" y="123" width="95.45" height="25" rx="5" fill="#EDEADC"/>
<path d="M118.31 140V131.273H119.891V138.675H123.735V140H118.31ZM132.565 135.636C132.565 136.577 132.389 137.382 132.037 138.053C131.688 138.72 131.21 139.232 130.605 139.587C130.003 139.942 129.32 140.119 128.555 140.119C127.791 140.119 127.107 139.942 126.501 139.587C125.899 139.229 125.422 138.716 125.07 138.048C124.72 137.378 124.545 136.574 124.545 135.636C124.545 134.696 124.72 133.892 125.07 133.224C125.422 132.554 125.899 132.041 126.501 131.686C127.107 131.331 127.791 131.153 128.555 131.153C129.32 131.153 130.003 131.331 130.605 131.686C131.21 132.041 131.688 132.554 132.037 133.224C132.389 133.892 132.565 134.696 132.565 135.636ZM130.976 135.636C130.976 134.974 130.872 134.416 130.665 133.962C130.46 133.504 130.176 133.159 129.812 132.926C129.449 132.69 129.03 132.572 128.555 132.572C128.081 132.572 127.662 132.69 127.298 132.926C126.935 133.159 126.649 133.504 126.442 133.962C126.237 134.416 126.135 134.974 126.135 135.636C126.135 136.298 126.237 136.858 126.442 137.315C126.649 137.77 126.935 138.115 127.298 138.351C127.662 138.584 128.081 138.7 128.555 138.7C129.03 138.7 129.449 138.584 129.812 138.351C130.176 138.115 130.46 137.77 130.665 137.315C130.872 136.858 130.976 136.298 130.976 135.636ZM141.53 134.217H139.936C139.891 133.956 139.807 133.724 139.685 133.523C139.563 133.318 139.411 133.145 139.229 133.003C139.047 132.861 138.84 132.754 138.607 132.683C138.377 132.609 138.128 132.572 137.861 132.572C137.387 132.572 136.966 132.692 136.6 132.93C136.233 133.166 135.946 133.513 135.739 133.97C135.532 134.425 135.428 134.98 135.428 135.636C135.428 136.304 135.532 136.866 135.739 137.324C135.949 137.778 136.236 138.122 136.6 138.355C136.966 138.585 137.385 138.7 137.857 138.7C138.118 138.7 138.363 138.666 138.59 138.598C138.82 138.527 139.026 138.423 139.208 138.287C139.392 138.151 139.547 137.983 139.672 137.784C139.8 137.585 139.888 137.358 139.936 137.102L141.53 137.111C141.471 137.526 141.341 137.915 141.142 138.278C140.946 138.642 140.689 138.963 140.371 139.241C140.053 139.517 139.681 139.733 139.255 139.889C138.828 140.043 138.355 140.119 137.836 140.119C137.069 140.119 136.384 139.942 135.782 139.587C135.179 139.232 134.705 138.719 134.358 138.048C134.012 137.378 133.838 136.574 133.838 135.636C133.838 134.696 134.013 133.892 134.363 133.224C134.712 132.554 135.188 132.041 135.79 131.686C136.392 131.331 137.074 131.153 137.836 131.153C138.321 131.153 138.773 131.222 139.191 131.358C139.608 131.494 139.98 131.695 140.307 131.959C140.634 132.22 140.902 132.541 141.113 132.922C141.326 133.3 141.465 133.732 141.53 134.217ZM143.993 140H142.306L145.378 131.273H147.33L150.407 140H148.719L146.388 133.062H146.32L143.993 140ZM144.049 136.578H148.651V137.848H144.049V136.578ZM150.118 132.598V131.273H157.081V132.598H154.384V140H152.815V132.598H150.118ZM160.004 131.273V140H158.423V131.273H160.004ZM169.515 135.636C169.515 136.577 169.338 137.382 168.986 138.053C168.637 138.72 168.159 139.232 167.554 139.587C166.952 139.942 166.269 140.119 165.505 140.119C164.74 140.119 164.056 139.942 163.451 139.587C162.848 139.229 162.371 138.716 162.019 138.048C161.669 137.378 161.495 136.574 161.495 135.636C161.495 134.696 161.669 133.892 162.019 133.224C162.371 132.554 162.848 132.041 163.451 131.686C164.056 131.331 164.74 131.153 165.505 131.153C166.269 131.153 166.952 131.331 167.554 131.686C168.159 132.041 168.637 132.554 168.986 133.224C169.338 133.892 169.515 134.696 169.515 135.636ZM167.925 135.636C167.925 134.974 167.821 134.416 167.614 133.962C167.409 133.504 167.125 133.159 166.762 132.926C166.398 132.69 165.979 132.572 165.505 132.572C165.03 132.572 164.611 132.69 164.248 132.926C163.884 133.159 163.598 133.504 163.391 133.962C163.186 134.416 163.084 134.974 163.084 135.636C163.084 136.298 163.186 136.858 163.391 137.315C163.598 137.77 163.884 138.115 164.248 138.351C164.611 138.584 165.03 138.7 165.505 138.7C165.979 138.7 166.398 138.584 166.762 138.351C167.125 138.115 167.409 137.77 167.614 137.315C167.821 136.858 167.925 136.298 167.925 135.636ZM178.181 131.273V140H176.775L172.663 134.055H172.59V140H171.009V131.273H172.424L176.532 137.222H176.609V131.273H178.181Z" fill="#181717"/>
<path d="M101.483 138.562C101.556 138.604 101.638 138.626 101.722 138.626C101.806 138.626 101.889 138.604 101.962 138.562C102.11 138.477 105.583 136.45 105.583 132.832C105.553 131.828 105.133 130.876 104.413 130.177C103.692 129.478 102.728 129.086 101.724 129.086C100.72 129.086 99.7553 129.476 99.0344 130.175C98.3134 130.873 97.8928 131.825 97.8617 132.829C97.8617 136.45 101.337 138.474 101.483 138.562ZM101.724 131.38C102.011 131.38 102.291 131.465 102.529 131.624C102.767 131.784 102.953 132.01 103.062 132.274C103.172 132.539 103.201 132.83 103.145 133.111C103.089 133.392 102.951 133.65 102.748 133.853C102.546 134.055 102.288 134.193 102.007 134.249C101.726 134.305 101.435 134.276 101.17 134.167C100.905 134.057 100.679 133.872 100.52 133.633C100.361 133.395 100.276 133.115 100.276 132.829C100.276 132.445 100.428 132.076 100.7 131.804C100.972 131.533 101.34 131.38 101.724 131.38ZM108.484 139.105C108.484 140.987 105.001 142.002 101.724 142.002C98.4477 142.002 94.9648 140.987 94.9648 139.105C94.9648 138.225 95.7627 137.445 97.2117 136.91C97.3306 136.871 97.46 136.879 97.5727 136.934C97.6855 136.988 97.7727 137.084 97.8161 137.201C97.8595 137.319 97.8555 137.448 97.8052 137.563C97.7548 137.678 97.6619 137.768 97.5461 137.816C96.5497 138.184 95.9305 138.678 95.9305 139.105C95.9305 139.912 98.1345 141.036 101.724 141.036C105.314 141.036 107.518 139.912 107.518 139.105C107.518 138.678 106.899 138.184 105.902 137.816C105.787 137.769 105.694 137.678 105.643 137.564C105.593 137.449 105.589 137.319 105.632 137.202C105.676 137.085 105.763 136.989 105.876 136.934C105.988 136.88 106.118 136.872 106.237 136.911C107.686 137.445 108.484 138.225 108.484 139.105Z" fill="#810100"/>
<rect x="21" y="57" width="328" height="50" rx="25" fill="#EDEADC"/>
<rect x="21.5" y="57.5" width="327" height="49" rx="24.5" stroke="black" stroke-opacity="0.1"/>
<path d="M311.182 86.1534C310.596 86.1511 310.091 86.0068 309.669 85.7205C309.248 85.4341 308.924 85.0193 308.697 84.4761C308.472 83.933 308.361 83.2795 308.363 82.5159C308.363 81.7545 308.475 81.1057 308.7 80.5693C308.928 80.033 309.252 79.625 309.672 79.3455C310.095 79.0636 310.598 78.9227 311.182 78.9227C311.766 78.9227 312.269 79.0636 312.689 79.3455C313.112 79.6273 313.437 80.0364 313.664 80.5727C313.891 81.1068 314.004 81.7545 314.002 82.5159C314.002 83.2818 313.888 83.9364 313.661 84.4795C313.436 85.0227 313.113 85.4375 312.693 85.7239C312.272 86.0102 311.769 86.1534 311.182 86.1534ZM311.182 84.9295C311.582 84.9295 311.902 84.7284 312.14 84.3261C312.379 83.9239 312.497 83.3205 312.495 82.5159C312.495 81.9864 312.44 81.5455 312.331 81.1932C312.224 80.8409 312.072 80.5761 311.874 80.3989C311.679 80.2216 311.448 80.133 311.182 80.133C310.785 80.133 310.466 80.3318 310.228 80.7295C309.989 81.1273 309.869 81.7227 309.866 82.5159C309.866 83.0523 309.92 83.5 310.027 83.8591C310.136 84.2159 310.289 84.4841 310.487 84.6636C310.685 84.8409 310.916 84.9295 311.182 84.9295ZM317.635 86.0955C317.126 86.0955 316.672 86.008 316.275 85.833C315.879 85.6557 315.567 85.4125 315.337 85.1034C315.11 84.792 314.993 84.433 314.986 84.0261H316.472C316.481 84.1966 316.537 84.3466 316.639 84.4761C316.744 84.6034 316.883 84.7023 317.055 84.7727C317.228 84.8432 317.422 84.8784 317.638 84.8784C317.863 84.8784 318.062 84.8386 318.235 84.7591C318.408 84.6795 318.543 84.5693 318.641 84.4284C318.738 84.2875 318.787 84.125 318.787 83.9409C318.787 83.7545 318.735 83.5898 318.63 83.4466C318.528 83.3011 318.38 83.1875 318.187 83.1057C317.996 83.0239 317.769 82.983 317.505 82.983H316.854V81.8989H317.505C317.728 81.8989 317.925 81.8602 318.095 81.783C318.268 81.7057 318.402 81.5989 318.497 81.4625C318.593 81.3239 318.641 81.1625 318.641 80.9784C318.641 80.8034 318.599 80.65 318.514 80.5182C318.433 80.3841 318.317 80.2795 318.167 80.2045C318.019 80.1295 317.846 80.092 317.649 80.092C317.449 80.092 317.266 80.1284 317.1 80.2011C316.934 80.2716 316.801 80.3727 316.701 80.5045C316.601 80.6364 316.547 80.7909 316.541 80.9682H315.126C315.133 80.5659 315.247 80.2114 315.47 79.9045C315.693 79.5977 315.993 79.358 316.37 79.1852C316.75 79.0102 317.178 78.9227 317.655 78.9227C318.137 78.9227 318.559 79.0102 318.92 79.1852C319.281 79.3602 319.562 79.5966 319.762 79.8943C319.964 80.1898 320.064 80.5216 320.062 80.8898C320.064 81.2807 319.943 81.6068 319.697 81.8682C319.454 82.1295 319.137 82.2955 318.746 82.3659V82.4205C319.26 82.4864 319.651 82.6648 319.919 82.9557C320.189 83.2443 320.324 83.6057 320.321 84.0398C320.324 84.4375 320.209 84.7909 319.977 85.1C319.747 85.4091 319.43 85.6523 319.026 85.8295C318.621 86.0068 318.158 86.0955 317.635 86.0955ZM322.245 85.1886C322.02 85.1886 321.827 85.1091 321.665 84.95C321.506 84.7909 321.427 84.5977 321.427 84.3705C321.427 84.1477 321.506 83.9568 321.665 83.7977C321.827 83.6386 322.02 83.5591 322.245 83.5591C322.463 83.5591 322.654 83.6386 322.818 83.7977C322.981 83.9568 323.063 84.1477 323.063 84.3705C323.063 84.5205 323.024 84.658 322.947 84.783C322.872 84.9057 322.773 85.0045 322.65 85.0795C322.528 85.1523 322.393 85.1886 322.245 85.1886ZM322.245 81.7625C322.02 81.7625 321.827 81.683 321.665 81.5239C321.506 81.3648 321.427 81.1716 321.427 80.9443C321.427 80.7216 321.506 80.5318 321.665 80.375C321.827 80.2159 322.02 80.1364 322.245 80.1364C322.463 80.1364 322.654 80.2159 322.818 80.375C322.981 80.5318 323.063 80.7216 323.063 80.9443C323.063 81.0966 323.024 81.2352 322.947 81.3602C322.872 81.483 322.773 81.5807 322.65 81.6534C322.528 81.7261 322.393 81.7625 322.245 81.7625ZM326.822 86.0955C326.313 86.0955 325.86 86.008 325.462 85.833C325.067 85.6557 324.754 85.4125 324.525 85.1034C324.297 84.792 324.18 84.433 324.174 84.0261H325.66C325.669 84.1966 325.725 84.3466 325.827 84.4761C325.931 84.6034 326.07 84.7023 326.243 84.7727C326.416 84.8432 326.61 84.8784 326.826 84.8784C327.051 84.8784 327.25 84.8386 327.422 84.7591C327.595 84.6795 327.73 84.5693 327.828 84.4284C327.926 84.2875 327.975 84.125 327.975 83.9409C327.975 83.7545 327.922 83.5898 327.818 83.4466C327.716 83.3011 327.568 83.1875 327.375 83.1057C327.184 83.0239 326.956 82.983 326.693 82.983H326.042V81.8989H326.693C326.916 81.8989 327.112 81.8602 327.283 81.783C327.455 81.7057 327.589 81.5989 327.685 81.4625C327.78 81.3239 327.828 81.1625 327.828 80.9784C327.828 80.8034 327.786 80.65 327.702 80.5182C327.62 80.3841 327.504 80.2795 327.354 80.2045C327.206 80.1295 327.034 80.092 326.836 80.092C326.636 80.092 326.453 80.1284 326.287 80.2011C326.121 80.2716 325.988 80.3727 325.888 80.5045C325.788 80.6364 325.735 80.7909 325.728 80.9682H324.313C324.32 80.5659 324.435 80.2114 324.658 79.9045C324.88 79.5977 325.18 79.358 325.558 79.1852C325.937 79.0102 326.366 78.9227 326.843 78.9227C327.325 78.9227 327.746 79.0102 328.108 79.1852C328.469 79.3602 328.75 79.5966 328.95 79.8943C329.152 80.1898 329.252 80.5216 329.25 80.8898C329.252 81.2807 329.13 81.6068 328.885 81.8682C328.642 82.1295 328.325 82.2955 327.934 82.3659V82.4205C328.447 82.4864 328.838 82.6648 329.106 82.9557C329.377 83.2443 329.511 83.6057 329.509 84.0398C329.511 84.4375 329.396 84.7909 329.164 85.1C328.935 85.4091 328.618 85.6523 328.213 85.8295C327.809 86.0068 327.345 86.0955 326.822 86.0955ZM330.464 84.7727V83.6102L333.379 79.0182H334.381V80.6273H333.788L331.95 83.5352V83.5898H336.093V84.7727H330.464ZM333.815 86V84.4182L333.843 83.9034V79.0182H335.227V86H333.815Z" fill="black" fill-opacity="0.7"/>
<mask id="mask0_1979_933" style="mask-type:alpha" maskUnits="userSpaceOnUse" x="75" y="67" width="223" height="29">
<path d="M85.9755 94V69M174.78 94V69M94.0487 86.9487V76.6923M263.585 86.9487V76.6923M239.366 86.9487V76.6923M182.854 86.9487V76.6923M150.561 86.9487V76.6923M223.219 86.9487V76.6923M102.122 90.7949V72.2051M271.658 90.7949V72.2051M247.439 90.7949V72.2051M142.488 90.7949V72.2051M215.146 90.7949V72.2051M110.195 85.0256V77.9744M287.805 85.0256V77.9744M279.732 85.0256V77.9744M77.9023 85.0256V77.9744M207.073 86.9487V76.6923M118.268 92.7179V70.9231M255.512 92.7179V70.9231M190.927 92.7179V70.9231M158.634 92.7179V70.9231M231.293 92.7179V70.9231M126.341 89.5128V74.1282M295.878 89.5128V74.1282M166.707 89.5128V74.1282M134.415 85.0256V77.9744M199 85.0256V77.9744" stroke="white" stroke-width="4" stroke-linecap="round"/>
</mask>
<g mask="url(#mask0_1979_933)">
<path d="M75.9023 67.5781H297.902V95.4353H75.9023V67.5781Z" fill="url(#paint0_linear_1979_933)"/>
</g>
<path d="M50.4506 69.8984C47.9676 69.8984 45.5404 70.6347 43.4759 72.0142C41.4114 73.3936 39.8023 75.3543 38.8521 77.6483C37.9019 79.9422 37.6533 82.4664 38.1377 84.9017C38.6221 87.337 39.8178 89.5739 41.5735 91.3296C43.3292 93.0853 45.5661 94.281 48.0014 94.7654C50.4366 95.2498 52.9608 95.0012 55.2548 94.051C57.5488 93.1008 59.5094 91.4917 60.8889 89.4272C62.2684 87.3627 63.0046 84.9355 63.0046 82.4525C63.0011 79.124 61.6773 75.9329 59.3238 73.5793C56.9702 71.2257 53.779 69.902 50.4506 69.8984ZM55.3455 83.2468L49.0684 87.5924C48.9235 87.6926 48.7539 87.7513 48.5781 87.762C48.4022 87.7728 48.2268 87.7352 48.0708 87.6534C47.9147 87.5716 47.784 87.4487 47.6929 87.2979C47.6017 87.1472 47.5535 86.9743 47.5535 86.7982V78.1069C47.5535 77.9307 47.6017 77.7579 47.6929 77.6071C47.784 77.4564 47.9147 77.3334 48.0708 77.2516C48.2268 77.1698 48.4022 77.1322 48.5781 77.143C48.7539 77.1537 48.9235 77.2124 49.0684 77.3126L55.3455 81.6582C55.4739 81.7471 55.5789 81.8658 55.6515 82.0041C55.724 82.1424 55.7619 82.2963 55.7619 82.4525C55.7619 82.6087 55.724 82.7626 55.6515 82.9009C55.5789 83.0393 55.4739 83.158 55.3455 83.2468Z" fill="#181717"/>
<rect x="281" y="16" width="68" height="25" rx="5" fill="#EDEADC"/>
<path d="M290.129 33.1918C289.396 33.1889 288.766 33.0085 288.237 32.6506C287.712 32.2926 287.307 31.7741 287.023 31.0952C286.741 30.4162 286.602 29.5994 286.605 28.6449C286.605 27.6932 286.746 26.8821 287.027 26.2116C287.311 25.5412 287.716 25.0312 288.241 24.6818C288.77 24.3295 289.399 24.1534 290.129 24.1534C290.859 24.1534 291.487 24.3295 292.013 24.6818C292.541 25.0341 292.947 25.5455 293.232 26.2159C293.516 26.8835 293.656 27.6932 293.653 28.6449C293.653 29.6023 293.511 30.4205 293.227 31.0994C292.946 31.7784 292.543 32.2969 292.017 32.6548C291.491 33.0128 290.862 33.1918 290.129 33.1918ZM290.129 31.6619C290.629 31.6619 291.028 31.4105 291.327 30.9077C291.625 30.4048 291.773 29.6506 291.77 28.6449C291.77 27.983 291.702 27.4318 291.565 26.9915C291.432 26.5511 291.241 26.2202 290.994 25.9986C290.75 25.777 290.462 25.6662 290.129 25.6662C289.632 25.6662 289.234 25.9148 288.936 26.4119C288.638 26.9091 288.487 27.6534 288.484 28.6449C288.484 29.3153 288.551 29.875 288.685 30.3239C288.821 30.7699 289.013 31.1051 289.26 31.3295C289.507 31.5511 289.797 31.6619 290.129 31.6619ZM298.195 33.1193C297.559 33.1193 296.992 33.0099 296.495 32.7912C296 32.5696 295.61 32.2656 295.323 31.8793C295.039 31.4901 294.892 31.0412 294.884 30.5327H296.742C296.753 30.7457 296.823 30.9332 296.951 31.0952C297.081 31.2543 297.255 31.3778 297.471 31.4659C297.686 31.554 297.929 31.598 298.199 31.598C298.48 31.598 298.729 31.5483 298.945 31.4489C299.161 31.3494 299.33 31.2116 299.452 31.0355C299.574 30.8594 299.635 30.6562 299.635 30.4261C299.635 30.1932 299.57 29.9872 299.439 29.8082C299.311 29.6264 299.127 29.4844 298.885 29.3821C298.647 29.2798 298.363 29.2287 298.033 29.2287H297.219V27.8736H298.033C298.311 27.8736 298.557 27.8253 298.77 27.7287C298.986 27.6321 299.154 27.4986 299.273 27.3281C299.392 27.1548 299.452 26.9531 299.452 26.723C299.452 26.5043 299.4 26.3125 299.294 26.1477C299.192 25.9801 299.047 25.8494 298.86 25.7557C298.675 25.6619 298.459 25.6151 298.212 25.6151C297.962 25.6151 297.733 25.6605 297.526 25.7514C297.319 25.8395 297.152 25.9659 297.027 26.1307C296.902 26.2955 296.836 26.4886 296.827 26.7102H295.059C295.067 26.2074 295.211 25.7642 295.489 25.3807C295.767 24.9972 296.142 24.6974 296.614 24.4815C297.088 24.2628 297.624 24.1534 298.221 24.1534C298.823 24.1534 299.35 24.2628 299.801 24.4815C300.253 24.7003 300.604 24.9957 300.854 25.3679C301.107 25.7372 301.232 26.152 301.229 26.6122C301.232 27.1009 301.08 27.5085 300.773 27.8352C300.469 28.1619 300.073 28.3693 299.584 28.4574V28.5256C300.226 28.608 300.715 28.831 301.05 29.1946C301.388 29.5554 301.556 30.0071 301.553 30.5497C301.556 31.0469 301.412 31.4886 301.123 31.875C300.836 32.2614 300.439 32.5653 299.934 32.7869C299.428 33.0085 298.848 33.1193 298.195 33.1193ZM303.957 31.9858C303.676 31.9858 303.435 31.8864 303.233 31.6875C303.034 31.4886 302.935 31.2472 302.935 30.9631C302.935 30.6847 303.034 30.446 303.233 30.2472C303.435 30.0483 303.676 29.9489 303.957 29.9489C304.23 29.9489 304.469 30.0483 304.673 30.2472C304.878 30.446 304.98 30.6847 304.98 30.9631C304.98 31.1506 304.932 31.3224 304.835 31.4787C304.741 31.6321 304.618 31.7557 304.464 31.8494C304.311 31.9403 304.142 31.9858 303.957 31.9858ZM303.957 27.7031C303.676 27.7031 303.435 27.6037 303.233 27.4048C303.034 27.206 302.935 26.9645 302.935 26.6804C302.935 26.402 303.034 26.1648 303.233 25.9688C303.435 25.7699 303.676 25.6705 303.957 25.6705C304.23 25.6705 304.469 25.7699 304.673 25.9688C304.878 26.1648 304.98 26.402 304.98 26.6804C304.98 26.8707 304.932 27.044 304.835 27.2003C304.741 27.3537 304.618 27.4759 304.464 27.5668C304.311 27.6577 304.142 27.7031 303.957 27.7031ZM309.679 33.1193C309.043 33.1193 308.476 33.0099 307.979 32.7912C307.485 32.5696 307.094 32.2656 306.807 31.8793C306.523 31.4901 306.377 31.0412 306.368 30.5327H308.226C308.238 30.7457 308.307 30.9332 308.435 31.0952C308.566 31.2543 308.739 31.3778 308.955 31.4659C309.171 31.554 309.414 31.598 309.684 31.598C309.965 31.598 310.213 31.5483 310.429 31.4489C310.645 31.3494 310.814 31.2116 310.936 31.0355C311.059 30.8594 311.12 30.6562 311.12 30.4261C311.12 30.1932 311.054 29.9872 310.924 29.8082C310.796 29.6264 310.611 29.4844 310.37 29.3821C310.131 29.2798 309.847 29.2287 309.517 29.2287H308.703V27.8736H309.517C309.796 27.8736 310.042 27.8253 310.255 27.7287C310.471 27.6321 310.638 27.4986 310.757 27.3281C310.877 27.1548 310.936 26.9531 310.936 26.723C310.936 26.5043 310.884 26.3125 310.779 26.1477C310.676 25.9801 310.532 25.8494 310.344 25.7557C310.159 25.6619 309.944 25.6151 309.696 25.6151C309.446 25.6151 309.218 25.6605 309.01 25.7514C308.803 25.8395 308.637 25.9659 308.512 26.1307C308.387 26.2955 308.32 26.4886 308.311 26.7102H306.543C306.551 26.2074 306.695 25.7642 306.973 25.3807C307.252 24.9972 307.627 24.6974 308.098 24.4815C308.573 24.2628 309.108 24.1534 309.705 24.1534C310.307 24.1534 310.834 24.2628 311.286 24.4815C311.738 24.7003 312.088 24.9957 312.338 25.3679C312.591 25.7372 312.716 26.152 312.713 26.6122C312.716 27.1009 312.564 27.5085 312.257 27.8352C311.953 28.1619 311.557 28.3693 311.069 28.4574V28.5256C311.711 28.608 312.199 28.831 312.534 29.1946C312.873 29.5554 313.04 30.0071 313.037 30.5497C313.04 31.0469 312.897 31.4886 312.607 31.875C312.32 32.2614 311.924 32.5653 311.418 32.7869C310.912 33.0085 310.333 33.1193 309.679 33.1193ZM314.232 31.4659V30.0128L317.875 24.2727H319.128V26.2841H318.386L316.089 29.919V29.9872H321.267V31.4659H314.232ZM318.42 33V31.0227L318.455 30.3793V24.2727H320.185V33H318.42ZM325.325 33V24.2727H328.768C329.43 24.2727 329.994 24.3991 330.46 24.652C330.926 24.902 331.281 25.25 331.525 25.696C331.772 26.1392 331.896 26.6506 331.896 27.2301C331.896 27.8097 331.771 28.321 331.521 28.7642C331.271 29.2074 330.909 29.5526 330.434 29.7997C329.963 30.0469 329.392 30.1705 328.721 30.1705H326.527V28.6918H328.423C328.778 28.6918 329.071 28.6307 329.301 28.5085C329.534 28.3835 329.707 28.2116 329.821 27.9929C329.937 27.7713 329.995 27.517 329.995 27.2301C329.995 26.9403 329.937 26.6875 329.821 26.4716C329.707 26.2528 329.534 26.0838 329.301 25.9645C329.068 25.8423 328.772 25.7812 328.414 25.7812H327.17V33H325.325ZM333.094 24.2727H335.37L337.773 30.1364H337.876L340.279 24.2727H342.555V33H340.765V27.3196H340.692L338.434 32.9574H337.215L334.957 27.2983H334.884V33H333.094V24.2727Z" fill="black" fill-opacity="0.4"/>
<path d="M55.2273 36V21.8793H60.7984C61.8648 21.8793 62.7749 22.07 63.5287 22.4515C64.2872 22.8285 64.864 23.364 65.2593 24.0581C65.6593 24.7475 65.8592 25.5588 65.8592 26.492C65.8592 27.4297 65.657 28.2364 65.2525 28.9121C64.848 29.5832 64.2619 30.098 63.4943 30.4565C62.7312 30.815 61.8073 30.9943 60.7225 30.9943H56.9924V28.5949H60.2399C60.8098 28.5949 61.2833 28.5167 61.6602 28.3605C62.0371 28.2042 62.3175 27.9698 62.5014 27.6572C62.6899 27.3446 62.7841 26.9562 62.7841 26.492C62.7841 26.0231 62.6899 25.6278 62.5014 25.306C62.3175 24.9843 62.0348 24.7406 61.6533 24.5752C61.2764 24.4051 60.8007 24.3201 60.2261 24.3201H58.2128V36H55.2273ZM62.853 29.574L66.3625 36H63.0668L59.6331 29.574H62.853ZM70.9338 36.2C70.2581 36.2 69.656 36.0827 69.1274 35.8483C68.5988 35.6093 68.1805 35.2577 67.8725 34.7934C67.5691 34.3245 67.4174 33.7408 67.4174 33.0421C67.4174 32.4537 67.5255 31.9596 67.7415 31.5597C67.9575 31.1598 68.2517 30.838 68.6241 30.5944C68.9964 30.3508 69.4193 30.1669 69.8927 30.0428C70.3708 29.9187 70.8718 29.8314 71.3958 29.7808C72.0117 29.7165 72.5082 29.6567 72.8851 29.6015C73.262 29.5418 73.5355 29.4545 73.7056 29.3395C73.8757 29.2246 73.9607 29.0546 73.9607 28.8293V28.7879C73.9607 28.3513 73.8228 28.0134 73.547 27.7744C73.2758 27.5354 72.8897 27.4159 72.3887 27.4159C71.8601 27.4159 71.4395 27.5331 71.1269 27.7675C70.8143 27.9973 70.6075 28.2869 70.5064 28.6363L67.7898 28.4156C67.9277 27.7721 68.1989 27.2159 68.6034 26.7471C69.0079 26.2736 69.5296 25.9105 70.1685 25.6577C70.812 25.4003 71.5567 25.2716 72.4025 25.2716C72.9908 25.2716 73.5539 25.3405 74.0917 25.4784C74.6341 25.6163 75.1144 25.83 75.5327 26.1196C75.9556 26.4092 76.2889 26.7815 76.5325 27.2366C76.7761 27.6871 76.8979 28.2272 76.8979 28.8569V36H74.1124V34.5314H74.0296C73.8596 34.8623 73.632 35.1542 73.3471 35.407C73.0621 35.6553 72.7196 35.8506 72.3197 35.9931C71.9198 36.131 71.4579 36.2 70.9338 36.2ZM71.775 34.1729C72.2071 34.1729 72.5886 34.0878 72.9196 33.9177C73.2505 33.7431 73.5102 33.5086 73.6987 33.2145C73.8872 32.9203 73.9814 32.587 73.9814 32.2147V31.0908C73.8895 31.1506 73.763 31.2058 73.6022 31.2563C73.4459 31.3023 73.2689 31.346 73.0713 31.3873C72.8736 31.4241 72.6759 31.4586 72.4783 31.4907C72.2806 31.5183 72.1014 31.5436 71.9405 31.5666C71.5958 31.6172 71.2947 31.6976 71.0373 31.8079C70.7799 31.9182 70.5799 32.0676 70.4374 32.2561C70.2949 32.4399 70.2237 32.6698 70.2237 32.9456C70.2237 33.3455 70.3685 33.6511 70.658 33.8626C70.9522 34.0694 71.3246 34.1729 71.775 34.1729ZM82.1139 29.8773V36H79.1767V25.4095H81.976V27.278H82.1001C82.3345 26.662 82.7275 26.1748 83.2791 25.8163C83.8307 25.4531 84.4995 25.2716 85.2855 25.2716C86.021 25.2716 86.6622 25.4324 87.2092 25.7542C87.7562 26.076 88.1814 26.5356 88.4848 27.1332C88.7882 27.7261 88.9398 28.434 88.9398 29.2568V36H86.0026V29.7808C86.0072 29.1327 85.8417 28.6271 85.5062 28.2639C85.1706 27.8962 84.7087 27.7123 84.1203 27.7123C83.725 27.7123 83.3757 27.7974 83.0723 27.9675C82.7735 28.1375 82.5391 28.3857 82.369 28.7121C82.2035 29.0339 82.1185 29.4223 82.1139 29.8773ZM96.8879 25.4095V27.6158H90.5101V25.4095H96.8879ZM91.9581 22.8721H94.8953V32.7456C94.8953 33.0168 94.9367 33.2283 95.0194 33.3799C95.1021 33.527 95.2171 33.6305 95.3641 33.6902C95.5158 33.75 95.6905 33.7798 95.8882 33.7798C96.0261 33.7798 96.164 33.7684 96.3019 33.7454C96.4397 33.7178 96.5455 33.6971 96.619 33.6833L97.081 35.869C96.9339 35.915 96.727 35.9678 96.4604 36.0276C96.1938 36.0919 95.8698 36.131 95.4883 36.1448C94.7804 36.1724 94.1598 36.0781 93.6266 35.8621C93.098 35.6461 92.6866 35.3105 92.3925 34.8554C92.0983 34.4004 91.9535 33.8258 91.9581 33.1317V22.8721ZM106.315 36.2C105.639 36.2 105.037 36.0827 104.508 35.8483C103.98 35.6093 103.562 35.2577 103.254 34.7934C102.95 34.3245 102.799 33.7408 102.799 33.0421C102.799 32.4537 102.907 31.9596 103.123 31.5597C103.339 31.1598 103.633 30.838 104.005 30.5944C104.377 30.3508 104.8 30.1669 105.274 30.0428C105.752 29.9187 106.253 29.8314 106.777 29.7808C107.393 29.7165 107.889 29.6567 108.266 29.6015C108.643 29.5418 108.917 29.4545 109.087 29.3395C109.257 29.2246 109.342 29.0546 109.342 28.8293V28.7879C109.342 28.3513 109.204 28.0134 108.928 27.7744C108.657 27.5354 108.271 27.4159 107.77 27.4159C107.241 27.4159 106.821 27.5331 106.508 27.7675C106.195 27.9973 105.989 28.2869 105.887 28.6363L103.171 28.4156C103.309 27.7721 103.58 27.2159 103.984 26.7471C104.389 26.2736 104.911 25.9105 105.55 25.6577C106.193 25.4003 106.938 25.2716 107.784 25.2716C108.372 25.2716 108.935 25.3405 109.473 25.4784C110.015 25.6163 110.496 25.83 110.914 26.1196C111.337 26.4092 111.67 26.7815 111.914 27.2366C112.157 27.6871 112.279 28.2272 112.279 28.8569V36H109.493V34.5314H109.411C109.241 34.8623 109.013 35.1542 108.728 35.407C108.443 35.6553 108.101 35.8506 107.701 35.9931C107.301 36.131 106.839 36.2 106.315 36.2ZM107.156 34.1729C107.588 34.1729 107.97 34.0878 108.301 33.9177C108.632 33.7431 108.891 33.5086 109.08 33.2145C109.268 32.9203 109.362 32.587 109.362 32.2147V31.0908C109.271 31.1506 109.144 31.2058 108.983 31.2563C108.827 31.3023 108.65 31.346 108.452 31.3873C108.255 31.4241 108.057 31.4586 107.859 31.4907C107.662 31.5183 107.482 31.5436 107.322 31.5666C106.977 31.6172 106.676 31.6976 106.418 31.8079C106.161 31.9182 105.961 32.0676 105.819 32.2561C105.676 32.4399 105.605 32.6698 105.605 32.9456C105.605 33.3455 105.75 33.6511 106.039 33.8626C106.333 34.0694 106.706 34.1729 107.156 34.1729ZM114.613 36V21.8793H117.55V27.1883H117.64C117.769 26.9033 117.955 26.6138 118.198 26.3196C118.447 26.0208 118.768 25.7726 119.164 25.5749C119.563 25.3727 120.06 25.2716 120.653 25.2716C121.425 25.2716 122.138 25.4738 122.79 25.8783C123.443 26.2782 123.965 26.8827 124.355 27.6917C124.746 28.4961 124.941 29.505 124.941 30.7185C124.941 31.8998 124.751 32.8973 124.369 33.7109C123.992 34.5199 123.477 35.1335 122.825 35.5518C122.177 35.9655 121.45 36.1724 120.646 36.1724C120.076 36.1724 119.591 36.0781 119.191 35.8897C118.796 35.7012 118.472 35.4645 118.219 35.1795C117.966 34.8899 117.773 34.598 117.64 34.3039H117.509V36H114.613ZM117.488 30.7047C117.488 31.3345 117.575 31.8838 117.75 32.3526C117.925 32.8215 118.178 33.1869 118.509 33.4489C118.84 33.7063 119.242 33.835 119.715 33.835C120.193 33.835 120.598 33.704 120.929 33.442C121.26 33.1754 121.51 32.8077 121.68 32.3388C121.855 31.8654 121.942 31.3207 121.942 30.7047C121.942 30.0934 121.857 29.5556 121.687 29.0913C121.517 28.6271 121.267 28.2639 120.936 28.0019C120.605 27.7399 120.198 27.6089 119.715 27.6089C119.237 27.6089 118.833 27.7353 118.502 27.9881C118.175 28.241 117.925 28.5995 117.75 29.0637C117.575 29.528 117.488 30.075 117.488 30.7047ZM131.686 36.2068C130.615 36.2068 129.689 35.9793 128.908 35.5243C128.131 35.0646 127.531 34.4257 127.108 33.6075C126.685 32.7847 126.474 31.8309 126.474 30.7461C126.474 29.6521 126.685 28.696 127.108 27.8778C127.531 27.055 128.131 26.4161 128.908 25.961C129.689 25.5014 130.615 25.2716 131.686 25.2716C132.757 25.2716 133.681 25.5014 134.458 25.961C135.24 26.4161 135.842 27.055 136.265 27.8778C136.688 28.696 136.899 29.6521 136.899 30.7461C136.899 31.8309 136.688 32.7847 136.265 33.6075C135.842 34.4257 135.24 35.0646 134.458 35.5243C133.681 35.9793 132.757 36.2068 131.686 36.2068ZM131.7 33.9315C132.187 33.9315 132.594 33.7936 132.921 33.5178C133.247 33.2374 133.493 32.8559 133.658 32.3733C133.828 31.8906 133.913 31.3414 133.913 30.7254C133.913 30.1095 133.828 29.5602 133.658 29.0775C133.493 28.5949 133.247 28.2134 132.921 27.933C132.594 27.6526 132.187 27.5124 131.7 27.5124C131.208 27.5124 130.795 27.6526 130.459 27.933C130.128 28.2134 129.878 28.5949 129.708 29.0775C129.542 29.5602 129.459 30.1095 129.459 30.7254C129.459 31.3414 129.542 31.8906 129.708 32.3733C129.878 32.8559 130.128 33.2374 130.459 33.5178C130.795 33.7936 131.208 33.9315 131.7 33.9315ZM145.6 31.4907V25.4095H148.538V36H145.718V34.0763H145.607C145.368 34.6969 144.971 35.1956 144.414 35.5725C143.863 35.9494 143.189 36.1379 142.394 36.1379C141.686 36.1379 141.063 35.977 140.526 35.6553C139.988 35.3335 139.567 34.8761 139.264 34.2832C138.965 33.6902 138.813 32.98 138.809 32.1527V25.4095H141.746V31.6286C141.751 32.2538 141.918 32.7479 142.249 33.111C142.58 33.4742 143.024 33.6557 143.58 33.6557C143.934 33.6557 144.265 33.5753 144.573 33.4144C144.881 33.2489 145.129 33.0053 145.318 32.6836C145.511 32.3618 145.605 31.9642 145.6 31.4907ZM156.52 25.4095V27.6158H150.142V25.4095H156.52ZM151.59 22.8721H154.527V32.7456C154.527 33.0168 154.569 33.2283 154.652 33.3799C154.734 33.527 154.849 33.6305 154.996 33.6902C155.148 33.75 155.323 33.7798 155.52 33.7798C155.658 33.7798 155.796 33.7684 155.934 33.7454C156.072 33.7178 156.178 33.6971 156.251 33.6833L156.713 35.869C156.566 35.915 156.359 35.9678 156.093 36.0276C155.826 36.0919 155.502 36.131 155.12 36.1448C154.413 36.1724 153.792 36.0781 153.259 35.8621C152.73 35.6461 152.319 35.3105 152.025 34.8554C151.73 34.4004 151.586 33.8258 151.59 33.1317V22.8721ZM162.927 36V25.4095H165.726V27.278H165.851C166.071 26.6574 166.439 26.1679 166.954 25.8094C167.469 25.4508 168.085 25.2716 168.802 25.2716C169.528 25.2716 170.146 25.4531 170.656 25.8163C171.167 26.1748 171.507 26.662 171.677 27.278H171.787C172.003 26.6712 172.394 26.1863 172.959 25.8231C173.529 25.4554 174.203 25.2716 174.979 25.2716C175.968 25.2716 176.77 25.5864 177.386 26.2162C178.006 26.8413 178.317 27.7284 178.317 28.8776V36H175.386V29.4568C175.386 28.8684 175.23 28.4271 174.917 28.1329C174.605 27.8388 174.214 27.6917 173.745 27.6917C173.212 27.6917 172.796 27.8617 172.497 28.2019C172.198 28.5374 172.049 28.981 172.049 29.5326V36H169.201V29.3947C169.201 28.8753 169.052 28.4616 168.753 28.1536C168.459 27.8456 168.071 27.6917 167.588 27.6917C167.262 27.6917 166.968 27.7744 166.706 27.9399C166.448 28.1008 166.244 28.3283 166.092 28.6225C165.94 28.9121 165.864 29.2522 165.864 29.6429V36H162.927ZM183.657 36.2C182.981 36.2 182.379 36.0827 181.85 35.8483C181.322 35.6093 180.903 35.2577 180.595 34.7934C180.292 34.3245 180.14 33.7408 180.14 33.0421C180.14 32.4537 180.248 31.9596 180.464 31.5597C180.68 31.1598 180.975 30.838 181.347 30.5944C181.719 30.3508 182.142 30.1669 182.615 30.0428C183.094 29.9187 183.595 29.8314 184.119 29.7808C184.735 29.7165 185.231 29.6567 185.608 29.6015C185.985 29.5418 186.258 29.4545 186.428 29.3395C186.598 29.2246 186.683 29.0546 186.683 28.8293V28.7879C186.683 28.3513 186.546 28.0134 186.27 27.7744C185.999 27.5354 185.612 27.4159 185.111 27.4159C184.583 27.4159 184.162 27.5331 183.85 27.7675C183.537 27.9973 183.33 28.2869 183.229 28.6363L180.513 28.4156C180.65 27.7721 180.922 27.2159 181.326 26.7471C181.731 26.2736 182.252 25.9105 182.891 25.6577C183.535 25.4003 184.279 25.2716 185.125 25.2716C185.714 25.2716 186.277 25.3405 186.814 25.4784C187.357 25.6163 187.837 25.83 188.256 26.1196C188.678 26.4092 189.012 26.7815 189.255 27.2366C189.499 27.6871 189.621 28.2272 189.621 28.8569V36H186.835V34.5314H186.752C186.582 34.8623 186.355 35.1542 186.07 35.407C185.785 35.6553 185.442 35.8506 185.042 35.9931C184.643 36.131 184.181 36.2 183.657 36.2ZM184.498 34.1729C184.93 34.1729 185.311 34.0878 185.642 33.9177C185.973 33.7431 186.233 33.5086 186.421 33.2145C186.61 32.9203 186.704 32.587 186.704 32.2147V31.0908C186.612 31.1506 186.486 31.2058 186.325 31.2563C186.169 31.3023 185.992 31.346 185.794 31.3873C185.596 31.4241 185.399 31.4586 185.201 31.4907C185.003 31.5183 184.824 31.5436 184.663 31.5666C184.319 31.6172 184.017 31.6976 183.76 31.8079C183.503 31.9182 183.303 32.0676 183.16 32.2561C183.018 32.4399 182.946 32.6698 182.946 32.9456C182.946 33.3455 183.091 33.6511 183.381 33.8626C183.675 34.0694 184.047 34.1729 184.498 34.1729ZM197.533 25.4095V27.6158H191.155V25.4095H197.533ZM192.603 22.8721H195.54V32.7456C195.54 33.0168 195.581 33.2283 195.664 33.3799C195.747 33.527 195.862 33.6305 196.009 33.6902C196.16 33.75 196.335 33.7798 196.533 33.7798C196.671 33.7798 196.809 33.7684 196.947 33.7454C197.084 33.7178 197.19 33.6971 197.264 33.6833L197.726 35.869C197.579 35.915 197.372 35.9678 197.105 36.0276C196.838 36.0919 196.514 36.131 196.133 36.1448C195.425 36.1724 194.805 36.0781 194.271 35.8621C193.743 35.6461 193.331 35.3105 193.037 34.8554C192.743 34.4004 192.598 33.8258 192.603 33.1317V22.8721ZM202.611 29.8773V36H199.673V21.8793H202.528V27.278H202.652C202.891 26.6528 203.277 26.1633 203.81 25.8094C204.344 25.4508 205.012 25.2716 205.817 25.2716C206.552 25.2716 207.193 25.4324 207.74 25.7542C208.292 26.0714 208.72 26.5287 209.023 27.1263C209.331 27.7192 209.483 28.4294 209.478 29.2568V36H206.541V29.7808C206.545 29.1281 206.38 28.6202 206.044 28.257C205.713 27.8939 205.249 27.7123 204.652 27.7123C204.252 27.7123 203.898 27.7974 203.59 27.9675C203.286 28.1375 203.047 28.3857 202.873 28.7121C202.703 29.0339 202.615 29.4223 202.611 29.8773Z" fill="#181717"/>
<circle cx="33.5" cy="28.5" r="12.5" fill="#810100" fill-opacity="0.2"/>
<circle cx="33.5" cy="28.5" r="12" stroke="#810100" stroke-opacity="0.25"/>
<path d="M30.828 28.725V24.8621C30.828 24.0937 31.1332 23.3568 31.6766 22.8134C32.2199 22.2701 32.9568 21.9648 33.7252 21.9648C34.4936 21.9648 35.2305 22.2701 35.7739 22.8134C36.3172 23.3568 36.6224 24.0937 36.6224 24.8621V28.725C36.6224 29.4934 36.3172 30.2304 35.7739 30.7737C35.2305 31.317 34.4936 31.6223 33.7252 31.6223C32.9568 31.6223 32.2199 31.317 31.6766 30.7737C31.1332 30.2304 30.828 29.4934 30.828 28.725ZM38.5539 28.725C38.5539 28.597 38.503 28.4742 38.4125 28.3836C38.3219 28.2931 38.1991 28.2422 38.071 28.2422C37.943 28.2422 37.8202 28.2931 37.7296 28.3836C37.6391 28.4742 37.5882 28.597 37.5882 28.725C37.5882 29.7496 37.1812 30.7321 36.4567 31.4566C35.7323 32.181 34.7497 32.588 33.7252 32.588C32.7007 32.588 31.7181 32.181 30.9937 31.4566C30.2692 30.7321 29.8622 29.7496 29.8622 28.725C29.8622 28.597 29.8114 28.4742 29.7208 28.3836C29.6302 28.2931 29.5074 28.2422 29.3794 28.2422C29.2513 28.2422 29.1285 28.2931 29.0379 28.3836C28.9474 28.4742 28.8965 28.597 28.8965 28.725C28.898 29.9217 29.3431 31.0753 30.1458 31.9627C30.9485 32.8502 32.0518 33.4085 33.2423 33.5296V35.4853C33.2423 35.6133 33.2932 35.7361 33.3838 35.8267C33.4743 35.9173 33.5971 35.9681 33.7252 35.9681C33.8533 35.9681 33.9761 35.9173 34.0666 35.8267C34.1572 35.7361 34.2081 35.6133 34.2081 35.4853V33.5296C35.3986 33.4085 36.5019 32.8502 37.3046 31.9627C38.1073 31.0753 38.5525 29.9217 38.5539 28.725Z" fill="#810100"/>
<defs>
<filter id="filter0_d_1979_933" x="0" y="0" width="366" height="170" filterUnits="userSpaceOnUse" color-interpolation-filters="sRGB">
<feFlood flood-opacity="0" result="BackgroundImageFix"/>
<feColorMatrix in="SourceAlpha" type="matrix" values="0 0 0 0 0 0 0 0 0 0 0 0 0 0 0 0 0 0 127 0" result="hardAlpha"/>
<feOffset dy="2"/>
<feGaussianBlur stdDeviation="2"/>
<feComposite in2="hardAlpha" operator="out"/>
<feColorMatrix type="matrix" values="0 0 0 0 0 0 0 0 0 0 0 0 0 0 0 0 0 0 0.25 0"/>
<feBlend mode="normal" in2="BackgroundImageFix" result="effect1_dropShadow_1979_933"/>
<feBlend mode="normal" in="SourceGraphic" in2="effect1_dropShadow_1979_933" result="shape"/>
</filter>
<linearGradient id="paint0_linear_1979_933" x1="75.9023" y1="81.5067" x2="297.902" y2="81.5067" gradientUnits="userSpaceOnUse">
<stop offset="0.0528846" stop-color="#810100"/>
<stop offset="0.490663" stop-color="#181717" stop-opacity="0.8"/>
<stop offset="0.745903" stop-color="#810100"/>
</linearGradient>
</defs>
</svg>
