<svg width="358" height="136" viewBox="0 0 358 136" fill="none" xmlns="http://www.w3.org/2000/svg">
<path d="M0 25C0 11.1929 11.1929 0 25 0H333C346.807 0 358 11.1929 358 25V111C358 124.807 346.807 136 333 136H25C11.1929 136 0 124.807 0 111V25Z" fill="#DCDACD"/>
<path d="M14.6058 38V23.8793H17.5913V29.7055H23.6519V23.8793H26.6305V38H23.6519V32.1669H17.5913V38H14.6058ZM33.8218 38.2068C32.7508 38.2068 31.8246 37.9793 31.0432 37.5243C30.2664 37.0646 29.6665 36.4257 29.2436 35.6075C28.8207 34.7847 28.6093 33.8309 28.6093 32.7461C28.6093 31.6521 28.8207 30.696 29.2436 29.8778C29.6665 29.055 30.2664 28.4161 31.0432 27.961C31.8246 27.5014 32.7508 27.2716 33.8218 27.2716C34.8928 27.2716 35.8167 27.5014 36.5936 27.961C37.375 28.4161 37.9771 29.055 38.4 29.8778C38.8229 30.696 39.0344 31.6521 39.0344 32.7461C39.0344 33.8309 38.8229 34.7847 38.4 35.6075C37.9771 36.4257 37.375 37.0646 36.5936 37.5243C35.8167 37.9793 34.8928 38.2068 33.8218 38.2068ZM33.8356 35.9315C34.3228 35.9315 34.7296 35.7936 35.056 35.5178C35.3824 35.2374 35.6283 34.8559 35.7938 34.3733C35.9638 33.8906 36.0489 33.3414 36.0489 32.7254C36.0489 32.1095 35.9638 31.5602 35.7938 31.0775C35.6283 30.5949 35.3824 30.2134 35.056 29.933C34.7296 29.6526 34.3228 29.5124 33.8356 29.5124C33.3438 29.5124 32.9301 29.6526 32.5945 29.933C32.2636 30.2134 32.0131 30.5949 31.843 31.0775C31.6775 31.5602 31.5948 32.1095 31.5948 32.7254C31.5948 33.3414 31.6775 33.8906 31.843 34.3733C32.0131 34.8559 32.2636 35.2374 32.5945 35.5178C32.9301 35.7936 33.3438 35.9315 33.8356 35.9315ZM42.7679 38L39.8859 27.4095H42.8576L44.4985 34.525H44.5951L46.305 27.4095H49.2215L50.9591 34.4836H51.0487L52.6621 27.4095H55.6269L52.7517 38H49.6421L47.8219 31.3395H47.6909L45.8706 38H42.7679ZM63.5009 41.9715C63.1285 41.9715 62.7792 41.9416 62.4528 41.8818C62.1311 41.8267 61.8645 41.7554 61.653 41.6681L62.3149 39.4755C62.6597 39.5812 62.9699 39.6387 63.2457 39.6479C63.5261 39.6571 63.7675 39.5927 63.9697 39.4548C64.1766 39.3169 64.3443 39.0825 64.473 38.7515L64.6454 38.3034L60.8463 27.4095H63.9352L66.1278 35.1869H66.2381L68.4514 27.4095H71.561L67.4447 39.1446C67.2471 39.7145 66.9782 40.211 66.638 40.6338C66.3025 41.0613 65.8773 41.39 65.3625 41.6198C64.8477 41.8542 64.2271 41.9715 63.5009 41.9715ZM77.5078 38.2068C76.4368 38.2068 75.5106 37.9793 74.7292 37.5243C73.9524 37.0646 73.3525 36.4257 72.9296 35.6075C72.5067 34.7847 72.2953 33.8309 72.2953 32.7461C72.2953 31.6521 72.5067 30.696 72.9296 29.8778C73.3525 29.055 73.9524 28.4161 74.7292 27.961C75.5106 27.5014 76.4368 27.2716 77.5078 27.2716C78.5788 27.2716 79.5027 27.5014 80.2796 27.961C81.061 28.4161 81.6631 29.055 82.086 29.8778C82.5089 30.696 82.7204 31.6521 82.7204 32.7461C82.7204 33.8309 82.5089 34.7847 82.086 35.6075C81.6631 36.4257 81.061 37.0646 80.2796 37.5243C79.5027 37.9793 78.5788 38.2068 77.5078 38.2068ZM77.5216 35.9315C78.0088 35.9315 78.4156 35.7936 78.742 35.5178C79.0684 35.2374 79.3143 34.8559 79.4798 34.3733C79.6498 33.8906 79.7349 33.3414 79.7349 32.7254C79.7349 32.1095 79.6498 31.5602 79.4798 31.0775C79.3143 30.5949 79.0684 30.2134 78.742 29.933C78.4156 29.6526 78.0088 29.5124 77.5216 29.5124C77.0298 29.5124 76.6161 29.6526 76.2805 29.933C75.9496 30.2134 75.6991 30.5949 75.529 31.0775C75.3635 31.5602 75.2808 32.1095 75.2808 32.7254C75.2808 33.3414 75.3635 33.8906 75.529 34.3733C75.6991 34.8559 75.9496 35.2374 76.2805 35.5178C76.6161 35.7936 77.0298 35.9315 77.5216 35.9315ZM91.4217 33.4907V27.4095H94.3589V38H91.5389V36.0763H91.4286C91.1896 36.6969 90.792 37.1956 90.2358 37.5725C89.6842 37.9494 89.0108 38.1379 88.2156 38.1379C87.5077 38.1379 86.8849 37.977 86.3471 37.6553C85.8093 37.3335 85.3887 36.8761 85.0853 36.2832C84.7865 35.6902 84.6348 34.98 84.6302 34.1527V27.4095H87.5675V33.6286C87.5721 34.2538 87.7398 34.7479 88.0708 35.111C88.4017 35.4742 88.8453 35.6557 89.4015 35.6557C89.7554 35.6557 90.0864 35.5753 90.3944 35.4144C90.7023 35.2489 90.9506 35.0053 91.139 34.6836C91.3321 34.3618 91.4263 33.9642 91.4217 33.4907ZM106.897 27.4095V29.6158H100.361V27.4095H106.897ZM101.857 38V26.6441C101.857 25.8765 102.007 25.2399 102.305 24.7342C102.609 24.2286 103.022 23.8494 103.546 23.5966C104.07 23.3438 104.666 23.2174 105.332 23.2174C105.783 23.2174 106.194 23.2518 106.566 23.3208C106.943 23.3897 107.224 23.4518 107.407 23.5069L106.883 25.7133C106.769 25.6765 106.626 25.6421 106.456 25.6099C106.291 25.5777 106.12 25.5616 105.946 25.5616C105.514 25.5616 105.213 25.6627 105.043 25.865C104.872 26.0627 104.787 26.3407 104.787 26.6993V38H101.857ZM113.139 38.2068C112.049 38.2068 111.112 37.9862 110.326 37.5449C109.544 37.0991 108.942 36.4693 108.519 35.6557C108.096 34.8375 107.885 33.87 107.885 32.753C107.885 31.6636 108.096 30.7075 108.519 29.8847C108.942 29.0619 109.537 28.4207 110.305 27.961C111.077 27.5014 111.983 27.2716 113.022 27.2716C113.72 27.2716 114.371 27.3842 114.973 27.6094C115.58 27.83 116.108 28.1633 116.559 28.6092C117.014 29.055 117.368 29.6158 117.621 30.2915C117.873 30.9626 118 31.7486 118 32.6496V33.4563H109.057V31.636H115.235C115.235 31.2131 115.143 30.8385 114.959 30.5122C114.775 30.1858 114.52 29.9307 114.194 29.7468C113.872 29.5584 113.497 29.4641 113.07 29.4641C112.624 29.4641 112.229 29.5676 111.884 29.7744C111.544 29.9766 111.277 30.2501 111.084 30.5949C110.891 30.935 110.792 31.3143 110.788 31.7325V33.4632C110.788 33.9872 110.884 34.4399 111.077 34.8215C111.275 35.203 111.553 35.4972 111.912 35.704C112.27 35.9108 112.695 36.0143 113.187 36.0143C113.513 36.0143 113.812 35.9683 114.083 35.8764C114.355 35.7844 114.587 35.6465 114.78 35.4627C114.973 35.2788 115.12 35.0536 115.221 34.787L117.938 34.9662C117.8 35.619 117.517 36.1889 117.09 36.6762C116.667 37.1588 116.12 37.5357 115.449 37.8069C114.782 38.0735 114.012 38.2068 113.139 38.2068ZM124.743 38.2068C123.654 38.2068 122.716 37.9862 121.93 37.5449C121.148 37.0991 120.546 36.4693 120.123 35.6557C119.7 34.8375 119.489 33.87 119.489 32.753C119.489 31.6636 119.7 30.7075 120.123 29.8847C120.546 29.0619 121.142 28.4207 121.909 27.961C122.681 27.5014 123.587 27.2716 124.626 27.2716C125.324 27.2716 125.975 27.3842 126.577 27.6094C127.184 27.83 127.712 28.1633 128.163 28.6092C128.618 29.055 128.972 29.6158 129.225 30.2915C129.477 30.9626 129.604 31.7486 129.604 32.6496V33.4563H120.661V31.636H126.839C126.839 31.2131 126.747 30.8385 126.563 30.5122C126.379 30.1858 126.124 29.9307 125.798 29.7468C125.476 29.5584 125.101 29.4641 124.674 29.4641C124.228 29.4641 123.833 29.5676 123.488 29.7744C123.148 29.9766 122.881 30.2501 122.688 30.5949C122.495 30.935 122.396 31.3143 122.392 31.7325V33.4632C122.392 33.9872 122.488 34.4399 122.681 34.8215C122.879 35.203 123.157 35.4972 123.516 35.704C123.874 35.9108 124.299 36.0143 124.791 36.0143C125.118 36.0143 125.416 35.9683 125.688 35.8764C125.959 35.7844 126.191 35.6465 126.384 35.4627C126.577 35.2788 126.724 35.0536 126.825 34.787L129.542 34.9662C129.404 35.619 129.121 36.1889 128.694 36.6762C128.271 37.1588 127.724 37.5357 127.053 37.8069C126.386 38.0735 125.616 38.2068 124.743 38.2068ZM134.458 23.8793V38H131.521V23.8793H134.458ZM136.811 38V27.4095H139.748V38H136.811ZM138.286 26.0443C137.85 26.0443 137.475 25.8995 137.162 25.6099C136.854 25.3157 136.7 24.9641 136.7 24.555C136.7 24.1505 136.854 23.8034 137.162 23.5138C137.475 23.2197 137.85 23.0726 138.286 23.0726C138.723 23.0726 139.095 23.2197 139.403 23.5138C139.716 23.8034 139.872 24.1505 139.872 24.555C139.872 24.9641 139.716 25.3157 139.403 25.6099C139.095 25.8995 138.723 26.0443 138.286 26.0443ZM145.038 31.8773V38H142.101V27.4095H144.9V29.278H145.024C145.259 28.662 145.652 28.1748 146.203 27.8163C146.755 27.4531 147.424 27.2716 148.21 27.2716C148.945 27.2716 149.586 27.4324 150.133 27.7542C150.68 28.076 151.106 28.5356 151.409 29.1332C151.712 29.7261 151.864 30.434 151.864 31.2568V38H148.927V31.7808C148.931 31.1327 148.766 30.6271 148.43 30.2639C148.095 29.8962 147.633 29.7123 147.044 29.7123C146.649 29.7123 146.3 29.7974 145.996 29.9675C145.698 30.1375 145.463 30.3857 145.293 30.7121C145.128 31.0339 145.043 31.4223 145.038 31.8773ZM158.95 42.1921C157.999 42.1921 157.183 42.0611 156.503 41.7991C155.827 41.5417 155.289 41.19 154.889 40.7442C154.489 40.2983 154.23 39.7973 154.11 39.2411L156.827 38.8757C156.909 39.0871 157.04 39.2847 157.22 39.4686C157.399 39.6525 157.636 39.7996 157.93 39.9099C158.229 40.0248 158.592 40.0823 159.019 40.0823C159.658 40.0823 160.184 39.926 160.598 39.6134C161.016 39.3054 161.226 38.7883 161.226 38.0621V36.1246H161.101C160.973 36.4188 160.78 36.6969 160.522 36.9589C160.265 37.2209 159.934 37.4346 159.529 37.6001C159.125 37.7656 158.642 37.8483 158.081 37.8483C157.286 37.8483 156.562 37.6644 155.91 37.2967C155.261 36.9244 154.744 36.3567 154.358 35.5937C153.977 34.8261 153.786 33.8562 153.786 32.684C153.786 31.4843 153.981 30.4823 154.372 29.6779C154.763 28.8735 155.282 28.2713 155.93 27.8714C156.583 27.4715 157.298 27.2716 158.075 27.2716C158.668 27.2716 159.164 27.3727 159.564 27.5749C159.964 27.7726 160.286 28.0208 160.529 28.3196C160.777 28.6138 160.968 28.9033 161.101 29.1883H161.212V27.4095H164.128V38.1034C164.128 39.0044 163.908 39.7582 163.466 40.3649C163.025 40.9717 162.414 41.4268 161.632 41.7301C160.856 42.0381 159.961 42.1921 158.95 42.1921ZM159.012 35.6419C159.486 35.6419 159.886 35.5247 160.212 35.2903C160.543 35.0513 160.796 34.7111 160.97 34.2699C161.15 33.824 161.239 33.2908 161.239 32.6703C161.239 32.0497 161.152 31.5119 160.977 31.0568C160.803 30.5972 160.55 30.241 160.219 29.9881C159.888 29.7353 159.486 29.6089 159.012 29.6089C158.53 29.6089 158.123 29.7399 157.792 30.0019C157.461 30.2593 157.21 30.6179 157.04 31.0775C156.87 31.5372 156.785 32.0681 156.785 32.6703C156.785 33.2816 156.87 33.8102 157.04 34.2561C157.215 34.6973 157.466 35.0398 157.792 35.2834C158.123 35.5224 158.53 35.6419 159.012 35.6419ZM170.959 38V27.4095H173.807V29.2573H173.917C174.11 28.6 174.434 28.1035 174.889 27.768C175.345 27.4278 175.869 27.2578 176.461 27.2578C176.609 27.2578 176.767 27.267 176.937 27.2853C177.107 27.3037 177.257 27.329 177.385 27.3612V29.9675C177.248 29.9261 177.057 29.8893 176.813 29.8571C176.57 29.825 176.347 29.8089 176.144 29.8089C175.712 29.8089 175.326 29.9031 174.986 30.0916C174.65 30.2754 174.384 30.5328 174.186 30.8638C173.993 31.1947 173.897 31.5763 173.897 32.0083V38H170.959ZM178.904 38V27.4095H181.841V38H178.904ZM180.38 26.0443C179.943 26.0443 179.568 25.8995 179.256 25.6099C178.948 25.3157 178.794 24.9641 178.794 24.555C178.794 24.1505 178.948 23.8034 179.256 23.5138C179.568 23.2197 179.943 23.0726 180.38 23.0726C180.816 23.0726 181.189 23.2197 181.496 23.5138C181.809 23.8034 181.965 24.1505 181.965 24.555C181.965 24.9641 181.809 25.3157 181.496 25.6099C181.189 25.8995 180.816 26.0443 180.38 26.0443ZM188.965 42.1921C188.014 42.1921 187.198 42.0611 186.518 41.7991C185.842 41.5417 185.304 41.19 184.904 40.7442C184.504 40.2983 184.245 39.7973 184.125 39.2411L186.842 38.8757C186.924 39.0871 187.055 39.2847 187.235 39.4686C187.414 39.6525 187.651 39.7996 187.945 39.9099C188.244 40.0248 188.607 40.0823 189.034 40.0823C189.673 40.0823 190.2 39.926 190.613 39.6134C191.032 39.3054 191.241 38.7883 191.241 38.0621V36.1246H191.117C190.988 36.4188 190.795 36.6969 190.537 36.9589C190.28 37.2209 189.949 37.4346 189.545 37.6001C189.14 37.7656 188.657 37.8483 188.097 37.8483C187.301 37.8483 186.577 37.6644 185.925 37.2967C185.277 36.9244 184.759 36.3567 184.373 35.5937C183.992 34.8261 183.801 33.8562 183.801 32.684C183.801 31.4843 183.996 30.4823 184.387 29.6779C184.778 28.8735 185.297 28.2713 185.945 27.8714C186.598 27.4715 187.313 27.2716 188.09 27.2716C188.683 27.2716 189.179 27.3727 189.579 27.5749C189.979 27.7726 190.301 28.0208 190.544 28.3196C190.793 28.6138 190.983 28.9033 191.117 29.1883H191.227V27.4095H194.143V38.1034C194.143 39.0044 193.923 39.7582 193.482 40.3649C193.04 40.9717 192.429 41.4268 191.647 41.7301C190.871 42.0381 189.977 42.1921 188.965 42.1921ZM189.027 35.6419C189.501 35.6419 189.901 35.5247 190.227 35.2903C190.558 35.0513 190.811 34.7111 190.986 34.2699C191.165 33.824 191.254 33.2908 191.254 32.6703C191.254 32.0497 191.167 31.5119 190.992 31.0568C190.818 30.5972 190.565 30.241 190.234 29.9881C189.903 29.7353 189.501 29.6089 189.027 29.6089C188.545 29.6089 188.138 29.7399 187.807 30.0019C187.476 30.2593 187.226 30.6179 187.055 31.0775C186.885 31.5372 186.8 32.0681 186.8 32.6703C186.8 33.2816 186.885 33.8102 187.055 34.2561C187.23 34.6973 187.481 35.0398 187.807 35.2834C188.138 35.5224 188.545 35.6419 189.027 35.6419ZM199.418 31.8773V38H196.481V23.8793H199.335V29.278H199.459C199.698 28.6528 200.085 28.1633 200.618 27.8094C201.151 27.4508 201.82 27.2716 202.624 27.2716C203.36 27.2716 204.001 27.4324 204.548 27.7542C205.099 28.0714 205.527 28.5287 205.83 29.1263C206.138 29.7192 206.29 30.4294 206.285 31.2568V38H203.348V31.7808C203.353 31.1281 203.187 30.6202 202.852 30.257C202.521 29.8939 202.056 29.7123 201.459 29.7123C201.059 29.7123 200.705 29.7974 200.397 29.9675C200.094 30.1375 199.855 30.3857 199.68 30.7121C199.51 31.0339 199.423 31.4223 199.418 31.8773ZM214.23 27.4095V29.6158H207.852V27.4095H214.23ZM209.3 24.8721H212.237V34.7456C212.237 35.0168 212.279 35.2283 212.361 35.3799C212.444 35.527 212.559 35.6305 212.706 35.6902C212.858 35.75 213.033 35.7798 213.23 35.7798C213.368 35.7798 213.506 35.7684 213.644 35.7454C213.782 35.7178 213.888 35.6971 213.961 35.6833L214.423 37.869C214.276 37.915 214.069 37.9678 213.802 38.0276C213.536 38.0919 213.212 38.131 212.83 38.1448C212.122 38.1724 211.502 38.0781 210.969 37.8621C210.44 37.6461 210.029 37.3105 209.735 36.8554C209.44 36.4004 209.296 35.8258 209.3 35.1317V24.8721ZM223.574 31.8773V38H220.637V27.4095H223.436V29.278H223.56C223.795 28.662 224.188 28.1748 224.739 27.8163C225.291 27.4531 225.96 27.2716 226.746 27.2716C227.481 27.2716 228.123 27.4324 228.67 27.7542C229.217 28.076 229.642 28.5356 229.945 29.1332C230.249 29.7261 230.4 30.434 230.4 31.2568V38H227.463V31.7808C227.468 31.1327 227.302 30.6271 226.967 30.2639C226.631 29.8962 226.169 29.7123 225.581 29.7123C225.185 29.7123 224.836 29.7974 224.533 29.9675C224.234 30.1375 223.999 30.3857 223.829 30.7121C223.664 31.0339 223.579 31.4223 223.574 31.8773ZM237.5 38.2068C236.429 38.2068 235.503 37.9793 234.722 37.5243C233.945 37.0646 233.345 36.4257 232.922 35.6075C232.499 34.7847 232.288 33.8309 232.288 32.7461C232.288 31.6521 232.499 30.696 232.922 29.8778C233.345 29.055 233.945 28.4161 234.722 27.961C235.503 27.5014 236.429 27.2716 237.5 27.2716C238.571 27.2716 239.495 27.5014 240.272 27.961C241.053 28.4161 241.656 29.055 242.078 29.8778C242.501 30.696 242.713 31.6521 242.713 32.7461C242.713 33.8309 242.501 34.7847 242.078 35.6075C241.656 36.4257 241.053 37.0646 240.272 37.5243C239.495 37.9793 238.571 38.2068 237.5 38.2068ZM237.514 35.9315C238.001 35.9315 238.408 35.7936 238.734 35.5178C239.061 35.2374 239.307 34.8559 239.472 34.3733C239.642 33.8906 239.727 33.3414 239.727 32.7254C239.727 32.1095 239.642 31.5602 239.472 31.0775C239.307 30.5949 239.061 30.2134 238.734 29.933C238.408 29.6526 238.001 29.5124 237.514 29.5124C237.022 29.5124 236.608 29.6526 236.273 29.933C235.942 30.2134 235.691 30.5949 235.521 31.0775C235.356 31.5602 235.273 32.1095 235.273 32.7254C235.273 33.3414 235.356 33.8906 235.521 34.3733C235.691 34.8559 235.942 35.2374 236.273 35.5178C236.608 35.7936 237.022 35.9315 237.514 35.9315ZM246.446 38L243.564 27.4095H246.536L248.177 34.525H248.273L249.983 27.4095H252.9L254.637 34.4836H254.727L256.34 27.4095H259.305L256.43 38H253.321L251.5 31.3395H251.369L249.549 38H246.446ZM263.396 33.7665V33.5321C263.4 32.7277 263.472 32.0865 263.609 31.6084C263.752 31.1304 263.959 30.7443 264.23 30.4501C264.501 30.1559 264.828 29.8893 265.209 29.6503C265.494 29.4664 265.749 29.2757 265.974 29.078C266.2 28.8804 266.379 28.662 266.512 28.423C266.645 28.1794 266.712 27.9082 266.712 27.6094C266.712 27.2922 266.636 27.0141 266.485 26.7751C266.333 26.5361 266.128 26.3522 265.871 26.2235C265.618 26.0948 265.338 26.0305 265.03 26.0305C264.731 26.0305 264.448 26.0971 264.182 26.2304C263.915 26.3591 263.697 26.5522 263.527 26.8096C263.357 27.0624 263.265 27.3773 263.251 27.7542H260.438C260.461 26.8349 260.681 26.0764 261.1 25.4789C261.518 24.8767 262.072 24.4286 262.761 24.1344C263.451 23.8356 264.212 23.6862 265.044 23.6862C265.958 23.6862 266.767 23.8379 267.471 24.1413C268.174 24.4401 268.725 24.8744 269.125 25.4444C269.525 26.0144 269.725 26.7016 269.725 27.506C269.725 28.0438 269.636 28.5218 269.456 28.9401C269.282 29.3538 269.036 29.7215 268.719 30.0433C268.401 30.3605 268.027 30.6478 267.595 30.9052C267.232 31.1212 266.933 31.3464 266.698 31.5809C266.469 31.8153 266.296 32.0865 266.181 32.3945C266.071 32.7024 266.013 33.0816 266.009 33.5321V33.7665H263.396ZM264.761 38.1793C264.301 38.1793 263.908 38.0184 263.582 37.6966C263.26 37.3703 263.102 36.9796 263.106 36.5245C263.102 36.074 263.26 35.6879 263.582 35.3662C263.908 35.0444 264.301 34.8835 264.761 34.8835C265.198 34.8835 265.581 35.0444 265.912 35.3662C266.243 35.6879 266.411 36.074 266.416 36.5245C266.411 36.8279 266.331 37.106 266.174 37.3588C266.023 37.607 265.823 37.8069 265.574 37.9586C265.326 38.1057 265.055 38.1793 264.761 38.1793Z" fill="#181717"/>
<g filter="url(#filter0_d_1979_1566)">
<rect x="13.5" y="58.5" width="59" height="59" rx="9.5" fill="#DCBCBC" stroke="#181717"/>
</g>
<path d="M36.5 86.3704C35.4107 86.7775 34.2313 87 33 87C31.7687 87 30.5893 86.7775 29.5 86.3704M24.3378 82C23.487 80.5291 23 78.8214 23 77C23 71.4771 27.4771 67 33 67C38.5228 67 43 71.4771 43 77C43 78.8214 42.513 80.5291 41.6622 82" stroke="#181717" stroke-width="2" stroke-linecap="round" stroke-linejoin="round"/>
<path d="M30 80.9998C30.8356 80.372 31.8744 80 33 80C34.1256 80 35.1644 80.372 36 80.9998" stroke="#181717" stroke-width="2" stroke-linecap="round" stroke-linejoin="round"/>
<path d="M30.5 74.5H29.2071C28.7544 74.5 28.3201 74.6799 28 75M35.5 74.5H36.7929C37.2456 74.5 37.6799 74.6799 38 75" stroke="#181717" stroke-width="2" stroke-linecap="round" stroke-linejoin="round"/>
<path d="M27 78V87M39 78V87" stroke="#181717" stroke-width="2" stroke-linecap="round" stroke-linejoin="round"/>
<path d="M23.66 109L21.16 101.26V101.2H22.34L24.53 108.04H24.77L26.94 101.2H28.04V101.26L25.54 109H23.66ZM28.7977 109.06C28.571 109.06 28.3943 109 28.2677 108.88C28.141 108.753 28.0777 108.58 28.0777 108.36C28.0777 108.14 28.141 107.97 28.2677 107.85C28.3943 107.723 28.571 107.66 28.7977 107.66C29.031 107.66 29.2077 107.723 29.3277 107.85C29.4543 107.97 29.5177 108.14 29.5177 108.36C29.5177 108.58 29.4543 108.753 29.3277 108.88C29.2077 109 29.031 109.06 28.7977 109.06ZM35.9723 109.15C35.4657 109.15 35.019 109.08 34.6323 108.94C34.2523 108.8 33.929 108.607 33.6623 108.36C33.4023 108.107 33.199 107.813 33.0523 107.48C32.9123 107.147 32.829 106.787 32.8023 106.4H33.8823C33.9023 106.707 33.9923 107.003 34.1523 107.29C34.3123 107.57 34.5457 107.8 34.8523 107.98C35.1657 108.16 35.5557 108.25 36.0223 108.25C36.529 108.25 36.9257 108.14 37.2123 107.92C37.499 107.693 37.6423 107.387 37.6423 107C37.6423 106.613 37.5023 106.317 37.2223 106.11C36.949 105.903 36.6023 105.73 36.1823 105.59L35.4323 105.34C35.0523 105.213 34.689 105.067 34.3423 104.9C33.9957 104.727 33.7123 104.5 33.4923 104.22C33.2723 103.94 33.1623 103.573 33.1623 103.12C33.1623 102.68 33.269 102.307 33.4823 102C33.6957 101.693 33.9923 101.46 34.3723 101.3C34.7523 101.133 35.1923 101.05 35.6923 101.05C36.299 101.05 36.799 101.16 37.1923 101.38C37.5857 101.593 37.8823 101.877 38.0823 102.23C38.2823 102.583 38.3957 102.973 38.4223 103.4H37.3423C37.3223 103.153 37.2523 102.92 37.1323 102.7C37.019 102.48 36.8423 102.3 36.6023 102.16C36.3623 102.02 36.0457 101.95 35.6523 101.95C35.2257 101.95 34.8823 102.047 34.6223 102.24C34.369 102.427 34.2423 102.687 34.2423 103.02C34.2423 103.393 34.389 103.68 34.6823 103.88C34.9823 104.08 35.339 104.247 35.7523 104.38L36.5123 104.63C36.8923 104.75 37.249 104.897 37.5823 105.07C37.9223 105.243 38.1957 105.473 38.4023 105.76C38.6157 106.04 38.7223 106.417 38.7223 106.89C38.7223 107.61 38.4723 108.167 37.9723 108.56C37.4723 108.953 36.8057 109.15 35.9723 109.15ZM42.0692 109.15C41.5559 109.15 41.1192 109.02 40.7592 108.76C40.3992 108.5 40.1226 108.137 39.9292 107.67C39.7426 107.197 39.6492 106.64 39.6492 106C39.6492 105.36 39.7426 104.807 39.9292 104.34C40.1226 103.867 40.3992 103.5 40.7592 103.24C41.1259 102.98 41.5692 102.85 42.0892 102.85C42.5426 102.85 42.9026 102.947 43.1692 103.14C43.4426 103.327 43.6326 103.54 43.7392 103.78H43.9792V103H44.9392V109H43.9792V108.22H43.7392C43.6326 108.46 43.4426 108.677 43.1692 108.87C42.8959 109.057 42.5292 109.15 42.0692 109.15ZM42.2592 108.25C42.7592 108.25 43.1559 108.043 43.4492 107.63C43.7426 107.217 43.8892 106.673 43.8892 106C43.8892 105.327 43.7426 104.783 43.4492 104.37C43.1559 103.957 42.7592 103.75 42.2592 103.75C41.7726 103.75 41.3992 103.947 41.1392 104.34C40.8792 104.733 40.7492 105.287 40.7492 106C40.7492 106.713 40.8792 107.267 41.1392 107.66C41.3992 108.053 41.7726 108.25 42.2592 108.25ZM48.6469 109.15C48.1335 109.15 47.6969 109.02 47.3369 108.76C46.9769 108.5 46.7002 108.137 46.5069 107.67C46.3202 107.197 46.2269 106.64 46.2269 106C46.2269 105.36 46.3202 104.807 46.5069 104.34C46.7002 103.867 46.9735 103.5 47.3269 103.24C47.6869 102.98 48.1202 102.85 48.6269 102.85C49.0335 102.85 49.3635 102.93 49.6169 103.09C49.8769 103.25 50.0702 103.46 50.1969 103.72H50.4369V101H51.5169V109H50.5569V108.22H50.3169C50.2102 108.46 50.0202 108.677 49.7469 108.87C49.4735 109.057 49.1069 109.15 48.6469 109.15ZM48.8369 108.25C49.3369 108.25 49.7335 108.043 50.0269 107.63C50.3202 107.217 50.4669 106.673 50.4669 106C50.4669 105.327 50.3202 104.783 50.0269 104.37C49.7335 103.957 49.3369 103.75 48.8369 103.75C48.3502 103.75 47.9769 103.947 47.7169 104.34C47.4569 104.733 47.3269 105.287 47.3269 106C47.3269 106.713 47.4569 107.267 47.7169 107.66C47.9769 108.053 48.3502 108.25 48.8369 108.25Z" fill="black"/>
<g filter="url(#filter1_d_1979_1566)">
<rect x="81.5" y="58.5" width="59" height="59" rx="9.5" fill="#E5D4D4" stroke="#181717"/>
</g>
<path d="M92.57 109.15C92.0633 109.15 91.6167 109.08 91.23 108.94C90.85 108.8 90.5267 108.607 90.26 108.36C90 108.107 89.7967 107.813 89.65 107.48C89.51 107.147 89.4267 106.787 89.4 106.4H90.48C90.5 106.707 90.59 107.003 90.75 107.29C90.91 107.57 91.1433 107.8 91.45 107.98C91.7633 108.16 92.1533 108.25 92.62 108.25C93.1267 108.25 93.5233 108.14 93.81 107.92C94.0967 107.693 94.24 107.387 94.24 107C94.24 106.613 94.1 106.317 93.82 106.11C93.5467 105.903 93.2 105.73 92.78 105.59L92.03 105.34C91.65 105.213 91.2867 105.067 90.94 104.9C90.5933 104.727 90.31 104.5 90.09 104.22C89.87 103.94 89.76 103.573 89.76 103.12C89.76 102.68 89.8667 102.307 90.08 102C90.2933 101.693 90.59 101.46 90.97 101.3C91.35 101.133 91.79 101.05 92.29 101.05C92.8967 101.05 93.3967 101.16 93.79 101.38C94.1833 101.593 94.48 101.877 94.68 102.23C94.88 102.583 94.9933 102.973 95.02 103.4H93.94C93.92 103.153 93.85 102.92 93.73 102.7C93.6167 102.48 93.44 102.3 93.2 102.16C92.96 102.02 92.6433 101.95 92.25 101.95C91.8233 101.95 91.48 102.047 91.22 102.24C90.9667 102.427 90.84 102.687 90.84 103.02C90.84 103.393 90.9867 103.68 91.28 103.88C91.58 104.08 91.9367 104.247 92.35 104.38L93.11 104.63C93.49 104.75 93.8467 104.897 94.18 105.07C94.52 105.243 94.7933 105.473 95 105.76C95.2133 106.04 95.32 106.417 95.32 106.89C95.32 107.61 95.07 108.167 94.57 108.56C94.07 108.953 93.4033 109.15 92.57 109.15ZM98.6669 109.15C98.1535 109.15 97.7169 109.02 97.3569 108.76C96.9969 108.5 96.7202 108.137 96.5269 107.67C96.3402 107.197 96.2469 106.64 96.2469 106C96.2469 105.36 96.3402 104.807 96.5269 104.34C96.7202 103.867 96.9969 103.5 97.3569 103.24C97.7235 102.98 98.1669 102.85 98.6869 102.85C99.1402 102.85 99.5002 102.947 99.7669 103.14C100.04 103.327 100.23 103.54 100.337 103.78H100.577V103H101.537V109H100.577V108.22H100.337C100.23 108.46 100.04 108.677 99.7669 108.87C99.4935 109.057 99.1269 109.15 98.6669 109.15ZM98.8569 108.25C99.3569 108.25 99.7535 108.043 100.047 107.63C100.34 107.217 100.487 106.673 100.487 106C100.487 105.327 100.34 104.783 100.047 104.37C99.7535 103.957 99.3569 103.75 98.8569 103.75C98.3702 103.75 97.9969 103.947 97.7369 104.34C97.4769 104.733 97.3469 105.287 97.3469 106C97.3469 106.713 97.4769 107.267 97.7369 107.66C97.9969 108.053 98.3702 108.25 98.8569 108.25ZM105.245 109.15C104.731 109.15 104.295 109.02 103.935 108.76C103.575 108.5 103.298 108.137 103.105 107.67C102.918 107.197 102.825 106.64 102.825 106C102.825 105.36 102.918 104.807 103.105 104.34C103.298 103.867 103.571 103.5 103.925 103.24C104.285 102.98 104.718 102.85 105.225 102.85C105.631 102.85 105.961 102.93 106.215 103.09C106.475 103.25 106.668 103.46 106.795 103.72H107.035V101H108.115V109H107.155V108.22H106.915C106.808 108.46 106.618 108.677 106.345 108.87C106.071 109.057 105.705 109.15 105.245 109.15ZM105.435 108.25C105.935 108.25 106.331 108.043 106.625 107.63C106.918 107.217 107.065 106.673 107.065 106C107.065 105.327 106.918 104.783 106.625 104.37C106.331 103.957 105.935 103.75 105.435 103.75C104.948 103.75 104.575 103.947 104.315 104.34C104.055 104.733 103.925 105.287 103.925 106C103.925 106.713 104.055 107.267 104.315 107.66C104.575 108.053 104.948 108.25 105.435 108.25Z" fill="black"/>
<path d="M101 87C106.523 87 111 82.5228 111 77C111 71.4772 106.523 67 101 67C95.4772 67 91 71.4772 91 77C91 82.5228 95.4772 87 101 87Z" stroke="#181717" stroke-width="2" stroke-linecap="round" stroke-linejoin="round"/>
<path d="M105 81C105 81 103.5 79 101 79C98.5 79 97 81 97 81" stroke="#181717" stroke-width="2" stroke-linecap="round" stroke-linejoin="round"/>
<path d="M98 74H98.01" stroke="#181717" stroke-width="2" stroke-linecap="round" stroke-linejoin="round"/>
<path d="M104 74H104.01" stroke="#181717" stroke-width="2" stroke-linecap="round" stroke-linejoin="round"/>
<g filter="url(#filter2_d_1979_1566)">
<rect x="149.5" y="58.5" width="59" height="59" rx="9.5" fill="#E5E3D4" stroke="#181717"/>
</g>
<path d="M157.9 109V101.2H159.94L163.04 108.11H163.28V101.2H164.3V109H162.26L159.16 102.09H158.92V109H157.9ZM168.353 109.15C167.44 109.15 166.76 108.867 166.313 108.3C165.873 107.727 165.653 106.96 165.653 106C165.653 105.04 165.873 104.277 166.313 103.71C166.76 103.137 167.44 102.85 168.353 102.85C169.266 102.85 169.943 103.137 170.383 103.71C170.83 104.277 171.053 105.04 171.053 106C171.053 106.96 170.83 107.727 170.383 108.3C169.943 108.867 169.266 109.15 168.353 109.15ZM168.353 108.27C168.906 108.27 169.31 108.067 169.563 107.66C169.823 107.253 169.953 106.7 169.953 106C169.953 105.3 169.823 104.747 169.563 104.34C169.31 103.933 168.906 103.73 168.353 103.73C167.8 103.73 167.393 103.933 167.133 104.34C166.88 104.747 166.753 105.3 166.753 106C166.753 106.7 166.88 107.253 167.133 107.66C167.393 108.067 167.8 108.27 168.353 108.27ZM172.388 109V103H173.348V104.02H173.588C173.628 103.853 173.698 103.687 173.798 103.52C173.898 103.353 174.058 103.217 174.278 103.11C174.498 102.997 174.808 102.94 175.208 102.94H175.408V103.96H175.108C174.508 103.96 174.084 104.117 173.838 104.43C173.591 104.737 173.468 105.22 173.468 105.88V109H172.388ZM176.563 109V103H177.523V103.91H177.763C177.856 103.57 178.033 103.31 178.293 103.13C178.56 102.943 178.896 102.85 179.303 102.85C179.736 102.85 180.09 102.947 180.363 103.14C180.636 103.327 180.836 103.583 180.963 103.91H181.203C181.316 103.57 181.51 103.31 181.783 103.13C182.063 102.943 182.416 102.85 182.843 102.85C183.503 102.85 183.98 103.067 184.273 103.5C184.573 103.927 184.723 104.477 184.723 105.15V109H183.643V105.38C183.643 104.86 183.56 104.463 183.393 104.19C183.226 103.91 182.96 103.77 182.593 103.77C182.146 103.77 181.8 103.963 181.553 104.35C181.306 104.73 181.183 105.203 181.183 105.77V109H180.103V105.38C180.103 104.86 180.02 104.463 179.853 104.19C179.686 103.91 179.42 103.77 179.053 103.77C178.606 103.77 178.26 103.963 178.013 104.35C177.766 104.73 177.643 105.203 177.643 105.77V109H176.563ZM188.37 109.15C187.857 109.15 187.42 109.02 187.06 108.76C186.7 108.5 186.423 108.137 186.23 107.67C186.043 107.197 185.95 106.64 185.95 106C185.95 105.36 186.043 104.807 186.23 104.34C186.423 103.867 186.7 103.5 187.06 103.24C187.427 102.98 187.87 102.85 188.39 102.85C188.843 102.85 189.203 102.947 189.47 103.14C189.743 103.327 189.933 103.54 190.04 103.78H190.28V103H191.24V109H190.28V108.22H190.04C189.933 108.46 189.743 108.677 189.47 108.87C189.197 109.057 188.83 109.15 188.37 109.15ZM188.56 108.25C189.06 108.25 189.457 108.043 189.75 107.63C190.043 107.217 190.19 106.673 190.19 106C190.19 105.327 190.043 104.783 189.75 104.37C189.457 103.957 189.06 103.75 188.56 103.75C188.073 103.75 187.7 103.947 187.44 104.34C187.18 104.733 187.05 105.287 187.05 106C187.05 106.713 187.18 107.267 187.44 107.66C187.7 108.053 188.073 108.25 188.56 108.25ZM193.398 109C193.251 108.82 193.131 108.603 193.038 108.35C192.951 108.097 192.908 107.717 192.908 107.21V101H193.988V107.07C193.988 107.603 194.044 108.003 194.158 108.27C194.278 108.537 194.421 108.76 194.588 108.94V109H193.398Z" fill="black"/>
<path d="M169 87C174.523 87 179 82.5228 179 77C179 71.4772 174.523 67 169 67C163.477 67 159 71.4772 159 77C159 82.5228 163.477 87 169 87Z" stroke="#181717" stroke-width="2" stroke-linecap="round" stroke-linejoin="round"/>
<path d="M165 80H173" stroke="#181717" stroke-width="2" stroke-linecap="round" stroke-linejoin="round"/>
<path d="M166 74H166.01" stroke="#181717" stroke-width="2" stroke-linecap="round" stroke-linejoin="round"/>
<path d="M172 74H172.01" stroke="#181717" stroke-width="2" stroke-linecap="round" stroke-linejoin="round"/>
<g filter="url(#filter3_d_1979_1566)">
<rect x="217.5" y="58.5" width="59" height="59" rx="9.5" fill="#D4E5D5" stroke="#181717"/>
</g>
<path d="M225.9 109V101.2H227.02V104.33H230.98V101.2H232.1V109H230.98V105.27H227.02V109H225.9ZM235.874 109.15C235.361 109.15 234.924 109.02 234.564 108.76C234.204 108.5 233.927 108.137 233.734 107.67C233.547 107.197 233.454 106.64 233.454 106C233.454 105.36 233.547 104.807 233.734 104.34C233.927 103.867 234.204 103.5 234.564 103.24C234.931 102.98 235.374 102.85 235.894 102.85C236.347 102.85 236.707 102.947 236.974 103.14C237.247 103.327 237.437 103.54 237.544 103.78H237.784V103H238.744V109H237.784V108.22H237.544C237.437 108.46 237.247 108.677 236.974 108.87C236.701 109.057 236.334 109.15 235.874 109.15ZM236.064 108.25C236.564 108.25 236.961 108.043 237.254 107.63C237.547 107.217 237.694 106.673 237.694 106C237.694 105.327 237.547 104.783 237.254 104.37C236.961 103.957 236.564 103.75 236.064 103.75C235.577 103.75 235.204 103.947 234.944 104.34C234.684 104.733 234.554 105.287 234.554 106C234.554 106.713 234.684 107.267 234.944 107.66C235.204 108.053 235.577 108.25 236.064 108.25ZM240.462 111V103H241.422V103.78H241.662C241.768 103.54 241.958 103.327 242.232 103.14C242.505 102.947 242.872 102.85 243.332 102.85C243.845 102.85 244.282 102.98 244.642 103.24C245.002 103.493 245.275 103.857 245.462 104.33C245.655 104.803 245.752 105.36 245.752 106C245.752 106.633 245.655 107.187 245.462 107.66C245.275 108.133 245.002 108.5 244.642 108.76C244.288 109.02 243.858 109.15 243.352 109.15C242.945 109.15 242.615 109.07 242.362 108.91C242.108 108.75 241.915 108.54 241.782 108.28H241.542V111H240.462ZM243.142 108.25C243.628 108.25 244.002 108.053 244.262 107.66C244.522 107.267 244.652 106.713 244.652 106C244.652 105.287 244.522 104.733 244.262 104.34C244.002 103.947 243.628 103.75 243.142 103.75C242.642 103.75 242.245 103.957 241.952 104.37C241.658 104.783 241.512 105.327 241.512 106C241.512 106.673 241.658 107.217 241.952 107.63C242.245 108.043 242.642 108.25 243.142 108.25ZM247.059 111V103H248.019V103.78H248.259C248.366 103.54 248.556 103.327 248.829 103.14C249.103 102.947 249.469 102.85 249.929 102.85C250.443 102.85 250.879 102.98 251.239 103.24C251.599 103.493 251.873 103.857 252.059 104.33C252.253 104.803 252.349 105.36 252.349 106C252.349 106.633 252.253 107.187 252.059 107.66C251.873 108.133 251.599 108.5 251.239 108.76C250.886 109.02 250.456 109.15 249.949 109.15C249.543 109.15 249.213 109.07 248.959 108.91C248.706 108.75 248.513 108.54 248.379 108.28H248.139V111H247.059ZM249.739 108.25C250.226 108.25 250.599 108.053 250.859 107.66C251.119 107.267 251.249 106.713 251.249 106C251.249 105.287 251.119 104.733 250.859 104.34C250.599 103.947 250.226 103.75 249.739 103.75C249.239 103.75 248.843 103.957 248.549 104.37C248.256 104.783 248.109 105.327 248.109 106C248.109 106.673 248.256 107.217 248.549 107.63C248.843 108.043 249.239 108.25 249.739 108.25ZM253.841 111V110.94C254.035 110.647 254.238 110.3 254.451 109.9C254.665 109.507 254.858 109.103 255.031 108.69L252.871 103.06V103H253.951L255.071 106C255.138 106.173 255.201 106.357 255.261 106.55C255.328 106.737 255.395 106.967 255.461 107.24H255.701C255.768 106.967 255.831 106.737 255.891 106.55C255.958 106.357 256.025 106.173 256.091 106L257.211 103H258.211V103.06L256.151 108.46C255.951 108.987 255.745 109.473 255.531 109.92C255.325 110.367 255.135 110.727 254.961 111H253.841Z" fill="black"/>
<path d="M237 87C242.523 87 247 82.5228 247 77C247 71.4772 242.523 67 237 67C231.477 67 227 71.4772 227 77C227 82.5228 231.477 87 237 87Z" stroke="#181717" stroke-width="2" stroke-linecap="round" stroke-linejoin="round"/>
<path d="M233 79C233 79 234.5 81 237 81C239.5 81 241 79 241 79" stroke="#181717" stroke-width="2" stroke-linecap="round" stroke-linejoin="round"/>
<path d="M234 74H234.01" stroke="#181717" stroke-width="2" stroke-linecap="round" stroke-linejoin="round"/>
<path d="M240 74H240.01" stroke="#181717" stroke-width="2" stroke-linecap="round" stroke-linejoin="round"/>
<g filter="url(#filter4_d_1979_1566)">
<rect x="285.5" y="58.5" width="59" height="59" rx="9.5" fill="#BCDCBE" stroke="#181717"/>
</g>
<path d="M295.66 109L293.16 101.26V101.2H294.34L296.53 108.04H296.77L298.94 101.2H300.04V101.26L297.54 109H295.66ZM300.798 109.06C300.571 109.06 300.394 109 300.268 108.88C300.141 108.753 300.078 108.58 300.078 108.36C300.078 108.14 300.141 107.97 300.268 107.85C300.394 107.723 300.571 107.66 300.798 107.66C301.031 107.66 301.208 107.723 301.328 107.85C301.454 107.97 301.518 108.14 301.518 108.36C301.518 108.58 301.454 108.753 301.328 108.88C301.208 109 301.031 109.06 300.798 109.06ZM305.302 109V101.2H306.422V104.33H310.382V101.2H311.502V109H310.382V105.27H306.422V109H305.302ZM315.276 109.15C314.763 109.15 314.326 109.02 313.966 108.76C313.606 108.5 313.33 108.137 313.136 107.67C312.95 107.197 312.856 106.64 312.856 106C312.856 105.36 312.95 104.807 313.136 104.34C313.33 103.867 313.606 103.5 313.966 103.24C314.333 102.98 314.776 102.85 315.296 102.85C315.75 102.85 316.11 102.947 316.376 103.14C316.65 103.327 316.84 103.54 316.946 103.78H317.186V103H318.146V109H317.186V108.22H316.946C316.84 108.46 316.65 108.677 316.376 108.87C316.103 109.057 315.736 109.15 315.276 109.15ZM315.466 108.25C315.966 108.25 316.363 108.043 316.656 107.63C316.95 107.217 317.096 106.673 317.096 106C317.096 105.327 316.95 104.783 316.656 104.37C316.363 103.957 315.966 103.75 315.466 103.75C314.98 103.75 314.606 103.947 314.346 104.34C314.086 104.733 313.956 105.287 313.956 106C313.956 106.713 314.086 107.267 314.346 107.66C314.606 108.053 314.98 108.25 315.466 108.25ZM319.864 111V103H320.824V103.78H321.064C321.171 103.54 321.361 103.327 321.634 103.14C321.907 102.947 322.274 102.85 322.734 102.85C323.247 102.85 323.684 102.98 324.044 103.24C324.404 103.493 324.677 103.857 324.864 104.33C325.057 104.803 325.154 105.36 325.154 106C325.154 106.633 325.057 107.187 324.864 107.66C324.677 108.133 324.404 108.5 324.044 108.76C323.691 109.02 323.261 109.15 322.754 109.15C322.347 109.15 322.017 109.07 321.764 108.91C321.511 108.75 321.317 108.54 321.184 108.28H320.944V111H319.864ZM322.544 108.25C323.031 108.25 323.404 108.053 323.664 107.66C323.924 107.267 324.054 106.713 324.054 106C324.054 105.287 323.924 104.733 323.664 104.34C323.404 103.947 323.031 103.75 322.544 103.75C322.044 103.75 321.647 103.957 321.354 104.37C321.061 104.783 320.914 105.327 320.914 106C320.914 106.673 321.061 107.217 321.354 107.63C321.647 108.043 322.044 108.25 322.544 108.25ZM326.462 111V103H327.422V103.78H327.662C327.768 103.54 327.958 103.327 328.232 103.14C328.505 102.947 328.872 102.85 329.332 102.85C329.845 102.85 330.282 102.98 330.642 103.24C331.002 103.493 331.275 103.857 331.462 104.33C331.655 104.803 331.752 105.36 331.752 106C331.752 106.633 331.655 107.187 331.462 107.66C331.275 108.133 331.002 108.5 330.642 108.76C330.288 109.02 329.858 109.15 329.352 109.15C328.945 109.15 328.615 109.07 328.362 108.91C328.108 108.75 327.915 108.54 327.782 108.28H327.542V111H326.462ZM329.142 108.25C329.628 108.25 330.002 108.053 330.262 107.66C330.522 107.267 330.652 106.713 330.652 106C330.652 105.287 330.522 104.733 330.262 104.34C330.002 103.947 329.628 103.75 329.142 103.75C328.642 103.75 328.245 103.957 327.952 104.37C327.658 104.783 327.512 105.327 327.512 106C327.512 106.673 327.658 107.217 327.952 107.63C328.245 108.043 328.642 108.25 329.142 108.25ZM333.244 111V110.94C333.437 110.647 333.64 110.3 333.854 109.9C334.067 109.507 334.26 109.103 334.434 108.69L332.274 103.06V103H333.354L334.474 106C334.54 106.173 334.604 106.357 334.664 106.55C334.73 106.737 334.797 106.967 334.864 107.24H335.104C335.17 106.967 335.234 106.737 335.294 106.55C335.36 106.357 335.427 106.173 335.494 106L336.614 103H337.614V103.06L335.554 108.46C335.354 108.987 335.147 109.473 334.934 109.92C334.727 110.367 334.537 110.727 334.364 111H333.244Z" fill="black"/>
<path d="M305 87C310.523 87 315 82.5228 315 77C315 71.4772 310.523 67 305 67C299.477 67 295 71.4772 295 77C295 82.5228 299.477 87 305 87Z" stroke="#181717" stroke-width="2" stroke-linecap="round" stroke-linejoin="round"/>
<path d="M311 78C310.761 79.4124 310.025 80.6929 308.925 81.6099C307.824 82.5269 306.432 83.02 305 83C303.568 83.02 302.176 82.5269 301.075 81.6099C299.975 80.6929 299.239 79.4124 299 78H311Z" stroke="#181717" stroke-width="2" stroke-linecap="round" stroke-linejoin="round"/>
<path d="M302 74H302.01" stroke="#181717" stroke-width="2" stroke-linecap="round" stroke-linejoin="round"/>
<path d="M308 74H308.01" stroke="#181717" stroke-width="2" stroke-linecap="round" stroke-linejoin="round"/>
<defs>
<filter id="filter0_d_1979_1566" x="11" y="56" width="68" height="68" filterUnits="userSpaceOnUse" color-interpolation-filters="sRGB">
<feFlood flood-opacity="0" result="BackgroundImageFix"/>
<feColorMatrix in="SourceAlpha" type="matrix" values="0 0 0 0 0 0 0 0 0 0 0 0 0 0 0 0 0 0 127 0" result="hardAlpha"/>
<feOffset dx="2" dy="2"/>
<feGaussianBlur stdDeviation="2"/>
<feComposite in2="hardAlpha" operator="out"/>
<feColorMatrix type="matrix" values="0 0 0 0 0 0 0 0 0 0 0 0 0 0 0 0 0 0 0.25 0"/>
<feBlend mode="normal" in2="BackgroundImageFix" result="effect1_dropShadow_1979_1566"/>
<feBlend mode="normal" in="SourceGraphic" in2="effect1_dropShadow_1979_1566" result="shape"/>
</filter>
<filter id="filter1_d_1979_1566" x="79" y="56" width="68" height="68" filterUnits="userSpaceOnUse" color-interpolation-filters="sRGB">
<feFlood flood-opacity="0" result="BackgroundImageFix"/>
<feColorMatrix in="SourceAlpha" type="matrix" values="0 0 0 0 0 0 0 0 0 0 0 0 0 0 0 0 0 0 127 0" result="hardAlpha"/>
<feOffset dx="2" dy="2"/>
<feGaussianBlur stdDeviation="2"/>
<feComposite in2="hardAlpha" operator="out"/>
<feColorMatrix type="matrix" values="0 0 0 0 0 0 0 0 0 0 0 0 0 0 0 0 0 0 0.25 0"/>
<feBlend mode="normal" in2="BackgroundImageFix" result="effect1_dropShadow_1979_1566"/>
<feBlend mode="normal" in="SourceGraphic" in2="effect1_dropShadow_1979_1566" result="shape"/>
</filter>
<filter id="filter2_d_1979_1566" x="147" y="56" width="68" height="68" filterUnits="userSpaceOnUse" color-interpolation-filters="sRGB">
<feFlood flood-opacity="0" result="BackgroundImageFix"/>
<feColorMatrix in="SourceAlpha" type="matrix" values="0 0 0 0 0 0 0 0 0 0 0 0 0 0 0 0 0 0 127 0" result="hardAlpha"/>
<feOffset dx="2" dy="2"/>
<feGaussianBlur stdDeviation="2"/>
<feComposite in2="hardAlpha" operator="out"/>
<feColorMatrix type="matrix" values="0 0 0 0 0 0 0 0 0 0 0 0 0 0 0 0 0 0 0.25 0"/>
<feBlend mode="normal" in2="BackgroundImageFix" result="effect1_dropShadow_1979_1566"/>
<feBlend mode="normal" in="SourceGraphic" in2="effect1_dropShadow_1979_1566" result="shape"/>
</filter>
<filter id="filter3_d_1979_1566" x="215" y="56" width="68" height="68" filterUnits="userSpaceOnUse" color-interpolation-filters="sRGB">
<feFlood flood-opacity="0" result="BackgroundImageFix"/>
<feColorMatrix in="SourceAlpha" type="matrix" values="0 0 0 0 0 0 0 0 0 0 0 0 0 0 0 0 0 0 127 0" result="hardAlpha"/>
<feOffset dx="2" dy="2"/>
<feGaussianBlur stdDeviation="2"/>
<feComposite in2="hardAlpha" operator="out"/>
<feColorMatrix type="matrix" values="0 0 0 0 0 0 0 0 0 0 0 0 0 0 0 0 0 0 0.25 0"/>
<feBlend mode="normal" in2="BackgroundImageFix" result="effect1_dropShadow_1979_1566"/>
<feBlend mode="normal" in="SourceGraphic" in2="effect1_dropShadow_1979_1566" result="shape"/>
</filter>
<filter id="filter4_d_1979_1566" x="283" y="56" width="68" height="68" filterUnits="userSpaceOnUse" color-interpolation-filters="sRGB">
<feFlood flood-opacity="0" result="BackgroundImageFix"/>
<feColorMatrix in="SourceAlpha" type="matrix" values="0 0 0 0 0 0 0 0 0 0 0 0 0 0 0 0 0 0 127 0" result="hardAlpha"/>
<feOffset dx="2" dy="2"/>
<feGaussianBlur stdDeviation="2"/>
<feComposite in2="hardAlpha" operator="out"/>
<feColorMatrix type="matrix" values="0 0 0 0 0 0 0 0 0 0 0 0 0 0 0 0 0 0 0.25 0"/>
<feBlend mode="normal" in2="BackgroundImageFix" result="effect1_dropShadow_1979_1566"/>
<feBlend mode="normal" in="SourceGraphic" in2="effect1_dropShadow_1979_1566" result="shape"/>
</filter>
</defs>
</svg>
