<svg width="366" height="312" viewBox="0 0 366 312" fill="none" xmlns="http://www.w3.org/2000/svg">
<g filter="url(#filter0_d_2355_2084)">
<rect x="191" y="2" width="171" height="144" rx="20" fill="#FDFBF7"/>
</g>
<circle cx="329.36" cy="38.36" r="19.36" fill="#810100" fill-opacity="0.2"/>
<path d="M339.441 36.113C339.441 42.3666 330.169 47.4283 329.774 47.6374C329.67 47.6934 329.553 47.7227 329.435 47.7227C329.317 47.7227 329.201 47.6934 329.097 47.6374C328.797 47.4766 323.419 44.5383 320.817 40.411C320.784 40.3569 320.765 40.2949 320.763 40.2313C320.762 40.1677 320.777 40.1048 320.808 40.0491C320.839 39.9935 320.884 39.9471 320.939 39.9148C320.994 39.8824 321.056 39.8653 321.12 39.8652H324.433C324.55 39.8652 324.666 39.8362 324.77 39.7808C324.874 39.7253 324.962 39.645 325.027 39.5471L325.862 38.2964L328.126 41.6912C328.212 41.8213 328.339 41.9193 328.487 41.9703C328.635 42.0213 328.795 42.0224 328.944 41.9735C329.101 41.9201 329.236 41.8149 329.326 41.6751L330.532 39.8652H332.294C332.392 39.8654 332.489 39.8454 332.579 39.8066C332.669 39.7678 332.75 39.7108 332.817 39.6394C332.884 39.5679 332.936 39.4834 332.969 39.3912C333.002 39.2989 333.015 39.2009 333.009 39.1031C332.993 38.9194 332.908 38.7486 332.771 38.6248C332.635 38.501 332.456 38.4335 332.272 38.4358H330.15C330.032 38.4357 329.916 38.4647 329.813 38.5202C329.709 38.5757 329.62 38.6559 329.555 38.7538L328.721 40.0045L326.457 36.6098C326.37 36.4795 326.243 36.3813 326.095 36.3303C325.947 36.2793 325.786 36.2783 325.638 36.3275C325.481 36.3811 325.346 36.4862 325.256 36.6258L324.05 38.4358H320.102C320.026 38.436 319.952 38.4117 319.89 38.3666C319.828 38.3214 319.783 38.2577 319.76 38.1847C319.545 37.5152 319.433 36.8165 319.43 36.113C319.431 34.6446 320.015 33.2367 321.054 32.1983C322.092 31.16 323.5 30.5759 324.969 30.5742C326.813 30.5742 328.428 31.3675 329.435 32.7085C330.442 31.3675 332.057 30.5742 333.902 30.5742C335.371 30.5759 336.778 31.16 337.817 32.1983C338.855 33.2367 339.439 34.6446 339.441 36.113Z" fill="#800000"/>
<path d="M207.885 104V76.5062H221.986V81.2194H213.266V87.7786H221.043V92.3348H213.266V99.4439H222.143V104H207.885ZM233.707 83.9295H236.496L237.478 85.3042C238.028 84.8067 238.551 84.4532 239.049 84.2437C239.572 84.0342 240.345 83.9295 241.366 83.9295H245.726C246.878 85.3958 247.663 86.8622 248.082 88.3285C248.501 89.7949 248.711 91.6278 248.711 93.8273V104H243.487V93.4345C243.487 91.0255 243.12 89.2319 242.387 88.0536H238.617C239.193 89.1795 239.481 90.7113 239.481 92.649V104H234.257V93.4345C234.257 90.947 233.917 89.1533 233.236 88.0536H230.211V104H224.988V83.9295H229.072L229.779 85.3435C230.355 84.8198 230.892 84.4532 231.39 84.2437C231.913 84.0342 232.686 83.9295 233.707 83.9295ZM263.854 104H255.292C252.673 101.565 251.364 98.2394 251.364 94.0237C251.364 91.9027 251.652 90.0567 252.228 88.4856C252.83 86.9146 253.773 85.3958 255.056 83.9295H264.247C265.608 85.5006 266.538 87.0324 267.035 88.5249C267.533 89.9912 267.782 91.8242 267.782 94.0237C267.782 98.2394 266.472 101.565 263.854 104ZM258.08 99.8759H261.065C262.008 98.043 262.479 95.9613 262.479 93.6309C262.479 91.3005 261.995 89.4414 261.026 88.0536H258.08C257.138 89.389 256.666 91.2874 256.666 93.7487C256.666 96.1839 257.138 98.2263 258.08 99.8759ZM271.388 95.2413V88.0536H268.678V83.9295H271.388V78.47H276.612V83.9295H279.833V88.0536H276.612V96.4981C276.612 98.0954 276.887 99.2213 277.437 99.8759H279.833V104H274.255C272.867 102.717 272.03 101.329 271.742 99.8366C271.506 98.5798 271.388 97.048 271.388 95.2413ZM282.445 104V83.9295H287.63V104H282.445ZM282.445 76.5062H287.63V81.8086H282.445V76.5062ZM302.939 104H294.377C291.758 101.565 290.449 98.2394 290.449 94.0237C290.449 91.9027 290.737 90.0567 291.313 88.4856C291.915 86.9146 292.858 85.3958 294.141 83.9295H303.332C304.693 85.5006 305.623 87.0324 306.12 88.5249C306.618 89.9912 306.867 91.8242 306.867 94.0237C306.867 98.2394 305.557 101.565 302.939 104ZM297.165 99.8759H300.15C301.093 98.043 301.564 95.9613 301.564 93.6309C301.564 91.3005 301.08 89.4414 300.111 88.0536H297.165C296.223 89.389 295.751 91.2874 295.751 93.7487C295.751 96.1839 296.223 98.2263 297.165 99.8759ZM318.398 83.9295H322.561C323.713 85.3958 324.499 86.8622 324.918 88.3285C325.337 89.7949 325.546 91.6278 325.546 93.8273V104H320.322V93.4345C320.322 90.947 319.982 89.1533 319.301 88.0536H314.902V104H309.678V83.9295H313.763L314.47 85.3435C315.046 84.8198 315.583 84.4532 316.081 84.2437C316.604 84.0342 317.377 83.9295 318.398 83.9295ZM330.744 83.9295H339.424V88.0536H333.297L337.028 93.5916C338.704 95.9744 339.633 97.611 339.817 98.5012C339.921 98.9202 339.974 99.3522 339.974 99.7974C339.974 101.656 339.28 103.057 337.892 104H327.876V99.8759H335.064L330.862 93.7095C330.678 93.4214 330.39 93.0156 329.997 92.4919C329.631 91.9682 329.343 91.5492 329.133 91.235C328.924 90.8946 328.78 90.6459 328.701 90.4888C328.623 90.3316 328.518 90.1353 328.387 89.8996C328.256 89.6378 328.165 89.4152 328.112 89.2319C328.007 88.7344 327.955 88.3285 327.955 88.0143C327.955 86.1028 328.885 84.7412 330.744 83.9295Z" fill="black"/>
<path d="M212.709 120.058C212.638 119.828 212.54 119.622 212.415 119.44C212.292 119.256 212.145 119.098 211.971 118.967C211.801 118.837 211.605 118.739 211.383 118.673C211.162 118.605 210.92 118.571 210.659 118.571C210.19 118.571 209.772 118.689 209.406 118.925C209.039 119.161 208.751 119.507 208.54 119.965C208.333 120.419 208.229 120.973 208.229 121.627C208.229 122.286 208.333 122.845 208.54 123.302C208.748 123.759 209.036 124.108 209.406 124.346C209.775 124.582 210.204 124.7 210.693 124.7C211.136 124.7 211.52 124.615 211.844 124.444C212.17 124.274 212.422 124.032 212.598 123.72C212.774 123.404 212.862 123.035 212.862 122.612L213.22 122.667H210.85V121.431H214.392V122.479C214.392 123.227 214.233 123.873 213.915 124.419C213.597 124.964 213.159 125.385 212.602 125.68C212.045 125.973 211.406 126.119 210.684 126.119C209.88 126.119 209.174 125.939 208.566 125.578C207.961 125.214 207.488 124.699 207.147 124.031C206.808 123.36 206.639 122.565 206.639 121.644C206.639 120.939 206.739 120.31 206.938 119.756C207.139 119.202 207.421 118.731 207.782 118.345C208.142 117.956 208.566 117.66 209.052 117.458C209.538 117.254 210.066 117.152 210.637 117.152C211.12 117.152 211.571 117.223 211.988 117.365C212.406 117.504 212.777 117.703 213.101 117.961C213.428 118.22 213.696 118.527 213.906 118.882C214.117 119.237 214.255 119.629 214.32 120.058H212.709ZM215.921 126V117.271H219.195C219.865 117.271 220.428 117.387 220.883 117.62C221.34 117.853 221.685 118.18 221.918 118.601C222.154 119.018 222.272 119.506 222.272 120.063C222.272 120.622 222.153 121.108 221.914 121.52C221.678 121.93 221.33 122.246 220.87 122.471C220.41 122.693 219.844 122.803 219.174 122.803H216.842V121.491H218.96C219.353 121.491 219.674 121.437 219.924 121.329C220.174 121.218 220.358 121.057 220.478 120.847C220.6 120.634 220.661 120.372 220.661 120.063C220.661 119.753 220.6 119.489 220.478 119.27C220.356 119.048 220.169 118.881 219.919 118.767C219.669 118.65 219.347 118.592 218.952 118.592H217.503V126H215.921ZM220.431 122.045L222.592 126H220.827L218.705 122.045H220.431ZM224.849 126H223.161L226.234 117.271H228.186L231.263 126H229.576L227.244 119.061H227.176L224.849 126ZM224.904 122.577H229.507V123.848H224.904V122.577ZM232.413 126V117.271H235.687C236.357 117.271 236.92 117.396 237.374 117.646C237.832 117.896 238.177 118.24 238.41 118.677C238.646 119.112 238.764 119.607 238.764 120.161C238.764 120.721 238.646 121.218 238.41 121.653C238.174 122.087 237.826 122.43 237.366 122.68C236.906 122.927 236.339 123.051 235.665 123.051H233.496V121.751H235.452C235.844 121.751 236.165 121.682 236.415 121.546C236.665 121.41 236.85 121.222 236.969 120.983C237.092 120.745 237.153 120.47 237.153 120.161C237.153 119.851 237.092 119.578 236.969 119.342C236.85 119.107 236.664 118.923 236.411 118.793C236.161 118.659 235.839 118.592 235.444 118.592H233.994V126H232.413ZM240.137 126V117.271H241.719V120.966H245.764V117.271H247.349V126H245.764V122.292H241.719V126H240.137ZM254.586 126.128C253.99 126.128 253.477 126.02 253.048 125.804C252.619 125.588 252.288 125.297 252.055 124.93C251.824 124.561 251.709 124.145 251.709 123.681C251.709 123.332 251.78 123.022 251.922 122.752C252.067 122.482 252.266 122.232 252.519 122.002C252.775 121.772 253.07 121.543 253.406 121.316L254.953 120.263C255.18 120.115 255.352 119.959 255.469 119.794C255.588 119.629 255.648 119.436 255.648 119.215C255.648 119.027 255.568 118.849 255.409 118.682C255.253 118.514 255.037 118.43 254.761 118.43C254.576 118.43 254.413 118.474 254.271 118.562C254.132 118.648 254.022 118.76 253.943 118.899C253.866 119.038 253.828 119.186 253.828 119.342C253.828 119.533 253.88 119.726 253.985 119.922C254.093 120.118 254.233 120.321 254.403 120.532C254.576 120.742 254.761 120.965 254.957 121.201L259.053 126H257.382L253.981 122.104C253.728 121.809 253.484 121.518 253.248 121.231C253.015 120.944 252.823 120.645 252.673 120.335C252.525 120.023 252.451 119.685 252.451 119.321C252.451 118.909 252.546 118.541 252.737 118.217C252.927 117.89 253.193 117.633 253.534 117.446C253.877 117.258 254.279 117.164 254.74 117.164C255.2 117.164 255.595 117.255 255.925 117.437C256.254 117.619 256.509 117.861 256.688 118.162C256.867 118.463 256.956 118.791 256.956 119.146C256.956 119.558 256.854 119.928 256.649 120.254C256.445 120.578 256.161 120.873 255.797 121.137L254.032 122.428C253.742 122.639 253.535 122.852 253.41 123.068C253.285 123.281 253.222 123.463 253.222 123.613C253.222 123.843 253.281 124.052 253.397 124.24C253.514 124.427 253.677 124.578 253.887 124.691C254.1 124.802 254.349 124.858 254.633 124.858C254.946 124.858 255.254 124.788 255.558 124.649C255.862 124.507 256.139 124.305 256.389 124.044C256.639 123.782 256.838 123.47 256.986 123.106C257.134 122.739 257.208 122.333 257.208 121.887H258.533C258.533 122.438 258.472 122.918 258.35 123.328C258.228 123.734 258.07 124.078 257.877 124.359C257.684 124.638 257.479 124.861 257.263 125.028C257.195 125.077 257.129 125.125 257.067 125.173C257.004 125.221 256.939 125.27 256.871 125.318C256.564 125.597 256.205 125.801 255.793 125.932C255.383 126.063 254.981 126.128 254.586 126.128ZM264.563 117.271V126H262.982V117.271H264.563ZM273.449 117.271V126H272.042L267.929 120.054H267.857V126H266.276V117.271H267.691L271.799 123.221H271.876V117.271H273.449ZM279.916 119.671C279.876 119.298 279.708 119.009 279.413 118.801C279.12 118.594 278.739 118.49 278.271 118.49C277.941 118.49 277.658 118.54 277.422 118.639C277.187 118.739 277.006 118.874 276.881 119.044C276.756 119.215 276.692 119.409 276.689 119.628C276.689 119.81 276.73 119.968 276.813 120.101C276.898 120.235 277.013 120.348 277.158 120.442C277.303 120.533 277.464 120.61 277.64 120.672C277.816 120.735 277.994 120.787 278.173 120.83L278.991 121.034C279.32 121.111 279.637 121.215 279.941 121.346C280.248 121.476 280.522 121.641 280.764 121.84C281.008 122.039 281.202 122.279 281.344 122.56C281.486 122.842 281.557 123.171 281.557 123.549C281.557 124.061 281.426 124.511 281.165 124.9C280.903 125.287 280.525 125.589 280.031 125.808C279.539 126.024 278.944 126.132 278.245 126.132C277.566 126.132 276.976 126.027 276.476 125.817C275.979 125.606 275.59 125.3 275.308 124.896C275.03 124.493 274.879 124.001 274.857 123.421H276.412C276.435 123.725 276.529 123.978 276.694 124.18C276.858 124.382 277.073 124.532 277.337 124.632C277.604 124.731 277.903 124.781 278.232 124.781C278.576 124.781 278.877 124.73 279.136 124.628C279.397 124.522 279.602 124.378 279.75 124.193C279.897 124.005 279.973 123.786 279.975 123.536C279.973 123.309 279.906 123.122 279.775 122.974C279.644 122.823 279.461 122.698 279.225 122.599C278.992 122.496 278.72 122.406 278.407 122.326L277.414 122.07C276.695 121.886 276.127 121.606 275.709 121.231C275.294 120.853 275.087 120.351 275.087 119.726C275.087 119.212 275.226 118.761 275.504 118.375C275.786 117.988 276.168 117.689 276.651 117.476C277.134 117.26 277.681 117.152 278.292 117.152C278.911 117.152 279.454 117.26 279.92 117.476C280.389 117.689 280.757 117.986 281.024 118.366C281.291 118.744 281.429 119.179 281.437 119.671H279.916ZM284.548 117.271V126H282.966V117.271H284.548ZM292.108 120.058C292.037 119.828 291.939 119.622 291.814 119.44C291.692 119.256 291.544 119.098 291.371 118.967C291.2 118.837 291.004 118.739 290.782 118.673C290.561 118.605 290.319 118.571 290.058 118.571C289.589 118.571 289.171 118.689 288.805 118.925C288.438 119.161 288.15 119.507 287.939 119.965C287.732 120.419 287.628 120.973 287.628 121.627C287.628 122.286 287.732 122.845 287.939 123.302C288.147 123.759 288.435 124.108 288.805 124.346C289.174 124.582 289.603 124.7 290.092 124.7C290.535 124.7 290.919 124.615 291.243 124.444C291.569 124.274 291.821 124.032 291.997 123.72C292.173 123.404 292.261 123.035 292.261 122.612L292.619 122.667H290.25V121.431H293.792V122.479C293.792 123.227 293.632 123.873 293.314 124.419C292.996 124.964 292.558 125.385 292.001 125.68C291.444 125.973 290.805 126.119 290.083 126.119C289.279 126.119 288.573 125.939 287.965 125.578C287.36 125.214 286.887 124.699 286.546 124.031C286.208 123.36 286.038 122.565 286.038 121.644C286.038 120.939 286.138 120.31 286.337 119.756C286.539 119.202 286.82 118.731 287.181 118.345C287.542 117.956 287.965 117.66 288.451 117.458C288.937 117.254 289.465 117.152 290.036 117.152C290.52 117.152 290.97 117.223 291.388 117.365C291.805 117.504 292.176 117.703 292.5 117.961C292.827 118.22 293.095 118.527 293.306 118.882C293.516 119.237 293.654 119.629 293.719 120.058H292.108ZM295.321 126V117.271H296.902V120.966H300.947V117.271H302.532V126H300.947V122.292H296.902V126H295.321ZM303.869 118.596V117.271H310.833V118.596H308.135V126H306.567V118.596H303.869ZM316.92 119.671C316.88 119.298 316.712 119.009 316.417 118.801C316.124 118.594 315.743 118.49 315.274 118.49C314.945 118.49 314.662 118.54 314.426 118.639C314.19 118.739 314.01 118.874 313.885 119.044C313.76 119.215 313.696 119.409 313.693 119.628C313.693 119.81 313.734 119.968 313.817 120.101C313.902 120.235 314.017 120.348 314.162 120.442C314.307 120.533 314.467 120.61 314.643 120.672C314.82 120.735 314.997 120.787 315.176 120.83L315.995 121.034C316.324 121.111 316.641 121.215 316.945 121.346C317.252 121.476 317.526 121.641 317.768 121.84C318.012 122.039 318.205 122.279 318.347 122.56C318.489 122.842 318.56 123.171 318.56 123.549C318.56 124.061 318.43 124.511 318.168 124.9C317.907 125.287 317.529 125.589 317.035 125.808C316.543 126.024 315.948 126.132 315.249 126.132C314.57 126.132 313.98 126.027 313.48 125.817C312.983 125.606 312.593 125.3 312.312 124.896C312.034 124.493 311.883 124.001 311.86 123.421H313.416C313.439 123.725 313.532 123.978 313.697 124.18C313.862 124.382 314.077 124.532 314.341 124.632C314.608 124.731 314.906 124.781 315.236 124.781C315.58 124.781 315.881 124.73 316.14 124.628C316.401 124.522 316.606 124.378 316.753 124.193C316.901 124.005 316.976 123.786 316.979 123.536C316.976 123.309 316.91 123.122 316.779 122.974C316.648 122.823 316.465 122.698 316.229 122.599C315.996 122.496 315.723 122.406 315.411 122.326L314.418 122.07C313.699 121.886 313.13 121.606 312.713 121.231C312.298 120.853 312.09 120.351 312.09 119.726C312.09 119.212 312.23 118.761 312.508 118.375C312.789 117.988 313.172 117.689 313.655 117.476C314.138 117.26 314.685 117.152 315.296 117.152C315.915 117.152 316.458 117.26 316.924 117.476C317.393 117.689 317.761 117.986 318.028 118.366C318.295 118.744 318.433 119.179 318.441 119.671H316.92Z" fill="black" fill-opacity="0.5"/>
<g filter="url(#filter1_d_2355_2084)">
<rect x="191" y="162" width="171" height="144" rx="20" fill="#FDFBF7"/>
</g>
<circle cx="329.36" cy="198.36" r="19.36" fill="#810100" fill-opacity="0.2"/>
<path d="M339.441 194.884C339.406 196.128 338.894 197.311 338.012 198.189L334.908 201.296C334.456 201.75 333.918 202.111 333.325 202.356C332.733 202.601 332.098 202.727 331.457 202.725H331.452C330.8 202.724 330.155 202.593 329.554 202.339C328.953 202.085 328.41 201.713 327.955 201.246C327.501 200.778 327.145 200.224 326.908 199.616C326.671 199.009 326.559 198.36 326.577 197.708C326.582 197.518 326.663 197.339 326.801 197.208C326.938 197.078 327.122 197.008 327.312 197.013C327.501 197.019 327.681 197.099 327.811 197.237C327.942 197.375 328.012 197.558 328.006 197.748C327.993 198.209 328.073 198.668 328.24 199.097C328.408 199.527 328.659 199.919 328.981 200.25C329.302 200.58 329.686 200.843 330.111 201.023C330.536 201.203 330.992 201.295 331.453 201.296C331.906 201.297 332.355 201.208 332.774 201.035C333.193 200.861 333.573 200.606 333.893 200.285L336.997 197.181C337.638 196.532 337.996 195.657 337.993 194.745C337.99 193.833 337.627 192.96 336.982 192.316C336.337 191.671 335.464 191.308 334.553 191.305C333.641 191.302 332.765 191.66 332.117 192.3L331.134 193.283C330.999 193.411 330.819 193.482 330.633 193.48C330.446 193.477 330.268 193.402 330.136 193.27C330.005 193.138 329.93 192.96 329.927 192.774C329.925 192.588 329.995 192.408 330.124 192.273L331.106 191.29C331.56 190.836 332.098 190.477 332.691 190.231C333.283 189.986 333.918 189.859 334.559 189.859C335.201 189.859 335.836 189.986 336.428 190.231C337.02 190.477 337.559 190.836 338.012 191.29C338.482 191.761 338.851 192.322 339.096 192.94C339.342 193.558 339.459 194.219 339.441 194.884ZM327.738 203.588L326.756 204.571C326.435 204.893 326.054 205.149 325.634 205.323C325.213 205.497 324.763 205.585 324.308 205.584C323.626 205.583 322.959 205.38 322.392 205.001C321.825 204.622 321.383 204.083 321.122 203.452C320.861 202.822 320.793 202.128 320.926 201.459C321.059 200.79 321.388 200.175 321.87 199.693L324.969 196.588C325.457 196.098 326.082 195.765 326.761 195.634C327.441 195.503 328.144 195.579 328.78 195.852C329.416 196.126 329.954 196.584 330.326 197.168C330.698 197.752 330.886 198.434 330.865 199.126C330.86 199.315 330.93 199.499 331.06 199.637C331.191 199.775 331.37 199.855 331.56 199.86C331.749 199.866 331.933 199.796 332.071 199.665C332.209 199.535 332.289 199.355 332.295 199.166C332.312 198.502 332.194 197.842 331.948 197.225C331.702 196.608 331.334 196.048 330.865 195.578C329.95 194.663 328.708 194.149 327.414 194.149C326.119 194.149 324.878 194.663 323.962 195.578L320.86 198.682C320.177 199.365 319.712 200.234 319.524 201.18C319.335 202.126 319.431 203.107 319.8 203.998C320.169 204.89 320.793 205.652 321.595 206.189C322.397 206.725 323.34 207.012 324.304 207.013C324.946 207.015 325.581 206.89 326.174 206.644C326.766 206.399 327.304 206.038 327.756 205.584L328.739 204.601C328.855 204.465 328.915 204.29 328.908 204.112C328.902 203.933 328.828 203.763 328.703 203.636C328.577 203.509 328.408 203.434 328.23 203.425C328.051 203.416 327.876 203.474 327.738 203.588Z" fill="#800000"/>
<path d="M210.399 236.225H219.825V240.938H212.284L212.166 241.174L218.451 252.643C219.734 254.947 220.375 256.701 220.375 257.906C220.375 260.55 219.498 262.488 217.744 263.719H207.335V259.163H215.466L215.584 258.927L208.514 246.241C207.493 244.408 206.982 242.915 206.982 241.763C206.982 239.04 208.121 237.194 210.399 236.225ZM232.068 243.648H235.799C236.951 245.115 237.737 246.581 238.156 248.047C238.575 249.514 238.784 251.347 238.784 253.546V263.719H233.56V253.153C233.56 250.666 233.22 248.872 232.539 247.772H228.14V263.719H222.916V236.225H228.14V245.062C228.716 244.539 229.253 244.172 229.751 243.962C230.274 243.753 231.047 243.648 232.068 243.648ZM251.484 254.646H247.281C246.731 255.327 246.456 256.178 246.456 257.199C246.456 258.22 246.744 259.019 247.32 259.595H251.484V254.646ZM243.039 243.648H252.78C254.351 244.591 255.385 245.678 255.883 246.908C256.38 248.113 256.629 249.762 256.629 251.857V257.749C256.629 259.922 256.681 261.912 256.786 263.719H252.308L251.601 262.305C250.58 263.247 249.14 263.719 247.281 263.719H244.806C242.581 262.252 241.468 260.145 241.468 257.395C241.468 254.62 242.607 252.433 244.885 250.836H248.577C249.598 250.836 250.554 251.15 251.444 251.779V249.815C251.444 248.794 250.999 248.113 250.109 247.772H243.039V243.648ZM260.046 263.719V243.648H263.778L264.759 245.769C265.807 244.355 267.129 243.648 268.726 243.648H270.258V248.911H265.27V263.719H260.046ZM280.855 247.772H277.91C277.517 248.244 277.189 248.898 276.928 249.736C276.692 250.574 276.574 251.386 276.574 252.171H282.191C282.243 251.386 282.138 250.574 281.876 249.736C281.615 248.872 281.274 248.217 280.855 247.772ZM286.197 259.595V263.719H276.221C274.388 262.488 273.092 260.969 272.332 259.163C271.599 257.33 271.232 255.484 271.232 253.625C271.232 249.33 272.856 246.005 276.103 243.648H282.466C284.22 244.931 285.411 246.293 286.04 247.733C286.668 249.173 286.982 250.626 286.982 252.093C286.982 253.559 286.865 254.816 286.629 255.863H276.849C276.928 256.466 277.15 257.16 277.517 257.945C277.91 258.704 278.328 259.254 278.774 259.595H286.197ZM304.818 263.719H300.851L300.144 262.305C299.568 262.828 299.018 263.195 298.495 263.405C297.997 263.614 297.238 263.719 296.217 263.719H292.799C291.647 262.619 290.731 261.179 290.05 259.398C289.395 257.618 289.068 255.628 289.068 253.428C289.068 251.203 289.395 249.317 290.05 247.772C290.731 246.227 291.687 244.853 292.917 243.648H296.295C297.683 243.648 298.783 244.015 299.594 244.748V236.225H304.818V263.719ZM299.594 247.772H295.824C294.855 249.422 294.371 251.451 294.371 253.86C294.371 256.243 294.842 258.155 295.785 259.595H299.594V247.772Z" fill="black"/>
<path d="M206.861 285.719V276.99H210.134C210.805 276.99 211.368 277.115 211.822 277.365C212.28 277.615 212.625 277.959 212.858 278.396C213.094 278.831 213.212 279.325 213.212 279.879C213.212 280.439 213.094 280.937 212.858 281.371C212.622 281.806 212.274 282.148 211.814 282.398C211.353 282.646 210.786 282.769 210.113 282.769H207.944V281.469H209.9C210.292 281.469 210.613 281.401 210.863 281.265C211.113 281.128 211.298 280.941 211.417 280.702C211.539 280.463 211.601 280.189 211.601 279.879C211.601 279.57 211.539 279.297 211.417 279.061C211.298 278.825 211.112 278.642 210.859 278.511C210.609 278.378 210.286 278.311 209.891 278.311H208.442V285.719H206.861ZM222.385 281.354C222.385 282.295 222.209 283.1 221.857 283.771C221.507 284.439 221.03 284.95 220.424 285.305C219.822 285.66 219.139 285.838 218.374 285.838C217.61 285.838 216.925 285.66 216.32 285.305C215.718 284.947 215.24 284.434 214.888 283.767C214.538 283.096 214.364 282.292 214.364 281.354C214.364 280.414 214.538 279.61 214.888 278.942C215.24 278.271 215.718 277.758 216.32 277.403C216.925 277.048 217.61 276.87 218.374 276.87C219.139 276.87 219.822 277.048 220.424 277.403C221.03 277.758 221.507 278.271 221.857 278.942C222.209 279.61 222.385 280.414 222.385 281.354ZM220.795 281.354C220.795 280.692 220.692 280.134 220.484 279.679C220.28 279.222 219.995 278.876 219.632 278.643C219.268 278.408 218.849 278.29 218.374 278.29C217.9 278.29 217.481 278.408 217.117 278.643C216.753 278.876 216.468 279.222 216.26 279.679C216.056 280.134 215.953 280.692 215.953 281.354C215.953 282.016 216.056 282.576 216.26 283.034C216.468 283.488 216.753 283.833 217.117 284.069C217.481 284.302 217.9 284.419 218.374 284.419C218.849 284.419 219.268 284.302 219.632 284.069C219.995 283.833 220.28 283.488 220.484 283.034C220.692 282.576 220.795 282.016 220.795 281.354ZM228.624 279.389C228.584 279.017 228.417 278.727 228.121 278.52C227.828 278.312 227.448 278.209 226.979 278.209C226.649 278.209 226.366 278.258 226.131 278.358C225.895 278.457 225.714 278.592 225.589 278.763C225.464 278.933 225.4 279.128 225.397 279.347C225.397 279.529 225.439 279.686 225.521 279.82C225.606 279.953 225.721 280.067 225.866 280.161C226.011 280.252 226.172 280.328 226.348 280.391C226.524 280.453 226.702 280.506 226.881 280.549L227.699 280.753C228.029 280.83 228.346 280.934 228.65 281.064C228.956 281.195 229.231 281.36 229.472 281.559C229.717 281.758 229.91 281.998 230.052 282.279C230.194 282.56 230.265 282.89 230.265 283.268C230.265 283.779 230.134 284.23 229.873 284.619C229.611 285.006 229.233 285.308 228.739 285.527C228.247 285.743 227.652 285.851 226.953 285.851C226.274 285.851 225.684 285.746 225.184 285.535C224.687 285.325 224.298 285.018 224.016 284.615C223.738 284.211 223.587 283.72 223.565 283.14H225.12C225.143 283.444 225.237 283.697 225.402 283.899C225.567 284.101 225.781 284.251 226.045 284.351C226.312 284.45 226.611 284.5 226.94 284.5C227.284 284.5 227.585 284.449 227.844 284.346C228.105 284.241 228.31 284.096 228.458 283.912C228.606 283.724 228.681 283.505 228.684 283.255C228.681 283.028 228.614 282.84 228.483 282.693C228.353 282.542 228.169 282.417 227.933 282.317C227.7 282.215 227.428 282.124 227.115 282.045L226.122 281.789C225.403 281.604 224.835 281.324 224.417 280.949C224.002 280.571 223.795 280.07 223.795 279.445C223.795 278.93 223.934 278.48 224.213 278.094C224.494 277.707 224.876 277.407 225.359 277.194C225.842 276.978 226.389 276.87 227 276.87C227.62 276.87 228.162 276.978 228.628 277.194C229.097 277.407 229.465 277.704 229.732 278.085C229.999 278.463 230.137 278.898 230.146 279.389H228.624ZM231.291 278.315V276.99H238.256V278.315H235.558V285.719H233.989V278.315H231.291ZM243.696 285.719H242.008L245.082 276.99H247.034L250.111 285.719H248.423L246.092 278.78H246.024L243.696 285.719ZM243.752 282.296H248.355V283.566H243.752V282.296ZM258.322 279.935H256.728C256.683 279.673 256.599 279.442 256.477 279.24C256.354 279.036 256.202 278.862 256.021 278.72C255.839 278.578 255.631 278.472 255.398 278.4C255.168 278.327 254.92 278.29 254.652 278.29C254.178 278.29 253.757 278.409 253.391 278.648C253.024 278.884 252.737 279.23 252.53 279.688C252.322 280.142 252.219 280.698 252.219 281.354C252.219 282.022 252.322 282.585 252.53 283.042C252.74 283.497 253.027 283.841 253.391 284.074C253.757 284.304 254.176 284.419 254.648 284.419C254.91 284.419 255.154 284.385 255.381 284.316C255.611 284.245 255.817 284.142 255.999 284.005C256.184 283.869 256.339 283.701 256.464 283.502C256.592 283.303 256.68 283.076 256.728 282.82L258.322 282.829C258.263 283.244 258.133 283.633 257.934 283.997C257.738 284.361 257.481 284.682 257.163 284.96C256.845 285.236 256.472 285.452 256.046 285.608C255.62 285.761 255.147 285.838 254.627 285.838C253.86 285.838 253.175 285.66 252.572 285.305C251.97 284.95 251.496 284.437 251.149 283.767C250.802 283.096 250.629 282.292 250.629 281.354C250.629 280.414 250.804 279.61 251.153 278.942C251.503 278.271 251.979 277.758 252.581 277.403C253.183 277.048 253.865 276.87 254.627 276.87C255.113 276.87 255.565 276.939 255.982 277.075C256.4 277.211 256.772 277.412 257.099 277.676C257.426 277.937 257.694 278.258 257.905 278.639C258.118 279.017 258.257 279.449 258.322 279.935ZM267.242 279.935H265.648C265.602 279.673 265.519 279.442 265.396 279.24C265.274 279.036 265.122 278.862 264.94 278.72C264.759 278.578 264.551 278.472 264.318 278.4C264.088 278.327 263.839 278.29 263.572 278.29C263.098 278.29 262.677 278.409 262.311 278.648C261.944 278.884 261.657 279.23 261.45 279.688C261.242 280.142 261.138 280.698 261.138 281.354C261.138 282.022 261.242 282.585 261.45 283.042C261.66 283.497 261.947 283.841 262.311 284.074C262.677 284.304 263.096 284.419 263.568 284.419C263.829 284.419 264.074 284.385 264.301 284.316C264.531 284.245 264.737 284.142 264.919 284.005C265.104 283.869 265.259 283.701 265.384 283.502C265.512 283.303 265.6 283.076 265.648 282.82L267.242 282.829C267.182 283.244 267.053 283.633 266.854 283.997C266.658 284.361 266.401 284.682 266.083 284.96C265.764 285.236 265.392 285.452 264.966 285.608C264.54 285.761 264.067 285.838 263.547 285.838C262.779 285.838 262.095 285.66 261.492 285.305C260.89 284.95 260.415 284.437 260.069 283.767C259.722 283.096 259.549 282.292 259.549 281.354C259.549 280.414 259.723 279.61 260.073 278.942C260.422 278.271 260.898 277.758 261.501 277.403C262.103 277.048 262.785 276.87 263.547 276.87C264.033 276.87 264.484 276.939 264.902 277.075C265.32 277.211 265.692 277.412 266.019 277.676C266.346 277.937 266.614 278.258 266.824 278.639C267.037 279.017 267.177 279.449 267.242 279.935ZM268.69 285.719V276.99H274.367V278.315H270.271V280.685H274.073V282.011H270.271V284.393H274.402V285.719H268.69ZM280.725 279.389C280.685 279.017 280.517 278.727 280.222 278.52C279.929 278.312 279.548 278.209 279.079 278.209C278.75 278.209 278.467 278.258 278.231 278.358C277.995 278.457 277.815 278.592 277.69 278.763C277.565 278.933 277.501 279.128 277.498 279.347C277.498 279.529 277.539 279.686 277.622 279.82C277.707 279.953 277.822 280.067 277.967 280.161C278.112 280.252 278.272 280.328 278.449 280.391C278.625 280.453 278.802 280.506 278.981 280.549L279.8 280.753C280.129 280.83 280.446 280.934 280.75 281.064C281.057 281.195 281.331 281.36 281.573 281.559C281.817 281.758 282.01 281.998 282.152 282.279C282.294 282.56 282.366 282.89 282.366 283.268C282.366 283.779 282.235 284.23 281.973 284.619C281.712 285.006 281.334 285.308 280.84 285.527C280.348 285.743 279.753 285.851 279.054 285.851C278.375 285.851 277.785 285.746 277.285 285.535C276.788 285.325 276.398 285.018 276.117 284.615C275.839 284.211 275.688 283.72 275.665 283.14H277.221C277.244 283.444 277.337 283.697 277.502 283.899C277.667 284.101 277.882 284.251 278.146 284.351C278.413 284.45 278.711 284.5 279.041 284.5C279.385 284.5 279.686 284.449 279.945 284.346C280.206 284.241 280.411 284.096 280.558 283.912C280.706 283.724 280.781 283.505 280.784 283.255C280.781 283.028 280.715 282.84 280.584 282.693C280.453 282.542 280.27 282.417 280.034 282.317C279.801 282.215 279.528 282.124 279.216 282.045L278.223 281.789C277.504 281.604 276.935 281.324 276.518 280.949C276.103 280.571 275.895 280.07 275.895 279.445C275.895 278.93 276.035 278.48 276.313 278.094C276.594 277.707 276.977 277.407 277.46 277.194C277.943 276.978 278.49 276.87 279.101 276.87C279.72 276.87 280.263 276.978 280.729 277.194C281.198 277.407 281.566 277.704 281.833 278.085C282.1 278.463 282.238 278.898 282.246 279.389H280.725ZM288.519 279.389C288.479 279.017 288.312 278.727 288.016 278.52C287.724 278.312 287.343 278.209 286.874 278.209C286.544 278.209 286.262 278.258 286.026 278.358C285.79 278.457 285.609 278.592 285.484 278.763C285.359 278.933 285.295 279.128 285.293 279.347C285.293 279.529 285.334 279.686 285.416 279.82C285.501 279.953 285.617 280.067 285.761 280.161C285.906 280.252 286.067 280.328 286.243 280.391C286.419 280.453 286.597 280.506 286.776 280.549L287.594 280.753C287.924 280.83 288.241 280.934 288.545 281.064C288.852 281.195 289.126 281.36 289.367 281.559C289.612 281.758 289.805 281.998 289.947 282.279C290.089 282.56 290.16 282.89 290.16 283.268C290.16 283.779 290.029 284.23 289.768 284.619C289.507 285.006 289.129 285.308 288.634 285.527C288.143 285.743 287.547 285.851 286.848 285.851C286.169 285.851 285.58 285.746 285.079 285.535C284.582 285.325 284.193 285.018 283.912 284.615C283.633 284.211 283.483 283.72 283.46 283.14H285.016C285.038 283.444 285.132 283.697 285.297 283.899C285.462 284.101 285.676 284.251 285.94 284.351C286.208 284.45 286.506 284.5 286.836 284.5C287.179 284.5 287.481 284.449 287.739 284.346C288.001 284.241 288.205 284.096 288.353 283.912C288.501 283.724 288.576 283.505 288.579 283.255C288.576 283.028 288.509 282.84 288.378 282.693C288.248 282.542 288.064 282.417 287.829 282.317C287.596 282.215 287.323 282.124 287.01 282.045L286.017 281.789C285.298 281.604 284.73 281.324 284.312 280.949C283.897 280.571 283.69 280.07 283.69 279.445C283.69 278.93 283.829 278.48 284.108 278.094C284.389 277.707 284.771 277.407 285.254 277.194C285.737 276.978 286.284 276.87 286.895 276.87C287.515 276.87 288.057 276.978 288.523 277.194C288.992 277.407 289.36 277.704 289.627 278.085C289.894 278.463 290.032 278.898 290.041 279.389H288.519ZM294.547 285.719V276.99H296.128V284.393H299.973V285.719H294.547ZM302.927 276.99V285.719H301.345V276.99H302.927ZM311.812 276.99V285.719H310.406L306.293 279.773H306.22V285.719H304.639V276.99H306.054L310.163 282.94H310.24V276.99H311.812ZM313.535 285.719V276.99H315.117V281H315.223L318.629 276.99H320.559L317.184 280.907L320.589 285.719H318.688L316.084 281.977L315.117 283.119V285.719H313.535ZM326.355 279.389C326.315 279.017 326.148 278.727 325.852 278.52C325.559 278.312 325.179 278.209 324.71 278.209C324.38 278.209 324.097 278.258 323.862 278.358C323.626 278.457 323.445 278.592 323.32 278.763C323.195 278.933 323.131 279.128 323.129 279.347C323.129 279.529 323.17 279.686 323.252 279.82C323.337 279.953 323.452 280.067 323.597 280.161C323.742 280.252 323.903 280.328 324.079 280.391C324.255 280.453 324.433 280.506 324.612 280.549L325.43 280.753C325.76 280.83 326.077 280.934 326.381 281.064C326.688 281.195 326.962 281.36 327.203 281.559C327.448 281.758 327.641 281.998 327.783 282.279C327.925 282.56 327.996 282.89 327.996 283.268C327.996 283.779 327.865 284.23 327.604 284.619C327.342 285.006 326.965 285.308 326.47 285.527C325.979 285.743 325.383 285.851 324.684 285.851C324.005 285.851 323.416 285.746 322.915 285.535C322.418 285.325 322.029 285.018 321.748 284.615C321.469 284.211 321.318 283.72 321.296 283.14H322.851C322.874 283.444 322.968 283.697 323.133 283.899C323.298 284.101 323.512 284.251 323.776 284.351C324.043 284.45 324.342 284.5 324.671 284.5C325.015 284.5 325.316 284.449 325.575 284.346C325.836 284.241 326.041 284.096 326.189 283.912C326.337 283.724 326.412 283.505 326.415 283.255C326.412 283.028 326.345 282.84 326.214 282.693C326.084 282.542 325.9 282.417 325.665 282.317C325.432 282.215 325.159 282.124 324.846 282.045L323.853 281.789C323.134 281.604 322.566 281.324 322.148 280.949C321.733 280.571 321.526 280.07 321.526 279.445C321.526 278.93 321.665 278.48 321.944 278.094C322.225 277.707 322.607 277.407 323.09 277.194C323.573 276.978 324.12 276.87 324.731 276.87C325.351 276.87 325.893 276.978 326.359 277.194C326.828 277.407 327.196 277.704 327.463 278.085C327.73 278.463 327.868 278.898 327.877 279.389H326.355Z" fill="black" fill-opacity="0.5"/>
<g filter="url(#filter2_d_2355_2084)">
<rect x="4" y="2" width="171" height="144" rx="20" fill="#FDFBF7"/>
</g>
<circle cx="141" cy="39" r="20" fill="#810100" fill-opacity="0.2"/>
<path d="M149.297 30.8592V45.153C149.297 45.3425 149.222 45.5243 149.088 45.6583C148.954 45.7924 148.772 45.8677 148.583 45.8677H136.433C136.054 45.8677 135.69 46.0183 135.422 46.2863C135.154 46.5544 135.004 46.9179 135.004 47.297H147.153C147.343 47.297 147.525 47.3723 147.659 47.5064C147.793 47.6404 147.868 47.8222 147.868 48.0117C147.868 48.2013 147.793 48.383 147.659 48.5171C147.525 48.6511 147.343 48.7264 147.153 48.7264H134.289C134.099 48.7264 133.918 48.6511 133.784 48.5171C133.65 48.383 133.574 48.2013 133.574 48.0117V33.0033C133.574 32.2451 133.875 31.518 134.412 30.9818C134.948 30.4457 135.675 30.1445 136.433 30.1445H148.583C148.772 30.1445 148.954 30.2198 149.088 30.3539C149.222 30.4879 149.297 30.6697 149.297 30.8592Z" fill="#800000"/>
<path d="M23.399 76.5062H32.8255V81.2194H25.2843L25.1665 81.4551L31.4508 92.9239C32.7338 95.2282 33.3753 96.9825 33.3753 98.187C33.3753 100.832 32.4982 102.769 30.7438 104H20.3354V99.4439H28.4657L28.5836 99.2082L21.5137 86.5218C20.4925 84.6889 19.9819 83.1963 19.9819 82.0442C19.9819 79.321 21.121 77.475 23.399 76.5062ZM36.3276 95.2413V88.0536H33.6174V83.9295H36.3276V78.47H41.5514V83.9295H44.7721V88.0536H41.5514V96.4981C41.5514 98.0954 41.8263 99.2213 42.3762 99.8759H44.7721V104H39.1948C37.807 102.717 36.9691 101.329 36.681 99.8366C36.4454 98.5798 36.3276 97.048 36.3276 95.2413ZM58.9415 104H50.3792C47.7607 101.565 46.4515 98.2394 46.4515 94.0237C46.4515 91.9027 46.7395 90.0567 47.3156 88.4856C47.9178 86.9146 48.8605 85.3958 50.1435 83.9295H59.3343C60.6959 85.5006 61.6254 87.0324 62.123 88.5249C62.6205 89.9912 62.8692 91.8242 62.8692 94.0237C62.8692 98.2394 61.56 101.565 58.9415 104ZM53.1678 99.8759H56.1529C57.0955 98.043 57.5668 95.9613 57.5668 93.6309C57.5668 91.3005 57.0824 89.4414 56.1136 88.0536H53.1678C52.2252 89.389 51.7539 91.2874 51.7539 93.7487C51.7539 96.1839 52.2252 98.2263 53.1678 99.8759ZM65.7202 104V83.9295H69.4515L70.4334 86.0505C71.4808 84.6365 72.8031 83.9295 74.4004 83.9295H75.9322V89.1926H70.944V104H65.7202ZM78.185 104V83.9295H83.3696V104H78.185ZM78.185 76.5062H83.3696V81.8086H78.185V76.5062ZM95.8115 88.0536H92.8657C92.4729 88.5249 92.1456 89.1795 91.8838 90.0174C91.6481 90.8553 91.5303 91.6671 91.5303 92.4526H97.1469C97.1993 91.6671 97.0945 90.8553 96.8327 90.0174C96.5708 89.1533 96.2304 88.4987 95.8115 88.0536ZM101.153 99.8759V104H91.1768C89.3439 102.769 88.0477 101.251 87.2884 99.4439C86.5552 97.611 86.1886 95.7649 86.1886 93.9058C86.1886 89.6116 87.8121 86.2861 91.059 83.9295H97.4218C99.1762 85.2126 100.368 86.5742 100.996 88.0143C101.624 89.4545 101.939 90.9077 101.939 92.374C101.939 93.8404 101.821 95.0972 101.585 96.1446H91.8052C91.8838 96.7469 92.1064 97.4408 92.4729 98.2263C92.8657 98.9857 93.2847 99.5355 93.7298 99.8759H101.153ZM105.924 83.9295H114.605V88.0536H108.477L112.209 93.5916C113.884 95.9744 114.814 97.611 114.997 98.5012C115.102 98.9202 115.154 99.3522 115.154 99.7974C115.154 101.656 114.461 103.057 113.073 104H103.057V99.8759H110.245L106.042 93.7095C105.859 93.4214 105.571 93.0156 105.178 92.4919C104.812 91.9682 104.523 91.5492 104.314 91.235C104.105 90.8946 103.961 90.6459 103.882 90.4888C103.803 90.3316 103.699 90.1353 103.568 89.8996C103.437 89.6378 103.345 89.4152 103.293 89.2319C103.188 88.7344 103.136 88.3285 103.136 88.0143C103.136 86.1028 104.065 84.7412 105.924 83.9295Z" fill="black"/>
<path d="M19.861 126V117.271H25.453V118.596H21.4423V120.966H25.0694V122.292H21.4423V126H19.861ZM32.3962 117.271H33.9775V122.974C33.9775 123.599 33.8298 124.149 33.5342 124.623C33.2416 125.098 32.8296 125.469 32.2982 125.736C31.7668 126 31.146 126.132 30.4356 126.132C29.7224 126.132 29.1001 126 28.5687 125.736C28.0374 125.469 27.6254 125.098 27.3327 124.623C27.04 124.149 26.8937 123.599 26.8937 122.974V117.271H28.475V122.842C28.475 123.205 28.5545 123.529 28.7136 123.813C28.8756 124.098 29.1029 124.321 29.3956 124.483C29.6883 124.642 30.0349 124.721 30.4356 124.721C30.8362 124.721 31.1829 124.642 31.4756 124.483C31.7711 124.321 31.9984 124.098 32.1575 123.813C32.3167 123.529 32.3962 123.205 32.3962 122.842V117.271ZM35.6963 126V117.271H37.2776V124.674H41.1221V126H35.6963ZM42.4945 126V117.271H44.0758V124.674H47.9204V126H42.4945ZM53.391 126H51.7031L54.7762 117.271H56.7283L59.8056 126H58.1178L55.7863 119.061H55.7181L53.391 126ZM53.4464 122.577H58.0496V123.848H53.4464V122.577ZM60.9554 126V117.271H64.2288C64.8994 117.271 65.462 117.387 65.9166 117.62C66.3741 117.853 66.7193 118.18 66.9523 118.601C67.1882 119.018 67.3061 119.506 67.3061 120.063C67.3061 120.622 67.1868 121.108 66.9481 121.52C66.7122 121.93 66.3642 122.246 65.9038 122.471C65.4435 122.693 64.8781 122.803 64.2075 122.803H61.876V121.491H63.9944C64.3865 121.491 64.7076 121.437 64.9576 121.329C65.2077 121.218 65.3924 121.057 65.5117 120.847C65.6339 120.634 65.695 120.372 65.695 120.063C65.695 119.753 65.6339 119.489 65.5117 119.27C65.3895 119.048 65.2034 118.881 64.9534 118.767C64.7033 118.65 64.3808 118.592 63.9858 118.592H62.5367V126H60.9554ZM65.4648 122.045L67.6258 126H65.8612L63.7386 122.045H65.4648ZM76.2334 120.216H74.6393C74.5938 119.955 74.51 119.723 74.3878 119.521C74.2656 119.317 74.1136 119.143 73.9318 119.001C73.7499 118.859 73.5425 118.753 73.3095 118.682C73.0793 118.608 72.8307 118.571 72.5636 118.571C72.0891 118.571 71.6685 118.69 71.302 118.929C70.9354 119.165 70.6484 119.511 70.441 119.969C70.2336 120.424 70.1298 120.979 70.1298 121.635C70.1298 122.303 70.2336 122.866 70.441 123.323C70.6513 123.778 70.9383 124.122 71.302 124.355C71.6685 124.585 72.0876 124.7 72.5593 124.7C72.8207 124.7 73.0651 124.666 73.2924 124.598C73.5226 124.527 73.7286 124.423 73.9105 124.287C74.0952 124.15 74.25 123.983 74.375 123.784C74.5029 123.585 74.591 123.357 74.6393 123.102L76.2334 123.11C76.1737 123.525 76.0444 123.914 75.8455 124.278C75.6495 124.642 75.3923 124.963 75.074 125.241C74.7558 125.517 74.3836 125.733 73.9573 125.889C73.5311 126.043 73.058 126.119 72.538 126.119C71.7708 126.119 71.086 125.942 70.4836 125.587C69.8812 125.231 69.4067 124.718 69.06 124.048C68.7134 123.377 68.54 122.573 68.54 121.635C68.54 120.695 68.7148 119.891 69.0643 119.223C69.4138 118.552 69.8897 118.04 70.4921 117.684C71.0945 117.329 71.7765 117.152 72.538 117.152C73.0239 117.152 73.4757 117.22 73.8934 117.356C74.3111 117.493 74.6833 117.693 75.0101 117.957C75.3369 118.219 75.6054 118.54 75.8157 118.92C76.0288 119.298 76.168 119.73 76.2334 120.216ZM77.6815 126V117.271H79.2628V120.966H83.3076V117.271H84.8932V126H83.3076V122.292H79.2628V126H77.6815ZM88.1943 117.271V126H86.613V117.271H88.1943ZM91.0745 117.271L93.3463 124.142H93.4358L95.7033 117.271H97.4423L94.365 126H92.4128L89.3398 117.271H91.0745ZM98.592 126V117.271H104.269V118.596H100.173V120.966H103.975V122.292H100.173V124.674H104.303V126H98.592Z" fill="black" fill-opacity="0.5"/>
<g filter="url(#filter3_d_2355_2084)">
<rect x="4" y="162" width="171" height="144" rx="20" fill="#FDFBF7"/>
</g>
<circle cx="141" cy="199" r="20" fill="#810100" fill-opacity="0.2"/>
<path d="M149.297 194.433H141.731L139.291 191.993C139.159 191.86 139.002 191.754 138.828 191.682C138.655 191.61 138.469 191.574 138.281 191.574H133.574C133.195 191.574 132.831 191.725 132.563 191.993C132.295 192.261 132.145 192.625 132.145 193.004V205.923C132.145 206.288 132.29 206.637 132.548 206.894C132.806 207.152 133.155 207.297 133.519 207.297H149.377C149.734 207.297 150.077 207.155 150.331 206.901C150.584 206.648 150.726 206.305 150.726 205.947V195.862C150.726 195.483 150.576 195.12 150.308 194.852C150.04 194.584 149.676 194.433 149.297 194.433ZM133.574 193.004H138.281L139.71 194.433H133.574V193.004Z" fill="#810100"/>
<path d="M30.9009 251.431H30.7438H30.9009L32.9826 242.83L34.6715 236.506H39.5811L41.3485 264H36.2033L35.457 248.996H35.2606L32.4327 260.072H29.212L26.3841 248.996H26.1877L25.4414 264H20.2961L22.0636 236.506H26.9732L28.6621 242.83L30.7438 251.431H30.9009ZM53.3894 248.054H50.4436C50.0508 248.525 49.7235 249.18 49.4617 250.017C49.226 250.855 49.1082 251.667 49.1082 252.453H54.7248C54.7772 251.667 54.6724 250.855 54.4106 250.017C54.1487 249.153 53.8083 248.499 53.3894 248.054ZM58.731 259.876V264H48.7547C46.9218 262.769 45.6256 261.251 44.8663 259.444C44.1331 257.611 43.7665 255.765 43.7665 253.906C43.7665 249.612 45.39 246.286 48.6369 243.93H54.9997C56.7541 245.213 57.9455 246.574 58.5739 248.014C59.2023 249.454 59.5166 250.908 59.5166 252.374C59.5166 253.84 59.3987 255.097 59.1631 256.145H49.3831C49.4617 256.747 49.6843 257.441 50.0508 258.226C50.4436 258.986 50.8626 259.536 51.3077 259.876H58.731ZM77.3523 264H73.3853L72.6783 262.586C72.1022 263.11 71.5524 263.476 71.0287 263.686C70.5312 263.895 69.7718 264 68.7506 264H65.3335C64.1814 262.9 63.2649 261.46 62.5841 259.68C61.9295 257.899 61.6022 255.909 61.6022 253.709C61.6022 251.484 61.9295 249.598 62.5841 248.054C63.2649 246.509 64.2207 245.134 65.4514 243.93H68.8292C70.217 243.93 71.3167 244.296 72.1284 245.029V236.506H77.3523V264ZM72.1284 248.054H68.3579C67.389 249.703 66.9046 251.733 66.9046 254.142C66.9046 256.524 67.3759 258.436 68.3186 259.876H72.1284V248.054ZM80.7166 264V243.93H85.9011V264H80.7166ZM80.7166 236.506H85.9011V241.809H80.7166V236.506ZM98.7358 254.927H94.5331C93.9833 255.608 93.7083 256.459 93.7083 257.48C93.7083 258.501 93.9963 259.3 94.5724 259.876H98.7358V254.927ZM90.2912 243.93H100.032C101.603 244.872 102.637 245.959 103.135 247.189C103.632 248.394 103.881 250.044 103.881 252.138V258.03C103.881 260.203 103.933 262.193 104.038 264H99.5606L98.8536 262.586C97.8324 263.529 96.3922 264 94.5331 264H92.0587C89.833 262.534 88.7202 260.426 88.7202 257.676C88.7202 254.901 89.8592 252.714 92.1372 251.117H95.8293C96.8505 251.117 97.8062 251.431 98.6965 252.06V250.096C98.6965 249.075 98.2513 248.394 97.3611 248.054H90.2912V243.93Z" fill="black"/>
<path d="M19.861 286V277.271H25.453V278.596H21.4423V280.966H25.0694V282.292H21.4423V286H19.861ZM32.3962 277.271H33.9775V282.974C33.9775 283.599 33.8298 284.149 33.5342 284.623C33.2416 285.098 32.8296 285.469 32.2982 285.736C31.7668 286 31.146 286.132 30.4356 286.132C29.7224 286.132 29.1001 286 28.5687 285.736C28.0374 285.469 27.6254 285.098 27.3327 284.623C27.04 284.149 26.8937 283.599 26.8937 282.974V277.271H28.475V282.842C28.475 283.205 28.5545 283.529 28.7136 283.813C28.8756 284.098 29.1029 284.321 29.3956 284.483C29.6883 284.642 30.0349 284.721 30.4356 284.721C30.8362 284.721 31.1829 284.642 31.4756 284.483C31.7711 284.321 31.9984 284.098 32.1575 283.813C32.3167 283.529 32.3962 283.205 32.3962 282.842V277.271ZM35.6963 286V277.271H37.2776V284.674H41.1221V286H35.6963ZM42.4945 286V277.271H44.0758V284.674H47.9204V286H42.4945ZM53.391 286H51.7031L54.7762 277.271H56.7283L59.8056 286H58.1178L55.7863 279.061H55.7181L53.391 286ZM53.4464 282.577H58.0496V283.848H53.4464V282.577ZM60.9554 286V277.271H64.2288C64.8994 277.271 65.462 277.387 65.9166 277.62C66.3741 277.853 66.7193 278.18 66.9523 278.601C67.1882 279.018 67.3061 279.506 67.3061 280.063C67.3061 280.622 67.1868 281.108 66.9481 281.52C66.7122 281.93 66.3642 282.246 65.9038 282.471C65.4435 282.693 64.8781 282.803 64.2075 282.803H61.876V281.491H63.9944C64.3865 281.491 64.7076 281.437 64.9576 281.329C65.2077 281.218 65.3924 281.057 65.5117 280.847C65.6339 280.634 65.695 280.372 65.695 280.063C65.695 279.753 65.6339 279.489 65.5117 279.27C65.3895 279.048 65.2034 278.881 64.9534 278.767C64.7033 278.65 64.3808 278.592 63.9858 278.592H62.5367V286H60.9554ZM65.4648 282.045L67.6258 286H65.8612L63.7386 282.045H65.4648ZM76.2334 280.216H74.6393C74.5938 279.955 74.51 279.723 74.3878 279.521C74.2656 279.317 74.1136 279.143 73.9318 279.001C73.7499 278.859 73.5425 278.753 73.3095 278.682C73.0793 278.608 72.8307 278.571 72.5636 278.571C72.0891 278.571 71.6685 278.69 71.302 278.929C70.9354 279.165 70.6484 279.511 70.441 279.969C70.2336 280.424 70.1298 280.979 70.1298 281.635C70.1298 282.303 70.2336 282.866 70.441 283.323C70.6513 283.778 70.9383 284.122 71.302 284.355C71.6685 284.585 72.0876 284.7 72.5593 284.7C72.8207 284.7 73.0651 284.666 73.2924 284.598C73.5226 284.527 73.7286 284.423 73.9105 284.287C74.0952 284.15 74.25 283.983 74.375 283.784C74.5029 283.585 74.591 283.357 74.6393 283.102L76.2334 283.11C76.1737 283.525 76.0444 283.914 75.8455 284.278C75.6495 284.642 75.3923 284.963 75.074 285.241C74.7558 285.517 74.3836 285.733 73.9573 285.889C73.5311 286.043 73.058 286.119 72.538 286.119C71.7708 286.119 71.086 285.942 70.4836 285.587C69.8812 285.231 69.4067 284.718 69.06 284.048C68.7134 283.377 68.54 282.573 68.54 281.635C68.54 280.695 68.7148 279.891 69.0643 279.223C69.4138 278.552 69.8897 278.04 70.4921 277.684C71.0945 277.329 71.7765 277.152 72.538 277.152C73.0239 277.152 73.4757 277.22 73.8934 277.356C74.3111 277.493 74.6833 277.693 75.0101 277.957C75.3369 278.219 75.6054 278.54 75.8157 278.92C76.0288 279.298 76.168 279.73 76.2334 280.216ZM77.6815 286V277.271H79.2628V280.966H83.3076V277.271H84.8932V286H83.3076V282.292H79.2628V286H77.6815ZM88.1943 277.271V286H86.613V277.271H88.1943ZM91.0745 277.271L93.3463 284.142H93.4358L95.7033 277.271H97.4423L94.365 286H92.4128L89.3398 277.271H91.0745ZM98.592 286V277.271H104.269V278.596H100.173V280.966H103.975V282.292H100.173V284.674H104.303V286H98.592Z" fill="black" fill-opacity="0.5"/>
<defs>
<filter id="filter0_d_2355_2084" x="187" y="0" width="179" height="152" filterUnits="userSpaceOnUse" color-interpolation-filters="sRGB">
<feFlood flood-opacity="0" result="BackgroundImageFix"/>
<feColorMatrix in="SourceAlpha" type="matrix" values="0 0 0 0 0 0 0 0 0 0 0 0 0 0 0 0 0 0 127 0" result="hardAlpha"/>
<feOffset dy="2"/>
<feGaussianBlur stdDeviation="2"/>
<feComposite in2="hardAlpha" operator="out"/>
<feColorMatrix type="matrix" values="0 0 0 0 0 0 0 0 0 0 0 0 0 0 0 0 0 0 0.25 0"/>
<feBlend mode="normal" in2="BackgroundImageFix" result="effect1_dropShadow_2355_2084"/>
<feBlend mode="normal" in="SourceGraphic" in2="effect1_dropShadow_2355_2084" result="shape"/>
</filter>
<filter id="filter1_d_2355_2084" x="187" y="160" width="179" height="152" filterUnits="userSpaceOnUse" color-interpolation-filters="sRGB">
<feFlood flood-opacity="0" result="BackgroundImageFix"/>
<feColorMatrix in="SourceAlpha" type="matrix" values="0 0 0 0 0 0 0 0 0 0 0 0 0 0 0 0 0 0 127 0" result="hardAlpha"/>
<feOffset dy="2"/>
<feGaussianBlur stdDeviation="2"/>
<feComposite in2="hardAlpha" operator="out"/>
<feColorMatrix type="matrix" values="0 0 0 0 0 0 0 0 0 0 0 0 0 0 0 0 0 0 0.25 0"/>
<feBlend mode="normal" in2="BackgroundImageFix" result="effect1_dropShadow_2355_2084"/>
<feBlend mode="normal" in="SourceGraphic" in2="effect1_dropShadow_2355_2084" result="shape"/>
</filter>
<filter id="filter2_d_2355_2084" x="0" y="0" width="179" height="152" filterUnits="userSpaceOnUse" color-interpolation-filters="sRGB">
<feFlood flood-opacity="0" result="BackgroundImageFix"/>
<feColorMatrix in="SourceAlpha" type="matrix" values="0 0 0 0 0 0 0 0 0 0 0 0 0 0 0 0 0 0 127 0" result="hardAlpha"/>
<feOffset dy="2"/>
<feGaussianBlur stdDeviation="2"/>
<feComposite in2="hardAlpha" operator="out"/>
<feColorMatrix type="matrix" values="0 0 0 0 0 0 0 0 0 0 0 0 0 0 0 0 0 0 0.25 0"/>
<feBlend mode="normal" in2="BackgroundImageFix" result="effect1_dropShadow_2355_2084"/>
<feBlend mode="normal" in="SourceGraphic" in2="effect1_dropShadow_2355_2084" result="shape"/>
</filter>
<filter id="filter3_d_2355_2084" x="0" y="160" width="179" height="152" filterUnits="userSpaceOnUse" color-interpolation-filters="sRGB">
<feFlood flood-opacity="0" result="BackgroundImageFix"/>
<feColorMatrix in="SourceAlpha" type="matrix" values="0 0 0 0 0 0 0 0 0 0 0 0 0 0 0 0 0 0 127 0" result="hardAlpha"/>
<feOffset dy="2"/>
<feGaussianBlur stdDeviation="2"/>
<feComposite in2="hardAlpha" operator="out"/>
<feColorMatrix type="matrix" values="0 0 0 0 0 0 0 0 0 0 0 0 0 0 0 0 0 0 0.25 0"/>
<feBlend mode="normal" in2="BackgroundImageFix" result="effect1_dropShadow_2355_2084"/>
<feBlend mode="normal" in="SourceGraphic" in2="effect1_dropShadow_2355_2084" result="shape"/>
</filter>
</defs>
</svg>
