<svg width="358" height="136" viewBox="0 0 358 136" fill="none" xmlns="http://www.w3.org/2000/svg">
<path d="M0 25C0 11.1929 11.1929 0 25 0H333C346.807 0 358 11.1929 358 25V111C358 124.807 346.807 136 333 136H25C11.1929 136 0 124.807 0 111V25Z" fill="#DCDACD"/>
<path d="M31.9516 25.8229H28.9317C28.8765 25.4322 28.7639 25.0852 28.5938 24.7818C28.4237 24.4738 28.2054 24.2118 27.9388 23.9958C27.6722 23.7797 27.3642 23.6142 27.0149 23.4993C26.6701 23.3844 26.2955 23.327 25.891 23.327C25.1602 23.327 24.5235 23.5085 23.9811 23.8717C23.4387 24.2302 23.0181 24.7542 22.7194 25.4437C22.4206 26.1286 22.2712 26.9606 22.2712 27.9396C22.2712 28.9463 22.4206 29.7921 22.7194 30.477C23.0227 31.1618 23.4456 31.679 23.988 32.0283C24.5304 32.3776 25.1579 32.5523 25.8703 32.5523C26.2702 32.5523 26.6403 32.4995 26.9804 32.3937C27.3252 32.288 27.6308 32.134 27.8974 31.9318C28.164 31.7249 28.3847 31.4744 28.5593 31.1802C28.7386 30.8861 28.8627 30.5505 28.9317 30.1736L31.9516 30.1874C31.8735 30.8355 31.6781 31.4606 31.3656 32.0628C31.0576 32.6603 30.6416 33.1958 30.1176 33.6693C29.5982 34.1381 28.9776 34.5105 28.256 34.7863C27.5389 35.0575 26.7276 35.1931 25.8221 35.1931C24.5626 35.1931 23.4364 34.9081 22.4436 34.3381C21.4553 33.7681 20.6739 32.943 20.0993 31.8628C19.5293 30.7826 19.2443 29.4749 19.2443 27.9396C19.2443 26.3998 19.5339 25.0897 20.1131 24.0096C20.6923 22.9294 21.4783 22.1066 22.4712 21.5412C23.464 20.9712 24.581 20.6862 25.8221 20.6862C26.6403 20.6862 27.3987 20.8011 28.0974 21.031C28.8007 21.2608 29.4235 21.5963 29.9659 22.0376C30.5083 22.4743 30.9496 23.0098 31.2897 23.6441C31.6345 24.2785 31.8551 25.0047 31.9516 25.8229ZM37.0573 35.2C36.3816 35.2 35.7794 35.0827 35.2508 34.8483C34.7222 34.6093 34.3039 34.2577 33.996 33.7934C33.6926 33.3245 33.5409 32.7408 33.5409 32.0421C33.5409 31.4537 33.6489 30.9596 33.865 30.5597C34.081 30.1598 34.3752 29.838 34.7475 29.5944C35.1198 29.3508 35.5427 29.1669 36.0162 29.0428C36.4942 28.9187 36.9952 28.8314 37.5192 28.7808C38.1352 28.7165 38.6316 28.6567 39.0085 28.6015C39.3855 28.5418 39.659 28.4545 39.829 28.3395C39.9991 28.2246 40.0841 28.0546 40.0841 27.8293V27.7879C40.0841 27.3513 39.9462 27.0134 39.6704 26.7744C39.3993 26.5354 39.0131 26.4159 38.5121 26.4159C37.9835 26.4159 37.5629 26.5331 37.2503 26.7675C36.9378 26.9973 36.7309 27.2869 36.6298 27.6363L33.9132 27.4156C34.0511 26.7721 34.3223 26.2159 34.7268 25.7471C35.1313 25.2736 35.653 24.9105 36.292 24.6577C36.9355 24.4003 37.6801 24.2716 38.5259 24.2716C39.1143 24.2716 39.6773 24.3405 40.2151 24.4784C40.7575 24.6163 41.2379 24.83 41.6562 25.1196C42.0791 25.4092 42.4123 25.7815 42.6559 26.2366C42.8996 26.6871 43.0214 27.2272 43.0214 27.8569V35H40.2358V33.5314H40.1531C39.983 33.8623 39.7555 34.1542 39.4705 34.407C39.1855 34.6553 38.8431 34.8506 38.4432 34.9931C38.0433 35.131 37.5813 35.2 37.0573 35.2ZM37.8985 33.1729C38.3305 33.1729 38.7121 33.0878 39.043 32.9177C39.374 32.7431 39.6337 32.5086 39.8221 32.2145C40.0106 31.9203 40.1048 31.587 40.1048 31.2147V30.0908C40.0129 30.1506 39.8865 30.2058 39.7256 30.2563C39.5693 30.3023 39.3924 30.346 39.1947 30.3873C38.997 30.4241 38.7994 30.4586 38.6017 30.4907C38.4041 30.5183 38.2248 30.5436 38.0639 30.5666C37.7192 30.6172 37.4181 30.6976 37.1607 30.8079C36.9033 30.9182 36.7033 31.0676 36.5609 31.2561C36.4184 31.4399 36.3471 31.6698 36.3471 31.9456C36.3471 32.3455 36.4919 32.6511 36.7815 32.8626C37.0757 33.0694 37.448 33.1729 37.8985 33.1729ZM45.3001 38.9715V24.4095H48.196V26.1883H48.327C48.4557 25.9033 48.6418 25.6138 48.8855 25.3196C49.1337 25.0208 49.4554 24.7726 49.8508 24.5749C50.2507 24.3727 50.7471 24.2716 51.34 24.2716C52.1123 24.2716 52.8247 24.4738 53.4775 24.8783C54.1302 25.2782 54.6519 25.8827 55.0426 26.6917C55.4333 27.4961 55.6287 28.505 55.6287 29.7185C55.6287 30.8998 55.4379 31.8973 55.0564 32.7109C54.6795 33.5199 54.1647 34.1335 53.5119 34.5518C52.8638 34.9655 52.1376 35.1724 51.3332 35.1724C50.7632 35.1724 50.2782 35.0781 49.8783 34.8897C49.483 34.7012 49.159 34.4645 48.9062 34.1795C48.6533 33.8899 48.4603 33.598 48.327 33.3039H48.2373V38.9715H45.3001ZM48.1753 29.7047C48.1753 30.3345 48.2626 30.8838 48.4373 31.3526C48.612 31.8215 48.8648 32.1869 49.1957 32.4489C49.5267 32.7063 49.9289 32.835 50.4023 32.835C50.8804 32.835 51.2849 32.704 51.6158 32.442C51.9468 32.1754 52.1973 31.8077 52.3674 31.3388C52.5421 30.8654 52.6294 30.3207 52.6294 29.7047C52.6294 29.0934 52.5444 28.5556 52.3743 28.0913C52.2042 27.6271 51.9537 27.2639 51.6227 27.0019C51.2918 26.7399 50.885 26.6089 50.4023 26.6089C49.9243 26.6089 49.5198 26.7353 49.1888 26.9881C48.8625 27.241 48.612 27.5995 48.4373 28.0637C48.2626 28.528 48.1753 29.075 48.1753 29.7047ZM63.2199 24.4095V26.6158H56.8422V24.4095H63.2199ZM58.2901 21.8721H61.2273V31.7456C61.2273 32.0168 61.2687 32.2283 61.3514 32.3799C61.4342 32.527 61.5491 32.6305 61.6962 32.6902C61.8479 32.75 62.0225 32.7798 62.2202 32.7798C62.3581 32.7798 62.496 32.7684 62.6339 32.7454C62.7718 32.7178 62.8775 32.6971 62.951 32.6833L63.413 34.869C63.2659 34.915 63.0591 34.9678 62.7925 35.0276C62.5258 35.0919 62.2018 35.131 61.8203 35.1448C61.1124 35.1724 60.4919 35.0781 59.9587 34.8621C59.43 34.6461 59.0186 34.3105 58.7245 33.8554C58.4303 33.4004 58.2855 32.8258 58.2901 32.1317V21.8721ZM65.1333 35V24.4095H68.0705V35H65.1333ZM66.6088 23.0443C66.1721 23.0443 65.7975 22.8995 65.4849 22.6099C65.1769 22.3157 65.0229 21.9641 65.0229 21.555C65.0229 21.1505 65.1769 20.8034 65.4849 20.5138C65.7975 20.2197 66.1721 20.0726 66.6088 20.0726C67.0454 20.0726 67.4178 20.2197 67.7257 20.5138C68.0383 20.8034 68.1946 21.1505 68.1946 21.555C68.1946 21.9641 68.0383 22.3157 67.7257 22.6099C67.4178 22.8995 67.0454 23.0443 66.6088 23.0443ZM75.2084 35.2068C74.1374 35.2068 73.2112 34.9793 72.4298 34.5243C71.653 34.0646 71.0531 33.4257 70.6302 32.6075C70.2073 31.7847 69.9959 30.8309 69.9959 29.7461C69.9959 28.6521 70.2073 27.696 70.6302 26.8778C71.0531 26.055 71.653 25.4161 72.4298 24.961C73.2112 24.5014 74.1374 24.2716 75.2084 24.2716C76.2794 24.2716 77.2033 24.5014 77.9802 24.961C78.7616 25.4161 79.3637 26.055 79.7866 26.8778C80.2095 27.696 80.421 28.6521 80.421 29.7461C80.421 30.8309 80.2095 31.7847 79.7866 32.6075C79.3637 33.4257 78.7616 34.0646 77.9802 34.5243C77.2033 34.9793 76.2794 35.2068 75.2084 35.2068ZM75.2222 32.9315C75.7094 32.9315 76.1162 32.7936 76.4426 32.5178C76.769 32.2374 77.0149 31.8559 77.1804 31.3733C77.3504 30.8906 77.4355 30.3414 77.4355 29.7254C77.4355 29.1095 77.3504 28.5602 77.1804 28.0775C77.0149 27.5949 76.769 27.2134 76.4426 26.933C76.1162 26.6526 75.7094 26.5124 75.2222 26.5124C74.7304 26.5124 74.3167 26.6526 73.9811 26.933C73.6502 27.2134 73.3997 27.5949 73.2296 28.0775C73.0641 28.5602 72.9814 29.1095 72.9814 29.7254C72.9814 30.3414 73.0641 30.8906 73.2296 31.3733C73.3997 31.8559 73.6502 32.2374 73.9811 32.5178C74.3167 32.7936 74.7304 32.9315 75.2222 32.9315ZM85.2681 28.8773V35H82.3308V24.4095H85.1302V26.278H85.2543C85.4887 25.662 85.8817 25.1748 86.4333 24.8163C86.9849 24.4531 87.6537 24.2716 88.4397 24.2716C89.1752 24.2716 89.8164 24.4324 90.3634 24.7542C90.9104 25.076 91.3356 25.5356 91.6389 26.1332C91.9423 26.7261 92.094 27.434 92.094 28.2568V35H89.1568V28.7808C89.1614 28.1327 88.9959 27.6271 88.6603 27.2639C88.3248 26.8962 87.8628 26.7123 87.2745 26.7123C86.8792 26.7123 86.5298 26.7974 86.2264 26.9675C85.9277 27.1375 85.6932 27.3857 85.5232 27.7121C85.3577 28.0339 85.2727 28.4223 85.2681 28.8773ZM104.536 24.4095V26.6158H98.1581V24.4095H104.536ZM99.606 21.8721H102.543V31.7456C102.543 32.0168 102.585 32.2283 102.667 32.3799C102.75 32.527 102.865 32.6305 103.012 32.6902C103.164 32.75 103.338 32.7798 103.536 32.7798C103.674 32.7798 103.812 32.7684 103.95 32.7454C104.088 32.7178 104.193 32.6971 104.267 32.6833L104.729 34.869C104.582 34.915 104.375 34.9678 104.108 35.0276C103.842 35.0919 103.518 35.131 103.136 35.1448C102.428 35.1724 101.808 35.0781 101.275 34.8621C100.746 34.6461 100.335 34.3105 100.04 33.8554C99.7462 33.4004 99.6014 32.8258 99.606 32.1317V21.8721ZM109.614 28.8773V35H106.677V20.8793H109.531V26.278H109.655C109.894 25.6528 110.28 25.1633 110.814 24.8094C111.347 24.4508 112.016 24.2716 112.82 24.2716C113.555 24.2716 114.197 24.4324 114.744 24.7542C115.295 25.0714 115.723 25.5287 116.026 26.1263C116.334 26.7192 116.486 27.4294 116.481 28.2568V35H113.544V28.7808C113.549 28.1281 113.383 27.6202 113.048 27.257C112.717 26.8939 112.252 26.7123 111.655 26.7123C111.255 26.7123 110.901 26.7974 110.593 26.9675C110.29 27.1375 110.051 27.3857 109.876 27.7121C109.706 28.0339 109.618 28.4223 109.614 28.8773ZM118.793 35V24.4095H121.73V35H118.793ZM120.268 23.0443C119.832 23.0443 119.457 22.8995 119.144 22.6099C118.836 22.3157 118.682 21.9641 118.682 21.555C118.682 21.1505 118.836 20.8034 119.144 20.5138C119.457 20.2197 119.832 20.0726 120.268 20.0726C120.705 20.0726 121.077 20.2197 121.385 20.5138C121.698 20.8034 121.854 21.1505 121.854 21.555C121.854 21.9641 121.698 22.3157 121.385 22.6099C121.077 22.8995 120.705 23.0443 120.268 23.0443ZM132.894 27.4294L130.205 27.5949C130.16 27.3651 130.061 27.1582 129.909 26.9744C129.757 26.7859 129.557 26.6365 129.309 26.5262C129.066 26.4113 128.774 26.3538 128.433 26.3538C127.978 26.3538 127.595 26.4503 127.282 26.6434C126.969 26.8319 126.813 27.0847 126.813 27.4018C126.813 27.6546 126.914 27.8684 127.117 28.0431C127.319 28.2177 127.666 28.3579 128.158 28.4636L130.074 28.8498C131.104 29.0612 131.872 29.4014 132.377 29.8702C132.883 30.3391 133.136 30.955 133.136 31.718C133.136 32.4121 132.931 33.0212 132.522 33.5452C132.118 34.0692 131.561 34.4783 130.854 34.7725C130.15 35.0621 129.339 35.2068 128.42 35.2068C127.018 35.2068 125.901 34.915 125.069 34.3312C124.241 33.7428 123.756 32.943 123.614 31.9318L126.503 31.7801C126.59 32.2076 126.802 32.5339 127.137 32.7592C127.473 32.9798 127.903 33.0901 128.427 33.0901C128.941 33.0901 129.355 32.9913 129.668 32.7936C129.985 32.5914 130.146 32.3317 130.15 32.0145C130.146 31.7479 130.033 31.5296 129.812 31.3595C129.592 31.1848 129.252 31.0515 128.792 30.9596L126.958 30.5942C125.924 30.3873 125.154 30.0288 124.648 29.5186C124.147 29.0083 123.897 28.3579 123.897 27.5673C123.897 26.887 124.081 26.301 124.448 25.8091C124.821 25.3173 125.342 24.9381 126.013 24.6715C126.689 24.4049 127.48 24.2716 128.385 24.2716C129.723 24.2716 130.775 24.5542 131.543 25.1196C132.315 25.685 132.766 26.4549 132.894 27.4294ZM137.509 30.7665V30.5321C137.513 29.7277 137.585 29.0865 137.723 28.6084C137.865 28.1304 138.072 27.7443 138.343 27.4501C138.614 27.1559 138.941 26.8893 139.322 26.6503C139.607 26.4664 139.862 26.2757 140.088 26.078C140.313 25.8804 140.492 25.662 140.625 25.423C140.759 25.1794 140.825 24.9082 140.825 24.6094C140.825 24.2922 140.749 24.0141 140.598 23.7751C140.446 23.5361 140.242 23.3522 139.984 23.2235C139.731 23.0948 139.451 23.0305 139.143 23.0305C138.844 23.0305 138.562 23.0971 138.295 23.2304C138.028 23.3591 137.81 23.5522 137.64 23.8096C137.47 24.0624 137.378 24.3773 137.364 24.7542H134.551C134.574 23.8349 134.795 23.0764 135.213 22.4789C135.631 21.8767 136.185 21.4286 136.875 21.1344C137.564 20.8356 138.325 20.6862 139.157 20.6862C140.071 20.6862 140.88 20.8379 141.584 21.1413C142.287 21.4401 142.839 21.8744 143.239 22.4444C143.638 23.0144 143.838 23.7016 143.838 24.506C143.838 25.0438 143.749 25.5218 143.569 25.9401C143.395 26.3538 143.149 26.7215 142.832 27.0433C142.515 27.3605 142.14 27.6478 141.708 27.9052C141.345 28.1212 141.046 28.3464 140.812 28.5809C140.582 28.8153 140.409 29.0865 140.294 29.3945C140.184 29.7024 140.127 30.0816 140.122 30.5321V30.7665H137.509ZM138.874 35.1793C138.414 35.1793 138.021 35.0184 137.695 34.6966C137.373 34.3703 137.215 33.9796 137.219 33.5245C137.215 33.074 137.373 32.6879 137.695 32.3662C138.021 32.0444 138.414 31.8835 138.874 31.8835C139.311 31.8835 139.695 32.0444 140.026 32.3662C140.356 32.6879 140.524 33.074 140.529 33.5245C140.524 33.8279 140.444 34.106 140.288 34.3588C140.136 34.607 139.936 34.8069 139.688 34.9586C139.439 35.1057 139.168 35.1793 138.874 35.1793Z" fill="#181717"/>
<path d="M25.0704 52.4532V53.3056H21.6777V52.4532H25.0704ZM22.6665 50.8847H23.6724V57.1246C23.6724 57.4088 23.7136 57.6219 23.796 57.7639C23.8812 57.9032 23.9892 57.997 24.1199 58.0453C24.2535 58.0907 24.3941 58.1135 24.5419 58.1135C24.6527 58.1135 24.7436 58.1078 24.8147 58.0964C24.8857 58.0822 24.9425 58.0708 24.9852 58.0623L25.1897 58.9659C25.1216 58.9915 25.0264 59.017 24.9042 59.0426C24.782 59.071 24.6271 59.0852 24.4396 59.0852C24.1554 59.0852 23.877 59.0242 23.6042 58.902C23.3343 58.7798 23.1098 58.5937 22.9308 58.3436C22.7546 58.0936 22.6665 57.7782 22.6665 57.3974V50.8847ZM27.73 55.0617V59H26.7242V50.2709H27.73V53.4761H27.8153C27.9687 53.138 28.1989 52.8695 28.5058 52.6706C28.8155 52.4688 29.2275 52.368 29.7418 52.368C30.1879 52.368 30.5786 52.4575 30.9139 52.6365C31.2492 52.8126 31.5092 53.084 31.6939 53.4506C31.8815 53.8143 31.9752 54.2774 31.9752 54.8401V59H30.9693V54.9082C30.9693 54.3883 30.8344 53.9862 30.5644 53.702C30.2973 53.415 29.9265 53.2715 29.452 53.2715C29.1224 53.2715 28.8269 53.3412 28.5654 53.4804C28.3069 53.6196 28.1023 53.8228 27.9517 54.0899C27.8039 54.357 27.73 54.6809 27.73 55.0617ZM33.8155 59V52.4532H34.8213V59H33.8155ZM34.3269 51.3621C34.1309 51.3621 33.9618 51.2953 33.8197 51.1617C33.6805 51.0282 33.6109 50.8676 33.6109 50.6801C33.6109 50.4926 33.6805 50.332 33.8197 50.1985C33.9618 50.0649 34.1309 49.9981 34.3269 49.9981C34.523 49.9981 34.6906 50.0649 34.8299 50.1985C34.9719 50.332 35.043 50.4926 35.043 50.6801C35.043 50.8676 34.9719 51.0282 34.8299 51.1617C34.6906 51.2953 34.523 51.3621 34.3269 51.3621ZM37.6696 55.0617V59H36.6637V52.4532H37.6355V53.4761H37.7207C37.8742 53.1437 38.1072 52.8766 38.4197 52.6748C38.7323 52.4702 39.1358 52.368 39.6302 52.368C40.0735 52.368 40.4614 52.4589 40.7938 52.6407C41.1263 52.8197 41.3848 53.0925 41.5695 53.4591C41.7542 53.8228 41.8466 54.2831 41.8466 54.8401V59H40.8407V54.9082C40.8407 54.3939 40.7071 53.9933 40.44 53.7063C40.1729 53.4165 39.8064 53.2715 39.3404 53.2715C39.0193 53.2715 38.7323 53.3412 38.4794 53.4804C38.2294 53.6196 38.0319 53.8228 37.887 54.0899C37.742 54.357 37.6696 54.6809 37.6696 55.0617ZM44.6224 56.6131L44.6053 55.3686H44.8099L47.6741 52.4532H48.9187L45.8669 55.5391H45.7817L44.6224 56.6131ZM43.6847 59V50.2709H44.6906V59H43.6847ZM47.8446 59L45.2873 55.7607L46.0033 55.0617L49.1233 59H47.8446ZM50.2134 59V52.4532H51.2193V59H50.2134ZM50.7248 51.3621C50.5288 51.3621 50.3597 51.2953 50.2176 51.1617C50.0784 51.0282 50.0088 50.8676 50.0088 50.6801C50.0088 50.4926 50.0784 50.332 50.2176 50.1985C50.3597 50.0649 50.5288 49.9981 50.7248 49.9981C50.9209 49.9981 51.0885 50.0649 51.2278 50.1985C51.3699 50.332 51.4409 50.4926 51.4409 50.6801C51.4409 50.8676 51.3699 51.0282 51.2278 51.1617C51.0885 51.2953 50.9209 51.3621 50.7248 51.3621ZM54.0675 55.0617V59H53.0616V52.4532H54.0334V53.4761H54.1186C54.2721 53.1437 54.5051 52.8766 54.8177 52.6748C55.1302 52.4702 55.5337 52.368 56.0281 52.368C56.4714 52.368 56.8593 52.4589 57.1917 52.6407C57.5242 52.8197 57.7828 53.0925 57.9674 53.4591C58.1521 53.8228 58.2445 54.2831 58.2445 54.8401V59H57.2386V54.9082C57.2386 54.3939 57.1051 53.9933 56.838 53.7063C56.5709 53.4165 56.2043 53.2715 55.7383 53.2715C55.4172 53.2715 55.1302 53.3412 54.8773 53.4804C54.6273 53.6196 54.4298 53.8228 54.2849 54.0899C54.14 54.357 54.0675 54.6809 54.0675 55.0617ZM62.7252 61.5914C62.2393 61.5914 61.8216 61.5289 61.4721 61.4039C61.1226 61.2817 60.8313 61.1198 60.5983 60.918C60.3682 60.7191 60.1849 60.506 60.0485 60.2787L60.8498 59.7161C60.9407 59.8354 61.0558 59.9718 61.195 60.1252C61.3343 60.2815 61.5246 60.4165 61.7662 60.5301C62.0105 60.6466 62.3302 60.7049 62.7252 60.7049C63.2537 60.7049 63.6899 60.577 64.0337 60.3213C64.3775 60.0656 64.5494 59.6649 64.5494 59.1193V57.7895H64.4642C64.3903 57.9089 64.2852 58.0566 64.1488 58.2328C64.0152 58.4061 63.822 58.561 63.5691 58.6974C63.319 58.8309 62.9809 58.8977 62.5547 58.8977C62.0262 58.8977 61.5516 58.7727 61.1311 58.5226C60.7134 58.2726 60.3824 57.9089 60.138 57.4315C59.8965 56.9541 59.7757 56.3745 59.7757 55.6925C59.7757 55.0219 59.8936 54.438 60.1295 53.9407C60.3653 53.4406 60.6935 53.0542 61.114 52.7814C61.5346 52.5058 62.0205 52.368 62.5717 52.368C62.998 52.368 63.3361 52.439 63.5861 52.5811C63.839 52.7203 64.0323 52.8794 64.1658 53.0584C64.3022 53.2346 64.4073 53.3795 64.4812 53.4932H64.5835V52.4532H65.5553V59.1875C65.5553 59.7502 65.4274 60.2076 65.1717 60.56C64.9188 60.9152 64.5778 61.1752 64.1488 61.34C63.7225 61.5076 63.248 61.5914 62.7252 61.5914ZM62.6911 57.9941C63.0946 57.9941 63.4355 57.9018 63.714 57.7171C63.9925 57.5324 64.2042 57.2667 64.3491 56.92C64.494 56.5734 64.5665 56.1585 64.5665 55.6755C64.5665 55.2038 64.4954 54.7875 64.3534 54.4266C64.2113 54.0657 64.001 53.783 63.7225 53.5784C63.4441 53.3738 63.1003 53.2715 62.6911 53.2715C62.2649 53.2715 61.9097 53.3795 61.6255 53.5955C61.3442 53.8114 61.1325 54.1013 60.9904 54.465C60.8512 54.8287 60.7816 55.2322 60.7816 55.6755C60.7816 56.1301 60.8526 56.5322 60.9947 56.8817C61.1396 57.2283 61.3527 57.5011 61.634 57.7C61.9182 57.8961 62.2705 57.9941 62.6911 57.9941ZM68.1297 59.0682C67.9194 59.0682 67.739 58.9929 67.5884 58.8423C67.4378 58.6917 67.3625 58.5113 67.3625 58.301C67.3625 58.0907 67.4378 57.9103 67.5884 57.7597C67.739 57.6091 67.9194 57.5338 68.1297 57.5338C68.34 57.5338 68.5204 57.6091 68.671 57.7597C68.8216 57.9103 68.8969 58.0907 68.8969 58.301C68.8969 58.4402 68.8614 58.5681 68.7903 58.6846C68.7221 58.8011 68.6298 58.8949 68.5133 58.9659C68.3996 59.0341 68.2718 59.0682 68.1297 59.0682ZM71.4351 59.0682C71.2248 59.0682 71.0444 58.9929 70.8938 58.8423C70.7432 58.6917 70.6679 58.5113 70.6679 58.301C70.6679 58.0907 70.7432 57.9103 70.8938 57.7597C71.0444 57.6091 71.2248 57.5338 71.4351 57.5338C71.6453 57.5338 71.8258 57.6091 71.9764 57.7597C72.127 57.9103 72.2023 58.0907 72.2023 58.301C72.2023 58.4402 72.1667 58.5681 72.0957 58.6846C72.0275 58.8011 71.9352 58.8949 71.8187 58.9659C71.705 59.0341 71.5771 59.0682 71.4351 59.0682ZM74.7404 59.0682C74.5302 59.0682 74.3497 58.9929 74.1991 58.8423C74.0485 58.6917 73.9732 58.5113 73.9732 58.301C73.9732 58.0907 74.0485 57.9103 74.1991 57.7597C74.3497 57.6091 74.5302 57.5338 74.7404 57.5338C74.9507 57.5338 75.1311 57.6091 75.2817 57.7597C75.4323 57.9103 75.5076 58.0907 75.5076 58.301C75.5076 58.4402 75.4721 58.5681 75.4011 58.6846C75.3329 58.8011 75.2405 58.8949 75.124 58.9659C75.0104 59.0341 74.8825 59.0682 74.7404 59.0682ZM78.0458 59.0682C77.8355 59.0682 77.6551 58.9929 77.5045 58.8423C77.3539 58.6917 77.2786 58.5113 77.2786 58.301C77.2786 58.0907 77.3539 57.9103 77.5045 57.7597C77.6551 57.6091 77.8355 57.5338 78.0458 57.5338C78.2561 57.5338 78.4365 57.6091 78.5871 57.7597C78.7377 57.9103 78.813 58.0907 78.813 58.301C78.813 58.4402 78.7775 58.5681 78.7064 58.6846C78.6383 58.8011 78.5459 58.8949 78.4294 58.9659C78.3157 59.0341 78.1879 59.0682 78.0458 59.0682Z" fill="#181717"/>
<circle cx="322.5" cy="102.5" r="18.5" fill="#810100" fill-opacity="0.2"/>
<path d="M322.433 92.4297C320.349 92.4321 318.351 93.261 316.877 94.7347C315.404 96.2083 314.575 98.2064 314.572 100.29C314.572 103.095 315.868 106.068 318.324 108.888C319.427 110.163 320.669 111.31 322.027 112.309C322.147 112.394 322.29 112.439 322.437 112.439C322.583 112.439 322.726 112.394 322.847 112.309C324.202 111.31 325.441 110.162 326.542 108.888C328.994 106.068 330.294 103.095 330.294 100.29C330.291 98.2064 329.463 96.2083 327.989 94.7347C326.515 93.261 324.517 92.4321 322.433 92.4297ZM325.292 101.005H323.148V103.149C323.148 103.338 323.072 103.52 322.938 103.654C322.804 103.788 322.623 103.864 322.433 103.864C322.244 103.864 322.062 103.788 321.928 103.654C321.794 103.52 321.718 103.338 321.718 103.149V101.005H319.575C319.385 101.005 319.203 100.93 319.069 100.796C318.935 100.662 318.86 100.48 318.86 100.29C318.86 100.101 318.935 99.9192 319.069 99.7852C319.203 99.6511 319.385 99.5759 319.575 99.5759H321.718V97.432C321.718 97.2425 321.794 97.0607 321.928 96.9267C322.062 96.7927 322.244 96.7174 322.433 96.7174C322.623 96.7174 322.804 96.7927 322.938 96.9267C323.072 97.0607 323.148 97.2425 323.148 97.432V99.5759H325.292C325.481 99.5759 325.663 99.6511 325.797 99.7852C325.931 99.9192 326.006 100.101 326.006 100.29C326.006 100.48 325.931 100.662 325.797 100.796C325.663 100.93 325.481 101.005 325.292 101.005Z" fill="#810100"/>
</svg>
