
<svg width="366" height="152" viewBox="0 0 366 152" fill="none" xmlns="http://www.w3.org/2000/svg">
<g filter="url(#filter0_d_2017_1018)">
<rect x="191" y="2" width="171" height="144" rx="20" fill="#FDFBF7"/>
</g>
<path d="M218.555 78.5062L212.231 95.3952H218.044V88.2468H223.15V106H218.044V100.305H210.778C208.5 99.1265 207.361 97.3067 207.361 94.8454C207.361 93.7194 207.989 91.5854 209.246 88.4432L213.174 78.5062H218.555ZM233.932 89.8572V90.0536C237.52 91.1795 239.313 93.6278 239.313 97.3984C239.313 99.3098 238.803 101.025 237.781 102.544C236.786 104.062 235.674 105.214 234.443 106H225.488V101.444H232.243C232.558 101.156 232.911 100.58 233.304 99.7157C233.697 98.8516 233.893 97.9744 233.893 97.0841C233.893 95.4345 233.304 94.2169 232.126 93.4314H228.944V89.1502L233.697 83.6515L233.5 83.2194H225.645V78.5062H235.111C237.336 79.4488 238.449 80.9413 238.449 82.9837C238.449 84.5548 237.729 86.0604 236.289 87.5006L233.932 89.8572ZM251.378 85.9295H254.167L255.149 87.3042C255.699 86.8067 256.222 86.4532 256.72 86.2437C257.244 86.0342 258.016 85.9295 259.037 85.9295H263.397C264.549 87.3958 265.335 88.8622 265.754 90.3285C266.173 91.7949 266.382 93.6278 266.382 95.8273V106H261.158V95.4345C261.158 93.0255 260.792 91.2319 260.058 90.0536H256.288C256.864 91.1795 257.152 92.7113 257.152 94.649V106H251.928V95.4345C251.928 92.947 251.588 91.1533 250.907 90.0536H247.883V106H242.659V85.9295H246.744L247.451 87.3435C248.027 86.8198 248.563 86.4532 249.061 86.2437C249.585 86.0342 250.357 85.9295 251.378 85.9295Z" fill="black"/>
<path d="M206.982 124H205.294L208.367 115.271H210.319L213.397 124H211.709L209.377 117.061H209.309L206.982 124ZM207.037 120.577H211.641V121.848H207.037V120.577ZM220.049 115.271H221.63V120.974C221.63 121.599 221.482 122.149 221.187 122.623C220.894 123.098 220.482 123.469 219.951 123.736C219.42 124 218.799 124.132 218.088 124.132C217.375 124.132 216.753 124 216.221 123.736C215.69 123.469 215.278 123.098 214.985 122.623C214.693 122.149 214.546 121.599 214.546 120.974V115.271H216.128V120.842C216.128 121.205 216.207 121.529 216.366 121.813C216.528 122.098 216.756 122.321 217.048 122.483C217.341 122.642 217.688 122.721 218.088 122.721C218.489 122.721 218.836 122.642 219.128 122.483C219.424 122.321 219.651 122.098 219.81 121.813C219.969 121.529 220.049 121.205 220.049 120.842V115.271ZM226.307 124H223.349V115.271H226.367C227.233 115.271 227.978 115.446 228.6 115.795C229.225 116.142 229.705 116.641 230.041 117.291C230.376 117.942 230.544 118.721 230.544 119.627C230.544 120.536 230.375 121.318 230.036 121.971C229.701 122.625 229.217 123.126 228.583 123.476C227.952 123.825 227.193 124 226.307 124ZM224.93 122.632H226.23C226.838 122.632 227.346 122.521 227.752 122.299C228.158 122.075 228.464 121.741 228.668 121.298C228.873 120.852 228.975 120.295 228.975 119.627C228.975 118.959 228.873 118.405 228.668 117.965C228.464 117.521 228.161 117.19 227.76 116.972C227.363 116.75 226.868 116.639 226.277 116.639H224.93V122.632ZM233.627 115.271V124H232.046V115.271H233.627ZM243.14 119.635C243.14 120.576 242.963 121.382 242.611 122.052C242.262 122.72 241.784 123.231 241.179 123.587C240.577 123.942 239.893 124.119 239.129 124.119C238.364 124.119 237.68 123.942 237.074 123.587C236.472 123.229 235.995 122.716 235.642 122.048C235.293 121.377 235.118 120.573 235.118 119.635C235.118 118.695 235.293 117.891 235.642 117.223C235.995 116.552 236.472 116.04 237.074 115.684C237.68 115.329 238.364 115.152 239.129 115.152C239.893 115.152 240.577 115.329 241.179 115.684C241.784 116.04 242.262 116.552 242.611 117.223C242.963 117.891 243.14 118.695 243.14 119.635ZM241.55 119.635C241.55 118.973 241.446 118.415 241.239 117.96C241.034 117.503 240.75 117.158 240.386 116.925C240.022 116.689 239.603 116.571 239.129 116.571C238.654 116.571 238.235 116.689 237.871 116.925C237.508 117.158 237.222 117.503 237.015 117.96C236.81 118.415 236.708 118.973 236.708 119.635C236.708 120.298 236.81 120.857 237.015 121.315C237.222 121.769 237.508 122.115 237.871 122.351C238.235 122.584 238.654 122.7 239.129 122.7C239.603 122.7 240.022 122.584 240.386 122.351C240.75 122.115 241.034 121.769 241.239 121.315C241.446 120.857 241.55 120.298 241.55 119.635ZM247.612 124V115.271H249.193V122.674H253.038V124H247.612ZM261.87 119.635C261.87 120.576 261.694 121.382 261.342 122.052C260.992 122.72 260.515 123.231 259.909 123.587C259.307 123.942 258.624 124.119 257.859 124.119C257.095 124.119 256.41 123.942 255.805 123.587C255.202 123.229 254.725 122.716 254.373 122.048C254.023 121.377 253.848 120.573 253.848 119.635C253.848 118.695 254.023 117.891 254.373 117.223C254.725 116.552 255.202 116.04 255.805 115.684C256.41 115.329 257.095 115.152 257.859 115.152C258.624 115.152 259.307 115.329 259.909 115.684C260.515 116.04 260.992 116.552 261.342 117.223C261.694 117.891 261.87 118.695 261.87 119.635ZM260.28 119.635C260.28 118.973 260.176 118.415 259.969 117.96C259.764 117.503 259.48 117.158 259.117 116.925C258.753 116.689 258.334 116.571 257.859 116.571C257.385 116.571 256.966 116.689 256.602 116.925C256.238 117.158 255.953 117.503 255.745 117.96C255.541 118.415 255.438 118.973 255.438 119.635C255.438 120.298 255.541 120.857 255.745 121.315C255.953 121.769 256.238 122.115 256.602 122.351C256.966 122.584 257.385 122.7 257.859 122.7C258.334 122.7 258.753 122.584 259.117 122.351C259.48 122.115 259.764 121.769 259.969 121.315C260.176 120.857 260.28 120.298 260.28 119.635ZM269.213 118.058C269.142 117.828 269.044 117.622 268.919 117.44C268.797 117.256 268.649 117.098 268.475 116.967C268.305 116.837 268.109 116.739 267.887 116.673C267.666 116.605 267.424 116.571 267.163 116.571C266.694 116.571 266.276 116.689 265.91 116.925C265.543 117.161 265.255 117.507 265.044 117.965C264.837 118.419 264.733 118.973 264.733 119.627C264.733 120.286 264.837 120.845 265.044 121.302C265.252 121.759 265.54 122.108 265.91 122.346C266.279 122.582 266.708 122.7 267.197 122.7C267.64 122.7 268.024 122.615 268.348 122.444C268.674 122.274 268.926 122.032 269.102 121.72C269.278 121.404 269.366 121.035 269.366 120.612L269.724 120.667H267.354V119.431H270.896V120.479C270.896 121.227 270.737 121.873 270.419 122.419C270.101 122.964 269.663 123.385 269.106 123.68C268.549 123.973 267.91 124.119 267.188 124.119C266.384 124.119 265.678 123.939 265.07 123.578C264.465 123.214 263.992 122.699 263.651 122.031C263.312 121.36 263.143 120.565 263.143 119.644C263.143 118.939 263.243 118.31 263.442 117.756C263.643 117.202 263.925 116.731 264.286 116.345C264.647 115.956 265.07 115.66 265.556 115.458C266.042 115.254 266.57 115.152 267.141 115.152C267.624 115.152 268.075 115.223 268.492 115.365C268.91 115.504 269.281 115.703 269.605 115.961C269.932 116.22 270.2 116.527 270.41 116.882C270.621 117.237 270.759 117.629 270.824 118.058H269.213ZM278.273 118.058C278.202 117.828 278.104 117.622 277.979 117.44C277.857 117.256 277.709 117.098 277.536 116.967C277.365 116.837 277.169 116.739 276.948 116.673C276.726 116.605 276.485 116.571 276.223 116.571C275.754 116.571 275.337 116.689 274.97 116.925C274.603 117.161 274.315 117.507 274.105 117.965C273.897 118.419 273.794 118.973 273.794 119.627C273.794 120.286 273.897 120.845 274.105 121.302C274.312 121.759 274.601 122.108 274.97 122.346C275.339 122.582 275.768 122.7 276.257 122.7C276.7 122.7 277.084 122.615 277.408 122.444C277.735 122.274 277.986 122.032 278.162 121.72C278.339 121.404 278.427 121.035 278.427 120.612L278.785 120.667H276.415V119.431H279.957V120.479C279.957 121.227 279.798 121.873 279.479 122.419C279.161 122.964 278.724 123.385 278.167 123.68C277.61 123.973 276.97 124.119 276.249 124.119C275.445 124.119 274.738 123.939 274.13 123.578C273.525 123.214 273.052 122.699 272.711 122.031C272.373 121.36 272.204 120.565 272.204 119.644C272.204 118.939 272.303 118.31 272.502 117.756C272.704 117.202 272.985 116.731 273.346 116.345C273.707 115.956 274.13 115.66 274.616 115.458C275.102 115.254 275.631 115.152 276.202 115.152C276.685 115.152 277.135 115.223 277.553 115.365C277.971 115.504 278.341 115.703 278.665 115.961C278.992 116.22 279.261 116.527 279.471 116.882C279.681 117.237 279.819 117.629 279.884 118.058H278.273ZM281.486 124V115.271H287.163V116.596H283.067V118.966H286.869V120.292H283.067V122.674H287.197V124H281.486ZM291.734 124H288.776V115.271H291.794C292.661 115.271 293.405 115.446 294.028 115.795C294.653 116.142 295.133 116.641 295.468 117.291C295.804 117.942 295.971 118.721 295.971 119.627C295.971 120.536 295.802 121.318 295.464 121.971C295.129 122.625 294.644 123.126 294.011 123.476C293.38 123.825 292.621 124 291.734 124ZM290.358 122.632H291.658C292.266 122.632 292.773 122.521 293.179 122.299C293.586 122.075 293.891 121.741 294.096 121.298C294.3 120.852 294.403 120.295 294.403 119.627C294.403 118.959 294.3 118.405 294.096 117.965C293.891 117.521 293.589 117.19 293.188 116.972C292.79 116.75 292.296 116.639 291.705 116.639H290.358V122.632Z" fill="black" fill-opacity="0.5"/>
<path d="M330.465 28.2439V31.235C330.465 31.4333 330.386 31.6235 330.246 31.7638C330.106 31.904 329.916 31.9828 329.717 31.9828C329.519 31.9828 329.329 31.904 329.188 31.7638C329.048 31.6235 328.969 31.4333 328.969 31.235V28.2439C328.969 28.0456 329.048 27.8553 329.188 27.7151C329.329 27.5749 329.519 27.4961 329.717 27.4961C329.916 27.4961 330.106 27.5749 330.246 27.7151C330.386 27.8553 330.465 28.0456 330.465 28.2439ZM334.204 31.9828C334.006 31.9828 333.815 32.0616 333.675 32.2018C333.535 32.342 333.456 32.5322 333.456 32.7306V35.7217C333.456 35.92 333.535 36.1102 333.675 36.2504C333.815 36.3907 334.006 36.4695 334.204 36.4695C334.402 36.4695 334.592 36.3907 334.733 36.2504C334.873 36.1102 334.952 35.92 334.952 35.7217V32.7306C334.952 32.5322 334.873 32.342 334.733 32.2018C334.592 32.0616 334.402 31.9828 334.204 31.9828ZM329.717 45.4428C329.519 45.4428 329.329 45.5216 329.188 45.6618C329.048 45.8021 328.969 45.9923 328.969 46.1906V49.1817C328.969 49.38 329.048 49.5702 329.188 49.7105C329.329 49.8507 329.519 49.9295 329.717 49.9295C329.916 49.9295 330.106 49.8507 330.246 49.7105C330.386 49.5702 330.465 49.38 330.465 49.1817V46.1906C330.465 45.9923 330.386 45.8021 330.246 45.6618C330.106 45.5216 329.916 45.4428 329.717 45.4428ZM329.717 34.2261C329.519 34.2261 329.329 34.3049 329.188 34.4451C329.048 34.5854 328.969 34.7756 328.969 34.9739V42.4517C328.969 42.65 329.048 42.8402 329.188 42.9805C329.329 43.1207 329.519 43.1995 329.717 43.1995C329.916 43.1995 330.106 43.1207 330.246 42.9805C330.386 42.8402 330.465 42.65 330.465 42.4517V34.9739C330.465 34.7756 330.386 34.5854 330.246 34.4451C330.106 34.3049 329.916 34.2261 329.717 34.2261ZM325.231 31.9828C325.032 31.9828 324.842 32.0616 324.702 32.2018C324.562 32.342 324.483 32.5322 324.483 32.7306V37.965C324.483 38.1633 324.562 38.3535 324.702 38.4938C324.842 38.634 325.032 38.7128 325.231 38.7128C325.429 38.7128 325.619 38.634 325.759 38.4938C325.9 38.3535 325.978 38.1633 325.978 37.965V32.7306C325.978 32.5322 325.9 32.342 325.759 32.2018C325.619 32.0616 325.429 31.9828 325.231 31.9828ZM334.204 38.7128C334.006 38.7128 333.815 38.7916 333.675 38.9318C333.535 39.0721 333.456 39.2623 333.456 39.4606V44.695C333.456 44.8934 333.535 45.0836 333.675 45.2238C333.815 45.364 334.006 45.4428 334.204 45.4428C334.402 45.4428 334.592 45.364 334.733 45.2238C334.873 45.0836 334.952 44.8934 334.952 44.695V39.4606C334.952 39.2623 334.873 39.0721 334.733 38.9318C334.592 38.7916 334.402 38.7128 334.204 38.7128ZM320.744 36.4695C320.546 36.4695 320.355 36.5482 320.215 36.6885C320.075 36.8287 319.996 37.0189 319.996 37.2172V40.2084C319.996 40.4067 320.075 40.5969 320.215 40.7371C320.355 40.8774 320.546 40.9561 320.744 40.9561C320.942 40.9561 321.132 40.8774 321.273 40.7371C321.413 40.5969 321.492 40.4067 321.492 40.2084V37.2172C321.492 37.0189 321.413 36.8287 321.273 36.6885C321.132 36.5482 320.942 36.4695 320.744 36.4695ZM325.231 40.9561C325.032 40.9561 324.842 41.0349 324.702 41.1752C324.562 41.3154 324.483 41.5056 324.483 41.7039V44.695C324.483 44.8934 324.562 45.0836 324.702 45.2238C324.842 45.364 325.032 45.4428 325.231 45.4428C325.429 45.4428 325.619 45.364 325.759 45.2238C325.9 45.0836 325.978 44.8934 325.978 44.695V41.7039C325.978 41.5056 325.9 41.3154 325.759 41.1752C325.619 41.0349 325.429 40.9561 325.231 40.9561ZM338.691 36.4695C338.492 36.4695 338.302 36.5482 338.162 36.6885C338.022 36.8287 337.943 37.0189 337.943 37.2172V40.2084C337.943 40.4067 338.022 40.5969 338.162 40.7371C338.302 40.8774 338.492 40.9561 338.691 40.9561C338.889 40.9561 339.079 40.8774 339.219 40.7371C339.36 40.5969 339.438 40.4067 339.438 40.2084V37.2172C339.438 37.0189 339.36 36.8287 339.219 36.6885C339.079 36.5482 338.889 36.4695 338.691 36.4695Z" fill="#810100"/>
<circle cx="329.36" cy="38.36" r="19.36" fill="#810100" fill-opacity="0.2"/>
<g filter="url(#filter1_d_2017_1018)">
<rect x="4" y="2" width="171" height="144" rx="20" fill="#FDFBF7"/>
</g>
<path d="M146.758 41.8086C146.557 42.9275 146.019 43.9581 145.215 44.7618C144.411 45.5654 143.381 46.1035 142.262 46.3036C142.219 46.3104 142.176 46.314 142.133 46.3142C141.94 46.3142 141.753 46.2413 141.61 46.1101C141.468 45.9788 141.38 45.7988 141.364 45.6057C141.348 45.4126 141.405 45.2205 141.524 45.0675C141.643 44.9145 141.815 44.8119 142.006 44.7798C143.606 44.5104 144.964 43.1528 145.235 41.5498C145.269 41.3478 145.382 41.1676 145.55 41.049C145.717 40.9304 145.924 40.883 146.126 40.9173C146.328 40.9517 146.508 41.0648 146.627 41.232C146.746 41.3991 146.793 41.6065 146.759 41.8086H146.758ZM149.858 40.9067C149.858 43.1604 148.963 45.3218 147.369 46.9154C145.776 48.5089 143.614 49.4042 141.361 49.4042C139.107 49.4042 136.946 48.5089 135.352 46.9154C133.759 45.3218 132.863 43.1604 132.863 40.9067C132.863 38.2107 133.925 35.4538 136.017 32.7134C136.083 32.6266 136.167 32.5549 136.263 32.5028C136.359 32.4508 136.465 32.4197 136.574 32.4116C136.683 32.4035 136.792 32.4185 136.894 32.4557C136.997 32.4929 137.091 32.5515 137.169 32.6274L139.498 34.888L141.622 29.0546C141.665 28.9383 141.735 28.8339 141.826 28.7501C141.917 28.6664 142.027 28.6059 142.147 28.5736C142.266 28.5413 142.392 28.5382 142.513 28.5647C142.634 28.5911 142.747 28.6462 142.842 28.7254C144.954 30.478 149.858 35.1661 149.858 40.9067ZM148.313 40.9067C148.313 36.4562 144.857 32.6101 142.692 30.6392L140.542 36.5363C140.498 36.6574 140.424 36.7656 140.327 36.8509C140.231 36.9362 140.114 36.996 139.989 37.0248C139.863 37.0536 139.732 37.0505 139.608 37.0158C139.484 36.981 139.37 36.9158 139.278 36.826L136.732 34.3559C135.189 36.5817 134.408 38.7823 134.408 40.9067C134.408 42.7506 135.141 44.519 136.445 45.8229C137.748 47.1267 139.517 47.8592 141.361 47.8592C143.205 47.8592 144.973 47.1267 146.277 45.8229C147.581 44.519 148.313 42.7506 148.313 40.9067Z" fill="#810100"/>
<circle cx="141" cy="39" r="20" fill="#810100" fill-opacity="0.2"/>
<rect x="19" y="29" width="48" height="19" rx="9.5" fill="#810100" fill-opacity="0.2"/>
<rect x="19.5" y="29.5" width="47" height="18" rx="9" stroke="#810100" stroke-opacity="0.25"/>
<path d="M30.5106 41H29.4676L31.3665 35.6061H32.5728L34.4743 41H33.4314L31.9907 36.7123H31.9486L30.5106 41ZM30.5448 38.8851H33.3892V39.67H30.5448V38.8851ZM39.5482 37.426H38.5632C38.5351 37.2645 38.4833 37.1214 38.4078 36.9967C38.3323 36.8703 38.2383 36.7632 38.126 36.6754C38.0136 36.5876 37.8854 36.5218 37.7414 36.4779C37.5992 36.4322 37.4456 36.4094 37.2805 36.4094C36.9873 36.4094 36.7275 36.4832 36.501 36.6307C36.2745 36.7764 36.0971 36.9906 35.9689 37.2733C35.8408 37.5542 35.7767 37.8975 35.7767 38.3031C35.7767 38.7157 35.8408 39.0633 35.9689 39.346C36.0989 39.627 36.2762 39.8394 36.501 39.9834C36.7275 40.1256 36.9864 40.1967 37.2779 40.1967C37.4394 40.1967 37.5904 40.1756 37.7309 40.1335C37.8731 40.0896 38.0004 40.0255 38.1128 39.9412C38.2269 39.857 38.3226 39.7534 38.3999 39.6305C38.4789 39.5076 38.5333 39.3671 38.5632 39.2091L39.5482 39.2143C39.5113 39.4707 39.4314 39.7112 39.3085 39.936C39.1874 40.1607 39.0285 40.3591 38.8318 40.5312C38.6352 40.7015 38.4051 40.835 38.1418 40.9315C37.8784 41.0263 37.5861 41.0737 37.2647 41.0737C36.7907 41.0737 36.3675 40.964 35.9953 40.7445C35.6231 40.5251 35.3298 40.2081 35.1156 39.7938C34.9014 39.3794 34.7943 38.8825 34.7943 38.3031C34.7943 37.7219 34.9023 37.225 35.1183 36.8124C35.3342 36.398 35.6283 36.0811 36.0006 35.8616C36.3728 35.6421 36.7942 35.5324 37.2647 35.5324C37.565 35.5324 37.8442 35.5745 38.1023 35.6588C38.3604 35.7431 38.5904 35.8669 38.7923 36.0302C38.9942 36.1917 39.1601 36.3901 39.2901 36.6254C39.4218 36.8589 39.5078 37.1258 39.5482 37.426ZM40.2059 36.4252V35.6061H44.5095V36.4252H42.8423V41H41.8731V36.4252H40.2059ZM46.3162 35.6061V41H45.3391V35.6061H46.3162ZM48.0959 35.6061L49.4997 39.8517H49.555L50.9561 35.6061H52.0307L50.1292 41H48.9229L47.024 35.6061H48.0959ZM52.7412 41V35.6061H56.2493V36.4252H53.7183V37.8896H56.0675V38.7087H53.7183V40.1809H56.2703V41H52.7412Z" fill="#810100"/>
<path d="M33.4923 103.719H26.2653C24.8514 103.117 23.66 102.121 22.6911 100.734C21.7223 99.3459 21.2379 97.7618 21.2379 95.9812C21.2379 93.1009 22.3507 90.9276 24.5764 89.4612V89.3041C22.7959 87.7854 21.9056 85.887 21.9056 83.609C21.9056 81.8808 22.39 80.3621 23.3588 79.0529C24.3539 77.7175 25.5322 76.7748 26.8938 76.2249H32.8246C34.1862 76.7748 35.3383 77.6913 36.2809 78.9743C37.2498 80.2574 37.7342 81.763 37.7342 83.4912C37.7342 85.7692 36.8308 87.6807 35.0241 89.2256V89.3827C37.276 90.8752 38.4019 93.0223 38.4019 95.8241C38.4019 97.5785 37.9044 99.1888 36.9094 100.655C35.9405 102.095 34.8015 103.117 33.4923 103.719ZM28.0721 92.0142C27.1556 92.7736 26.6974 93.8864 26.6974 95.3528C26.6974 96.1645 26.8414 96.9369 27.1294 97.6701C27.4436 98.4033 27.784 98.9008 28.1506 99.1626H31.4892C31.8557 98.9008 32.1831 98.4033 32.4711 97.6701C32.7853 96.9369 32.9424 96.1645 32.9424 95.3528C32.9424 93.8864 32.4842 92.7736 31.5677 92.0142H28.0721ZM28.3077 80.9382C27.9411 81.2 27.6138 81.632 27.3258 82.2343C27.0378 82.8104 26.8938 83.4519 26.8938 84.1589C26.8938 85.4681 27.352 86.5548 28.2685 87.4188H31.3713C32.2878 86.5548 32.746 85.4681 32.746 84.1589C32.746 83.4519 32.602 82.8104 32.314 82.2343C32.0259 81.632 31.6986 81.2 31.3321 80.9382H28.3077ZM46.6227 99.1626H50.1576C50.8908 98.2462 51.4669 96.9108 51.8858 95.1564C52.331 93.402 52.5535 91.6607 52.5535 89.9326C52.5535 85.8216 51.7811 82.8234 50.2362 80.9382H46.6227V99.1626ZM41.2811 103.719V76.2249H52.6714C56.3896 79.5242 58.2487 84.0018 58.2487 89.6576C58.2487 95.2873 56.5074 99.9744 53.0249 103.719H41.2811ZM70.1889 94.6458H65.9862C65.4364 95.3266 65.1614 96.1776 65.1614 97.1988C65.1614 98.22 65.4494 99.0186 66.0255 99.5947H70.1889V94.6458ZM61.7443 83.6483H71.485C73.0561 84.5909 74.0904 85.6776 74.5879 86.9082C75.0854 88.1127 75.3341 89.7624 75.3341 91.8571V97.7487C75.3341 99.922 75.3865 101.912 75.4912 103.719H71.0137L70.3067 102.305C69.2855 103.247 67.8453 103.719 65.9862 103.719H63.5118C61.2861 102.252 60.1733 100.145 60.1733 97.3952C60.1733 94.6196 61.3123 92.4332 63.5903 90.8359H67.2824C68.3036 90.8359 69.2593 91.1501 70.1496 91.7786V89.8147C70.1496 88.7935 69.7044 88.1127 68.8142 87.7723H61.7443V83.6483ZM78.5944 92.6819V83.6483H83.8182V92.7212C83.8182 94.9993 84.2765 96.8977 85.1929 98.4164H87.5103C88.3744 96.9238 88.8064 95.0255 88.8064 92.7212V83.6483H94.0302V92.407C94.0302 94.3709 93.7684 96.099 93.2447 97.5916C92.7472 99.0841 91.9224 100.773 90.7703 102.658L88.1387 106.939C87.6674 107.751 87.1699 108.353 86.6462 108.746C86.1225 109.139 85.4417 109.427 84.6038 109.61H78.398V105.486H82.6399C83.1898 105.329 83.648 105.054 84.0146 104.661C84.3812 104.269 84.7609 103.706 85.1537 102.972L85.3893 102.54H82.6792C81.4224 101.519 80.4273 100.145 79.6942 98.4164C78.961 96.662 78.5944 94.7505 78.5944 92.6819ZM98.6652 83.6483H107.345V87.7723H101.218L104.95 93.3104C106.625 95.6932 107.555 97.3297 107.738 98.22C107.843 98.6389 107.895 99.071 107.895 99.5161C107.895 101.375 107.201 102.776 105.814 103.719H95.798V99.5947H102.986L98.783 93.4282C98.5998 93.1402 98.3117 92.7343 97.919 92.2106C97.5524 91.6869 97.2643 91.268 97.0549 90.9538C96.8454 90.6134 96.7014 90.3646 96.6228 90.2075C96.5443 90.0504 96.4395 89.854 96.3086 89.6183C96.1777 89.3565 96.086 89.1339 96.0337 88.9506C95.9289 88.4531 95.8766 88.0473 95.8766 87.7331C95.8766 85.8216 96.8061 84.46 98.6652 83.6483Z" fill="black"/>
<path d="M19.861 125.719V116.99H25.453V118.315H21.4423V120.685H25.0694V122.011H21.4423V125.719H19.861ZM34.6936 121.354C34.6936 122.295 34.5174 123.1 34.1651 123.771C33.8156 124.439 33.3382 124.95 32.7329 125.305C32.1305 125.66 31.4472 125.838 30.6828 125.838C29.9184 125.838 29.2336 125.66 28.6284 125.305C28.026 124.947 27.5486 124.434 27.1963 123.767C26.8468 123.096 26.672 122.292 26.672 121.354C26.672 120.414 26.8468 119.61 27.1963 118.942C27.5486 118.271 28.026 117.758 28.6284 117.403C29.2336 117.048 29.9184 116.87 30.6828 116.87C31.4472 116.87 32.1305 117.048 32.7329 117.403C33.3382 117.758 33.8156 118.271 34.1651 118.942C34.5174 119.61 34.6936 120.414 34.6936 121.354ZM33.1038 121.354C33.1038 120.692 33 120.134 32.7926 119.679C32.588 119.222 32.3039 118.876 31.9402 118.643C31.5765 118.408 31.1573 118.29 30.6828 118.29C30.2083 118.29 29.7892 118.408 29.4254 118.643C29.0617 118.876 28.7762 119.222 28.5687 119.679C28.3641 120.134 28.2619 120.692 28.2619 121.354C28.2619 122.016 28.3641 122.576 28.5687 123.034C28.7762 123.488 29.0617 123.833 29.4254 124.069C29.7892 124.302 30.2083 124.419 30.6828 124.419C31.1573 124.419 31.5765 124.302 31.9402 124.069C32.3039 123.833 32.588 123.488 32.7926 123.034C33 122.576 33.1038 122.016 33.1038 121.354ZM36.1886 125.719V116.99H37.7698V124.393H41.6144V125.719H36.1886ZM45.9448 125.719H42.9868V116.99H46.0045C46.8712 116.99 47.6156 117.164 48.2379 117.514C48.863 117.861 49.3433 118.359 49.6785 119.01C50.0138 119.661 50.1815 120.439 50.1815 121.346C50.1815 122.255 50.0124 123.036 49.6743 123.69C49.339 124.343 48.8545 124.845 48.2209 125.194C47.5901 125.544 46.8314 125.719 45.9448 125.719ZM44.5681 124.351H45.8681C46.4762 124.351 46.9834 124.24 47.3897 124.018C47.7961 123.794 48.1015 123.46 48.3061 123.016C48.5107 122.57 48.613 122.013 48.613 121.346C48.613 120.678 48.5107 120.124 48.3061 119.683C48.1015 119.24 47.7989 118.909 47.3982 118.69C47.0004 118.469 46.506 118.358 45.915 118.358H44.5681V124.351ZM59.405 119.389C59.3652 119.017 59.1976 118.727 58.902 118.52C58.6094 118.312 58.2286 118.209 57.7598 118.209C57.4301 118.209 57.1474 118.258 56.9116 118.358C56.6757 118.457 56.4953 118.592 56.3703 118.763C56.2452 118.933 56.1813 119.128 56.1785 119.347C56.1785 119.529 56.2197 119.686 56.3021 119.82C56.3873 119.953 56.5024 120.067 56.6473 120.161C56.7922 120.252 56.9528 120.328 57.1289 120.391C57.3051 120.453 57.4827 120.506 57.6617 120.549L58.4801 120.753C58.8097 120.83 59.1265 120.934 59.4306 121.064C59.7374 121.195 60.0116 121.36 60.2532 121.559C60.4975 121.758 60.6908 121.998 60.8328 122.279C60.9749 122.56 61.0459 122.89 61.0459 123.268C61.0459 123.779 60.9152 124.23 60.6538 124.619C60.3924 125.006 60.0145 125.308 59.5201 125.527C59.0285 125.743 58.4332 125.851 57.7342 125.851C57.0551 125.851 56.4655 125.746 55.9654 125.535C55.4681 125.325 55.0788 125.018 54.7975 124.615C54.519 124.211 54.3684 123.72 54.3457 123.14H55.9014C55.9242 123.444 56.0179 123.697 56.1827 123.899C56.3475 124.101 56.5621 124.251 56.8263 124.351C57.0934 124.45 57.3918 124.5 57.7214 124.5C58.0652 124.5 58.3664 124.449 58.625 124.346C58.8864 124.241 59.091 124.096 59.2388 123.912C59.3865 123.724 59.4618 123.505 59.4647 123.255C59.4618 123.028 59.395 122.84 59.2643 122.693C59.1336 122.542 58.9503 122.417 58.7145 122.317C58.4815 122.215 58.2087 122.124 57.8962 122.045L56.903 121.789C56.1842 121.604 55.6159 121.324 55.1982 120.949C54.7833 120.571 54.5759 120.07 54.5759 119.445C54.5759 118.93 54.7151 118.48 54.9936 118.094C55.2749 117.707 55.6571 117.407 56.1401 117.194C56.6232 116.978 57.1701 116.87 57.7811 116.87C58.4005 116.87 58.9432 116.978 59.4092 117.194C59.8781 117.407 60.2461 117.704 60.5132 118.085C60.7803 118.463 60.9181 118.898 60.9266 119.389H59.405ZM62.0721 118.315V116.99H69.0366V118.315H66.3386V125.719H64.7701V118.315H62.0721ZM70.3792 125.719V116.99H73.6526C74.3232 116.99 74.8858 117.106 75.3404 117.339C75.7979 117.572 76.1432 117.899 76.3762 118.319C76.612 118.737 76.7299 119.225 76.7299 119.781C76.7299 120.341 76.6106 120.827 76.3719 121.239C76.1361 121.648 75.788 121.965 75.3277 122.19C74.8673 122.411 74.3019 122.522 73.6313 122.522H71.2998V121.209H73.4182C73.8103 121.209 74.1314 121.155 74.3814 121.047C74.6315 120.937 74.8162 120.776 74.9355 120.566C75.0577 120.353 75.1188 120.091 75.1188 119.781C75.1188 119.472 75.0577 119.207 74.9355 118.989C74.8133 118.767 74.6272 118.599 74.3772 118.486C74.1271 118.369 73.8046 118.311 73.4096 118.311H71.9605V125.719H70.3792ZM74.8886 121.763L77.0496 125.719H75.285L73.1624 121.763H74.8886ZM78.1855 125.719V116.99H83.8628V118.315H79.7668V120.685H83.5687V122.011H79.7668V124.393H83.8969V125.719H78.1855ZM86.597 125.719H84.9092L87.9822 116.99H89.9344L93.0117 125.719H91.3238L88.9924 118.78H88.9242L86.597 125.719ZM86.6524 122.296H91.2556V123.566H86.6524V122.296ZM94.1614 125.719V116.99H95.7427V121H95.8493L99.2548 116.99H101.186L97.8099 120.907L101.215 125.719H99.3145L96.7103 121.977L95.7427 123.119V125.719H94.1614Z" fill="black" fill-opacity="0.5"/>
<defs>
<filter id="filter0_d_2017_1018" x="187" y="0" width="179" height="152" filterUnits="userSpaceOnUse" color-interpolation-filters="sRGB">
<feFlood flood-opacity="0" result="BackgroundImageFix"/>
<feColorMatrix in="SourceAlpha" type="matrix" values="0 0 0 0 0 0 0 0 0 0 0 0 0 0 0 0 0 0 127 0" result="hardAlpha"/>
<feOffset dy="2"/>
<feGaussianBlur stdDeviation="2"/>
<feComposite in2="hardAlpha" operator="out"/>
<feColorMatrix type="matrix" values="0 0 0 0 0 0 0 0 0 0 0 0 0 0 0 0 0 0 0.25 0"/>
<feBlend mode="normal" in2="BackgroundImageFix" result="effect1_dropShadow_2017_1018"/>
<feBlend mode="normal" in="SourceGraphic" in2="effect1_dropShadow_2017_1018" result="shape"/>
</filter>
<filter id="filter1_d_2017_1018" x="0" y="0" width="179" height="152" filterUnits="userSpaceOnUse" color-interpolation-filters="sRGB">
<feFlood flood-opacity="0" result="BackgroundImageFix"/>
<feColorMatrix in="SourceAlpha" type="matrix" values="0 0 0 0 0 0 0 0 0 0 0 0 0 0 0 0 0 0 127 0" result="hardAlpha"/>
<feOffset dy="2"/>
<feGaussianBlur stdDeviation="2"/>
<feComposite in2="hardAlpha" operator="out"/>
<feColorMatrix type="matrix" values="0 0 0 0 0 0 0 0 0 0 0 0 0 0 0 0 0 0 0.25 0"/>
<feBlend mode="normal" in2="BackgroundImageFix" result="effect1_dropShadow_2017_1018"/>
<feBlend mode="normal" in="SourceGraphic" in2="effect1_dropShadow_2017_1018" result="shape"/>
</filter>
</defs>
</svg>
