<svg width="368" height="408" viewBox="0 0 368 408" fill="none" xmlns="http://www.w3.org/2000/svg">
<g filter="url(#filter0_d_2354_1956)">
<rect x="6" y="78" width="358" height="324" rx="20" fill="#FDFBF7"/>
</g>
<g opacity="0.5">
<path d="M33.7099 108.879H35.7508L40.5497 120.601H40.7151L45.514 108.879H47.5549V123H45.9553V112.272H45.8174L41.4046 123H39.8602L35.4474 112.272H35.3095V123H33.7099V108.879Z" fill="black" fill-opacity="0.5"/>
<path d="M82.9377 110.396V108.879H93.5283V110.396H89.0879V123H87.378V110.396H82.9377Z" fill="black" fill-opacity="0.5"/>
<path d="M131.275 123L127.414 108.879H129.151L132.102 120.38H132.24L135.246 108.879H137.177L140.183 120.38H140.321L143.272 108.879H145.009L141.148 123H139.383L136.267 111.748H136.156L133.04 123H131.275Z" fill="black" fill-opacity="0.5"/>
<path d="M178.938 110.396V108.879H189.528V110.396H185.088V123H183.378V110.396H178.938Z" fill="black" fill-opacity="0.5"/>
<path d="M228.71 123V108.879H237.177V110.396H230.42V115.167H236.543V116.684H230.42V123H228.71Z" fill="black" fill-opacity="0.5"/>
<path d="M284.432 112.409C284.349 111.711 284.014 111.168 283.426 110.782C282.837 110.396 282.116 110.203 281.261 110.203C280.635 110.203 280.088 110.304 279.62 110.506C279.155 110.709 278.792 110.987 278.53 111.341C278.273 111.695 278.144 112.097 278.144 112.547C278.144 112.924 278.234 113.248 278.413 113.52C278.597 113.786 278.831 114.009 279.116 114.188C279.401 114.363 279.7 114.508 280.013 114.623C280.325 114.733 280.612 114.823 280.874 114.892L282.309 115.278C282.676 115.374 283.085 115.508 283.536 115.678C283.991 115.848 284.425 116.08 284.839 116.374C285.257 116.664 285.602 117.036 285.873 117.491C286.144 117.946 286.28 118.505 286.28 119.166C286.28 119.929 286.08 120.619 285.68 121.235C285.285 121.851 284.706 122.34 283.943 122.704C283.184 123.067 282.263 123.248 281.178 123.248C280.167 123.248 279.291 123.085 278.551 122.759C277.815 122.432 277.236 121.977 276.813 121.393C276.395 120.81 276.158 120.132 276.103 119.359H277.868C277.914 119.893 278.094 120.334 278.406 120.683C278.723 121.028 279.123 121.285 279.606 121.456C280.093 121.621 280.617 121.704 281.178 121.704C281.831 121.704 282.417 121.598 282.936 121.387C283.455 121.171 283.867 120.872 284.17 120.49C284.474 120.104 284.625 119.654 284.625 119.139C284.625 118.67 284.494 118.288 284.232 117.994C283.97 117.7 283.626 117.461 283.198 117.277C282.771 117.093 282.309 116.932 281.812 116.795L280.075 116.298C278.971 115.981 278.098 115.528 277.455 114.94C276.811 114.352 276.489 113.582 276.489 112.63C276.489 111.839 276.703 111.15 277.131 110.562C277.563 109.969 278.142 109.509 278.868 109.183C279.599 108.852 280.415 108.686 281.316 108.686C282.226 108.686 283.035 108.849 283.743 109.176C284.451 109.498 285.011 109.939 285.425 110.5C285.843 111.06 286.064 111.697 286.087 112.409H284.432Z" fill="black" fill-opacity="0.5"/>
<path d="M332.432 112.409C332.349 111.711 332.014 111.168 331.426 110.782C330.837 110.396 330.116 110.203 329.261 110.203C328.635 110.203 328.088 110.304 327.62 110.506C327.155 110.709 326.792 110.987 326.53 111.341C326.273 111.695 326.144 112.097 326.144 112.547C326.144 112.924 326.234 113.248 326.413 113.52C326.597 113.786 326.831 114.009 327.116 114.188C327.401 114.363 327.7 114.508 328.013 114.623C328.325 114.733 328.612 114.823 328.874 114.892L330.309 115.278C330.676 115.374 331.085 115.508 331.536 115.678C331.991 115.848 332.425 116.08 332.839 116.374C333.257 116.664 333.602 117.036 333.873 117.491C334.144 117.946 334.28 118.505 334.28 119.166C334.28 119.929 334.08 120.619 333.68 121.235C333.285 121.851 332.706 122.34 331.943 122.704C331.184 123.067 330.263 123.248 329.178 123.248C328.167 123.248 327.291 123.085 326.551 122.759C325.815 122.432 325.236 121.977 324.813 121.393C324.395 120.81 324.158 120.132 324.103 119.359H325.868C325.914 119.893 326.094 120.334 326.406 120.683C326.723 121.028 327.123 121.285 327.606 121.456C328.093 121.621 328.617 121.704 329.178 121.704C329.831 121.704 330.417 121.598 330.936 121.387C331.455 121.171 331.867 120.872 332.17 120.49C332.474 120.104 332.625 119.654 332.625 119.139C332.625 118.67 332.494 118.288 332.232 117.994C331.97 117.7 331.626 117.461 331.198 117.277C330.771 117.093 330.309 116.932 329.812 116.795L328.075 116.298C326.971 115.981 326.098 115.528 325.455 114.94C324.811 114.352 324.489 113.582 324.489 112.63C324.489 111.839 324.703 111.15 325.131 110.562C325.563 109.969 326.142 109.509 326.868 109.183C327.599 108.852 328.415 108.686 329.316 108.686C330.226 108.686 331.035 108.849 331.743 109.176C332.451 109.498 333.011 109.939 333.425 110.5C333.843 111.06 334.064 111.697 334.087 112.409H332.432Z" fill="black" fill-opacity="0.5"/>
</g>
<path d="M233.426 164.879V179H231.716V166.672H231.633L228.186 168.961V167.224L231.716 164.879H233.426Z" fill="black" fill-opacity="0.5"/>
<path d="M276.462 179V177.759L281.123 172.657C281.67 172.059 282.12 171.54 282.474 171.098C282.828 170.653 283.09 170.234 283.26 169.844C283.435 169.448 283.522 169.035 283.522 168.603C283.522 168.106 283.403 167.676 283.164 167.313C282.929 166.95 282.607 166.67 282.198 166.472C281.789 166.274 281.33 166.176 280.819 166.176C280.277 166.176 279.803 166.288 279.399 166.513C278.999 166.734 278.689 167.044 278.468 167.444C278.252 167.844 278.144 168.313 278.144 168.851H276.517C276.517 168.023 276.708 167.297 277.089 166.672C277.471 166.047 277.99 165.56 278.647 165.21C279.309 164.861 280.052 164.686 280.874 164.686C281.702 164.686 282.435 164.861 283.074 165.21C283.713 165.56 284.214 166.031 284.577 166.624C284.94 167.217 285.122 167.876 285.122 168.603C285.122 169.122 285.027 169.63 284.839 170.126C284.655 170.618 284.333 171.167 283.874 171.774C283.419 172.376 282.787 173.112 281.978 173.981L278.806 177.373V177.483H285.37V179H276.462Z" fill="black" fill-opacity="0.5"/>
<path d="M329.233 179.193C328.323 179.193 327.512 179.037 326.799 178.724C326.091 178.412 325.528 177.977 325.11 177.421C324.696 176.86 324.471 176.21 324.434 175.47H326.172C326.208 175.925 326.365 176.318 326.641 176.649C326.916 176.975 327.277 177.228 327.723 177.407C328.169 177.587 328.663 177.676 329.205 177.676C329.812 177.676 330.35 177.57 330.819 177.359C331.288 177.148 331.655 176.853 331.922 176.476C332.189 176.1 332.322 175.663 332.322 175.166C332.322 174.647 332.193 174.19 331.936 173.794C331.678 173.394 331.301 173.082 330.805 172.857C330.309 172.631 329.702 172.519 328.985 172.519H327.854V171.002H328.985C329.546 171.002 330.037 170.901 330.46 170.699C330.888 170.496 331.221 170.211 331.46 169.844C331.704 169.476 331.825 169.044 331.825 168.547C331.825 168.069 331.72 167.653 331.508 167.299C331.297 166.945 330.998 166.67 330.612 166.472C330.23 166.274 329.78 166.176 329.261 166.176C328.773 166.176 328.314 166.265 327.882 166.444C327.454 166.619 327.105 166.874 326.834 167.21C326.562 167.541 326.415 167.941 326.392 168.409H324.738C324.765 167.669 324.988 167.021 325.406 166.465C325.825 165.904 326.372 165.468 327.047 165.155C327.728 164.842 328.475 164.686 329.288 164.686C330.161 164.686 330.911 164.863 331.536 165.217C332.161 165.566 332.641 166.028 332.977 166.603C333.312 167.178 333.48 167.798 333.48 168.465C333.48 169.26 333.271 169.938 332.853 170.499C332.439 171.059 331.876 171.448 331.164 171.664V171.774C332.055 171.921 332.752 172.3 333.253 172.912C333.754 173.519 334.004 174.27 334.004 175.166C334.004 175.934 333.795 176.624 333.377 177.235C332.963 177.842 332.398 178.32 331.681 178.669C330.964 179.018 330.148 179.193 329.233 179.193Z" fill="black" fill-opacity="0.5"/>
<rect x="21" y="199" width="40" height="40" rx="6" fill="#810100" fill-opacity="0.3"/>
<path d="M35.1308 224.104V222.698L41.3362 212.879H42.3566V215.058H41.6671L36.9786 222.477V222.587H45.3352V224.104H35.1308ZM41.7774 227V223.677V223.022V212.879H43.4046V227H41.7774Z" fill="black" fill-opacity="0.5"/>
<path d="M87.8744 227.193C87.0654 227.193 86.3369 227.032 85.6888 226.71C85.0406 226.389 84.5212 225.947 84.1305 225.387C83.7398 224.826 83.5261 224.187 83.4893 223.47H85.1441C85.2084 224.109 85.498 224.637 86.0128 225.056C86.5322 225.469 87.1528 225.676 87.8744 225.676C88.4536 225.676 88.9684 225.541 89.4189 225.269C89.874 224.998 90.2302 224.626 90.4876 224.152C90.7496 223.674 90.8806 223.134 90.8806 222.532C90.8806 221.916 90.745 221.367 90.4738 220.884C90.2072 220.397 89.8395 220.013 89.3706 219.733C88.9018 219.452 88.3663 219.31 87.7641 219.305C87.332 219.301 86.8885 219.367 86.4334 219.505C85.9783 219.639 85.6037 219.811 85.3095 220.022L83.7099 219.829L84.5649 212.879H91.9011V214.396H85.999L85.5026 218.561H85.5853C85.8749 218.331 86.2381 218.14 86.6747 217.988C87.1114 217.837 87.5665 217.761 88.0399 217.761C88.9041 217.761 89.674 217.968 90.3497 218.381C91.03 218.79 91.5632 219.351 91.9493 220.064C92.34 220.776 92.5354 221.59 92.5354 222.505C92.5354 223.405 92.3331 224.21 91.9286 224.918C91.5287 225.621 90.9771 226.177 90.2739 226.586C89.5706 226.991 88.7708 227.193 87.8744 227.193Z" fill="black" fill-opacity="0.5"/>
<rect x="117" y="199" width="40" height="40" rx="5" fill="#810100" fill-opacity="0.23"/>
<path d="M136.15 227.193C135.571 227.184 134.992 227.074 134.413 226.862C133.834 226.651 133.305 226.294 132.827 225.793C132.349 225.288 131.965 224.605 131.675 223.746C131.386 222.881 131.241 221.797 131.241 220.491C131.241 219.241 131.358 218.133 131.593 217.168C131.827 216.198 132.167 215.382 132.613 214.72C133.059 214.054 133.597 213.548 134.227 213.203C134.861 212.859 135.576 212.686 136.371 212.686C137.161 212.686 137.865 212.845 138.481 213.162C139.101 213.475 139.607 213.911 139.998 214.472C140.388 215.033 140.641 215.679 140.756 216.409H139.074C138.917 215.775 138.614 215.249 138.164 214.831C137.713 214.412 137.116 214.203 136.371 214.203C135.277 214.203 134.415 214.679 133.785 215.63C133.16 216.582 132.845 217.917 132.841 219.636H132.951C133.208 219.246 133.514 218.912 133.868 218.637C134.227 218.356 134.622 218.14 135.054 217.988C135.486 217.837 135.943 217.761 136.426 217.761C137.235 217.761 137.975 217.963 138.646 218.368C139.317 218.768 139.855 219.321 140.26 220.029C140.664 220.733 140.866 221.539 140.866 222.449C140.866 223.323 140.671 224.123 140.28 224.849C139.89 225.57 139.34 226.145 138.632 226.573C137.929 226.995 137.102 227.202 136.15 227.193ZM136.15 225.676C136.729 225.676 137.249 225.531 137.708 225.242C138.173 224.952 138.538 224.564 138.805 224.077C139.076 223.589 139.212 223.047 139.212 222.449C139.212 221.866 139.081 221.335 138.819 220.857C138.561 220.374 138.205 219.99 137.75 219.705C137.299 219.42 136.785 219.278 136.205 219.278C135.769 219.278 135.362 219.365 134.985 219.54C134.608 219.71 134.277 219.944 133.992 220.243C133.712 220.542 133.491 220.884 133.33 221.27C133.169 221.652 133.089 222.054 133.089 222.477C133.089 223.038 133.22 223.562 133.482 224.049C133.749 224.536 134.112 224.929 134.571 225.228C135.036 225.527 135.562 225.676 136.15 225.676Z" fill="black" fill-opacity="0.5"/>
<path d="M179.903 227L186.219 214.506V214.396H178.938V212.879H187.984V214.479L181.696 227H179.903Z" fill="black" fill-opacity="0.5"/>
<path d="M232.985 227.193C232.038 227.193 231.201 227.025 230.475 226.69C229.753 226.35 229.19 225.883 228.786 225.29C228.381 224.693 228.181 224.012 228.186 223.249C228.181 222.652 228.299 222.1 228.538 221.594C228.777 221.084 229.103 220.659 229.517 220.319C229.935 219.974 230.401 219.756 230.916 219.664V219.581C230.241 219.406 229.703 219.027 229.303 218.443C228.903 217.855 228.705 217.186 228.71 216.437C228.705 215.72 228.887 215.079 229.255 214.513C229.622 213.948 230.128 213.502 230.772 213.176C231.42 212.849 232.157 212.686 232.985 212.686C233.803 212.686 234.534 212.849 235.177 213.176C235.821 213.502 236.326 213.948 236.694 214.513C237.067 215.079 237.255 215.72 237.26 216.437C237.255 217.186 237.05 217.855 236.646 218.443C236.246 219.027 235.715 219.406 235.053 219.581V219.664C235.563 219.756 236.023 219.974 236.432 220.319C236.841 220.659 237.168 221.084 237.411 221.594C237.655 222.1 237.779 222.652 237.784 223.249C237.779 224.012 237.572 224.693 237.163 225.29C236.759 225.883 236.195 226.35 235.474 226.69C234.757 227.025 233.927 227.193 232.985 227.193ZM232.985 225.676C233.624 225.676 234.175 225.573 234.64 225.366C235.104 225.159 235.462 224.867 235.715 224.49C235.968 224.113 236.097 223.672 236.101 223.166C236.097 222.633 235.959 222.162 235.688 221.753C235.416 221.344 235.046 221.022 234.577 220.788C234.113 220.553 233.582 220.436 232.985 220.436C232.383 220.436 231.845 220.553 231.371 220.788C230.903 221.022 230.532 221.344 230.261 221.753C229.995 222.162 229.864 222.633 229.868 223.166C229.864 223.672 229.985 224.113 230.234 224.49C230.487 224.867 230.847 225.159 231.316 225.366C231.785 225.573 232.341 225.676 232.985 225.676ZM232.985 218.974C233.49 218.974 233.939 218.873 234.329 218.671C234.725 218.469 235.035 218.186 235.26 217.823C235.485 217.46 235.6 217.035 235.605 216.547C235.6 216.069 235.488 215.653 235.267 215.299C235.046 214.941 234.741 214.665 234.35 214.472C233.959 214.274 233.504 214.176 232.985 214.176C232.456 214.176 231.994 214.274 231.599 214.472C231.204 214.665 230.898 214.941 230.682 215.299C230.466 215.653 230.36 216.069 230.365 216.547C230.36 217.035 230.468 217.46 230.689 217.823C230.914 218.186 231.224 218.469 231.62 218.671C232.015 218.873 232.47 218.974 232.985 218.974Z" fill="black" fill-opacity="0.5"/>
<rect x="261" y="199" width="40" height="40" rx="5" fill="#810100" fill-opacity="0.2"/>
<path d="M280.957 212.686C281.536 212.691 282.116 212.801 282.695 213.017C283.274 213.233 283.802 213.592 284.281 214.093C284.759 214.589 285.142 215.267 285.432 216.127C285.722 216.986 285.866 218.064 285.866 219.36C285.866 220.615 285.747 221.73 285.508 222.704C285.273 223.674 284.933 224.493 284.487 225.159C284.046 225.826 283.508 226.331 282.874 226.676C282.244 227.021 281.532 227.193 280.737 227.193C279.946 227.193 279.24 227.037 278.62 226.724C278.004 226.407 277.498 225.968 277.103 225.407C276.712 224.842 276.462 224.187 276.351 223.442H278.034C278.185 224.09 278.487 224.626 278.937 225.049C279.392 225.467 279.992 225.676 280.737 225.676C281.826 225.676 282.686 225.2 283.315 224.249C283.95 223.297 284.267 221.953 284.267 220.215H284.156C283.899 220.602 283.593 220.935 283.239 221.215C282.885 221.496 282.492 221.712 282.06 221.863C281.628 222.015 281.169 222.091 280.681 222.091C279.872 222.091 279.13 221.891 278.454 221.491C277.783 221.086 277.245 220.533 276.841 219.829C276.441 219.121 276.241 218.312 276.241 217.402C276.241 216.538 276.434 215.748 276.82 215.03C277.211 214.309 277.758 213.734 278.461 213.307C279.169 212.879 280.001 212.672 280.957 212.686ZM280.957 214.203C280.378 214.203 279.856 214.348 279.392 214.637C278.932 214.922 278.567 215.309 278.296 215.796C278.029 216.278 277.896 216.814 277.896 217.402C277.896 217.991 278.025 218.526 278.282 219.009C278.544 219.487 278.9 219.868 279.351 220.153C279.806 220.434 280.323 220.574 280.902 220.574C281.339 220.574 281.745 220.489 282.122 220.319C282.499 220.144 282.828 219.907 283.108 219.609C283.393 219.305 283.616 218.963 283.777 218.581C283.938 218.195 284.019 217.793 284.019 217.375C284.019 216.823 283.885 216.306 283.619 215.823C283.357 215.341 282.993 214.95 282.529 214.651C282.07 214.352 281.546 214.203 280.957 214.203Z" fill="black" fill-opacity="0.5"/>
<path d="M324.426 212.879V227H322.716V214.672H322.633L319.186 216.961V215.224L322.716 212.879H324.426ZM333.093 227.193C332.054 227.193 331.169 226.91 330.438 226.345C329.708 225.775 329.149 224.95 328.763 223.87C328.377 222.785 328.184 221.475 328.184 219.94C328.184 218.414 328.377 217.11 328.763 216.03C329.154 214.945 329.714 214.118 330.445 213.548C331.181 212.974 332.063 212.686 333.093 212.686C334.123 212.686 335.003 212.974 335.734 213.548C336.469 214.118 337.03 214.945 337.416 216.03C337.807 217.11 338.002 218.414 338.002 219.94C338.002 221.475 337.809 222.785 337.423 223.87C337.037 224.95 336.478 225.775 335.747 226.345C335.017 226.91 334.132 227.193 333.093 227.193ZM333.093 225.676C334.123 225.676 334.922 225.18 335.492 224.187C336.062 223.194 336.347 221.778 336.347 219.94C336.347 218.717 336.216 217.676 335.954 216.816C335.697 215.957 335.325 215.302 334.837 214.851C334.355 214.401 333.773 214.176 333.093 214.176C332.072 214.176 331.275 214.679 330.7 215.685C330.126 216.688 329.839 218.106 329.839 219.94C329.839 221.162 329.967 222.201 330.225 223.056C330.482 223.911 330.852 224.562 331.335 225.007C331.822 225.453 332.408 225.676 333.093 225.676Z" fill="black" fill-opacity="0.5"/>
<path d="M37.426 260.879V275H35.7161V262.672H35.6334L32.1859 264.961V263.224L35.7161 260.879H37.426ZM46.4514 260.879V275H44.7415V262.672H44.6588L41.2113 264.961V263.224L44.7415 260.879H46.4514Z" fill="black" fill-opacity="0.5"/>
<path d="M84.426 260.879V275H82.7161V262.672H82.6334L79.1859 264.961V263.224L82.7161 260.879H84.426ZM88.4871 275V273.759L93.1481 268.657C93.6951 268.059 94.1455 267.54 94.4995 267.098C94.8534 266.653 95.1154 266.234 95.2855 265.844C95.4602 265.448 95.5475 265.035 95.5475 264.603C95.5475 264.106 95.428 263.676 95.189 263.313C94.9545 262.95 94.6328 262.67 94.2237 262.472C93.8146 262.274 93.3549 262.176 92.8447 262.176C92.3023 262.176 91.8288 262.288 91.4243 262.513C91.0244 262.734 90.7142 263.044 90.4935 263.444C90.2775 263.844 90.1695 264.313 90.1695 264.851H88.5423C88.5423 264.023 88.733 263.297 89.1146 262.672C89.4961 262.047 90.0155 261.56 90.6728 261.21C91.3347 260.861 92.0771 260.686 92.8999 260.686C93.7272 260.686 94.4604 260.861 95.0993 261.21C95.7382 261.56 96.2393 262.031 96.6024 262.624C96.9655 263.217 97.1471 263.876 97.1471 264.603C97.1471 265.122 97.0529 265.63 96.8644 266.126C96.6805 266.618 96.3588 267.167 95.8991 267.774C95.4441 268.376 94.812 269.112 94.003 269.981L90.8314 273.373V273.483H97.3953V275H88.4871Z" fill="black" fill-opacity="0.5"/>
<path d="M132.426 260.879V275H130.716V262.672H130.633L127.186 264.961V263.224L130.716 260.879H132.426ZM141.258 275.193C140.348 275.193 139.537 275.037 138.824 274.724C138.117 274.412 137.554 273.977 137.135 273.421C136.722 272.86 136.496 272.21 136.46 271.47H138.197C138.234 271.925 138.39 272.318 138.666 272.649C138.942 272.975 139.303 273.228 139.748 273.407C140.194 273.587 140.688 273.676 141.231 273.676C141.838 273.676 142.375 273.57 142.844 273.359C143.313 273.148 143.681 272.853 143.947 272.476C144.214 272.1 144.347 271.663 144.347 271.166C144.347 270.647 144.219 270.19 143.961 269.794C143.704 269.394 143.327 269.082 142.83 268.857C142.334 268.631 141.727 268.519 141.01 268.519H139.879V267.002H141.01C141.571 267.002 142.063 266.901 142.486 266.699C142.913 266.496 143.246 266.211 143.485 265.844C143.729 265.476 143.851 265.044 143.851 264.547C143.851 264.069 143.745 263.653 143.534 263.299C143.322 262.945 143.023 262.67 142.637 262.472C142.256 262.274 141.805 262.176 141.286 262.176C140.799 262.176 140.339 262.265 139.907 262.444C139.48 262.619 139.13 262.874 138.859 263.21C138.588 263.541 138.441 263.941 138.418 264.409H136.763C136.79 263.669 137.013 263.021 137.432 262.465C137.85 261.904 138.397 261.468 139.073 261.155C139.753 260.842 140.5 260.686 141.314 260.686C142.187 260.686 142.936 260.863 143.561 261.217C144.186 261.566 144.667 262.028 145.002 262.603C145.338 263.178 145.506 263.798 145.506 264.465C145.506 265.26 145.296 265.938 144.878 266.499C144.465 267.059 143.901 267.448 143.189 267.664V267.774C144.081 267.921 144.777 268.3 145.278 268.912C145.779 269.519 146.03 270.27 146.03 271.166C146.03 271.934 145.821 272.624 145.402 273.235C144.989 273.842 144.423 274.32 143.706 274.669C142.989 275.018 142.173 275.193 141.258 275.193Z" fill="black" fill-opacity="0.5"/>
<path d="M180.426 260.879V275H178.716V262.672H178.633L175.186 264.961V263.224L178.716 260.879H180.426ZM184.156 272.104V270.698L190.362 260.879H191.382V263.058H190.693L186.004 270.477V270.587H194.361V272.104H184.156ZM190.803 275V271.677V271.022V260.879H192.43V275H190.803Z" fill="black" fill-opacity="0.5"/>
<rect x="213" y="247" width="40" height="40" rx="7" fill="#810100" fill-opacity="0.1"/>
<path d="M228.426 260.879V275H226.716V262.672H226.633L223.186 264.961V263.224L226.716 260.879H228.426ZM236.9 275.193C236.091 275.193 235.362 275.032 234.714 274.71C234.066 274.389 233.547 273.947 233.156 273.387C232.765 272.826 232.551 272.187 232.515 271.47H234.169C234.234 272.109 234.523 272.637 235.038 273.056C235.558 273.469 236.178 273.676 236.9 273.676C237.479 273.676 237.994 273.541 238.444 273.269C238.899 272.998 239.256 272.626 239.513 272.152C239.775 271.674 239.906 271.134 239.906 270.532C239.906 269.916 239.77 269.367 239.499 268.884C239.233 268.397 238.865 268.013 238.396 267.733C237.927 267.452 237.392 267.31 236.79 267.305C236.357 267.301 235.914 267.367 235.459 267.505C235.004 267.639 234.629 267.811 234.335 268.022L232.735 267.829L233.59 260.879H240.926V262.396H235.024L234.528 266.561H234.611C234.9 266.331 235.263 266.14 235.7 265.988C236.137 265.837 236.592 265.761 237.065 265.761C237.929 265.761 238.699 265.968 239.375 266.381C240.055 266.79 240.589 267.351 240.975 268.064C241.365 268.776 241.561 269.59 241.561 270.505C241.561 271.405 241.359 272.21 240.954 272.918C240.554 273.621 240.003 274.177 239.299 274.586C238.596 274.991 237.796 275.193 236.9 275.193Z" fill="black" fill-opacity="0.5"/>
<rect x="261" y="247" width="40" height="40" rx="5" fill="#810100" fill-opacity="0.19"/>
<path d="M276.426 260.879V275H274.716V262.672H274.633L271.186 264.961V263.224L274.716 260.879H276.426ZM285.176 275.193C284.596 275.184 284.017 275.074 283.438 274.862C282.859 274.651 282.33 274.294 281.852 273.793C281.374 273.288 280.99 272.605 280.701 271.746C280.411 270.881 280.266 269.797 280.266 268.491C280.266 267.241 280.384 266.133 280.618 265.168C280.853 264.198 281.193 263.382 281.639 262.72C282.084 262.054 282.622 261.548 283.252 261.203C283.886 260.859 284.601 260.686 285.396 260.686C286.187 260.686 286.89 260.845 287.506 261.162C288.127 261.475 288.632 261.911 289.023 262.472C289.414 263.033 289.667 263.679 289.781 264.409H288.099C287.943 263.775 287.639 263.249 287.189 262.831C286.738 262.412 286.141 262.203 285.396 262.203C284.302 262.203 283.44 262.679 282.811 263.63C282.186 264.582 281.871 265.917 281.866 267.636H281.976C282.234 267.246 282.54 266.912 282.893 266.637C283.252 266.356 283.647 266.14 284.079 265.988C284.511 265.837 284.969 265.761 285.451 265.761C286.26 265.761 287 265.963 287.672 266.368C288.343 266.768 288.88 267.321 289.285 268.029C289.689 268.733 289.892 269.539 289.892 270.449C289.892 271.323 289.696 272.123 289.306 272.849C288.915 273.57 288.366 274.145 287.658 274.573C286.955 274.995 286.127 275.202 285.176 275.193ZM285.176 273.676C285.755 273.676 286.274 273.531 286.734 273.242C287.198 272.952 287.564 272.564 287.83 272.077C288.101 271.589 288.237 271.047 288.237 270.449C288.237 269.866 288.106 269.335 287.844 268.857C287.587 268.374 287.23 267.99 286.775 267.705C286.325 267.42 285.81 267.278 285.231 267.278C284.794 267.278 284.387 267.365 284.01 267.54C283.633 267.71 283.303 267.944 283.018 268.243C282.737 268.542 282.517 268.884 282.356 269.27C282.195 269.652 282.114 270.054 282.114 270.477C282.114 271.038 282.245 271.562 282.507 272.049C282.774 272.536 283.137 272.929 283.597 273.228C284.061 273.527 284.587 273.676 285.176 273.676Z" fill="black" fill-opacity="0.5"/>
<path d="M324.426 260.879V275H322.716V262.672H322.633L319.186 264.961V263.224L322.716 260.879H324.426ZM328.928 275L335.244 262.506V262.396H327.963V260.879H337.009V262.479L330.721 275H328.928Z" fill="black" fill-opacity="0.5"/>
<rect x="309" y="247" width="40" height="40" rx="5" fill="#810100" fill-opacity="0.3"/>
<path d="M84.426 308.879V323H82.7161V310.672H82.6334L79.1859 312.961V311.224L82.7161 308.879H84.426ZM92.9826 308.686C93.5618 308.691 94.1409 308.801 94.7201 309.017C95.2993 309.233 95.8279 309.592 96.3059 310.093C96.784 310.589 97.1678 311.267 97.4574 312.127C97.747 312.986 97.8917 314.064 97.8917 315.36C97.8917 316.615 97.7722 317.73 97.5332 318.704C97.2988 319.674 96.9586 320.493 96.5128 321.159C96.0715 321.826 95.5337 322.331 94.8994 322.676C94.2696 323.021 93.5572 323.193 92.762 323.193C91.9713 323.193 91.2658 323.037 90.6452 322.724C90.0293 322.407 89.5237 321.968 89.1283 321.407C88.7376 320.842 88.4871 320.187 88.3768 319.442H90.0592C90.2108 320.09 90.5119 320.626 90.9624 321.049C91.4174 321.467 92.0173 321.676 92.762 321.676C93.8513 321.676 94.7109 321.2 95.3406 320.249C95.975 319.297 96.2921 317.953 96.2921 316.215H96.1818C95.9244 316.602 95.6187 316.935 95.2648 317.215C94.9109 317.496 94.5179 317.712 94.0858 317.863C93.6537 318.015 93.194 318.091 92.7068 318.091C91.8978 318.091 91.1554 317.891 90.4797 317.491C89.8086 317.086 89.2708 316.533 88.8663 315.829C88.4664 315.121 88.2665 314.312 88.2665 313.402C88.2665 312.538 88.4595 311.748 88.8457 311.03C89.2364 310.309 89.7834 309.734 90.4866 309.307C91.1945 308.879 92.0265 308.672 92.9826 308.686ZM92.9826 310.203C92.4034 310.203 91.8817 310.348 91.4174 310.637C90.9578 310.922 90.5924 311.309 90.3212 311.796C90.0546 312.278 89.9213 312.814 89.9213 313.402C89.9213 313.991 90.05 314.526 90.3074 315.009C90.5694 315.487 90.9256 315.868 91.3761 316.153C91.8311 316.434 92.3483 316.574 92.9274 316.574C93.3641 316.574 93.7709 316.489 94.1478 316.319C94.5247 316.144 94.8534 315.907 95.1338 315.609C95.4188 315.305 95.6417 314.963 95.8026 314.581C95.9635 314.195 96.0439 313.793 96.0439 313.375C96.0439 312.823 95.9106 312.306 95.644 311.823C95.382 311.341 95.0189 310.95 94.5546 310.651C94.095 310.352 93.571 310.203 92.9826 310.203Z" fill="black" fill-opacity="0.5"/>
<path d="M126.462 323V321.759L131.123 316.657C131.67 316.059 132.12 315.54 132.474 315.098C132.828 314.653 133.09 314.234 133.26 313.844C133.435 313.448 133.522 313.035 133.522 312.603C133.522 312.106 133.403 311.676 133.164 311.313C132.929 310.95 132.607 310.67 132.198 310.472C131.789 310.274 131.33 310.176 130.819 310.176C130.277 310.176 129.803 310.288 129.399 310.513C128.999 310.734 128.689 311.044 128.468 311.444C128.252 311.844 128.144 312.313 128.144 312.851H126.517C126.517 312.023 126.708 311.297 127.089 310.672C127.471 310.047 127.99 309.56 128.647 309.21C129.309 308.861 130.052 308.686 130.874 308.686C131.702 308.686 132.435 308.861 133.074 309.21C133.713 309.56 134.214 310.031 134.577 310.624C134.94 311.217 135.122 311.876 135.122 312.603C135.122 313.122 135.027 313.63 134.839 314.126C134.655 314.618 134.333 315.167 133.874 315.774C133.419 316.376 132.787 317.112 131.978 317.981L128.806 321.373V321.483H135.37V323H126.462ZM142.823 323.193C141.784 323.193 140.9 322.91 140.169 322.345C139.438 321.775 138.879 320.95 138.493 319.87C138.107 318.785 137.914 317.475 137.914 315.94C137.914 314.414 138.107 313.11 138.493 312.03C138.884 310.945 139.445 310.118 140.176 309.548C140.911 308.974 141.794 308.686 142.823 308.686C143.853 308.686 144.733 308.974 145.464 309.548C146.199 310.118 146.76 310.945 147.146 312.03C147.537 313.11 147.732 314.414 147.732 315.94C147.732 317.475 147.539 318.785 147.153 319.87C146.767 320.95 146.209 321.775 145.478 322.345C144.747 322.91 143.862 323.193 142.823 323.193ZM142.823 321.676C143.853 321.676 144.653 321.18 145.223 320.187C145.793 319.194 146.078 317.778 146.078 315.94C146.078 314.717 145.947 313.676 145.685 312.816C145.427 311.957 145.055 311.302 144.568 310.851C144.085 310.401 143.504 310.176 142.823 310.176C141.803 310.176 141.005 310.679 140.431 311.685C139.856 312.688 139.569 314.106 139.569 315.94C139.569 317.162 139.698 318.201 139.955 319.056C140.212 319.911 140.582 320.562 141.065 321.007C141.552 321.453 142.138 321.676 142.823 321.676Z" fill="black" fill-opacity="0.5"/>
<path d="M175.462 323V321.759L180.123 316.657C180.67 316.059 181.12 315.54 181.474 315.098C181.828 314.653 182.09 314.234 182.26 313.844C182.435 313.448 182.522 313.035 182.522 312.603C182.522 312.106 182.403 311.676 182.164 311.313C181.929 310.95 181.607 310.67 181.198 310.472C180.789 310.274 180.33 310.176 179.819 310.176C179.277 310.176 178.803 310.288 178.399 310.513C177.999 310.734 177.689 311.044 177.468 311.444C177.252 311.844 177.144 312.313 177.144 312.851H175.517C175.517 312.023 175.708 311.297 176.089 310.672C176.471 310.047 176.99 309.56 177.647 309.21C178.309 308.861 179.052 308.686 179.874 308.686C180.702 308.686 181.435 308.861 182.074 309.21C182.713 309.56 183.214 310.031 183.577 310.624C183.94 311.217 184.122 311.876 184.122 312.603C184.122 313.122 184.027 313.63 183.839 314.126C183.655 314.618 183.333 315.167 182.874 315.774C182.419 316.376 181.787 317.112 180.978 317.981L177.806 321.373V321.483H184.37V323H175.462ZM192.182 308.879V323H190.472V310.672H190.389L186.942 312.961V311.224L190.472 308.879H192.182Z" fill="black" fill-opacity="0.5"/>
<path d="M222.462 323V321.759L227.123 316.657C227.67 316.059 228.12 315.54 228.474 315.098C228.828 314.653 229.09 314.234 229.26 313.844C229.435 313.448 229.522 313.035 229.522 312.603C229.522 312.106 229.403 311.676 229.164 311.313C228.929 310.95 228.607 310.67 228.198 310.472C227.789 310.274 227.33 310.176 226.819 310.176C226.277 310.176 225.803 310.288 225.399 310.513C224.999 310.734 224.689 311.044 224.468 311.444C224.252 311.844 224.144 312.313 224.144 312.851H222.517C222.517 312.023 222.708 311.297 223.089 310.672C223.471 310.047 223.99 309.56 224.647 309.21C225.309 308.861 226.052 308.686 226.874 308.686C227.702 308.686 228.435 308.861 229.074 309.21C229.713 309.56 230.214 310.031 230.577 310.624C230.94 311.217 231.122 311.876 231.122 312.603C231.122 313.122 231.027 313.63 230.839 314.126C230.655 314.618 230.333 315.167 229.874 315.774C229.419 316.376 228.787 317.112 227.978 317.981L224.806 321.373V321.483H231.37V323H222.462ZM234.217 323V321.759L238.878 316.657C239.425 316.059 239.876 315.54 240.23 315.098C240.584 314.653 240.846 314.234 241.016 313.844C241.191 313.448 241.278 313.035 241.278 312.603C241.278 312.106 241.158 311.676 240.919 311.313C240.685 310.95 240.363 310.67 239.954 310.472C239.545 310.274 239.085 310.176 238.575 310.176C238.033 310.176 237.559 310.288 237.155 310.513C236.755 310.734 236.445 311.044 236.224 311.444C236.008 311.844 235.9 312.313 235.9 312.851H234.273C234.273 312.023 234.463 311.297 234.845 310.672C235.226 310.047 235.746 309.56 236.403 309.21C237.065 308.861 237.807 308.686 238.63 308.686C239.458 308.686 240.191 308.861 240.83 309.21C241.469 309.56 241.97 310.031 242.333 310.624C242.696 311.217 242.877 311.876 242.877 312.603C242.877 313.122 242.783 313.63 242.595 314.126C242.411 314.618 242.089 315.167 241.63 315.774C241.174 316.376 240.542 317.112 239.733 317.981L236.562 321.373V321.483H243.126V323H234.217Z" fill="black" fill-opacity="0.5"/>
<path d="M269.462 323V321.759L274.123 316.657C274.67 316.059 275.12 315.54 275.474 315.098C275.828 314.653 276.09 314.234 276.26 313.844C276.435 313.448 276.522 313.035 276.522 312.603C276.522 312.106 276.403 311.676 276.164 311.313C275.929 310.95 275.607 310.67 275.198 310.472C274.789 310.274 274.33 310.176 273.819 310.176C273.277 310.176 272.803 310.288 272.399 310.513C271.999 310.734 271.689 311.044 271.468 311.444C271.252 311.844 271.144 312.313 271.144 312.851H269.517C269.517 312.023 269.708 311.297 270.089 310.672C270.471 310.047 270.99 309.56 271.647 309.21C272.309 308.861 273.052 308.686 273.874 308.686C274.702 308.686 275.435 308.861 276.074 309.21C276.713 309.56 277.214 310.031 277.577 310.624C277.94 311.217 278.122 311.876 278.122 312.603C278.122 313.122 278.027 313.63 277.839 314.126C277.655 314.618 277.333 315.167 276.874 315.774C276.419 316.376 275.787 317.112 274.978 317.981L271.806 321.373V321.483H278.37V323H269.462ZM285.989 323.193C285.079 323.193 284.267 323.037 283.555 322.724C282.847 322.412 282.284 321.977 281.866 321.421C281.452 320.86 281.227 320.21 281.19 319.47H282.927C282.964 319.925 283.12 320.318 283.396 320.649C283.672 320.975 284.033 321.228 284.479 321.407C284.925 321.587 285.419 321.676 285.961 321.676C286.568 321.676 287.106 321.57 287.575 321.359C288.043 321.148 288.411 320.853 288.678 320.476C288.944 320.1 289.078 319.663 289.078 319.166C289.078 318.647 288.949 318.19 288.692 317.794C288.434 317.394 288.057 317.082 287.561 316.857C287.064 316.631 286.458 316.519 285.741 316.519H284.61V315.002H285.741C286.301 315.002 286.793 314.901 287.216 314.699C287.644 314.496 287.977 314.211 288.216 313.844C288.459 313.476 288.581 313.044 288.581 312.547C288.581 312.069 288.476 311.653 288.264 311.299C288.053 310.945 287.754 310.67 287.368 310.472C286.986 310.274 286.536 310.176 286.016 310.176C285.529 310.176 285.069 310.265 284.637 310.444C284.21 310.619 283.861 310.874 283.589 311.21C283.318 311.541 283.171 311.941 283.148 312.409H281.493C281.521 311.669 281.744 311.021 282.162 310.465C282.58 309.904 283.127 309.468 283.803 309.155C284.483 308.842 285.23 308.686 286.044 308.686C286.917 308.686 287.667 308.863 288.292 309.217C288.917 309.566 289.397 310.028 289.733 310.603C290.068 311.178 290.236 311.798 290.236 312.465C290.236 313.26 290.027 313.938 289.609 314.499C289.195 315.059 288.632 315.448 287.919 315.664V315.774C288.811 315.921 289.507 316.3 290.008 316.912C290.51 317.519 290.76 318.27 290.76 319.166C290.76 319.934 290.551 320.624 290.133 321.235C289.719 321.842 289.154 322.32 288.436 322.669C287.719 323.018 286.903 323.193 285.989 323.193Z" fill="black" fill-opacity="0.5"/>
<path d="M317.462 323V321.759L322.123 316.657C322.67 316.059 323.12 315.54 323.474 315.098C323.828 314.653 324.09 314.234 324.26 313.844C324.435 313.448 324.522 313.035 324.522 312.603C324.522 312.106 324.403 311.676 324.164 311.313C323.929 310.95 323.607 310.67 323.198 310.472C322.789 310.274 322.33 310.176 321.819 310.176C321.277 310.176 320.803 310.288 320.399 310.513C319.999 310.734 319.689 311.044 319.468 311.444C319.252 311.844 319.144 312.313 319.144 312.851H317.517C317.517 312.023 317.708 311.297 318.089 310.672C318.471 310.047 318.99 309.56 319.647 309.21C320.309 308.861 321.052 308.686 321.874 308.686C322.702 308.686 323.435 308.861 324.074 309.21C324.713 309.56 325.214 310.031 325.577 310.624C325.94 311.217 326.122 311.876 326.122 312.603C326.122 313.122 326.027 313.63 325.839 314.126C325.655 314.618 325.333 315.167 324.874 315.774C324.419 316.376 323.787 317.112 322.978 317.981L319.806 321.373V321.483H326.37V323H317.462ZM328.583 320.104V318.698L334.789 308.879H335.809V311.058H335.12L330.431 318.477V318.587H338.788V320.104H328.583ZM335.23 323V319.677V319.022V308.879H336.857V323H335.23Z" fill="black" fill-opacity="0.5"/>
<path d="M29.4617 371V369.759L34.1227 364.657C34.6697 364.059 35.1201 363.54 35.4741 363.098C35.828 362.653 36.09 362.234 36.2601 361.844C36.4347 361.448 36.5221 361.035 36.5221 360.603C36.5221 360.106 36.4026 359.676 36.1635 359.313C35.9291 358.95 35.6074 358.67 35.1983 358.472C34.7892 358.274 34.3295 358.176 33.8193 358.176C33.2769 358.176 32.8034 358.288 32.3989 358.513C31.999 358.734 31.6888 359.044 31.4681 359.444C31.2521 359.844 31.1441 360.313 31.1441 360.851H29.5169C29.5169 360.023 29.7076 359.297 30.0892 358.672C30.4707 358.047 30.9901 357.56 31.6474 357.21C32.3093 356.861 33.0517 356.686 33.8744 356.686C34.7018 356.686 35.435 356.861 36.0739 357.21C36.7128 357.56 37.2139 358.031 37.577 358.624C37.9401 359.217 38.1217 359.876 38.1217 360.603C38.1217 361.122 38.0275 361.63 37.839 362.126C37.6551 362.618 37.3334 363.167 36.8737 363.774C36.4187 364.376 35.7866 365.112 34.9776 365.981L31.806 369.373V369.483H38.3699V371H29.4617ZM45.6302 371.193C44.8212 371.193 44.0927 371.032 43.4445 370.71C42.7964 370.389 42.277 369.947 41.8863 369.387C41.4956 368.826 41.2818 368.187 41.2451 367.47H42.8998C42.9642 368.109 43.2538 368.637 43.7686 369.056C44.288 369.469 44.9086 369.676 45.6302 369.676C46.2094 369.676 46.7242 369.541 47.1747 369.269C47.6297 368.998 47.986 368.626 48.2434 368.152C48.5054 367.674 48.6364 367.134 48.6364 366.532C48.6364 365.916 48.5008 365.367 48.2296 364.884C47.963 364.397 47.5953 364.013 47.1264 363.733C46.6576 363.452 46.1221 363.31 45.5199 363.305C45.0878 363.301 44.6443 363.367 44.1892 363.505C43.7341 363.639 43.3595 363.811 43.0653 364.022L41.4657 363.829L42.3207 356.879H49.6568V358.396H43.7548L43.2584 362.561H43.3411C43.6307 362.331 43.9938 362.14 44.4305 361.988C44.8672 361.837 45.3223 361.761 45.7957 361.761C46.6599 361.761 47.4298 361.968 48.1055 362.381C48.7858 362.79 49.319 363.351 49.7051 364.064C50.0958 364.776 50.2912 365.59 50.2912 366.505C50.2912 367.405 50.0889 368.21 49.6844 368.918C49.2845 369.621 48.7329 370.177 48.0296 370.586C47.3264 370.991 46.5266 371.193 45.6302 371.193Z" fill="black" fill-opacity="0.5"/>
<path d="M78.4617 371V369.759L83.1227 364.657C83.6697 364.059 84.1201 363.54 84.4741 363.098C84.828 362.653 85.09 362.234 85.2601 361.844C85.4347 361.448 85.5221 361.035 85.5221 360.603C85.5221 360.106 85.4026 359.676 85.1635 359.313C84.9291 358.95 84.6074 358.67 84.1983 358.472C83.7892 358.274 83.3295 358.176 82.8193 358.176C82.2769 358.176 81.8034 358.288 81.3989 358.513C80.999 358.734 80.6888 359.044 80.4681 359.444C80.2521 359.844 80.1441 360.313 80.1441 360.851H78.5169C78.5169 360.023 78.7076 359.297 79.0892 358.672C79.4707 358.047 79.9901 357.56 80.6474 357.21C81.3093 356.861 82.0517 356.686 82.8744 356.686C83.7018 356.686 84.435 356.861 85.0739 357.21C85.7128 357.56 86.2139 358.031 86.577 358.624C86.9401 359.217 87.1217 359.876 87.1217 360.603C87.1217 361.122 87.0275 361.63 86.839 362.126C86.6551 362.618 86.3334 363.167 85.8737 363.774C85.4187 364.376 84.7866 365.112 83.9776 365.981L80.806 369.373V369.483H87.3699V371H78.4617ZM94.906 371.193C94.3268 371.184 93.7477 371.074 93.1685 370.862C92.5893 370.651 92.0607 370.294 91.5827 369.793C91.1046 369.288 90.7208 368.605 90.4312 367.746C90.1417 366.881 89.9969 365.797 89.9969 364.491C89.9969 363.241 90.1141 362.133 90.3485 361.168C90.5829 360.198 90.9231 359.382 91.3689 358.72C91.8148 358.054 92.3526 357.548 92.9823 357.203C93.6167 356.859 94.3314 356.686 95.1267 356.686C95.9173 356.686 96.6205 356.845 97.2365 357.162C97.857 357.475 98.3627 357.911 98.7534 358.472C99.1441 359.033 99.3969 359.679 99.5118 360.409H97.8295C97.6732 359.775 97.3698 359.249 96.9193 358.831C96.4689 358.412 95.8713 358.203 95.1267 358.203C94.0327 358.203 93.1708 358.679 92.5411 359.63C91.9159 360.582 91.6011 361.917 91.5965 363.636H91.7068C91.9642 363.246 92.2699 362.912 92.6238 362.637C92.9823 362.356 93.3777 362.14 93.8097 361.988C94.2418 361.837 94.6992 361.761 95.1818 361.761C95.9908 361.761 96.7309 361.963 97.402 362.368C98.0731 362.768 98.6109 363.321 99.0154 364.029C99.4199 364.733 99.6221 365.539 99.6221 366.449C99.6221 367.323 99.4268 368.123 99.0361 368.849C98.6453 369.57 98.0961 370.145 97.3882 370.573C96.6849 370.995 95.8575 371.202 94.906 371.193ZM94.906 369.676C95.4852 369.676 96.0046 369.531 96.4643 369.242C96.9285 368.952 97.2939 368.564 97.5606 368.077C97.8318 367.589 97.9674 367.047 97.9674 366.449C97.9674 365.866 97.8363 365.335 97.5743 364.857C97.3169 364.374 96.9607 363.99 96.5056 363.705C96.0552 363.42 95.5403 363.278 94.9612 363.278C94.5245 363.278 94.1177 363.365 93.7408 363.54C93.3639 363.71 93.0329 363.944 92.7479 364.243C92.4675 364.542 92.2469 364.884 92.086 365.27C91.9251 365.652 91.8447 366.054 91.8447 366.477C91.8447 367.038 91.9757 367.562 92.2377 368.049C92.5043 368.536 92.8674 368.929 93.3271 369.228C93.7913 369.527 94.3177 369.676 94.906 369.676Z" fill="black" fill-opacity="0.5"/>
<path d="M126.462 371V369.759L131.123 364.657C131.67 364.059 132.12 363.54 132.474 363.098C132.828 362.653 133.09 362.234 133.26 361.844C133.435 361.448 133.522 361.035 133.522 360.603C133.522 360.106 133.403 359.676 133.164 359.313C132.929 358.95 132.607 358.67 132.198 358.472C131.789 358.274 131.33 358.176 130.819 358.176C130.277 358.176 129.803 358.288 129.399 358.513C128.999 358.734 128.689 359.044 128.468 359.444C128.252 359.844 128.144 360.313 128.144 360.851H126.517C126.517 360.023 126.708 359.297 127.089 358.672C127.471 358.047 127.99 357.56 128.647 357.21C129.309 356.861 130.052 356.686 130.874 356.686C131.702 356.686 132.435 356.861 133.074 357.21C133.713 357.56 134.214 358.031 134.577 358.624C134.94 359.217 135.122 359.876 135.122 360.603C135.122 361.122 135.027 361.63 134.839 362.126C134.655 362.618 134.333 363.167 133.874 363.774C133.419 364.376 132.787 365.112 131.978 365.981L128.806 369.373V369.483H135.37V371H126.462ZM138.659 371L144.974 358.506V358.396H137.693V356.879H146.74V358.479L140.451 371H138.659Z" fill="black" fill-opacity="0.5"/>
<path d="M174.462 371V369.759L179.123 364.657C179.67 364.059 180.12 363.54 180.474 363.098C180.828 362.653 181.09 362.234 181.26 361.844C181.435 361.448 181.522 361.035 181.522 360.603C181.522 360.106 181.403 359.676 181.164 359.313C180.929 358.95 180.607 358.67 180.198 358.472C179.789 358.274 179.33 358.176 178.819 358.176C178.277 358.176 177.803 358.288 177.399 358.513C176.999 358.734 176.689 359.044 176.468 359.444C176.252 359.844 176.144 360.313 176.144 360.851H174.517C174.517 360.023 174.708 359.297 175.089 358.672C175.471 358.047 175.99 357.56 176.647 357.21C177.309 356.861 178.052 356.686 178.874 356.686C179.702 356.686 180.435 356.861 181.074 357.21C181.713 357.56 182.214 358.031 182.577 358.624C182.94 359.217 183.122 359.876 183.122 360.603C183.122 361.122 183.027 361.63 182.839 362.126C182.655 362.618 182.333 363.167 181.874 363.774C181.419 364.376 180.787 365.112 179.978 365.981L176.806 369.373V369.483H183.37V371H174.462ZM190.741 371.193C189.794 371.193 188.957 371.025 188.231 370.69C187.509 370.35 186.946 369.883 186.542 369.29C186.137 368.693 185.937 368.012 185.942 367.249C185.937 366.652 186.054 366.1 186.293 365.594C186.532 365.084 186.859 364.659 187.272 364.319C187.691 363.974 188.157 363.756 188.672 363.664V363.581C187.996 363.406 187.459 363.027 187.059 362.443C186.659 361.855 186.461 361.186 186.466 360.437C186.461 359.72 186.643 359.079 187.01 358.513C187.378 357.948 187.884 357.502 188.527 357.176C189.175 356.849 189.913 356.686 190.741 356.686C191.559 356.686 192.29 356.849 192.933 357.176C193.577 357.502 194.082 357.948 194.45 358.513C194.822 359.079 195.011 359.72 195.015 360.437C195.011 361.186 194.806 361.855 194.402 362.443C194.002 363.027 193.471 363.406 192.809 363.581V363.664C193.319 363.756 193.779 363.974 194.188 364.319C194.597 364.659 194.923 365.084 195.167 365.594C195.411 366.1 195.535 366.652 195.539 367.249C195.535 368.012 195.328 368.693 194.919 369.29C194.514 369.883 193.951 370.35 193.23 370.69C192.513 371.025 191.683 371.193 190.741 371.193ZM190.741 369.676C191.379 369.676 191.931 369.573 192.395 369.366C192.86 369.159 193.218 368.867 193.471 368.49C193.724 368.113 193.852 367.672 193.857 367.166C193.852 366.633 193.715 366.162 193.443 365.753C193.172 365.344 192.802 365.022 192.333 364.788C191.869 364.553 191.338 364.436 190.741 364.436C190.138 364.436 189.601 364.553 189.127 364.788C188.658 365.022 188.288 365.344 188.017 365.753C187.75 366.162 187.619 366.633 187.624 367.166C187.619 367.672 187.741 368.113 187.989 368.49C188.242 368.867 188.603 369.159 189.072 369.366C189.541 369.573 190.097 369.676 190.741 369.676ZM190.741 362.974C191.246 362.974 191.694 362.873 192.085 362.671C192.48 362.469 192.791 362.186 193.016 361.823C193.241 361.46 193.356 361.035 193.361 360.547C193.356 360.069 193.243 359.653 193.023 359.299C192.802 358.941 192.496 358.665 192.106 358.472C191.715 358.274 191.26 358.176 190.741 358.176C190.212 358.176 189.75 358.274 189.355 358.472C188.959 358.665 188.654 358.941 188.438 359.299C188.222 359.653 188.116 360.069 188.12 360.547C188.116 361.035 188.224 361.46 188.445 361.823C188.67 362.186 188.98 362.469 189.375 362.671C189.771 362.873 190.226 362.974 190.741 362.974Z" fill="black" fill-opacity="0.5"/>
<path d="M222.462 371V369.759L227.123 364.657C227.67 364.059 228.12 363.54 228.474 363.098C228.828 362.653 229.09 362.234 229.26 361.844C229.435 361.448 229.522 361.035 229.522 360.603C229.522 360.106 229.403 359.676 229.164 359.313C228.929 358.95 228.607 358.67 228.198 358.472C227.789 358.274 227.33 358.176 226.819 358.176C226.277 358.176 225.803 358.288 225.399 358.513C224.999 358.734 224.689 359.044 224.468 359.444C224.252 359.844 224.144 360.313 224.144 360.851H222.517C222.517 360.023 222.708 359.297 223.089 358.672C223.471 358.047 223.99 357.56 224.647 357.21C225.309 356.861 226.052 356.686 226.874 356.686C227.702 356.686 228.435 356.861 229.074 357.21C229.713 357.56 230.214 358.031 230.577 358.624C230.94 359.217 231.122 359.876 231.122 360.603C231.122 361.122 231.027 361.63 230.839 362.126C230.655 362.618 230.333 363.167 229.874 363.774C229.419 364.376 228.787 365.112 227.978 365.981L224.806 369.373V369.483H231.37V371H222.462ZM238.713 356.686C239.292 356.691 239.871 356.801 240.45 357.017C241.03 357.233 241.558 357.592 242.036 358.093C242.514 358.589 242.898 359.267 243.188 360.127C243.477 360.986 243.622 362.064 243.622 363.36C243.622 364.615 243.503 365.73 243.264 366.704C243.029 367.674 242.689 368.493 242.243 369.159C241.802 369.826 241.264 370.331 240.63 370.676C240 371.021 239.288 371.193 238.492 371.193C237.702 371.193 236.996 371.037 236.376 370.724C235.76 370.407 235.254 369.968 234.859 369.407C234.468 368.842 234.217 368.187 234.107 367.442H235.79C235.941 368.09 236.242 368.626 236.693 369.049C237.148 369.467 237.748 369.676 238.492 369.676C239.582 369.676 240.441 369.2 241.071 368.249C241.705 367.297 242.023 365.953 242.023 364.215H241.912C241.655 364.602 241.349 364.935 240.995 365.215C240.641 365.496 240.248 365.712 239.816 365.863C239.384 366.015 238.924 366.091 238.437 366.091C237.628 366.091 236.886 365.891 236.21 365.491C235.539 365.086 235.001 364.533 234.597 363.829C234.197 363.121 233.997 362.312 233.997 361.402C233.997 360.538 234.19 359.748 234.576 359.03C234.967 358.309 235.514 357.734 236.217 357.307C236.925 356.879 237.757 356.672 238.713 356.686ZM238.713 358.203C238.134 358.203 237.612 358.348 237.148 358.637C236.688 358.922 236.323 359.309 236.052 359.796C235.785 360.278 235.652 360.814 235.652 361.402C235.652 361.991 235.78 362.526 236.038 363.009C236.3 363.487 236.656 363.868 237.106 364.153C237.562 364.434 238.079 364.574 238.658 364.574C239.094 364.574 239.501 364.489 239.878 364.319C240.255 364.144 240.584 363.907 240.864 363.609C241.149 363.305 241.372 362.963 241.533 362.581C241.694 362.195 241.774 361.793 241.774 361.375C241.774 360.823 241.641 360.306 241.374 359.823C241.112 359.341 240.749 358.95 240.285 358.651C239.825 358.352 239.301 358.203 238.713 358.203Z" fill="black" fill-opacity="0.5"/>
<path d="M274.233 371.193C273.323 371.193 272.512 371.037 271.799 370.724C271.091 370.412 270.528 369.977 270.11 369.421C269.696 368.86 269.471 368.21 269.434 367.47H271.172C271.208 367.925 271.365 368.318 271.641 368.649C271.916 368.975 272.277 369.228 272.723 369.407C273.169 369.587 273.663 369.676 274.205 369.676C274.812 369.676 275.35 369.57 275.819 369.359C276.288 369.148 276.655 368.853 276.922 368.476C277.189 368.1 277.322 367.663 277.322 367.166C277.322 366.647 277.193 366.19 276.936 365.794C276.678 365.394 276.301 365.082 275.805 364.857C275.309 364.631 274.702 364.519 273.985 364.519H272.854V363.002H273.985C274.546 363.002 275.037 362.901 275.46 362.699C275.888 362.496 276.221 362.211 276.46 361.844C276.704 361.476 276.825 361.044 276.825 360.547C276.825 360.069 276.72 359.653 276.508 359.299C276.297 358.945 275.998 358.67 275.612 358.472C275.23 358.274 274.78 358.176 274.261 358.176C273.773 358.176 273.314 358.265 272.882 358.444C272.454 358.619 272.105 358.874 271.834 359.21C271.562 359.541 271.415 359.941 271.392 360.409H269.738C269.765 359.669 269.988 359.021 270.406 358.465C270.825 357.904 271.372 357.468 272.047 357.155C272.728 356.842 273.475 356.686 274.288 356.686C275.161 356.686 275.911 356.863 276.536 357.217C277.161 357.566 277.641 358.028 277.977 358.603C278.312 359.178 278.48 359.798 278.48 360.465C278.48 361.26 278.271 361.938 277.853 362.499C277.439 363.059 276.876 363.448 276.164 363.664V363.774C277.055 363.921 277.752 364.3 278.253 364.912C278.754 365.519 279.004 366.27 279.004 367.166C279.004 367.934 278.795 368.624 278.377 369.235C277.963 369.842 277.398 370.32 276.681 370.669C275.964 371.018 275.148 371.193 274.233 371.193ZM286.43 371.193C285.391 371.193 284.506 370.91 283.776 370.345C283.045 369.775 282.486 368.95 282.1 367.87C281.714 366.785 281.521 365.475 281.521 363.94C281.521 362.414 281.714 361.11 282.1 360.03C282.491 358.945 283.052 358.118 283.782 357.548C284.518 356.974 285.4 356.686 286.43 356.686C287.46 356.686 288.34 356.974 289.071 357.548C289.806 358.118 290.367 358.945 290.753 360.03C291.144 361.11 291.339 362.414 291.339 363.94C291.339 365.475 291.146 366.785 290.76 367.87C290.374 368.95 289.815 369.775 289.085 370.345C288.354 370.91 287.469 371.193 286.43 371.193ZM286.43 369.676C287.46 369.676 288.259 369.18 288.829 368.187C289.399 367.194 289.684 365.778 289.684 363.94C289.684 362.717 289.553 361.676 289.291 360.816C289.034 359.957 288.662 359.302 288.174 358.851C287.692 358.401 287.11 358.176 286.43 358.176C285.41 358.176 284.612 358.679 284.038 359.685C283.463 360.688 283.176 362.106 283.176 363.94C283.176 365.162 283.304 366.201 283.562 367.056C283.819 367.911 284.189 368.562 284.672 369.007C285.159 369.453 285.745 369.676 286.43 369.676Z" fill="black" fill-opacity="0.5"/>
<rect x="21" y="295" width="40" height="40" rx="20" fill="#810100"/>
<path d="M36.426 308.879V323H34.7161V310.672H34.6334L31.1859 312.961V311.224L34.7161 308.879H36.426ZM45.0102 323.193C44.0633 323.193 43.2267 323.025 42.5004 322.69C41.7788 322.35 41.2157 321.883 40.8112 321.29C40.4067 320.693 40.2067 320.012 40.2113 319.249C40.2067 318.652 40.3239 318.1 40.563 317.594C40.802 317.084 41.1283 316.659 41.542 316.319C41.9603 315.974 42.4269 315.756 42.9417 315.664V315.581C42.266 315.406 41.7282 315.027 41.3283 314.443C40.9284 313.855 40.7307 313.186 40.7353 312.437C40.7307 311.72 40.9123 311.079 41.28 310.513C41.6478 309.948 42.1534 309.502 42.7969 309.176C43.445 308.849 44.1828 308.686 45.0102 308.686C45.8284 308.686 46.5592 308.849 47.2027 309.176C47.8463 309.502 48.3519 309.948 48.7196 310.513C49.0919 311.079 49.2804 311.72 49.285 312.437C49.2804 313.186 49.0759 313.855 48.6714 314.443C48.2714 315.027 47.7405 315.406 47.0786 315.581V315.664C47.5889 315.756 48.0485 315.974 48.4576 316.319C48.8667 316.659 49.1931 317.084 49.4367 317.594C49.6803 318.1 49.8044 318.652 49.809 319.249C49.8044 320.012 49.5976 320.693 49.1885 321.29C48.784 321.883 48.2209 322.35 47.4992 322.69C46.7822 323.025 45.9525 323.193 45.0102 323.193ZM45.0102 321.676C45.6491 321.676 46.2007 321.573 46.6649 321.366C47.1292 321.159 47.4877 320.867 47.7405 320.49C47.9934 320.113 48.1221 319.672 48.1267 319.166C48.1221 318.633 47.9842 318.162 47.713 317.753C47.4418 317.344 47.0717 317.022 46.6029 316.788C46.1386 316.553 45.6077 316.436 45.0102 316.436C44.408 316.436 43.8702 316.553 43.3968 316.788C42.9279 317.022 42.5579 317.344 42.2867 317.753C42.0201 318.162 41.8891 318.633 41.8937 319.166C41.8891 319.672 42.0109 320.113 42.2591 320.49C42.5119 320.867 42.8728 321.159 43.3416 321.366C43.8105 321.573 44.3666 321.676 45.0102 321.676ZM45.0102 314.974C45.5158 314.974 45.964 314.873 46.3547 314.671C46.75 314.469 47.0602 314.186 47.2855 313.823C47.5107 313.46 47.6256 313.035 47.6302 312.547C47.6256 312.069 47.513 311.653 47.2924 311.299C47.0717 310.941 46.7661 310.665 46.3754 310.472C45.9846 310.274 45.5296 310.176 45.0102 310.176C44.4816 310.176 44.0196 310.274 43.6243 310.472C43.229 310.665 42.9233 310.941 42.7073 311.299C42.4912 311.653 42.3855 312.069 42.3901 312.547C42.3855 313.035 42.4935 313.46 42.7142 313.823C42.9394 314.186 43.2497 314.469 43.645 314.671C44.0403 314.873 44.4954 314.974 45.0102 314.974Z" fill="#FDFBF7"/>
<g filter="url(#filter1_d_2354_1956)">
<rect x="4" y="2" width="358" height="60" rx="30" fill="#FDFBF7"/>
</g>
<path d="M336.352 38L342.611 32L336.352 26" stroke="black" stroke-width="2" stroke-linecap="round" stroke-linejoin="round"/>
<path d="M29.6479 38L23.3887 32L29.6479 26" stroke="black" stroke-width="2" stroke-linecap="round" stroke-linejoin="round"/>
<path d="M111.888 29.9404C111.832 29.3842 111.596 28.9521 111.177 28.6441C110.759 28.3361 110.191 28.1822 109.474 28.1822C108.987 28.1822 108.576 28.2511 108.24 28.389C107.905 28.5223 107.647 28.7085 107.468 28.9475C107.293 29.1865 107.206 29.4577 107.206 29.7611C107.197 30.0139 107.25 30.2345 107.364 30.423C107.484 30.6115 107.647 30.7746 107.854 30.9125C108.061 31.0458 108.3 31.1631 108.571 31.2642C108.842 31.3607 109.132 31.4434 109.44 31.5124L110.708 31.8158C111.324 31.9537 111.89 32.1375 112.405 32.3674C112.919 32.5972 113.365 32.8799 113.742 33.2154C114.119 33.551 114.411 33.9463 114.618 34.4014C114.829 34.8564 114.937 35.3781 114.942 35.9665C114.937 36.8307 114.717 37.5799 114.28 38.2142C113.848 38.844 113.223 39.3335 112.405 39.6828C111.591 40.0276 110.61 40.2 109.461 40.2C108.321 40.2 107.328 40.0253 106.482 39.6759C105.641 39.3266 104.983 38.8095 104.51 38.1246C104.041 37.4351 103.795 36.5824 103.772 35.5666H106.661C106.693 36.04 106.829 36.4353 107.068 36.7525C107.312 37.0651 107.636 37.3018 108.04 37.4627C108.449 37.619 108.911 37.6971 109.426 37.6971C109.932 37.6971 110.371 37.6236 110.743 37.4765C111.12 37.3294 111.412 37.1248 111.619 36.8628C111.825 36.6008 111.929 36.2997 111.929 35.9596C111.929 35.6424 111.835 35.3758 111.646 35.1598C111.462 34.9437 111.191 34.7599 110.833 34.6082C110.479 34.4565 110.044 34.3186 109.529 34.1945L107.992 33.8084C106.801 33.5188 105.861 33.066 105.172 32.4501C104.482 31.8342 104.14 31.0045 104.145 29.961C104.14 29.1061 104.367 28.3591 104.827 27.7202C105.291 27.0813 105.928 26.5826 106.737 26.224C107.546 25.8655 108.465 25.6862 109.495 25.6862C110.543 25.6862 111.458 25.8655 112.239 26.224C113.025 26.5826 113.637 27.0813 114.073 27.7202C114.51 28.3591 114.735 29.0992 114.749 29.9404H111.888ZM121.721 40.2068C120.632 40.2068 119.694 39.9862 118.908 39.5449C118.127 39.0991 117.525 38.4693 117.102 37.6557C116.679 36.8375 116.467 35.87 116.467 34.753C116.467 33.6636 116.679 32.7075 117.102 31.8847C117.525 31.0619 118.12 30.4207 118.888 29.961C119.66 29.5014 120.565 29.2716 121.604 29.2716C122.303 29.2716 122.953 29.3842 123.555 29.6094C124.162 29.83 124.691 30.1633 125.141 30.6092C125.596 31.055 125.95 31.6158 126.203 32.2915C126.456 32.9626 126.582 33.7486 126.582 34.6496V35.4563H117.64V33.636H123.817C123.817 33.2131 123.725 32.8385 123.542 32.5122C123.358 32.1858 123.103 31.9307 122.776 31.7468C122.454 31.5584 122.08 31.4641 121.652 31.4641C121.207 31.4641 120.811 31.5676 120.466 31.7744C120.126 31.9766 119.86 32.2501 119.667 32.5949C119.474 32.935 119.375 33.3143 119.37 33.7325V35.4632C119.37 35.9872 119.467 36.4399 119.66 36.8215C119.857 37.203 120.136 37.4972 120.494 37.704C120.853 37.9108 121.278 38.0143 121.77 38.0143C122.096 38.0143 122.395 37.9683 122.666 37.8764C122.937 37.7844 123.169 37.6465 123.362 37.4627C123.555 37.2788 123.702 37.0536 123.804 36.787L126.52 36.9662C126.382 37.619 126.1 38.1889 125.672 38.6762C125.249 39.1588 124.702 39.5357 124.031 39.8069C123.365 40.0735 122.595 40.2068 121.721 40.2068ZM128.499 43.9715V29.4095H131.395V31.1883H131.526C131.655 30.9033 131.841 30.6138 132.084 30.3196C132.333 30.0208 132.654 29.7726 133.05 29.5749C133.45 29.3727 133.946 29.2716 134.539 29.2716C135.311 29.2716 136.024 29.4738 136.676 29.8783C137.329 30.2782 137.851 30.8827 138.241 31.6917C138.632 32.4961 138.828 33.505 138.828 34.7185C138.828 35.8998 138.637 36.8973 138.255 37.7109C137.878 38.5199 137.364 39.1335 136.711 39.5518C136.063 39.9655 135.336 40.1724 134.532 40.1724C133.962 40.1724 133.477 40.0781 133.077 39.8897C132.682 39.7012 132.358 39.4645 132.105 39.1795C131.852 38.8899 131.659 38.598 131.526 38.3039H131.436V43.9715H128.499ZM131.374 34.7047C131.374 35.3345 131.462 35.8838 131.636 36.3526C131.811 36.8215 132.064 37.1869 132.395 37.4489C132.726 37.7063 133.128 37.835 133.601 37.835C134.079 37.835 134.484 37.704 134.815 37.442C135.146 37.1754 135.396 36.8077 135.566 36.3388C135.741 35.8654 135.828 35.3207 135.828 34.7047C135.828 34.0934 135.743 33.5556 135.573 33.0913C135.403 32.6271 135.153 32.2639 134.822 32.0019C134.491 31.7399 134.084 31.6089 133.601 31.6089C133.123 31.6089 132.719 31.7353 132.388 31.9881C132.061 32.241 131.811 32.5995 131.636 33.0637C131.462 33.528 131.374 34.075 131.374 34.7047ZM146.419 29.4095V31.6158H140.041V29.4095H146.419ZM141.489 26.8721H144.426V36.7456C144.426 37.0168 144.468 37.2283 144.55 37.3799C144.633 37.527 144.748 37.6305 144.895 37.6902C145.047 37.75 145.221 37.7798 145.419 37.7798C145.557 37.7798 145.695 37.7684 145.833 37.7454C145.971 37.7178 146.076 37.6971 146.15 37.6833L146.612 39.869C146.465 39.915 146.258 39.9678 145.991 40.0276C145.725 40.0919 145.401 40.131 145.019 40.1448C144.311 40.1724 143.691 40.0781 143.158 39.8621C142.629 39.6461 142.218 39.3105 141.923 38.8554C141.629 38.4004 141.484 37.8258 141.489 37.1317V26.8721ZM153.045 40.2068C151.955 40.2068 151.018 39.9862 150.232 39.5449C149.45 39.0991 148.848 38.4693 148.425 37.6557C148.002 36.8375 147.791 35.87 147.791 34.753C147.791 33.6636 148.002 32.7075 148.425 31.8847C148.848 31.0619 149.443 30.4207 150.211 29.961C150.983 29.5014 151.889 29.2716 152.928 29.2716C153.626 29.2716 154.277 29.3842 154.879 29.6094C155.486 29.83 156.014 30.1633 156.465 30.6092C156.92 31.055 157.274 31.6158 157.526 32.2915C157.779 32.9626 157.906 33.7486 157.906 34.6496V35.4563H148.963V33.636H155.141C155.141 33.2131 155.049 32.8385 154.865 32.5122C154.681 32.1858 154.426 31.9307 154.1 31.7468C153.778 31.5584 153.403 31.4641 152.976 31.4641C152.53 31.4641 152.135 31.5676 151.79 31.7744C151.45 31.9766 151.183 32.2501 150.99 32.5949C150.797 32.935 150.698 33.3143 150.694 33.7325V35.4632C150.694 35.9872 150.79 36.4399 150.983 36.8215C151.181 37.203 151.459 37.4972 151.818 37.704C152.176 37.9108 152.601 38.0143 153.093 38.0143C153.419 38.0143 153.718 37.9683 153.989 37.8764C154.261 37.7844 154.493 37.6465 154.686 37.4627C154.879 37.2788 155.026 37.0536 155.127 36.787L157.844 36.9662C157.706 37.619 157.423 38.1889 156.996 38.6762C156.573 39.1588 156.026 39.5357 155.355 39.8069C154.688 40.0735 153.918 40.2068 153.045 40.2068ZM159.822 40V29.4095H162.622V31.278H162.746C162.967 30.6574 163.334 30.1679 163.849 29.8094C164.364 29.4508 164.98 29.2716 165.697 29.2716C166.423 29.2716 167.041 29.4531 167.552 29.8163C168.062 30.1748 168.402 30.662 168.572 31.278H168.682C168.898 30.6712 169.289 30.1863 169.855 29.8231C170.425 29.4554 171.098 29.2716 171.875 29.2716C172.863 29.2716 173.665 29.5864 174.281 30.2162C174.902 30.8413 175.212 31.7284 175.212 32.8776V40H172.282V33.4568C172.282 32.8684 172.125 32.4271 171.813 32.1329C171.5 31.8388 171.109 31.6917 170.641 31.6917C170.107 31.6917 169.691 31.8617 169.393 32.2019C169.094 32.5374 168.944 32.981 168.944 33.5326V40H166.097V33.3947C166.097 32.8753 165.947 32.4616 165.649 32.1536C165.354 31.8456 164.966 31.6917 164.483 31.6917C164.157 31.6917 163.863 31.7744 163.601 31.9399C163.343 32.1008 163.139 32.3283 162.987 32.6225C162.836 32.9121 162.76 33.2522 162.76 33.6429V40H159.822ZM177.587 40V25.8793H180.524V31.1883H180.614C180.743 30.9033 180.929 30.6138 181.173 30.3196C181.421 30.0208 181.742 29.7726 182.138 29.5749C182.538 29.3727 183.034 29.2716 183.627 29.2716C184.399 29.2716 185.112 29.4738 185.764 29.8783C186.417 30.2782 186.939 30.8827 187.33 31.6917C187.72 32.4961 187.916 33.505 187.916 34.7185C187.916 35.8998 187.725 36.8973 187.343 37.7109C186.967 38.5199 186.452 39.1335 185.799 39.5518C185.151 39.9655 184.425 40.1724 183.62 40.1724C183.05 40.1724 182.565 40.0781 182.165 39.8897C181.77 39.7012 181.446 39.4645 181.193 39.1795C180.94 38.8899 180.747 38.598 180.614 38.3039H180.483V40H177.587ZM180.462 34.7047C180.462 35.3345 180.55 35.8838 180.724 36.3526C180.899 36.8215 181.152 37.1869 181.483 37.4489C181.814 37.7063 182.216 37.835 182.689 37.835C183.167 37.835 183.572 37.704 183.903 37.442C184.234 37.1754 184.484 36.8077 184.654 36.3388C184.829 35.8654 184.916 35.3207 184.916 34.7047C184.916 34.0934 184.831 33.5556 184.661 33.0913C184.491 32.6271 184.241 32.2639 183.91 32.0019C183.579 31.7399 183.172 31.6089 182.689 31.6089C182.211 31.6089 181.807 31.7353 181.476 31.9881C181.15 32.241 180.899 32.5995 180.724 33.0637C180.55 33.528 180.462 34.075 180.462 34.7047ZM194.702 40.2068C193.613 40.2068 192.675 39.9862 191.889 39.5449C191.107 39.0991 190.505 38.4693 190.082 37.6557C189.66 36.8375 189.448 35.87 189.448 34.753C189.448 33.6636 189.66 32.7075 190.082 31.8847C190.505 31.0619 191.101 30.4207 191.868 29.961C192.64 29.5014 193.546 29.2716 194.585 29.2716C195.283 29.2716 195.934 29.3842 196.536 29.6094C197.143 29.83 197.671 30.1633 198.122 30.6092C198.577 31.055 198.931 31.6158 199.184 32.2915C199.436 32.9626 199.563 33.7486 199.563 34.6496V35.4563H190.62V33.636H196.798C196.798 33.2131 196.706 32.8385 196.522 32.5122C196.338 32.1858 196.083 31.9307 195.757 31.7468C195.435 31.5584 195.061 31.4641 194.633 31.4641C194.187 31.4641 193.792 31.5676 193.447 31.7744C193.107 31.9766 192.84 32.2501 192.647 32.5949C192.454 32.935 192.355 33.3143 192.351 33.7325V35.4632C192.351 35.9872 192.447 36.4399 192.64 36.8215C192.838 37.203 193.116 37.4972 193.475 37.704C193.833 37.9108 194.258 38.0143 194.75 38.0143C195.077 38.0143 195.375 37.9683 195.647 37.8764C195.918 37.7844 196.15 37.6465 196.343 37.4627C196.536 37.2788 196.683 37.0536 196.784 36.787L199.501 36.9662C199.363 37.619 199.08 38.1889 198.653 38.6762C198.23 39.1588 197.683 39.5357 197.012 39.8069C196.345 40.0735 195.575 40.2068 194.702 40.2068ZM201.48 40V29.4095H204.327V31.2573H204.438C204.631 30.6 204.955 30.1035 205.41 29.768C205.865 29.4278 206.389 29.2578 206.982 29.2578C207.129 29.2578 207.287 29.267 207.458 29.2853C207.628 29.3037 207.777 29.329 207.906 29.3612V31.9675C207.768 31.9261 207.577 31.8893 207.333 31.8571C207.09 31.825 206.867 31.8089 206.665 31.8089C206.233 31.8089 205.846 31.9031 205.506 32.0916C205.171 32.2754 204.904 32.5328 204.706 32.8638C204.513 33.1947 204.417 33.5763 204.417 34.0083V40H201.48ZM213.89 40V37.8488L218.917 33.1947C219.344 32.7811 219.703 32.4087 219.992 32.0778C220.287 31.7468 220.51 31.4228 220.661 31.1056C220.813 30.7838 220.889 30.4368 220.889 30.0645C220.889 29.6508 220.795 29.2945 220.606 28.9958C220.418 28.6924 220.16 28.4603 219.834 28.2994C219.507 28.1339 219.137 28.0512 218.724 28.0512C218.292 28.0512 217.915 28.1385 217.593 28.3132C217.271 28.4878 217.023 28.7384 216.848 29.0647C216.674 29.3911 216.586 29.7795 216.586 30.2299H213.753C213.753 29.306 213.962 28.5039 214.38 27.8236C214.798 27.1433 215.384 26.617 216.138 26.2447C216.892 25.8724 217.761 25.6862 218.744 25.6862C219.756 25.6862 220.636 25.8655 221.385 26.224C222.139 26.578 222.725 27.0698 223.143 27.6995C223.562 28.3293 223.771 29.0509 223.771 29.8645C223.771 30.3977 223.665 30.924 223.454 31.4434C223.247 31.9629 222.877 32.5397 222.344 33.1741C221.81 33.8038 221.059 34.5599 220.089 35.4425L218.027 37.4627V37.5592H223.957V40H213.89ZM231.657 40.3103C230.471 40.3057 229.45 40.0138 228.596 39.4346C227.745 38.8554 227.09 38.0166 226.63 36.918C226.175 35.8194 225.95 34.4979 225.955 32.9534C225.955 31.4136 226.182 30.1012 226.637 29.0164C227.097 27.9316 227.752 27.1066 228.602 26.5412C229.457 25.9712 230.476 25.6862 231.657 25.6862C232.838 25.6862 233.854 25.9712 234.704 26.5412C235.559 27.1112 236.217 27.9385 236.676 29.0233C237.136 30.1035 237.364 31.4136 237.359 32.9534C237.359 34.5025 237.129 35.8263 236.669 36.9249C236.214 38.0235 235.562 38.8623 234.711 39.4415C233.861 40.0207 232.843 40.3103 231.657 40.3103ZM231.657 37.835C232.466 37.835 233.112 37.4282 233.594 36.6146C234.077 35.801 234.316 34.5806 234.311 32.9534C234.311 31.8824 234.201 30.9907 233.98 30.2782C233.764 29.5657 233.456 29.0302 233.057 28.6717C232.661 28.3132 232.195 28.1339 231.657 28.1339C230.852 28.1339 230.209 28.5361 229.726 29.3405C229.244 30.1449 229 31.3492 228.995 32.9534C228.995 34.0382 229.103 34.9437 229.319 35.67C229.54 36.3917 229.85 36.9341 230.25 37.2972C230.65 37.6557 231.119 37.835 231.657 37.835ZM239.488 40V37.8488L244.514 33.1947C244.942 32.7811 245.3 32.4087 245.59 32.0778C245.884 31.7468 246.107 31.4228 246.259 31.1056C246.41 30.7838 246.486 30.4368 246.486 30.0645C246.486 29.6508 246.392 29.2945 246.203 28.9958C246.015 28.6924 245.757 28.4603 245.431 28.2994C245.105 28.1339 244.735 28.0512 244.321 28.0512C243.889 28.0512 243.512 28.1385 243.19 28.3132C242.869 28.4878 242.62 28.7384 242.446 29.0647C242.271 29.3911 242.184 29.7795 242.184 30.2299H239.35C239.35 29.306 239.559 28.5039 239.977 27.8236C240.396 27.1433 240.982 26.617 241.735 26.2447C242.489 25.8724 243.358 25.6862 244.342 25.6862C245.353 25.6862 246.233 25.8655 246.982 26.224C247.736 26.578 248.322 27.0698 248.741 27.6995C249.159 28.3293 249.368 29.0509 249.368 29.8645C249.368 30.3977 249.262 30.924 249.051 31.4434C248.844 31.9629 248.474 32.5397 247.941 33.1741C247.408 33.8038 246.656 34.5599 245.686 35.4425L243.625 37.4627V37.5592H249.554V40H239.488ZM256.875 40.1931C255.9 40.1931 255.032 40.0138 254.269 39.6553C253.51 39.2967 252.908 38.8026 252.462 38.1729C252.016 37.5431 251.784 36.8215 251.766 36.0079H254.662C254.694 36.5549 254.924 36.9984 255.351 37.3386C255.779 37.6787 256.287 37.8488 256.875 37.8488C257.344 37.8488 257.757 37.7454 258.116 37.5385C258.479 37.3271 258.762 37.0352 258.964 36.6629C259.171 36.286 259.274 35.8539 259.274 35.3666C259.274 34.8702 259.169 34.4335 258.957 34.0566C258.75 33.6797 258.463 33.3855 258.095 33.1741C257.728 32.9626 257.307 32.8546 256.834 32.85C256.42 32.85 256.018 32.935 255.627 33.1051C255.241 33.2752 254.94 33.5073 254.724 33.8015L252.069 33.3257L252.738 25.8793H261.37V28.3201H255.199L254.834 31.8571H254.917C255.165 31.5078 255.54 31.2182 256.041 30.9884C256.542 30.7586 257.102 30.6436 257.723 30.6436C258.573 30.6436 259.332 30.8436 259.998 31.2435C260.665 31.6434 261.191 32.1927 261.577 32.8914C261.963 33.5855 262.154 34.3853 262.149 35.2908C262.154 36.2423 261.933 37.0881 261.488 37.8281C261.046 38.5636 260.428 39.1427 259.633 39.5656C258.842 39.9839 257.923 40.1931 256.875 40.1931Z" fill="black"/>
<defs>
<filter id="filter0_d_2354_1956" x="2" y="76" width="366" height="332" filterUnits="userSpaceOnUse" color-interpolation-filters="sRGB">
<feFlood flood-opacity="0" result="BackgroundImageFix"/>
<feColorMatrix in="SourceAlpha" type="matrix" values="0 0 0 0 0 0 0 0 0 0 0 0 0 0 0 0 0 0 127 0" result="hardAlpha"/>
<feOffset dy="2"/>
<feGaussianBlur stdDeviation="2"/>
<feComposite in2="hardAlpha" operator="out"/>
<feColorMatrix type="matrix" values="0 0 0 0 0 0 0 0 0 0 0 0 0 0 0 0 0 0 0.25 0"/>
<feBlend mode="normal" in2="BackgroundImageFix" result="effect1_dropShadow_2354_1956"/>
<feBlend mode="normal" in="SourceGraphic" in2="effect1_dropShadow_2354_1956" result="shape"/>
</filter>
<filter id="filter1_d_2354_1956" x="0" y="0" width="366" height="68" filterUnits="userSpaceOnUse" color-interpolation-filters="sRGB">
<feFlood flood-opacity="0" result="BackgroundImageFix"/>
<feColorMatrix in="SourceAlpha" type="matrix" values="0 0 0 0 0 0 0 0 0 0 0 0 0 0 0 0 0 0 127 0" result="hardAlpha"/>
<feOffset dy="2"/>
<feGaussianBlur stdDeviation="2"/>
<feComposite in2="hardAlpha" operator="out"/>
<feColorMatrix type="matrix" values="0 0 0 0 0 0 0 0 0 0 0 0 0 0 0 0 0 0 0.25 0"/>
<feBlend mode="normal" in2="BackgroundImageFix" result="effect1_dropShadow_2354_1956"/>
<feBlend mode="normal" in="SourceGraphic" in2="effect1_dropShadow_2354_1956" result="shape"/>
</filter>
</defs>
</svg>
