<svg width="358" height="400" viewBox="0 0 358 400" fill="none" xmlns="http://www.w3.org/2000/svg">
<rect width="358" height="400" rx="25" fill="#DCDACD"/>
<circle cx="78" cy="309" r="30" fill="#FDFBF7"/>
<circle cx="78" cy="309" r="29.5" stroke="black" stroke-opacity="0.25"/>
<path d="M69.8652 309.457C69.8652 311.157 70.3693 312.818 71.3136 314.232C72.2579 315.645 73.6001 316.747 75.1704 317.397C76.7408 318.047 78.4687 318.218 80.1358 317.886C81.8028 317.554 83.3341 316.736 84.536 315.534C85.7379 314.332 86.5564 312.801 86.888 311.134C87.2196 309.467 87.0494 307.739 86.3989 306.168C85.7485 304.598 84.647 303.256 83.2337 302.312C81.8204 301.367 80.1589 300.863 78.4592 300.863C76.0566 300.872 73.7506 301.81 72.0233 303.48L69.8652 305.638" stroke="#181717" stroke-width="2" stroke-linecap="round" stroke-linejoin="round"/>
<path d="M69.8652 300.863V305.638H74.6396" stroke="#181717" stroke-width="2" stroke-linecap="round" stroke-linejoin="round"/>
<circle cx="280" cy="309" r="30" fill="#FDFBF7"/>
<circle cx="280" cy="309" r="29.5" stroke="black" stroke-opacity="0.25"/>
<path d="M288.1 303.73L277.595 314.235L272.82 309.46" stroke="#181717" stroke-width="2" stroke-linecap="round" stroke-linejoin="round"/>
<path d="M225 308.5C225 336.39 202.39 359 174.5 359C146.61 359 124 336.39 124 308.5C124 280.61 146.61 258 174.5 258C202.39 258 225 280.61 225 308.5ZM154.3 308.5C154.3 319.656 163.344 328.7 174.5 328.7C185.656 328.7 194.7 319.656 194.7 308.5C194.7 297.344 185.656 288.3 174.5 288.3C163.344 288.3 154.3 297.344 154.3 308.5Z" fill="#181717"/>
<path d="M136.743 120H124.605C121.766 117.161 119.711 113.814 118.44 109.959C117.212 106.104 116.597 102.248 116.597 98.393C116.597 88.5216 119.266 80.8956 124.605 75.515H136.743C139.539 78.3536 141.572 81.7005 142.843 85.5559C144.114 89.3689 144.75 93.1819 144.75 96.9949C144.75 106.993 142.081 114.662 136.743 120ZM133.438 83.141H127.973C126.109 86.954 125.177 91.805 125.177 97.6939C125.177 103.583 126.087 108.561 127.909 112.628H133.502C135.323 107.968 136.234 102.841 136.234 97.2491C136.234 91.6567 135.302 86.954 133.438 83.141ZM168.083 120H155.945C153.107 117.161 151.052 113.814 149.781 109.959C148.552 106.104 147.938 102.248 147.938 98.393C147.938 88.5216 150.607 80.8956 155.945 75.515H168.083C170.879 78.3536 172.913 81.7005 174.184 85.5559C175.455 89.3689 176.091 93.1819 176.091 96.9949C176.091 106.993 173.421 114.662 168.083 120ZM164.779 83.141H159.313C157.449 86.954 156.517 91.805 156.517 97.6939C156.517 103.583 157.428 108.561 159.25 112.628H164.842C166.664 107.968 167.575 102.841 167.575 97.2491C167.575 91.6567 166.643 86.954 164.779 83.141ZM180.232 110.595H189.383V120H180.232V110.595ZM180.232 91.7838H189.383V101.189H180.232V91.7838ZM197.621 120V83.141H192.537V75.515H206.518V120H197.621ZM231.44 120H219.746C217.459 119.026 215.531 117.416 213.963 115.17C212.396 112.925 211.612 110.362 211.612 107.481C211.612 102.82 213.413 99.3039 217.014 96.9313V96.6771C214.133 94.2199 212.692 91.1483 212.692 87.4624C212.692 84.6662 213.476 82.2089 215.044 80.0906C216.654 77.9299 218.56 76.4047 220.763 75.515H230.359C232.562 76.4047 234.426 77.8875 235.952 79.9635C237.519 82.0395 238.303 84.4755 238.303 87.2717C238.303 90.9576 236.841 94.0504 233.918 96.55V96.8042C237.562 99.2191 239.383 102.693 239.383 107.226C239.383 110.065 238.578 112.671 236.968 115.043C235.401 117.373 233.558 119.026 231.44 120ZM222.67 101.062C221.187 102.291 220.445 104.091 220.445 106.464C220.445 107.777 220.678 109.027 221.144 110.213C221.653 111.4 222.204 112.205 222.797 112.628H228.199C228.792 112.205 229.321 111.4 229.787 110.213C230.296 109.027 230.55 107.777 230.55 106.464C230.55 104.091 229.808 102.291 228.326 101.062H222.67ZM223.051 83.141C222.458 83.5647 221.928 84.2637 221.462 85.2381C220.996 86.1702 220.763 87.2082 220.763 88.3521C220.763 90.4704 221.505 92.2286 222.987 93.6267H228.008C229.491 92.2286 230.232 90.4704 230.232 88.3521C230.232 87.2082 229.999 86.1702 229.533 85.2381C229.067 84.2637 228.537 83.5647 227.944 83.141H223.051Z" fill="#181717"/>
<rect x="135" y="152" width="8" height="82" rx="3" fill="#810100"/>
<rect x="215" y="159" width="8" height="69" rx="3" fill="#810100"/>
<rect x="119" y="169" width="8" height="48" rx="3" fill="#810100"/>
<rect x="151" y="168" width="8" height="51" rx="3" fill="#810100"/>
<rect x="103" y="174" width="8" height="39" rx="3" fill="#810100"/>
<rect x="183" y="165" width="8" height="57" rx="3" fill="#810100"/>
<rect x="231" y="165" width="8" height="57" rx="3" fill="#810100"/>
<rect x="167" y="171" width="8" height="44" rx="3" fill="#810100"/>
<rect x="199" y="165" width="8" height="56" rx="3" fill="#810100"/>
<rect x="247" y="176" width="8" height="34" rx="3" fill="#810100"/>
</svg>
