<svg width="366" height="167" viewBox="0 0 366 167" fill="none" xmlns="http://www.w3.org/2000/svg">
<g filter="url(#filter0_d_2011_784)">
<rect x="4" y="2" width="358" height="159" rx="20" fill="#FDFBF7"/>
</g>
<circle cx="285" cy="82" r="62" fill="#EDEADC"/>
<mask id="path-3-inside-1_2011_784" fill="white">
<path d="M229.002 82C225.687 82 222.97 84.6936 223.29 87.9929C224.276 98.1388 227.751 107.918 233.449 116.445C240.262 126.641 249.945 134.588 261.274 139.281C272.603 143.973 285.069 145.201 297.096 142.809C309.122 140.416 320.17 134.511 328.841 125.841C337.511 117.17 343.416 106.122 345.809 94.0956C348.201 82.0688 346.973 69.6026 342.281 58.2736C337.588 46.9446 329.641 37.2615 319.445 30.4489C310.918 24.7514 301.139 21.2755 290.993 20.2903C287.694 19.9699 285 22.6872 285 26.0021C285 29.317 287.697 31.9671 290.988 32.3641C298.756 33.3011 306.224 36.0523 312.776 40.43C320.998 45.9237 327.406 53.7319 331.19 62.8675C334.974 72.003 335.964 82.0555 334.035 91.7537C332.106 101.452 327.344 110.36 320.352 117.352C313.36 124.344 304.452 129.106 294.754 131.035C285.055 132.964 275.003 131.974 265.867 128.19C256.732 124.406 248.924 117.998 243.43 109.776C239.052 103.224 236.301 95.7555 235.364 87.9879C234.967 84.6969 232.317 82 229.002 82Z"/>
</mask>
<path d="M229.002 82C225.687 82 222.97 84.6936 223.29 87.9929C224.276 98.1388 227.751 107.918 233.449 116.445C240.262 126.641 249.945 134.588 261.274 139.281C272.603 143.973 285.069 145.201 297.096 142.809C309.122 140.416 320.17 134.511 328.841 125.841C337.511 117.17 343.416 106.122 345.809 94.0956C348.201 82.0688 346.973 69.6026 342.281 58.2736C337.588 46.9446 329.641 37.2615 319.445 30.4489C310.918 24.7514 301.139 21.2755 290.993 20.2903C287.694 19.9699 285 22.6872 285 26.0021C285 29.317 287.697 31.9671 290.988 32.3641C298.756 33.3011 306.224 36.0523 312.776 40.43C320.998 45.9237 327.406 53.7319 331.19 62.8675C334.974 72.003 335.964 82.0555 334.035 91.7537C332.106 101.452 327.344 110.36 320.352 117.352C313.36 124.344 304.452 129.106 294.754 131.035C285.055 132.964 275.003 131.974 265.867 128.19C256.732 124.406 248.924 117.998 243.43 109.776C239.052 103.224 236.301 95.7555 235.364 87.9879C234.967 84.6969 232.317 82 229.002 82Z" fill="#D9D9D9" stroke="#810100" stroke-width="48" mask="url(#path-3-inside-1_2011_784)"/>
<circle cx="285" cy="82" r="50" fill="#810100" fill-opacity="0.2"/>
<g filter="url(#filter1_d_2011_784)">
<rect width="35.348" height="35.348" transform="matrix(0.707102 -0.707111 0.707102 0.707111 260 82)" fill="url(#paint0_linear_2011_784)"/>
<rect width="35.348" height="35.348" transform="matrix(0.707102 -0.707111 0.707102 0.707111 260 82)" fill="url(#paint1_linear_2011_784)" fill-opacity="0.2"/>
<rect width="35.348" height="35.348" transform="matrix(0.707102 -0.707111 0.707102 0.707111 260 82)" fill="url(#paint2_linear_2011_784)" fill-opacity="0.2"/>
<g filter="url(#filter2_d_2011_784)">
<path d="M284.99 107.004V57.0039H293.827H302.664L284.99 107.004Z" fill="url(#paint3_linear_2011_784)"/>
</g>
<mask id="mask0_2011_784" style="mask-type:alpha" maskUnits="userSpaceOnUse" x="260" y="57" width="50" height="50">
<rect width="35.348" height="35.348" transform="matrix(-0.707102 -0.707111 -0.707102 0.707111 309.99 81.9961)" fill="white"/>
</mask>
<g mask="url(#mask0_2011_784)">
<rect width="25.0969" height="49.8409" transform="matrix(-1 0 0 1 284.994 57.0039)" fill="#EDEADC"/>
</g>
</g>
<rect x="19" y="121" width="177" height="25" rx="12.5" fill="#810100" fill-opacity="0.2"/>
<rect x="19.5" y="121.5" width="176" height="24" rx="12" stroke="#810100" stroke-opacity="0.25"/>
<path d="M36.535 130.596V129.271H43.4995V130.596H40.8015V138H39.233V130.596H36.535ZM52.2552 133.635C52.2552 134.576 52.0791 135.382 51.7267 136.052C51.3772 136.72 50.8998 137.231 50.2946 137.587C49.6922 137.942 49.0088 138.119 48.2445 138.119C47.4801 138.119 46.7953 137.942 46.1901 137.587C45.5877 137.229 45.1103 136.716 44.758 136.048C44.4085 135.377 44.2337 134.573 44.2337 133.635C44.2337 132.695 44.4085 131.891 44.758 131.223C45.1103 130.552 45.5877 130.04 46.1901 129.684C46.7953 129.329 47.4801 129.152 48.2445 129.152C49.0088 129.152 49.6922 129.329 50.2946 129.684C50.8998 130.04 51.3772 130.552 51.7267 131.223C52.0791 131.891 52.2552 132.695 52.2552 133.635ZM50.6654 133.635C50.6654 132.973 50.5617 132.415 50.3543 131.96C50.1497 131.503 49.8655 131.158 49.5018 130.925C49.1381 130.689 48.719 130.571 48.2445 130.571C47.7699 130.571 47.3508 130.689 46.9871 130.925C46.6234 131.158 46.3378 131.503 46.1304 131.96C45.9258 132.415 45.8235 132.973 45.8235 133.635C45.8235 134.298 45.9258 134.857 46.1304 135.315C46.3378 135.769 46.6234 136.115 46.9871 136.351C47.3508 136.584 47.7699 136.7 48.2445 136.7C48.719 136.7 49.1381 136.584 49.5018 136.351C49.8655 136.115 50.1497 135.769 50.3543 135.315C50.5617 134.857 50.6654 134.298 50.6654 133.635ZM53.7502 138V129.271H57.0236C57.6942 129.271 58.2568 129.396 58.7115 129.646C59.1689 129.896 59.5142 130.24 59.7472 130.677C59.983 131.112 60.101 131.607 60.101 132.161C60.101 132.721 59.983 133.218 59.7472 133.653C59.5113 134.087 59.1633 134.43 58.7029 134.68C58.2426 134.927 57.6757 135.051 57.0023 135.051H54.8328V133.751H56.7892C57.1813 133.751 57.5024 133.682 57.7525 133.546C58.0025 133.41 58.1872 133.222 58.3066 132.983C58.4287 132.745 58.4898 132.47 58.4898 132.161C58.4898 131.851 58.4287 131.578 58.3066 131.342C58.1872 131.107 58.0011 130.923 57.7482 130.793C57.4981 130.659 57.1756 130.592 56.7807 130.592H55.3315V138H53.7502ZM67.9168 129.271V138H66.3356V130.81H66.2844L64.2428 132.114V130.665L66.4123 129.271H67.9168ZM73.3597 138.166C72.6579 138.166 72.0555 137.989 71.5525 137.633C71.0524 137.275 70.6674 136.76 70.3975 136.086C70.1304 135.41 69.9968 134.596 69.9968 133.644C69.9997 132.692 70.1346 131.882 70.4017 131.215C70.6717 130.544 71.0567 130.032 71.5568 129.68C72.0597 129.328 72.6607 129.152 73.3597 129.152C74.0587 129.152 74.6597 129.328 75.1627 129.68C75.6656 130.032 76.0506 130.544 76.3177 131.215C76.5877 131.885 76.7226 132.695 76.7226 133.644C76.7226 134.599 76.5877 135.414 76.3177 136.091C76.0506 136.764 75.6656 137.278 75.1627 137.633C74.6626 137.989 74.0616 138.166 73.3597 138.166ZM73.3597 136.832C73.9053 136.832 74.3358 136.564 74.6512 136.027C74.9694 135.487 75.1286 134.693 75.1286 133.644C75.1286 132.951 75.0561 132.368 74.9112 131.896C74.7663 131.425 74.5617 131.07 74.2974 130.831C74.0332 130.589 73.7206 130.469 73.3597 130.469C72.817 130.469 72.3879 130.739 72.0725 131.278C71.7571 131.815 71.598 132.604 71.5952 133.644C71.5923 134.34 71.6619 134.926 71.804 135.4C71.9489 135.875 72.1535 136.233 72.4178 136.474C72.682 136.713 72.996 136.832 73.3597 136.832ZM82.8059 136.363V135.903C82.8059 135.565 82.877 135.254 83.019 134.97C83.1639 134.685 83.3742 134.457 83.6498 134.283C83.9255 134.11 84.2593 134.023 84.6515 134.023C85.055 134.023 85.3931 134.11 85.6659 134.283C85.9387 134.454 86.1447 134.681 86.2839 134.965C86.426 135.249 86.497 135.562 86.497 135.903V136.363C86.497 136.701 86.426 137.013 86.2839 137.297C86.1418 137.581 85.933 137.81 85.6574 137.983C85.3846 138.156 85.0493 138.243 84.6515 138.243C84.2537 138.243 83.9169 138.156 83.6413 137.983C83.3657 137.81 83.1568 137.581 83.0148 137.297C82.8755 137.013 82.8059 136.701 82.8059 136.363ZM83.9184 135.903V136.363C83.9184 136.588 83.9724 136.794 84.0803 136.981C84.1883 137.169 84.3787 137.263 84.6515 137.263C84.9271 137.263 85.1161 137.17 85.2183 136.986C85.3235 136.798 85.3761 136.591 85.3761 136.363V135.903C85.3761 135.676 85.3263 135.468 85.2269 135.281C85.1274 135.09 84.9356 134.995 84.6515 134.995C84.3844 134.995 84.1954 135.09 84.0846 135.281C83.9738 135.468 83.9184 135.676 83.9184 135.903ZM78.3689 131.368V130.908C78.3689 130.567 78.4414 130.254 78.5863 129.97C78.7312 129.686 78.9415 129.458 79.2171 129.288C79.4927 129.115 79.8266 129.028 80.2187 129.028C80.6194 129.028 80.9561 129.115 81.2289 129.288C81.5045 129.458 81.7119 129.686 81.8512 129.97C81.9904 130.254 82.06 130.567 82.06 130.908V131.368C82.06 131.709 81.989 132.021 81.8469 132.306C81.7077 132.587 81.5003 132.813 81.2246 132.983C80.949 133.154 80.6137 133.239 80.2187 133.239C79.8181 133.239 79.48 133.154 79.2043 132.983C78.9315 132.813 78.7241 132.586 78.582 132.301C78.44 132.017 78.3689 131.706 78.3689 131.368ZM79.4899 130.908V131.368C79.4899 131.595 79.5425 131.803 79.6476 131.99C79.7556 132.175 79.946 132.267 80.2187 132.267C80.4915 132.267 80.6791 132.175 80.7814 131.99C80.8865 131.803 80.9391 131.595 80.9391 131.368V130.908C80.9391 130.68 80.8893 130.473 80.7899 130.285C80.6904 130.095 80.5 130 80.2187 130C79.9488 130 79.7598 130.095 79.6519 130.285C79.5439 130.476 79.4899 130.683 79.4899 130.908ZM78.8548 138L84.8561 129.271H85.9216L79.9204 138H78.8548ZM98.8 132.216H97.2059C97.1604 131.955 97.0766 131.723 96.9544 131.521C96.8322 131.317 96.6802 131.143 96.4984 131.001C96.3165 130.859 96.1091 130.753 95.8761 130.682C95.6459 130.608 95.3973 130.571 95.1302 130.571C94.6557 130.571 94.2351 130.69 93.8686 130.929C93.502 131.165 93.215 131.511 93.0076 131.969C92.8002 132.424 92.6965 132.979 92.6965 133.635C92.6965 134.303 92.8002 134.866 93.0076 135.323C93.2179 135.778 93.5049 136.122 93.8686 136.355C94.2351 136.585 94.6542 136.7 95.1259 136.7C95.3873 136.7 95.6317 136.666 95.859 136.598C96.0892 136.527 96.2952 136.423 96.4771 136.287C96.6618 136.15 96.8166 135.983 96.9416 135.784C97.0695 135.585 97.1576 135.357 97.2059 135.102L98.8 135.11C98.7403 135.525 98.611 135.914 98.4121 136.278C98.2161 136.642 97.9589 136.963 97.6407 137.241C97.3224 137.517 96.9502 137.733 96.5239 137.889C96.0977 138.043 95.6246 138.119 95.1046 138.119C94.3374 138.119 93.6526 137.942 93.0502 137.587C92.4478 137.231 91.9733 136.718 91.6266 136.048C91.28 135.377 91.1066 134.573 91.1066 133.635C91.1066 132.695 91.2814 131.891 91.6309 131.223C91.9804 130.552 92.4563 130.04 93.0587 129.684C93.6611 129.329 94.3431 129.152 95.1046 129.152C95.5905 129.152 96.0423 129.22 96.46 129.356C96.8777 129.493 97.2499 129.693 97.5767 129.957C97.9035 130.219 98.172 130.54 98.3823 130.92C98.5954 131.298 98.7346 131.73 98.8 132.216ZM108.048 133.635C108.048 134.576 107.872 135.382 107.519 136.052C107.17 136.72 106.693 137.231 106.087 137.587C105.485 137.942 104.802 138.119 104.037 138.119C103.273 138.119 102.588 137.942 101.983 137.587C101.38 137.229 100.903 136.716 100.551 136.048C100.201 135.377 100.026 134.573 100.026 133.635C100.026 132.695 100.201 131.891 100.551 131.223C100.903 130.552 101.38 130.04 101.983 129.684C102.588 129.329 103.273 129.152 104.037 129.152C104.802 129.152 105.485 129.329 106.087 129.684C106.693 130.04 107.17 130.552 107.519 131.223C107.872 131.891 108.048 132.695 108.048 133.635ZM106.458 133.635C106.458 132.973 106.354 132.415 106.147 131.96C105.942 131.503 105.658 131.158 105.295 130.925C104.931 130.689 104.512 130.571 104.037 130.571C103.563 130.571 103.144 130.689 102.78 130.925C102.416 131.158 102.131 131.503 101.923 131.96C101.719 132.415 101.616 132.973 101.616 133.635C101.616 134.298 101.719 134.857 101.923 135.315C102.131 135.769 102.416 136.115 102.78 136.351C103.144 136.584 103.563 136.7 104.037 136.7C104.512 136.7 104.931 136.584 105.295 136.351C105.658 136.115 105.942 135.769 106.147 135.315C106.354 134.857 106.458 134.298 106.458 133.635ZM116.716 129.271V138H115.31L111.197 132.054H111.124V138H109.543V129.271H110.958L115.067 135.221H115.144V129.271H116.716ZM123.183 131.671C123.143 131.298 122.976 131.009 122.68 130.801C122.388 130.594 122.007 130.49 121.538 130.49C121.208 130.49 120.926 130.54 120.69 130.639C120.454 130.739 120.274 130.874 120.148 131.044C120.023 131.215 119.96 131.409 119.957 131.628C119.957 131.81 119.998 131.968 120.08 132.101C120.166 132.235 120.281 132.348 120.426 132.442C120.57 132.533 120.731 132.61 120.907 132.672C121.083 132.735 121.261 132.787 121.44 132.83L122.258 133.034C122.588 133.111 122.905 133.215 123.209 133.346C123.516 133.476 123.79 133.641 124.031 133.84C124.276 134.039 124.469 134.279 124.611 134.56C124.753 134.842 124.824 135.171 124.824 135.549C124.824 136.061 124.693 136.511 124.432 136.9C124.171 137.287 123.793 137.589 123.298 137.808C122.807 138.024 122.211 138.132 121.512 138.132C120.833 138.132 120.244 138.027 119.744 137.817C119.246 137.606 118.857 137.3 118.576 136.896C118.297 136.493 118.147 136.001 118.124 135.421H119.68C119.702 135.725 119.796 135.978 119.961 136.18C120.126 136.382 120.34 136.532 120.605 136.632C120.872 136.731 121.17 136.781 121.5 136.781C121.843 136.781 122.145 136.73 122.403 136.628C122.665 136.522 122.869 136.378 123.017 136.193C123.165 136.005 123.24 135.786 123.243 135.536C123.24 135.309 123.173 135.122 123.043 134.974C122.912 134.823 122.729 134.698 122.493 134.599C122.26 134.496 121.987 134.406 121.674 134.326L120.681 134.07C119.962 133.886 119.394 133.606 118.976 133.231C118.562 132.853 118.354 132.351 118.354 131.726C118.354 131.212 118.493 130.761 118.772 130.375C119.053 129.988 119.435 129.689 119.918 129.476C120.401 129.26 120.948 129.152 121.559 129.152C122.179 129.152 122.721 129.26 123.187 129.476C123.656 129.689 124.024 129.986 124.291 130.366C124.558 130.744 124.696 131.179 124.705 131.671H123.183ZM127.815 129.271V138H126.234V129.271H127.815ZM134.271 131.671C134.232 131.298 134.064 131.009 133.768 130.801C133.476 130.594 133.095 130.49 132.626 130.49C132.297 130.49 132.014 130.54 131.778 130.639C131.542 130.739 131.362 130.874 131.237 131.044C131.112 131.215 131.048 131.409 131.045 131.628C131.045 131.81 131.086 131.968 131.169 132.101C131.254 132.235 131.369 132.348 131.514 132.442C131.659 132.533 131.819 132.61 131.995 132.672C132.172 132.735 132.349 132.787 132.528 132.83L133.347 133.034C133.676 133.111 133.993 133.215 134.297 133.346C134.604 133.476 134.878 133.641 135.12 133.84C135.364 134.039 135.557 134.279 135.699 134.56C135.841 134.842 135.912 135.171 135.912 135.549C135.912 136.061 135.782 136.511 135.52 136.9C135.259 137.287 134.881 137.589 134.387 137.808C133.895 138.024 133.3 138.132 132.601 138.132C131.922 138.132 131.332 138.027 130.832 137.817C130.335 137.606 129.945 137.3 129.664 136.896C129.385 136.493 129.235 136.001 129.212 135.421H130.768C130.791 135.725 130.884 135.978 131.049 136.18C131.214 136.382 131.429 136.532 131.693 136.632C131.96 136.731 132.258 136.781 132.588 136.781C132.932 136.781 133.233 136.73 133.491 136.628C133.753 136.522 133.957 136.378 134.105 136.193C134.253 136.005 134.328 135.786 134.331 135.536C134.328 135.309 134.261 135.122 134.131 134.974C134 134.823 133.817 134.698 133.581 134.599C133.348 134.496 133.075 134.406 132.763 134.326L131.769 134.07C131.051 133.886 130.482 133.606 130.065 133.231C129.65 132.853 129.442 132.351 129.442 131.726C129.442 131.212 129.582 130.761 129.86 130.375C130.141 129.988 130.523 129.689 131.007 129.476C131.49 129.26 132.037 129.152 132.648 129.152C133.267 129.152 133.81 129.26 134.276 129.476C134.745 129.689 135.113 129.986 135.38 130.366C135.647 130.744 135.785 131.179 135.793 131.671H134.271ZM136.939 130.596V129.271H143.903V130.596H141.205V138H139.637V130.596H136.939ZM145.246 138V129.271H150.923V130.596H146.827V132.966H150.629V134.292H146.827V136.674H150.957V138H145.246ZM159.71 129.271V138H158.303L154.19 132.054H154.117V138H152.536V129.271H153.951L158.06 135.221H158.137V129.271H159.71ZM168.904 132.216H167.31C167.265 131.955 167.181 131.723 167.059 131.521C166.937 131.317 166.785 131.143 166.603 131.001C166.421 130.859 166.213 130.753 165.98 130.682C165.75 130.608 165.502 130.571 165.234 130.571C164.76 130.571 164.339 130.69 163.973 130.929C163.606 131.165 163.319 131.511 163.112 131.969C162.904 132.424 162.801 132.979 162.801 133.635C162.801 134.303 162.904 134.866 163.112 135.323C163.322 135.778 163.609 136.122 163.973 136.355C164.339 136.585 164.759 136.7 165.23 136.7C165.492 136.7 165.736 136.666 165.963 136.598C166.193 136.527 166.399 136.423 166.581 136.287C166.766 136.15 166.921 135.983 167.046 135.784C167.174 135.585 167.262 135.357 167.31 135.102L168.904 135.11C168.845 135.525 168.715 135.914 168.516 136.278C168.32 136.642 168.063 136.963 167.745 137.241C167.427 137.517 167.054 137.733 166.628 137.889C166.202 138.043 165.729 138.119 165.209 138.119C164.442 138.119 163.757 137.942 163.154 137.587C162.552 137.231 162.078 136.718 161.731 136.048C161.384 135.377 161.211 134.573 161.211 133.635C161.211 132.695 161.386 131.891 161.735 131.223C162.085 130.552 162.561 130.04 163.163 129.684C163.765 129.329 164.447 129.152 165.209 129.152C165.695 129.152 166.147 129.22 166.564 129.356C166.982 129.493 167.354 129.693 167.681 129.957C168.008 130.219 168.276 130.54 168.487 130.92C168.7 131.298 168.839 131.73 168.904 132.216ZM169.756 129.271H171.542L173.677 133.133H173.762L175.898 129.271H177.683L174.508 134.744V138H172.931V134.744L169.756 129.271Z" fill="#810100"/>
<path d="M40.5571 95H28.8639C26.5761 94.0256 24.6484 92.4156 23.0809 90.1702C21.5133 87.9248 20.7295 85.3616 20.7295 82.4806C20.7295 77.8203 22.5301 74.3039 26.1313 71.9313V71.6771C23.2503 69.2199 21.8099 66.1483 21.8099 62.4624C21.8099 59.6662 22.5937 57.2089 24.1612 55.0906C25.7712 52.9299 27.6777 51.4047 29.8807 50.515H39.4768C41.6798 51.4047 43.544 52.8875 45.0692 54.9635C46.6367 57.0395 47.4205 59.4755 47.4205 62.2717C47.4205 65.9576 45.9589 69.0504 43.0356 71.55V71.8042C46.6791 74.2191 48.5009 77.6932 48.5009 82.2264C48.5009 85.065 47.6959 87.6706 46.086 90.0431C44.5184 92.3733 42.6755 94.0256 40.5571 95ZM31.7872 76.0621C30.3044 77.2907 29.563 79.0913 29.563 81.4638C29.563 82.7772 29.796 84.027 30.262 85.2133C30.7704 86.3996 31.3212 87.2045 31.9143 87.6282H37.3161C37.9092 87.2045 38.4388 86.3996 38.9048 85.2133C39.4132 84.027 39.6674 82.7772 39.6674 81.4638C39.6674 79.0913 38.926 77.2907 37.4432 76.0621H31.7872ZM32.1685 58.141C31.5754 58.5647 31.0458 59.2637 30.5798 60.2381C30.1137 61.1702 29.8807 62.2082 29.8807 63.3521C29.8807 65.4704 30.6221 67.2286 32.105 68.6267H37.1254C38.6083 67.2286 39.3497 65.4704 39.3497 63.3521C39.3497 62.2082 39.1167 61.1702 38.6506 60.2381C38.1846 59.2637 37.655 58.5647 37.0619 58.141H32.1685ZM70.2543 50.515L60.0228 77.8415H69.4282V66.2754H77.6897V95H69.4282V85.7852H57.6714C53.9855 83.8787 52.1426 80.9343 52.1426 76.9518C52.1426 75.13 53.1594 71.6771 55.193 66.5931L61.548 50.515H70.2543ZM102.253 95H90.1147C87.2761 92.1614 85.2214 88.8145 83.9504 84.9591C82.7217 81.1037 82.1074 77.2484 82.1074 73.393C82.1074 63.5216 84.7765 55.8956 90.1147 50.515H102.253C105.049 53.3536 107.083 56.7005 108.354 60.5559C109.625 64.3689 110.26 68.1819 110.26 71.9949C110.26 81.9934 107.591 89.6618 102.253 95ZM98.9482 58.141H93.4829C91.6187 61.954 90.6867 66.805 90.6867 72.6939C90.6867 78.5829 91.5975 83.561 93.4193 87.6282H99.0117C100.833 82.9679 101.744 77.8415 101.744 72.2491C101.744 66.6567 100.812 61.954 98.9482 58.141Z" fill="black"/>
<path d="M19.9078 29V20.2709H25.4999V21.5965H21.4891V23.9663H25.1163V25.2918H21.4891V29H19.9078ZM34.7404 24.6355C34.7404 25.576 34.5643 26.3816 34.2119 27.0522C33.8624 27.7199 33.3851 28.2314 32.7798 28.5866C32.1774 28.9417 31.494 29.1193 30.7297 29.1193C29.9653 29.1193 29.2805 28.9417 28.6753 28.5866C28.0729 28.2285 27.5955 27.7156 27.2432 27.0479C26.8937 26.3773 26.7189 25.5732 26.7189 24.6355C26.7189 23.6949 26.8937 22.8908 27.2432 22.223C27.5955 21.5524 28.0729 21.0396 28.6753 20.6844C29.2805 20.3292 29.9653 20.1516 30.7297 20.1516C31.494 20.1516 32.1774 20.3292 32.7798 20.6844C33.3851 21.0396 33.8624 21.5524 34.2119 22.223C34.5643 22.8908 34.7404 23.6949 34.7404 24.6355ZM33.1506 24.6355C33.1506 23.9734 33.0469 23.415 32.8395 22.9604C32.6349 22.5029 32.3507 22.1577 31.987 21.9247C31.6233 21.6888 31.2042 21.5709 30.7297 21.5709C30.2551 21.5709 29.836 21.6888 29.4723 21.9247C29.1086 22.1577 28.823 22.5029 28.6156 22.9604C28.411 23.415 28.3087 23.9734 28.3087 24.6355C28.3087 25.2975 28.411 25.8573 28.6156 26.3148C28.823 26.7694 29.1086 27.1147 29.4723 27.3505C29.836 27.5835 30.2551 27.7 30.7297 27.7C31.2042 27.7 31.6233 27.5835 31.987 27.3505C32.3507 27.1147 32.6349 26.7694 32.8395 26.3148C33.0469 25.8573 33.1506 25.2975 33.1506 24.6355ZM36.2354 29V20.2709H37.8167V27.6744H41.6613V29H36.2354ZM45.9917 29H43.0337V20.2709H46.0514C46.918 20.2709 47.6625 20.4457 48.2848 20.7952C48.9099 21.1418 49.3901 21.6405 49.7254 22.2912C50.0607 22.9419 50.2284 23.7205 50.2284 24.6269C50.2284 25.5362 50.0593 26.3176 49.7212 26.9712C49.3859 27.6247 48.9014 28.1262 48.2677 28.4757C47.6369 28.8252 46.8782 29 45.9917 29ZM44.615 27.6318H45.915C46.5231 27.6318 47.0303 27.521 47.4366 27.2994C47.8429 27.0749 48.1484 26.741 48.353 26.2977C48.5576 25.8516 48.6599 25.2947 48.6599 24.6269C48.6599 23.9592 48.5576 23.4051 48.353 22.9647C48.1484 22.5214 47.8458 22.1904 47.4451 21.9716C47.0473 21.7499 46.5529 21.6391 45.9619 21.6391H44.615V27.6318ZM59.4519 22.6706C59.4121 22.2983 59.2444 22.0085 58.9489 21.8011C58.6562 21.5936 58.2755 21.4899 57.8066 21.4899C57.477 21.4899 57.1943 21.5397 56.9584 21.6391C56.7226 21.7386 56.5422 21.8735 56.4171 22.044C56.2921 22.2145 56.2282 22.4092 56.2253 22.6279C56.2253 22.8098 56.2665 22.9675 56.3489 23.1011C56.4342 23.2346 56.5493 23.3483 56.6942 23.442C56.8391 23.533 56.9996 23.6097 57.1758 23.6722C57.352 23.7347 57.5296 23.7873 57.7086 23.8299L58.5269 24.0345C58.8566 24.1112 59.1734 24.2149 59.4774 24.3456C59.7843 24.4763 60.0585 24.6411 60.3 24.8401C60.5444 25.039 60.7376 25.2791 60.8797 25.5604C61.0218 25.8417 61.0928 26.1713 61.0928 26.5492C61.0928 27.0607 60.9621 27.5111 60.7007 27.9003C60.4393 28.2868 60.0614 28.5894 59.5669 28.8082C59.0754 29.0242 58.4801 29.1321 57.7811 29.1321C57.1019 29.1321 56.5123 29.027 56.0122 28.8167C55.515 28.6065 55.1257 28.2996 54.8444 27.8961C54.5659 27.4926 54.4153 27.001 54.3926 26.4213H55.9483C55.971 26.7254 56.0648 26.9783 56.2296 27.18C56.3944 27.3818 56.6089 27.5324 56.8732 27.6318C57.1403 27.7313 57.4387 27.781 57.7683 27.781C58.1121 27.781 58.4133 27.7299 58.6719 27.6276C58.9333 27.5224 59.1379 27.3775 59.2856 27.1928C59.4334 27.0053 59.5087 26.7865 59.5115 26.5364C59.5087 26.3091 59.4419 26.1216 59.3112 25.9738C59.1805 25.8232 58.9972 25.6982 58.7614 25.5987C58.5284 25.4964 58.2556 25.4055 57.943 25.3259L56.9499 25.0702C56.231 24.8855 55.6627 24.6056 55.245 24.2306C54.8302 23.8526 54.6227 23.3511 54.6227 22.726C54.6227 22.2117 54.762 21.7613 55.0404 21.3748C55.3217 20.9884 55.7039 20.6886 56.187 20.4755C56.67 20.2596 57.217 20.1516 57.8279 20.1516C58.4474 20.1516 58.9901 20.2596 59.4561 20.4755C59.925 20.6886 60.2929 20.9856 60.56 21.3663C60.8271 21.7442 60.965 22.179 60.9735 22.6706H59.4519ZM69.9743 23.2161H68.3802C68.3347 22.9547 68.2509 22.7231 68.1287 22.5214C68.0065 22.3168 67.8545 22.1435 67.6727 22.0014C67.4908 21.8593 67.2834 21.7528 67.0504 21.6817C66.8202 21.6079 66.5716 21.5709 66.3045 21.5709C65.8299 21.5709 65.4094 21.6903 65.0429 21.9289C64.6763 22.1648 64.3893 22.5114 64.1819 22.9689C63.9744 23.4236 63.8707 23.9791 63.8707 24.6355C63.8707 25.3032 63.9744 25.8658 64.1819 26.3233C64.3921 26.778 64.6791 27.1218 65.0429 27.3548C65.4094 27.5849 65.8285 27.7 66.3002 27.7C66.5616 27.7 66.806 27.6659 67.0333 27.5977C67.2635 27.5267 67.4695 27.423 67.6513 27.2866C67.836 27.1502 67.9909 26.9825 68.1159 26.7836C68.2438 26.5847 68.3319 26.3574 68.3802 26.1017L69.9743 26.1102C69.9146 26.5251 69.7853 26.9143 69.5864 27.2781C69.3903 27.6418 69.1332 27.9629 68.8149 28.2413C68.4967 28.5169 68.1245 28.7329 67.6982 28.8892C67.272 29.0426 66.7989 29.1193 66.2789 29.1193C65.5117 29.1193 64.8269 28.9417 64.2245 28.5866C63.6221 28.2314 63.1476 27.7185 62.8009 27.0479C62.4542 26.3773 62.2809 25.5732 62.2809 24.6355C62.2809 23.6949 62.4557 22.8908 62.8052 22.223C63.1547 21.5524 63.6306 21.0396 64.233 20.6844C64.8354 20.3292 65.5174 20.1516 66.2789 20.1516C66.7648 20.1516 67.2166 20.2198 67.6343 20.3562C68.052 20.4926 68.4242 20.6929 68.751 20.9572C69.0778 21.2186 69.3463 21.5397 69.5566 21.9204C69.7697 22.2983 69.9089 22.7302 69.9743 23.2161ZM79.2223 24.6355C79.2223 25.576 79.0461 26.3816 78.6937 27.0522C78.3442 27.7199 77.8669 28.2314 77.2616 28.5866C76.6592 28.9417 75.9759 29.1193 75.2115 29.1193C74.4471 29.1193 73.7623 28.9417 73.1571 28.5866C72.5547 28.2285 72.0773 27.7156 71.725 27.0479C71.3755 26.3773 71.2007 25.5732 71.2007 24.6355C71.2007 23.6949 71.3755 22.8908 71.725 22.223C72.0773 21.5524 72.5547 21.0396 73.1571 20.6844C73.7623 20.3292 74.4471 20.1516 75.2115 20.1516C75.9759 20.1516 76.6592 20.3292 77.2616 20.6844C77.8669 21.0396 78.3442 21.5524 78.6937 22.223C79.0461 22.8908 79.2223 23.6949 79.2223 24.6355ZM77.6324 24.6355C77.6324 23.9734 77.5287 23.415 77.3213 22.9604C77.1167 22.5029 76.8326 22.1577 76.4689 21.9247C76.1051 21.6888 75.686 21.5709 75.2115 21.5709C74.737 21.5709 74.3178 21.6888 73.9541 21.9247C73.5904 22.1577 73.3048 22.5029 73.0974 22.9604C72.8928 23.415 72.7905 23.9734 72.7905 24.6355C72.7905 25.2975 72.8928 25.8573 73.0974 26.3148C73.3048 26.7694 73.5904 27.1147 73.9541 27.3505C74.3178 27.5835 74.737 27.7 75.2115 27.7C75.686 27.7 76.1051 27.5835 76.4689 27.3505C76.8326 27.1147 77.1167 26.7694 77.3213 26.3148C77.5287 25.8573 77.6324 25.2975 77.6324 24.6355ZM80.7172 29V20.2709H83.9906C84.6612 20.2709 85.2239 20.3874 85.6785 20.6204C86.136 20.8534 86.4812 21.1802 86.7142 21.6007C86.9501 22.0184 87.068 22.5058 87.068 23.0627C87.068 23.6225 86.9486 24.1084 86.71 24.5204C86.4741 24.9296 86.126 25.2464 85.6657 25.4709C85.2054 25.6925 84.6399 25.8033 83.9693 25.8033H81.6379V24.4905H83.7562C84.1483 24.4905 84.4694 24.4366 84.7195 24.3286C84.9695 24.2178 85.1542 24.0572 85.2736 23.8469C85.3958 23.6338 85.4569 23.3724 85.4569 23.0627C85.4569 22.753 85.3958 22.4887 85.2736 22.2699C85.1514 22.0483 84.9653 21.8806 84.7152 21.767C84.4652 21.6505 84.1427 21.5922 83.7477 21.5922H82.2985V29H80.7172ZM85.2267 25.0446L87.3877 29H85.6231L83.5005 25.0446H85.2267ZM88.5235 29V20.2709H94.2008V21.5965H90.1048V23.9663H93.9068V25.2918H90.1048V27.6744H94.2349V29H88.5235Z" fill="black" fill-opacity="0.5"/>
<defs>
<filter id="filter0_d_2011_784" x="0" y="0" width="366" height="167" filterUnits="userSpaceOnUse" color-interpolation-filters="sRGB">
<feFlood flood-opacity="0" result="BackgroundImageFix"/>
<feColorMatrix in="SourceAlpha" type="matrix" values="0 0 0 0 0 0 0 0 0 0 0 0 0 0 0 0 0 0 127 0" result="hardAlpha"/>
<feOffset dy="2"/>
<feGaussianBlur stdDeviation="2"/>
<feComposite in2="hardAlpha" operator="out"/>
<feColorMatrix type="matrix" values="0 0 0 0 0 0 0 0 0 0 0 0 0 0 0 0 0 0 0.25 0"/>
<feBlend mode="normal" in2="BackgroundImageFix" result="effect1_dropShadow_2011_784"/>
<feBlend mode="normal" in="SourceGraphic" in2="effect1_dropShadow_2011_784" result="shape"/>
</filter>
<filter id="filter1_d_2011_784" x="260" y="57.0039" width="57.9883" height="58" filterUnits="userSpaceOnUse" color-interpolation-filters="sRGB">
<feFlood flood-opacity="0" result="BackgroundImageFix"/>
<feColorMatrix in="SourceAlpha" type="matrix" values="0 0 0 0 0 0 0 0 0 0 0 0 0 0 0 0 0 0 127 0" result="hardAlpha"/>
<feOffset dx="4" dy="4"/>
<feGaussianBlur stdDeviation="2"/>
<feComposite in2="hardAlpha" operator="out"/>
<feColorMatrix type="matrix" values="0 0 0 0 0 0 0 0 0 0 0 0 0 0 0 0 0 0 0.25 0"/>
<feBlend mode="normal" in2="BackgroundImageFix" result="effect1_dropShadow_2011_784"/>
<feBlend mode="normal" in="SourceGraphic" in2="effect1_dropShadow_2011_784" result="shape"/>
</filter>
<filter id="filter2_d_2011_784" x="281.99" y="53.0039" width="25.6738" height="58" filterUnits="userSpaceOnUse" color-interpolation-filters="sRGB">
<feFlood flood-opacity="0" result="BackgroundImageFix"/>
<feColorMatrix in="SourceAlpha" type="matrix" values="0 0 0 0 0 0 0 0 0 0 0 0 0 0 0 0 0 0 127 0" result="hardAlpha"/>
<feOffset dx="1"/>
<feGaussianBlur stdDeviation="2"/>
<feComposite in2="hardAlpha" operator="out"/>
<feColorMatrix type="matrix" values="0 0 0 0 0 0 0 0 0 0 0 0 0 0 0 0 0 0 0.25 0"/>
<feBlend mode="normal" in2="BackgroundImageFix" result="effect1_dropShadow_2011_784"/>
<feBlend mode="normal" in="SourceGraphic" in2="effect1_dropShadow_2011_784" result="shape"/>
</filter>
<linearGradient id="paint0_linear_2011_784" x1="37.045" y1="13.1945" x2="0.177697" y2="35.3149" gradientUnits="userSpaceOnUse">
<stop offset="0.179477" stop-color="#810100"/>
<stop offset="1" stop-color="#EDEADC"/>
</linearGradient>
<linearGradient id="paint1_linear_2011_784" x1="36.2952" y1="34.1901" x2="6.92629" y2="30.8158" gradientUnits="userSpaceOnUse">
<stop stop-color="#EDEADC"/>
<stop offset="1" stop-color="#810100"/>
</linearGradient>
<linearGradient id="paint2_linear_2011_784" x1="38.6697" y1="31.8156" x2="1.55241" y2="33.9402" gradientUnits="userSpaceOnUse">
<stop stop-color="#810100" stop-opacity="0"/>
<stop offset="1" stop-color="#810100"/>
</linearGradient>
<linearGradient id="paint3_linear_2011_784" x1="296.302" y1="61.4365" x2="278.168" y2="123.462" gradientUnits="userSpaceOnUse">
<stop stop-color="#EDEADC"/>
<stop offset="1" stop-color="#810100"/>
</linearGradient>
</defs>
</svg>
