<svg width="393" height="985" viewBox="0 0 393 985" fill="none" xmlns="http://www.w3.org/2000/svg">
<rect width="393" height="985" fill="#EDEADC"/>
<path d="M17 614C17 600.193 28.1929 589 42 589H350C363.807 589 375 600.193 375 614V700C375 713.807 363.807 725 350 725H42C28.1929 725 17 713.807 17 700V614Z" fill="black" fill-opacity="0.07"/>
<path d="M31.6058 627V612.879H34.5913V618.705H40.6519V612.879H43.6305V627H40.6519V621.167H34.5913V627H31.6058ZM50.8218 627.207C49.7508 627.207 48.8246 626.979 48.0432 626.524C47.2664 626.065 46.6665 625.426 46.2436 624.607C45.8207 623.785 45.6093 622.831 45.6093 621.746C45.6093 620.652 45.8207 619.696 46.2436 618.878C46.6665 618.055 47.2664 617.416 48.0432 616.961C48.8246 616.501 49.7508 616.272 50.8218 616.272C51.8928 616.272 52.8167 616.501 53.5936 616.961C54.375 617.416 54.9771 618.055 55.4 618.878C55.8229 619.696 56.0344 620.652 56.0344 621.746C56.0344 622.831 55.8229 623.785 55.4 624.607C54.9771 625.426 54.375 626.065 53.5936 626.524C52.8167 626.979 51.8928 627.207 50.8218 627.207ZM50.8356 624.932C51.3228 624.932 51.7296 624.794 52.056 624.518C52.3824 624.237 52.6283 623.856 52.7938 623.373C52.9638 622.891 53.0489 622.341 53.0489 621.725C53.0489 621.109 52.9638 620.56 52.7938 620.078C52.6283 619.595 52.3824 619.213 52.056 618.933C51.7296 618.653 51.3228 618.512 50.8356 618.512C50.3438 618.512 49.9301 618.653 49.5945 618.933C49.2636 619.213 49.0131 619.595 48.843 620.078C48.6775 620.56 48.5948 621.109 48.5948 621.725C48.5948 622.341 48.6775 622.891 48.843 623.373C49.0131 623.856 49.2636 624.237 49.5945 624.518C49.9301 624.794 50.3438 624.932 50.8356 624.932ZM59.7679 627L56.8859 616.409H59.8576L61.4985 623.525H61.5951L63.305 616.409H66.2215L67.9591 623.484H68.0487L69.6621 616.409H72.6269L69.7517 627H66.6421L64.8219 620.34H64.6909L62.8706 627H59.7679ZM80.5009 630.971C80.1285 630.971 79.7792 630.942 79.4528 630.882C79.1311 630.827 78.8645 630.755 78.653 630.668L79.3149 628.476C79.6597 628.581 79.9699 628.639 80.2457 628.648C80.5261 628.657 80.7675 628.593 80.9697 628.455C81.1766 628.317 81.3443 628.082 81.473 627.752L81.6454 627.303L77.8463 616.409H80.9352L83.1278 624.187H83.2381L85.4514 616.409H88.561L84.4447 628.145C84.2471 628.715 83.9782 629.211 83.638 629.634C83.3025 630.061 82.8773 630.39 82.3625 630.62C81.8477 630.854 81.2271 630.971 80.5009 630.971ZM94.5078 627.207C93.4368 627.207 92.5106 626.979 91.7292 626.524C90.9524 626.065 90.3525 625.426 89.9296 624.607C89.5067 623.785 89.2953 622.831 89.2953 621.746C89.2953 620.652 89.5067 619.696 89.9296 618.878C90.3525 618.055 90.9524 617.416 91.7292 616.961C92.5106 616.501 93.4368 616.272 94.5078 616.272C95.5788 616.272 96.5027 616.501 97.2796 616.961C98.061 617.416 98.6631 618.055 99.086 618.878C99.5089 619.696 99.7204 620.652 99.7204 621.746C99.7204 622.831 99.5089 623.785 99.086 624.607C98.6631 625.426 98.061 626.065 97.2796 626.524C96.5027 626.979 95.5788 627.207 94.5078 627.207ZM94.5216 624.932C95.0088 624.932 95.4156 624.794 95.742 624.518C96.0684 624.237 96.3143 623.856 96.4798 623.373C96.6498 622.891 96.7349 622.341 96.7349 621.725C96.7349 621.109 96.6498 620.56 96.4798 620.078C96.3143 619.595 96.0684 619.213 95.742 618.933C95.4156 618.653 95.0088 618.512 94.5216 618.512C94.0298 618.512 93.6161 618.653 93.2805 618.933C92.9496 619.213 92.6991 619.595 92.529 620.078C92.3635 620.56 92.2808 621.109 92.2808 621.725C92.2808 622.341 92.3635 622.891 92.529 623.373C92.6991 623.856 92.9496 624.237 93.2805 624.518C93.6161 624.794 94.0298 624.932 94.5216 624.932ZM108.422 622.491V616.409H111.359V627H108.539V625.076H108.429C108.19 625.697 107.792 626.196 107.236 626.573C106.684 626.949 106.011 627.138 105.216 627.138C104.508 627.138 103.885 626.977 103.347 626.655C102.809 626.333 102.389 625.876 102.085 625.283C101.787 624.69 101.635 623.98 101.63 623.153V616.409H104.567V622.629C104.572 623.254 104.74 623.748 105.071 624.111C105.402 624.474 105.845 624.656 106.401 624.656C106.755 624.656 107.086 624.575 107.394 624.414C107.702 624.249 107.951 624.005 108.139 623.684C108.332 623.362 108.426 622.964 108.422 622.491ZM123.897 616.409V618.616H117.361V616.409H123.897ZM118.857 627V615.644C118.857 614.876 119.007 614.24 119.305 613.734C119.609 613.229 120.022 612.849 120.546 612.597C121.07 612.344 121.666 612.217 122.332 612.217C122.783 612.217 123.194 612.252 123.566 612.321C123.943 612.39 124.224 612.452 124.407 612.507L123.883 614.713C123.769 614.677 123.626 614.642 123.456 614.61C123.291 614.578 123.12 614.562 122.946 614.562C122.514 614.562 122.213 614.663 122.043 614.865C121.872 615.063 121.787 615.341 121.787 615.699V627H118.857ZM130.139 627.207C129.049 627.207 128.112 626.986 127.326 626.545C126.544 626.099 125.942 625.469 125.519 624.656C125.096 623.838 124.885 622.87 124.885 621.753C124.885 620.664 125.096 619.708 125.519 618.885C125.942 618.062 126.537 617.421 127.305 616.961C128.077 616.501 128.983 616.272 130.022 616.272C130.72 616.272 131.371 616.384 131.973 616.609C132.58 616.83 133.108 617.163 133.559 617.609C134.014 618.055 134.368 618.616 134.621 619.292C134.873 619.963 135 620.749 135 621.65V622.456H126.057V620.636H132.235C132.235 620.213 132.143 619.839 131.959 619.512C131.775 619.186 131.52 618.931 131.194 618.747C130.872 618.558 130.497 618.464 130.07 618.464C129.624 618.464 129.229 618.568 128.884 618.774C128.544 618.977 128.277 619.25 128.084 619.595C127.891 619.935 127.792 620.314 127.788 620.733V622.463C127.788 622.987 127.884 623.44 128.077 623.821C128.275 624.203 128.553 624.497 128.912 624.704C129.27 624.911 129.695 625.014 130.187 625.014C130.513 625.014 130.812 624.968 131.083 624.876C131.355 624.784 131.587 624.647 131.78 624.463C131.973 624.279 132.12 624.054 132.221 623.787L134.938 623.966C134.8 624.619 134.517 625.189 134.09 625.676C133.667 626.159 133.12 626.536 132.449 626.807C131.782 627.074 131.012 627.207 130.139 627.207ZM141.743 627.207C140.654 627.207 139.716 626.986 138.93 626.545C138.148 626.099 137.546 625.469 137.123 624.656C136.7 623.838 136.489 622.87 136.489 621.753C136.489 620.664 136.7 619.708 137.123 618.885C137.546 618.062 138.142 617.421 138.909 616.961C139.681 616.501 140.587 616.272 141.626 616.272C142.324 616.272 142.975 616.384 143.577 616.609C144.184 616.83 144.712 617.163 145.163 617.609C145.618 618.055 145.972 618.616 146.225 619.292C146.477 619.963 146.604 620.749 146.604 621.65V622.456H137.661V620.636H143.839C143.839 620.213 143.747 619.839 143.563 619.512C143.379 619.186 143.124 618.931 142.798 618.747C142.476 618.558 142.101 618.464 141.674 618.464C141.228 618.464 140.833 618.568 140.488 618.774C140.148 618.977 139.881 619.25 139.688 619.595C139.495 619.935 139.396 620.314 139.392 620.733V622.463C139.392 622.987 139.488 623.44 139.681 623.821C139.879 624.203 140.157 624.497 140.516 624.704C140.874 624.911 141.299 625.014 141.791 625.014C142.118 625.014 142.416 624.968 142.688 624.876C142.959 624.784 143.191 624.647 143.384 624.463C143.577 624.279 143.724 624.054 143.825 623.787L146.542 623.966C146.404 624.619 146.121 625.189 145.694 625.676C145.271 626.159 144.724 626.536 144.053 626.807C143.386 627.074 142.616 627.207 141.743 627.207ZM151.458 612.879V627H148.521V612.879H151.458ZM153.811 627V616.409H156.748V627H153.811ZM155.286 615.044C154.85 615.044 154.475 614.899 154.162 614.61C153.854 614.316 153.7 613.964 153.7 613.555C153.7 613.15 153.854 612.803 154.162 612.514C154.475 612.22 154.85 612.073 155.286 612.073C155.723 612.073 156.095 612.22 156.403 612.514C156.716 612.803 156.872 613.15 156.872 613.555C156.872 613.964 156.716 614.316 156.403 614.61C156.095 614.899 155.723 615.044 155.286 615.044ZM162.038 620.877V627H159.101V616.409H161.9V618.278H162.024C162.259 617.662 162.652 617.175 163.203 616.816C163.755 616.453 164.424 616.272 165.21 616.272C165.945 616.272 166.586 616.432 167.133 616.754C167.68 617.076 168.106 617.536 168.409 618.133C168.712 618.726 168.864 619.434 168.864 620.257V627H165.927V620.781C165.931 620.133 165.766 619.627 165.43 619.264C165.095 618.896 164.633 618.712 164.044 618.712C163.649 618.712 163.3 618.797 162.996 618.967C162.698 619.138 162.463 619.386 162.293 619.712C162.128 620.034 162.043 620.422 162.038 620.877ZM175.95 631.192C174.999 631.192 174.183 631.061 173.503 630.799C172.827 630.542 172.289 630.19 171.889 629.744C171.489 629.298 171.23 628.797 171.11 628.241L173.827 627.876C173.909 628.087 174.04 628.285 174.22 628.469C174.399 628.652 174.636 628.8 174.93 628.91C175.229 629.025 175.592 629.082 176.019 629.082C176.658 629.082 177.184 628.926 177.598 628.613C178.016 628.305 178.226 627.788 178.226 627.062V625.125H178.101C177.973 625.419 177.78 625.697 177.522 625.959C177.265 626.221 176.934 626.435 176.529 626.6C176.125 626.766 175.642 626.848 175.081 626.848C174.286 626.848 173.562 626.664 172.91 626.297C172.261 625.924 171.744 625.357 171.358 624.594C170.977 623.826 170.786 622.856 170.786 621.684C170.786 620.484 170.981 619.482 171.372 618.678C171.763 617.873 172.282 617.271 172.93 616.871C173.583 616.472 174.298 616.272 175.075 616.272C175.668 616.272 176.164 616.373 176.564 616.575C176.964 616.773 177.286 617.021 177.529 617.32C177.777 617.614 177.968 617.903 178.101 618.188H178.212V616.409H181.128V627.103C181.128 628.004 180.908 628.758 180.466 629.365C180.025 629.972 179.414 630.427 178.632 630.73C177.856 631.038 176.961 631.192 175.95 631.192ZM176.012 624.642C176.486 624.642 176.886 624.525 177.212 624.29C177.543 624.051 177.796 623.711 177.97 623.27C178.15 622.824 178.239 622.291 178.239 621.67C178.239 621.05 178.152 620.512 177.977 620.057C177.803 619.597 177.55 619.241 177.219 618.988C176.888 618.735 176.486 618.609 176.012 618.609C175.53 618.609 175.123 618.74 174.792 619.002C174.461 619.259 174.21 619.618 174.04 620.078C173.87 620.537 173.785 621.068 173.785 621.67C173.785 622.282 173.87 622.81 174.04 623.256C174.215 623.697 174.466 624.04 174.792 624.283C175.123 624.522 175.53 624.642 176.012 624.642ZM187.959 627V616.409H190.807V618.257H190.917C191.11 617.6 191.434 617.104 191.889 616.768C192.345 616.428 192.869 616.258 193.461 616.258C193.609 616.258 193.767 616.267 193.937 616.285C194.107 616.304 194.257 616.329 194.385 616.361V618.967C194.248 618.926 194.057 618.889 193.813 618.857C193.57 618.825 193.347 618.809 193.144 618.809C192.712 618.809 192.326 618.903 191.986 619.092C191.65 619.275 191.384 619.533 191.186 619.864C190.993 620.195 190.897 620.576 190.897 621.008V627H187.959ZM195.904 627V616.409H198.841V627H195.904ZM197.38 615.044C196.943 615.044 196.568 614.899 196.256 614.61C195.948 614.316 195.794 613.964 195.794 613.555C195.794 613.15 195.948 612.803 196.256 612.514C196.568 612.22 196.943 612.073 197.38 612.073C197.816 612.073 198.189 612.22 198.496 612.514C198.809 612.803 198.965 613.15 198.965 613.555C198.965 613.964 198.809 614.316 198.496 614.61C198.189 614.899 197.816 615.044 197.38 615.044ZM205.965 631.192C205.014 631.192 204.198 631.061 203.518 630.799C202.842 630.542 202.304 630.19 201.904 629.744C201.504 629.298 201.245 628.797 201.125 628.241L203.842 627.876C203.924 628.087 204.055 628.285 204.235 628.469C204.414 628.652 204.651 628.8 204.945 628.91C205.244 629.025 205.607 629.082 206.034 629.082C206.673 629.082 207.2 628.926 207.613 628.613C208.032 628.305 208.241 627.788 208.241 627.062V625.125H208.117C207.988 625.419 207.795 625.697 207.537 625.959C207.28 626.221 206.949 626.435 206.545 626.6C206.14 626.766 205.657 626.848 205.097 626.848C204.301 626.848 203.577 626.664 202.925 626.297C202.277 625.924 201.759 625.357 201.373 624.594C200.992 623.826 200.801 622.856 200.801 621.684C200.801 620.484 200.996 619.482 201.387 618.678C201.778 617.873 202.297 617.271 202.945 616.871C203.598 616.472 204.313 616.272 205.09 616.272C205.683 616.272 206.179 616.373 206.579 616.575C206.979 616.773 207.301 617.021 207.544 617.32C207.793 617.614 207.983 617.903 208.117 618.188H208.227V616.409H211.143V627.103C211.143 628.004 210.923 628.758 210.482 629.365C210.04 629.972 209.429 630.427 208.647 630.73C207.871 631.038 206.977 631.192 205.965 631.192ZM206.027 624.642C206.501 624.642 206.901 624.525 207.227 624.29C207.558 624.051 207.811 623.711 207.986 623.27C208.165 622.824 208.254 622.291 208.254 621.67C208.254 621.05 208.167 620.512 207.992 620.057C207.818 619.597 207.565 619.241 207.234 618.988C206.903 618.735 206.501 618.609 206.027 618.609C205.545 618.609 205.138 618.74 204.807 619.002C204.476 619.259 204.226 619.618 204.055 620.078C203.885 620.537 203.8 621.068 203.8 621.67C203.8 622.282 203.885 622.81 204.055 623.256C204.23 623.697 204.481 624.04 204.807 624.283C205.138 624.522 205.545 624.642 206.027 624.642ZM216.418 620.877V627H213.481V612.879H216.335V618.278H216.459C216.698 617.653 217.085 617.163 217.618 616.809C218.151 616.451 218.82 616.272 219.624 616.272C220.36 616.272 221.001 616.432 221.548 616.754C222.099 617.071 222.527 617.529 222.83 618.126C223.138 618.719 223.29 619.429 223.285 620.257V627H220.348V620.781C220.353 620.128 220.187 619.62 219.852 619.257C219.521 618.894 219.056 618.712 218.459 618.712C218.059 618.712 217.705 618.797 217.397 618.967C217.094 619.138 216.855 619.386 216.68 619.712C216.51 620.034 216.423 620.422 216.418 620.877ZM231.23 616.409V618.616H224.852V616.409H231.23ZM226.3 613.872H229.237V623.746C229.237 624.017 229.279 624.228 229.361 624.38C229.444 624.527 229.559 624.63 229.706 624.69C229.858 624.75 230.033 624.78 230.23 624.78C230.368 624.78 230.506 624.768 230.644 624.745C230.782 624.718 230.888 624.697 230.961 624.683L231.423 626.869C231.276 626.915 231.069 626.968 230.802 627.028C230.536 627.092 230.212 627.131 229.83 627.145C229.122 627.172 228.502 627.078 227.969 626.862C227.44 626.646 227.029 626.311 226.735 625.855C226.44 625.4 226.296 624.826 226.3 624.132V613.872ZM240.574 620.877V627H237.637V616.409H240.436V618.278H240.56C240.795 617.662 241.188 617.175 241.739 616.816C242.291 616.453 242.96 616.272 243.746 616.272C244.481 616.272 245.123 616.432 245.67 616.754C246.217 617.076 246.642 617.536 246.945 618.133C247.249 618.726 247.4 619.434 247.4 620.257V627H244.463V620.781C244.468 620.133 244.302 619.627 243.967 619.264C243.631 618.896 243.169 618.712 242.581 618.712C242.185 618.712 241.836 618.797 241.533 618.967C241.234 619.138 240.999 619.386 240.829 619.712C240.664 620.034 240.579 620.422 240.574 620.877ZM254.5 627.207C253.429 627.207 252.503 626.979 251.722 626.524C250.945 626.065 250.345 625.426 249.922 624.607C249.499 623.785 249.288 622.831 249.288 621.746C249.288 620.652 249.499 619.696 249.922 618.878C250.345 618.055 250.945 617.416 251.722 616.961C252.503 616.501 253.429 616.272 254.5 616.272C255.571 616.272 256.495 616.501 257.272 616.961C258.053 617.416 258.656 618.055 259.078 618.878C259.501 619.696 259.713 620.652 259.713 621.746C259.713 622.831 259.501 623.785 259.078 624.607C258.656 625.426 258.053 626.065 257.272 626.524C256.495 626.979 255.571 627.207 254.5 627.207ZM254.514 624.932C255.001 624.932 255.408 624.794 255.734 624.518C256.061 624.237 256.307 623.856 256.472 623.373C256.642 622.891 256.727 622.341 256.727 621.725C256.727 621.109 256.642 620.56 256.472 620.078C256.307 619.595 256.061 619.213 255.734 618.933C255.408 618.653 255.001 618.512 254.514 618.512C254.022 618.512 253.608 618.653 253.273 618.933C252.942 619.213 252.691 619.595 252.521 620.078C252.356 620.56 252.273 621.109 252.273 621.725C252.273 622.341 252.356 622.891 252.521 623.373C252.691 623.856 252.942 624.237 253.273 624.518C253.608 624.794 254.022 624.932 254.514 624.932ZM263.446 627L260.564 616.409H263.536L265.177 623.525H265.273L266.983 616.409H269.9L271.637 623.484H271.727L273.34 616.409H276.305L273.43 627H270.321L268.5 620.34H268.369L266.549 627H263.446ZM280.396 622.767V622.532C280.4 621.728 280.472 621.086 280.609 620.608C280.752 620.13 280.959 619.744 281.23 619.45C281.501 619.156 281.828 618.889 282.209 618.65C282.494 618.466 282.749 618.276 282.974 618.078C283.2 617.88 283.379 617.662 283.512 617.423C283.645 617.179 283.712 616.908 283.712 616.609C283.712 616.292 283.636 616.014 283.485 615.775C283.333 615.536 283.128 615.352 282.871 615.224C282.618 615.095 282.338 615.03 282.03 615.03C281.731 615.03 281.448 615.097 281.182 615.23C280.915 615.359 280.697 615.552 280.527 615.81C280.357 616.062 280.265 616.377 280.251 616.754H277.438C277.461 615.835 277.681 615.076 278.1 614.479C278.518 613.877 279.072 613.429 279.761 613.134C280.451 612.836 281.212 612.686 282.044 612.686C282.958 612.686 283.767 612.838 284.471 613.141C285.174 613.44 285.725 613.874 286.125 614.444C286.525 615.014 286.725 615.702 286.725 616.506C286.725 617.044 286.636 617.522 286.456 617.94C286.282 618.354 286.036 618.722 285.719 619.043C285.401 619.36 285.027 619.648 284.595 619.905C284.232 620.121 283.933 620.346 283.698 620.581C283.469 620.815 283.296 621.086 283.181 621.394C283.071 621.702 283.013 622.082 283.009 622.532V622.767H280.396ZM281.761 627.179C281.301 627.179 280.908 627.018 280.582 626.697C280.26 626.37 280.102 625.98 280.106 625.524C280.102 625.074 280.26 624.688 280.582 624.366C280.908 624.044 281.301 623.884 281.761 623.884C282.198 623.884 282.581 624.044 282.912 624.366C283.243 624.688 283.411 625.074 283.416 625.524C283.411 625.828 283.331 626.106 283.174 626.359C283.023 626.607 282.823 626.807 282.574 626.959C282.326 627.106 282.055 627.179 281.761 627.179Z" fill="#181717"/>
<g filter="url(#filter0_d_1979_1288)">
<rect x="30.5" y="647.5" width="59" height="59" rx="9.5" fill="#DCBCBC" stroke="#181717"/>
</g>
<path d="M53.5 675.37C52.4107 675.777 51.2313 676 50 676C48.7687 676 47.5893 675.777 46.5 675.37M41.3378 671C40.487 669.529 40 667.821 40 666C40 660.477 44.4771 656 50 656C55.5228 656 60 660.477 60 666C60 667.821 59.513 669.529 58.6622 671" stroke="#181717" stroke-width="2" stroke-linecap="round" stroke-linejoin="round"/>
<path d="M47 670C47.8356 669.372 48.8744 669 50 669C51.1256 669 52.1644 669.372 53 670" stroke="#181717" stroke-width="2" stroke-linecap="round" stroke-linejoin="round"/>
<path d="M47.5 663.5H46.2071C45.7544 663.5 45.3201 663.68 45 664M52.5 663.5H53.7929C54.2456 663.5 54.6799 663.68 55 664" stroke="#181717" stroke-width="2" stroke-linecap="round" stroke-linejoin="round"/>
<path d="M44 667V676M56 667V676" stroke="#181717" stroke-width="2" stroke-linecap="round" stroke-linejoin="round"/>
<path d="M40.66 698L38.16 690.26V690.2H39.34L41.53 697.04H41.77L43.94 690.2H45.04V690.26L42.54 698H40.66ZM45.7977 698.06C45.571 698.06 45.3943 698 45.2677 697.88C45.141 697.753 45.0777 697.58 45.0777 697.36C45.0777 697.14 45.141 696.97 45.2677 696.85C45.3943 696.723 45.571 696.66 45.7977 696.66C46.031 696.66 46.2077 696.723 46.3277 696.85C46.4543 696.97 46.5177 697.14 46.5177 697.36C46.5177 697.58 46.4543 697.753 46.3277 697.88C46.2077 698 46.031 698.06 45.7977 698.06ZM52.9723 698.15C52.4657 698.15 52.019 698.08 51.6323 697.94C51.2523 697.8 50.929 697.607 50.6623 697.36C50.4023 697.107 50.199 696.813 50.0523 696.48C49.9123 696.147 49.829 695.787 49.8023 695.4H50.8823C50.9023 695.707 50.9923 696.003 51.1523 696.29C51.3123 696.57 51.5457 696.8 51.8523 696.98C52.1657 697.16 52.5557 697.25 53.0223 697.25C53.529 697.25 53.9257 697.14 54.2123 696.92C54.499 696.693 54.6423 696.387 54.6423 696C54.6423 695.613 54.5023 695.317 54.2223 695.11C53.949 694.903 53.6023 694.73 53.1823 694.59L52.4323 694.34C52.0523 694.213 51.689 694.067 51.3423 693.9C50.9957 693.727 50.7123 693.5 50.4923 693.22C50.2723 692.94 50.1623 692.573 50.1623 692.12C50.1623 691.68 50.269 691.307 50.4823 691C50.6957 690.693 50.9923 690.46 51.3723 690.3C51.7523 690.133 52.1923 690.05 52.6923 690.05C53.299 690.05 53.799 690.16 54.1923 690.38C54.5857 690.593 54.8823 690.877 55.0823 691.23C55.2823 691.583 55.3957 691.973 55.4223 692.4H54.3423C54.3223 692.153 54.2523 691.92 54.1323 691.7C54.019 691.48 53.8423 691.3 53.6023 691.16C53.3623 691.02 53.0457 690.95 52.6523 690.95C52.2257 690.95 51.8823 691.047 51.6223 691.24C51.369 691.427 51.2423 691.687 51.2423 692.02C51.2423 692.393 51.389 692.68 51.6823 692.88C51.9823 693.08 52.339 693.247 52.7523 693.38L53.5123 693.63C53.8923 693.75 54.249 693.897 54.5823 694.07C54.9223 694.243 55.1957 694.473 55.4023 694.76C55.6157 695.04 55.7223 695.417 55.7223 695.89C55.7223 696.61 55.4723 697.167 54.9723 697.56C54.4723 697.953 53.8057 698.15 52.9723 698.15ZM59.0692 698.15C58.5559 698.15 58.1192 698.02 57.7592 697.76C57.3992 697.5 57.1226 697.137 56.9292 696.67C56.7426 696.197 56.6492 695.64 56.6492 695C56.6492 694.36 56.7426 693.807 56.9292 693.34C57.1226 692.867 57.3992 692.5 57.7592 692.24C58.1259 691.98 58.5692 691.85 59.0892 691.85C59.5426 691.85 59.9026 691.947 60.1692 692.14C60.4426 692.327 60.6326 692.54 60.7392 692.78H60.9792V692H61.9392V698H60.9792V697.22H60.7392C60.6326 697.46 60.4426 697.677 60.1692 697.87C59.8959 698.057 59.5292 698.15 59.0692 698.15ZM59.2592 697.25C59.7592 697.25 60.1559 697.043 60.4492 696.63C60.7426 696.217 60.8892 695.673 60.8892 695C60.8892 694.327 60.7426 693.783 60.4492 693.37C60.1559 692.957 59.7592 692.75 59.2592 692.75C58.7726 692.75 58.3992 692.947 58.1392 693.34C57.8792 693.733 57.7492 694.287 57.7492 695C57.7492 695.713 57.8792 696.267 58.1392 696.66C58.3992 697.053 58.7726 697.25 59.2592 697.25ZM65.6469 698.15C65.1335 698.15 64.6969 698.02 64.3369 697.76C63.9769 697.5 63.7002 697.137 63.5069 696.67C63.3202 696.197 63.2269 695.64 63.2269 695C63.2269 694.36 63.3202 693.807 63.5069 693.34C63.7002 692.867 63.9735 692.5 64.3269 692.24C64.6869 691.98 65.1202 691.85 65.6269 691.85C66.0335 691.85 66.3635 691.93 66.6169 692.09C66.8769 692.25 67.0702 692.46 67.1969 692.72H67.4369V690H68.5169V698H67.5569V697.22H67.3169C67.2102 697.46 67.0202 697.677 66.7469 697.87C66.4735 698.057 66.1069 698.15 65.6469 698.15ZM65.8369 697.25C66.3369 697.25 66.7335 697.043 67.0269 696.63C67.3202 696.217 67.4669 695.673 67.4669 695C67.4669 694.327 67.3202 693.783 67.0269 693.37C66.7335 692.957 66.3369 692.75 65.8369 692.75C65.3502 692.75 64.9769 692.947 64.7169 693.34C64.4569 693.733 64.3269 694.287 64.3269 695C64.3269 695.713 64.4569 696.267 64.7169 696.66C64.9769 697.053 65.3502 697.25 65.8369 697.25Z" fill="black"/>
<g filter="url(#filter1_d_1979_1288)">
<rect x="98.5" y="647.5" width="59" height="59" rx="9.5" fill="#E5D4D4" stroke="#181717"/>
</g>
<path d="M109.57 698.15C109.063 698.15 108.617 698.08 108.23 697.94C107.85 697.8 107.527 697.607 107.26 697.36C107 697.107 106.797 696.813 106.65 696.48C106.51 696.147 106.427 695.787 106.4 695.4H107.48C107.5 695.707 107.59 696.003 107.75 696.29C107.91 696.57 108.143 696.8 108.45 696.98C108.763 697.16 109.153 697.25 109.62 697.25C110.127 697.25 110.523 697.14 110.81 696.92C111.097 696.693 111.24 696.387 111.24 696C111.24 695.613 111.1 695.317 110.82 695.11C110.547 694.903 110.2 694.73 109.78 694.59L109.03 694.34C108.65 694.213 108.287 694.067 107.94 693.9C107.593 693.727 107.31 693.5 107.09 693.22C106.87 692.94 106.76 692.573 106.76 692.12C106.76 691.68 106.867 691.307 107.08 691C107.293 690.693 107.59 690.46 107.97 690.3C108.35 690.133 108.79 690.05 109.29 690.05C109.897 690.05 110.397 690.16 110.79 690.38C111.183 690.593 111.48 690.877 111.68 691.23C111.88 691.583 111.993 691.973 112.02 692.4H110.94C110.92 692.153 110.85 691.92 110.73 691.7C110.617 691.48 110.44 691.3 110.2 691.16C109.96 691.02 109.643 690.95 109.25 690.95C108.823 690.95 108.48 691.047 108.22 691.24C107.967 691.427 107.84 691.687 107.84 692.02C107.84 692.393 107.987 692.68 108.28 692.88C108.58 693.08 108.937 693.247 109.35 693.38L110.11 693.63C110.49 693.75 110.847 693.897 111.18 694.07C111.52 694.243 111.793 694.473 112 694.76C112.213 695.04 112.32 695.417 112.32 695.89C112.32 696.61 112.07 697.167 111.57 697.56C111.07 697.953 110.403 698.15 109.57 698.15ZM115.667 698.15C115.154 698.15 114.717 698.02 114.357 697.76C113.997 697.5 113.72 697.137 113.527 696.67C113.34 696.197 113.247 695.64 113.247 695C113.247 694.36 113.34 693.807 113.527 693.34C113.72 692.867 113.997 692.5 114.357 692.24C114.724 691.98 115.167 691.85 115.687 691.85C116.14 691.85 116.5 691.947 116.767 692.14C117.04 692.327 117.23 692.54 117.337 692.78H117.577V692H118.537V698H117.577V697.22H117.337C117.23 697.46 117.04 697.677 116.767 697.87C116.494 698.057 116.127 698.15 115.667 698.15ZM115.857 697.25C116.357 697.25 116.754 697.043 117.047 696.63C117.34 696.217 117.487 695.673 117.487 695C117.487 694.327 117.34 693.783 117.047 693.37C116.754 692.957 116.357 692.75 115.857 692.75C115.37 692.75 114.997 692.947 114.737 693.34C114.477 693.733 114.347 694.287 114.347 695C114.347 695.713 114.477 696.267 114.737 696.66C114.997 697.053 115.37 697.25 115.857 697.25ZM122.245 698.15C121.731 698.15 121.295 698.02 120.935 697.76C120.575 697.5 120.298 697.137 120.105 696.67C119.918 696.197 119.825 695.64 119.825 695C119.825 694.36 119.918 693.807 120.105 693.34C120.298 692.867 120.571 692.5 120.925 692.24C121.285 691.98 121.718 691.85 122.225 691.85C122.631 691.85 122.961 691.93 123.215 692.09C123.475 692.25 123.668 692.46 123.795 692.72H124.035V690H125.115V698H124.155V697.22H123.915C123.808 697.46 123.618 697.677 123.345 697.87C123.071 698.057 122.705 698.15 122.245 698.15ZM122.435 697.25C122.935 697.25 123.331 697.043 123.625 696.63C123.918 696.217 124.065 695.673 124.065 695C124.065 694.327 123.918 693.783 123.625 693.37C123.331 692.957 122.935 692.75 122.435 692.75C121.948 692.75 121.575 692.947 121.315 693.34C121.055 693.733 120.925 694.287 120.925 695C120.925 695.713 121.055 696.267 121.315 696.66C121.575 697.053 121.948 697.25 122.435 697.25Z" fill="black"/>
<path d="M118 676C123.523 676 128 671.523 128 666C128 660.477 123.523 656 118 656C112.477 656 108 660.477 108 666C108 671.523 112.477 676 118 676Z" stroke="#181717" stroke-width="2" stroke-linecap="round" stroke-linejoin="round"/>
<path d="M122 670C122 670 120.5 668 118 668C115.5 668 114 670 114 670" stroke="#181717" stroke-width="2" stroke-linecap="round" stroke-linejoin="round"/>
<path d="M115 663H115.01" stroke="#181717" stroke-width="2" stroke-linecap="round" stroke-linejoin="round"/>
<path d="M121 663H121.01" stroke="#181717" stroke-width="2" stroke-linecap="round" stroke-linejoin="round"/>
<g filter="url(#filter2_d_1979_1288)">
<rect x="166.5" y="647.5" width="59" height="59" rx="9.5" fill="#E5E3D4" stroke="#181717"/>
</g>
<path d="M174.9 698V690.2H176.94L180.04 697.11H180.28V690.2H181.3V698H179.26L176.16 691.09H175.92V698H174.9ZM185.353 698.15C184.44 698.15 183.76 697.867 183.313 697.3C182.873 696.727 182.653 695.96 182.653 695C182.653 694.04 182.873 693.277 183.313 692.71C183.76 692.137 184.44 691.85 185.353 691.85C186.266 691.85 186.943 692.137 187.383 692.71C187.83 693.277 188.053 694.04 188.053 695C188.053 695.96 187.83 696.727 187.383 697.3C186.943 697.867 186.266 698.15 185.353 698.15ZM185.353 697.27C185.906 697.27 186.31 697.067 186.563 696.66C186.823 696.253 186.953 695.7 186.953 695C186.953 694.3 186.823 693.747 186.563 693.34C186.31 692.933 185.906 692.73 185.353 692.73C184.8 692.73 184.393 692.933 184.133 693.34C183.88 693.747 183.753 694.3 183.753 695C183.753 695.7 183.88 696.253 184.133 696.66C184.393 697.067 184.8 697.27 185.353 697.27ZM189.388 698V692H190.348V693.02H190.588C190.628 692.853 190.698 692.687 190.798 692.52C190.898 692.353 191.058 692.217 191.278 692.11C191.498 691.997 191.808 691.94 192.208 691.94H192.408V692.96H192.108C191.508 692.96 191.084 693.117 190.838 693.43C190.591 693.737 190.468 694.22 190.468 694.88V698H189.388ZM193.563 698V692H194.523V692.91H194.763C194.856 692.57 195.033 692.31 195.293 692.13C195.56 691.943 195.896 691.85 196.303 691.85C196.736 691.85 197.09 691.947 197.363 692.14C197.636 692.327 197.836 692.583 197.963 692.91H198.203C198.316 692.57 198.51 692.31 198.783 692.13C199.063 691.943 199.416 691.85 199.843 691.85C200.503 691.85 200.98 692.067 201.273 692.5C201.573 692.927 201.723 693.477 201.723 694.15V698H200.643V694.38C200.643 693.86 200.56 693.463 200.393 693.19C200.226 692.91 199.96 692.77 199.593 692.77C199.146 692.77 198.8 692.963 198.553 693.35C198.306 693.73 198.183 694.203 198.183 694.77V698H197.103V694.38C197.103 693.86 197.02 693.463 196.853 693.19C196.686 692.91 196.42 692.77 196.053 692.77C195.606 692.77 195.26 692.963 195.013 693.35C194.766 693.73 194.643 694.203 194.643 694.77V698H193.563ZM205.37 698.15C204.857 698.15 204.42 698.02 204.06 697.76C203.7 697.5 203.423 697.137 203.23 696.67C203.043 696.197 202.95 695.64 202.95 695C202.95 694.36 203.043 693.807 203.23 693.34C203.423 692.867 203.7 692.5 204.06 692.24C204.427 691.98 204.87 691.85 205.39 691.85C205.843 691.85 206.203 691.947 206.47 692.14C206.743 692.327 206.933 692.54 207.04 692.78H207.28V692H208.24V698H207.28V697.22H207.04C206.933 697.46 206.743 697.677 206.47 697.87C206.197 698.057 205.83 698.15 205.37 698.15ZM205.56 697.25C206.06 697.25 206.457 697.043 206.75 696.63C207.043 696.217 207.19 695.673 207.19 695C207.19 694.327 207.043 693.783 206.75 693.37C206.457 692.957 206.06 692.75 205.56 692.75C205.073 692.75 204.7 692.947 204.44 693.34C204.18 693.733 204.05 694.287 204.05 695C204.05 695.713 204.18 696.267 204.44 696.66C204.7 697.053 205.073 697.25 205.56 697.25ZM210.398 698C210.251 697.82 210.131 697.603 210.038 697.35C209.951 697.097 209.908 696.717 209.908 696.21V690H210.988V696.07C210.988 696.603 211.044 697.003 211.158 697.27C211.278 697.537 211.421 697.76 211.588 697.94V698H210.398Z" fill="black"/>
<path d="M186 676C191.523 676 196 671.523 196 666C196 660.477 191.523 656 186 656C180.477 656 176 660.477 176 666C176 671.523 180.477 676 186 676Z" stroke="#181717" stroke-width="2" stroke-linecap="round" stroke-linejoin="round"/>
<path d="M182 669H190" stroke="#181717" stroke-width="2" stroke-linecap="round" stroke-linejoin="round"/>
<path d="M183 663H183.01" stroke="#181717" stroke-width="2" stroke-linecap="round" stroke-linejoin="round"/>
<path d="M189 663H189.01" stroke="#181717" stroke-width="2" stroke-linecap="round" stroke-linejoin="round"/>
<g filter="url(#filter3_d_1979_1288)">
<rect x="234.5" y="647.5" width="59" height="59" rx="9.5" fill="#D4E5D5" stroke="#181717"/>
</g>
<path d="M242.9 698V690.2H244.02V693.33H247.98V690.2H249.1V698H247.98V694.27H244.02V698H242.9ZM252.874 698.15C252.361 698.15 251.924 698.02 251.564 697.76C251.204 697.5 250.927 697.137 250.734 696.67C250.547 696.197 250.454 695.64 250.454 695C250.454 694.36 250.547 693.807 250.734 693.34C250.927 692.867 251.204 692.5 251.564 692.24C251.931 691.98 252.374 691.85 252.894 691.85C253.347 691.85 253.707 691.947 253.974 692.14C254.247 692.327 254.437 692.54 254.544 692.78H254.784V692H255.744V698H254.784V697.22H254.544C254.437 697.46 254.247 697.677 253.974 697.87C253.701 698.057 253.334 698.15 252.874 698.15ZM253.064 697.25C253.564 697.25 253.961 697.043 254.254 696.63C254.547 696.217 254.694 695.673 254.694 695C254.694 694.327 254.547 693.783 254.254 693.37C253.961 692.957 253.564 692.75 253.064 692.75C252.577 692.75 252.204 692.947 251.944 693.34C251.684 693.733 251.554 694.287 251.554 695C251.554 695.713 251.684 696.267 251.944 696.66C252.204 697.053 252.577 697.25 253.064 697.25ZM257.462 700V692H258.422V692.78H258.662C258.768 692.54 258.958 692.327 259.232 692.14C259.505 691.947 259.872 691.85 260.332 691.85C260.845 691.85 261.282 691.98 261.642 692.24C262.002 692.493 262.275 692.857 262.462 693.33C262.655 693.803 262.752 694.36 262.752 695C262.752 695.633 262.655 696.187 262.462 696.66C262.275 697.133 262.002 697.5 261.642 697.76C261.288 698.02 260.858 698.15 260.352 698.15C259.945 698.15 259.615 698.07 259.362 697.91C259.108 697.75 258.915 697.54 258.782 697.28H258.542V700H257.462ZM260.142 697.25C260.628 697.25 261.002 697.053 261.262 696.66C261.522 696.267 261.652 695.713 261.652 695C261.652 694.287 261.522 693.733 261.262 693.34C261.002 692.947 260.628 692.75 260.142 692.75C259.642 692.75 259.245 692.957 258.952 693.37C258.658 693.783 258.512 694.327 258.512 695C258.512 695.673 258.658 696.217 258.952 696.63C259.245 697.043 259.642 697.25 260.142 697.25ZM264.059 700V692H265.019V692.78H265.259C265.366 692.54 265.556 692.327 265.829 692.14C266.103 691.947 266.469 691.85 266.929 691.85C267.443 691.85 267.879 691.98 268.239 692.24C268.599 692.493 268.873 692.857 269.059 693.33C269.253 693.803 269.349 694.36 269.349 695C269.349 695.633 269.253 696.187 269.059 696.66C268.873 697.133 268.599 697.5 268.239 697.76C267.886 698.02 267.456 698.15 266.949 698.15C266.543 698.15 266.213 698.07 265.959 697.91C265.706 697.75 265.513 697.54 265.379 697.28H265.139V700H264.059ZM266.739 697.25C267.226 697.25 267.599 697.053 267.859 696.66C268.119 696.267 268.249 695.713 268.249 695C268.249 694.287 268.119 693.733 267.859 693.34C267.599 692.947 267.226 692.75 266.739 692.75C266.239 692.75 265.843 692.957 265.549 693.37C265.256 693.783 265.109 694.327 265.109 695C265.109 695.673 265.256 696.217 265.549 696.63C265.843 697.043 266.239 697.25 266.739 697.25ZM270.841 700V699.94C271.035 699.647 271.238 699.3 271.451 698.9C271.665 698.507 271.858 698.103 272.031 697.69L269.871 692.06V692H270.951L272.071 695C272.138 695.173 272.201 695.357 272.261 695.55C272.328 695.737 272.395 695.967 272.461 696.24H272.701C272.768 695.967 272.831 695.737 272.891 695.55C272.958 695.357 273.025 695.173 273.091 695L274.211 692H275.211V692.06L273.151 697.46C272.951 697.987 272.745 698.473 272.531 698.92C272.325 699.367 272.135 699.727 271.961 700H270.841Z" fill="black"/>
<path d="M254 676C259.523 676 264 671.523 264 666C264 660.477 259.523 656 254 656C248.477 656 244 660.477 244 666C244 671.523 248.477 676 254 676Z" stroke="#181717" stroke-width="2" stroke-linecap="round" stroke-linejoin="round"/>
<path d="M250 668C250 668 251.5 670 254 670C256.5 670 258 668 258 668" stroke="#181717" stroke-width="2" stroke-linecap="round" stroke-linejoin="round"/>
<path d="M251 663H251.01" stroke="#181717" stroke-width="2" stroke-linecap="round" stroke-linejoin="round"/>
<path d="M257 663H257.01" stroke="#181717" stroke-width="2" stroke-linecap="round" stroke-linejoin="round"/>
<g filter="url(#filter4_d_1979_1288)">
<rect x="302.5" y="647.5" width="59" height="59" rx="9.5" fill="#BCDCBE" stroke="#181717"/>
</g>
<path d="M312.66 698L310.16 690.26V690.2H311.34L313.53 697.04H313.77L315.94 690.2H317.04V690.26L314.54 698H312.66ZM317.798 698.06C317.571 698.06 317.394 698 317.268 697.88C317.141 697.753 317.078 697.58 317.078 697.36C317.078 697.14 317.141 696.97 317.268 696.85C317.394 696.723 317.571 696.66 317.798 696.66C318.031 696.66 318.208 696.723 318.328 696.85C318.454 696.97 318.518 697.14 318.518 697.36C318.518 697.58 318.454 697.753 318.328 697.88C318.208 698 318.031 698.06 317.798 698.06ZM322.302 698V690.2H323.422V693.33H327.382V690.2H328.502V698H327.382V694.27H323.422V698H322.302ZM332.276 698.15C331.763 698.15 331.326 698.02 330.966 697.76C330.606 697.5 330.33 697.137 330.136 696.67C329.95 696.197 329.856 695.64 329.856 695C329.856 694.36 329.95 693.807 330.136 693.34C330.33 692.867 330.606 692.5 330.966 692.24C331.333 691.98 331.776 691.85 332.296 691.85C332.75 691.85 333.11 691.947 333.376 692.14C333.65 692.327 333.84 692.54 333.946 692.78H334.186V692H335.146V698H334.186V697.22H333.946C333.84 697.46 333.65 697.677 333.376 697.87C333.103 698.057 332.736 698.15 332.276 698.15ZM332.466 697.25C332.966 697.25 333.363 697.043 333.656 696.63C333.95 696.217 334.096 695.673 334.096 695C334.096 694.327 333.95 693.783 333.656 693.37C333.363 692.957 332.966 692.75 332.466 692.75C331.98 692.75 331.606 692.947 331.346 693.34C331.086 693.733 330.956 694.287 330.956 695C330.956 695.713 331.086 696.267 331.346 696.66C331.606 697.053 331.98 697.25 332.466 697.25ZM336.864 700V692H337.824V692.78H338.064C338.171 692.54 338.361 692.327 338.634 692.14C338.907 691.947 339.274 691.85 339.734 691.85C340.247 691.85 340.684 691.98 341.044 692.24C341.404 692.493 341.677 692.857 341.864 693.33C342.057 693.803 342.154 694.36 342.154 695C342.154 695.633 342.057 696.187 341.864 696.66C341.677 697.133 341.404 697.5 341.044 697.76C340.691 698.02 340.261 698.15 339.754 698.15C339.347 698.15 339.017 698.07 338.764 697.91C338.511 697.75 338.317 697.54 338.184 697.28H337.944V700H336.864ZM339.544 697.25C340.031 697.25 340.404 697.053 340.664 696.66C340.924 696.267 341.054 695.713 341.054 695C341.054 694.287 340.924 693.733 340.664 693.34C340.404 692.947 340.031 692.75 339.544 692.75C339.044 692.75 338.647 692.957 338.354 693.37C338.061 693.783 337.914 694.327 337.914 695C337.914 695.673 338.061 696.217 338.354 696.63C338.647 697.043 339.044 697.25 339.544 697.25ZM343.462 700V692H344.422V692.78H344.662C344.768 692.54 344.958 692.327 345.232 692.14C345.505 691.947 345.872 691.85 346.332 691.85C346.845 691.85 347.282 691.98 347.642 692.24C348.002 692.493 348.275 692.857 348.462 693.33C348.655 693.803 348.752 694.36 348.752 695C348.752 695.633 348.655 696.187 348.462 696.66C348.275 697.133 348.002 697.5 347.642 697.76C347.288 698.02 346.858 698.15 346.352 698.15C345.945 698.15 345.615 698.07 345.362 697.91C345.108 697.75 344.915 697.54 344.782 697.28H344.542V700H343.462ZM346.142 697.25C346.628 697.25 347.002 697.053 347.262 696.66C347.522 696.267 347.652 695.713 347.652 695C347.652 694.287 347.522 693.733 347.262 693.34C347.002 692.947 346.628 692.75 346.142 692.75C345.642 692.75 345.245 692.957 344.952 693.37C344.658 693.783 344.512 694.327 344.512 695C344.512 695.673 344.658 696.217 344.952 696.63C345.245 697.043 345.642 697.25 346.142 697.25ZM350.244 700V699.94C350.437 699.647 350.64 699.3 350.854 698.9C351.067 698.507 351.26 698.103 351.434 697.69L349.274 692.06V692H350.354L351.474 695C351.54 695.173 351.604 695.357 351.664 695.55C351.73 695.737 351.797 695.967 351.864 696.24H352.104C352.17 695.967 352.234 695.737 352.294 695.55C352.36 695.357 352.427 695.173 352.494 695L353.614 692H354.614V692.06L352.554 697.46C352.354 697.987 352.147 698.473 351.934 698.92C351.727 699.367 351.537 699.727 351.364 700H350.244Z" fill="black"/>
<path d="M322 676C327.523 676 332 671.523 332 666C332 660.477 327.523 656 322 656C316.477 656 312 660.477 312 666C312 671.523 316.477 676 322 676Z" stroke="#181717" stroke-width="2" stroke-linecap="round" stroke-linejoin="round"/>
<path d="M328 667C327.761 668.412 327.025 669.693 325.925 670.61C324.824 671.527 323.432 672.02 322 672C320.568 672.02 319.176 671.527 318.075 670.61C316.975 669.693 316.239 668.412 316 667H328Z" stroke="#181717" stroke-width="2" stroke-linecap="round" stroke-linejoin="round"/>
<path d="M319 663H319.01" stroke="#181717" stroke-width="2" stroke-linecap="round" stroke-linejoin="round"/>
<path d="M325 663H325.01" stroke="#181717" stroke-width="2" stroke-linecap="round" stroke-linejoin="round"/>
<path d="M17 766C17 752.193 28.1929 741 42 741H350C363.807 741 375 752.193 375 766V852C375 865.807 363.807 877 350 877H42C28.1929 877 17 865.807 17 852V766Z" fill="black" fill-opacity="0.07"/>
<path d="M48.9516 766.823H45.9317C45.8765 766.432 45.7639 766.085 45.5938 765.782C45.4237 765.474 45.2054 765.212 44.9388 764.996C44.6722 764.78 44.3642 764.614 44.0149 764.499C43.6701 764.384 43.2955 764.327 42.891 764.327C42.1602 764.327 41.5235 764.509 40.9811 764.872C40.4387 765.23 40.0181 765.754 39.7194 766.444C39.4206 767.129 39.2712 767.961 39.2712 768.94C39.2712 769.946 39.4206 770.792 39.7194 771.477C40.0227 772.162 40.4456 772.679 40.988 773.028C41.5304 773.378 42.1579 773.552 42.8703 773.552C43.2702 773.552 43.6403 773.499 43.9804 773.394C44.3252 773.288 44.6308 773.134 44.8974 772.932C45.164 772.725 45.3847 772.474 45.5593 772.18C45.7386 771.886 45.8627 771.55 45.9317 771.174L48.9516 771.187C48.8735 771.835 48.6781 772.461 48.3656 773.063C48.0576 773.66 47.6416 774.196 47.1176 774.669C46.5982 775.138 45.9776 775.51 45.256 775.786C44.5389 776.057 43.7276 776.193 42.8221 776.193C41.5626 776.193 40.4364 775.908 39.4436 775.338C38.4553 774.768 37.6739 773.943 37.0993 772.863C36.5293 771.783 36.2443 770.475 36.2443 768.94C36.2443 767.4 36.5339 766.09 37.1131 765.01C37.6923 763.929 38.4783 763.107 39.4712 762.541C40.464 761.971 41.581 761.686 42.8221 761.686C43.6403 761.686 44.3987 761.801 45.0974 762.031C45.8007 762.261 46.4235 762.596 46.9659 763.038C47.5083 763.474 47.9496 764.01 48.2897 764.644C48.6345 765.278 48.8551 766.005 48.9516 766.823ZM54.0573 776.2C53.3816 776.2 52.7794 776.083 52.2508 775.848C51.7222 775.609 51.3039 775.258 50.996 774.793C50.6926 774.325 50.5409 773.741 50.5409 773.042C50.5409 772.454 50.6489 771.96 50.865 771.56C51.081 771.16 51.3752 770.838 51.7475 770.594C52.1198 770.351 52.5427 770.167 53.0162 770.043C53.4942 769.919 53.9952 769.831 54.5192 769.781C55.1352 769.716 55.6316 769.657 56.0085 769.602C56.3855 769.542 56.659 769.454 56.829 769.34C56.9991 769.225 57.0841 769.055 57.0841 768.829V768.788C57.0841 768.351 56.9462 768.013 56.6704 767.774C56.3993 767.535 56.0131 767.416 55.5121 767.416C54.9835 767.416 54.5629 767.533 54.2503 767.768C53.9378 767.997 53.7309 768.287 53.6298 768.636L50.9132 768.416C51.0511 767.772 51.3223 767.216 51.7268 766.747C52.1313 766.274 52.653 765.91 53.292 765.658C53.9355 765.4 54.6801 765.272 55.5259 765.272C56.1143 765.272 56.6773 765.341 57.2151 765.478C57.7575 765.616 58.2379 765.83 58.6562 766.12C59.0791 766.409 59.4123 766.782 59.6559 767.237C59.8996 767.687 60.0214 768.227 60.0214 768.857V776H57.2358V774.531H57.1531C56.983 774.862 56.7555 775.154 56.4705 775.407C56.1855 775.655 55.8431 775.851 55.4432 775.993C55.0433 776.131 54.5813 776.2 54.0573 776.2ZM54.8985 774.173C55.3305 774.173 55.7121 774.088 56.043 773.918C56.374 773.743 56.6337 773.509 56.8221 773.214C57.0106 772.92 57.1048 772.587 57.1048 772.215V771.091C57.0129 771.151 56.8865 771.206 56.7256 771.256C56.5693 771.302 56.3924 771.346 56.1947 771.387C55.997 771.424 55.7994 771.459 55.6017 771.491C55.4041 771.518 55.2248 771.544 55.0639 771.567C54.7192 771.617 54.4181 771.698 54.1607 771.808C53.9033 771.918 53.7033 772.068 53.5609 772.256C53.4184 772.44 53.3471 772.67 53.3471 772.946C53.3471 773.345 53.4919 773.651 53.7815 773.863C54.0757 774.069 54.448 774.173 54.8985 774.173ZM62.3001 779.971V765.409H65.196V767.188H65.327C65.4557 766.903 65.6418 766.614 65.8855 766.32C66.1337 766.021 66.4554 765.773 66.8508 765.575C67.2507 765.373 67.7471 765.272 68.34 765.272C69.1123 765.272 69.8247 765.474 70.4775 765.878C71.1302 766.278 71.6519 766.883 72.0426 767.692C72.4333 768.496 72.6287 769.505 72.6287 770.719C72.6287 771.9 72.4379 772.897 72.0564 773.711C71.6795 774.52 71.1647 775.134 70.5119 775.552C69.8638 775.966 69.1376 776.172 68.3332 776.172C67.7632 776.172 67.2782 776.078 66.8783 775.89C66.483 775.701 66.159 775.464 65.9062 775.18C65.6533 774.89 65.4603 774.598 65.327 774.304H65.2373V779.971H62.3001ZM65.1753 770.705C65.1753 771.334 65.2626 771.884 65.4373 772.353C65.612 772.821 65.8648 773.187 66.1957 773.449C66.5267 773.706 66.9289 773.835 67.4023 773.835C67.8804 773.835 68.2849 773.704 68.6158 773.442C68.9468 773.175 69.1973 772.808 69.3674 772.339C69.5421 771.865 69.6294 771.321 69.6294 770.705C69.6294 770.093 69.5444 769.556 69.3743 769.091C69.2042 768.627 68.9537 768.264 68.6227 768.002C68.2918 767.74 67.885 767.609 67.4023 767.609C66.9243 767.609 66.5198 767.735 66.1888 767.988C65.8625 768.241 65.612 768.599 65.4373 769.064C65.2626 769.528 65.1753 770.075 65.1753 770.705ZM80.2199 765.409V767.616H73.8422V765.409H80.2199ZM75.2901 762.872H78.2273V772.746C78.2273 773.017 78.2687 773.228 78.3514 773.38C78.4342 773.527 78.5491 773.63 78.6962 773.69C78.8479 773.75 79.0225 773.78 79.2202 773.78C79.3581 773.78 79.496 773.768 79.6339 773.745C79.7718 773.718 79.8775 773.697 79.951 773.683L80.413 775.869C80.2659 775.915 80.0591 775.968 79.7925 776.028C79.5258 776.092 79.2018 776.131 78.8203 776.145C78.1124 776.172 77.4919 776.078 76.9587 775.862C76.43 775.646 76.0186 775.311 75.7245 774.855C75.4303 774.4 75.2855 773.826 75.2901 773.132V762.872ZM82.1333 776V765.409H85.0705V776H82.1333ZM83.6088 764.044C83.1721 764.044 82.7975 763.899 82.4849 763.61C82.1769 763.316 82.0229 762.964 82.0229 762.555C82.0229 762.15 82.1769 761.803 82.4849 761.514C82.7975 761.22 83.1721 761.073 83.6088 761.073C84.0454 761.073 84.4178 761.22 84.7257 761.514C85.0383 761.803 85.1946 762.15 85.1946 762.555C85.1946 762.964 85.0383 763.316 84.7257 763.61C84.4178 763.899 84.0454 764.044 83.6088 764.044ZM92.2084 776.207C91.1374 776.207 90.2112 775.979 89.4298 775.524C88.653 775.065 88.0531 774.426 87.6302 773.607C87.2073 772.785 86.9959 771.831 86.9959 770.746C86.9959 769.652 87.2073 768.696 87.6302 767.878C88.0531 767.055 88.653 766.416 89.4298 765.961C90.2112 765.501 91.1374 765.272 92.2084 765.272C93.2794 765.272 94.2033 765.501 94.9802 765.961C95.7616 766.416 96.3637 767.055 96.7866 767.878C97.2095 768.696 97.421 769.652 97.421 770.746C97.421 771.831 97.2095 772.785 96.7866 773.607C96.3637 774.426 95.7616 775.065 94.9802 775.524C94.2033 775.979 93.2794 776.207 92.2084 776.207ZM92.2222 773.932C92.7094 773.932 93.1162 773.794 93.4426 773.518C93.769 773.237 94.0149 772.856 94.1804 772.373C94.3504 771.891 94.4355 771.341 94.4355 770.725C94.4355 770.109 94.3504 769.56 94.1804 769.078C94.0149 768.595 93.769 768.213 93.4426 767.933C93.1162 767.653 92.7094 767.512 92.2222 767.512C91.7304 767.512 91.3167 767.653 90.9811 767.933C90.6502 768.213 90.3997 768.595 90.2296 769.078C90.0641 769.56 89.9814 770.109 89.9814 770.725C89.9814 771.341 90.0641 771.891 90.2296 772.373C90.3997 772.856 90.6502 773.237 90.9811 773.518C91.3167 773.794 91.7304 773.932 92.2222 773.932ZM102.268 769.877V776H99.3308V765.409H102.13V767.278H102.254C102.489 766.662 102.882 766.175 103.433 765.816C103.985 765.453 104.654 765.272 105.44 765.272C106.175 765.272 106.816 765.432 107.363 765.754C107.91 766.076 108.336 766.536 108.639 767.133C108.942 767.726 109.094 768.434 109.094 769.257V776H106.157V769.781C106.161 769.133 105.996 768.627 105.66 768.264C105.325 767.896 104.863 767.712 104.274 767.712C103.879 767.712 103.53 767.797 103.226 767.967C102.928 768.138 102.693 768.386 102.523 768.712C102.358 769.034 102.273 769.422 102.268 769.877ZM121.536 765.409V767.616H115.158V765.409H121.536ZM116.606 762.872H119.543V772.746C119.543 773.017 119.585 773.228 119.667 773.38C119.75 773.527 119.865 773.63 120.012 773.69C120.164 773.75 120.338 773.78 120.536 773.78C120.674 773.78 120.812 773.768 120.95 773.745C121.088 773.718 121.193 773.697 121.267 773.683L121.729 775.869C121.582 775.915 121.375 775.968 121.108 776.028C120.842 776.092 120.518 776.131 120.136 776.145C119.428 776.172 118.808 776.078 118.275 775.862C117.746 775.646 117.335 775.311 117.04 774.855C116.746 774.4 116.601 773.826 116.606 773.132V762.872ZM126.614 769.877V776H123.677V761.879H126.531V767.278H126.655C126.894 766.653 127.28 766.163 127.814 765.809C128.347 765.451 129.016 765.272 129.82 765.272C130.555 765.272 131.197 765.432 131.744 765.754C132.295 766.071 132.723 766.529 133.026 767.126C133.334 767.719 133.486 768.429 133.481 769.257V776H130.544V769.781C130.549 769.128 130.383 768.62 130.048 768.257C129.717 767.894 129.252 767.712 128.655 767.712C128.255 767.712 127.901 767.797 127.593 767.967C127.29 768.138 127.051 768.386 126.876 768.712C126.706 769.034 126.618 769.422 126.614 769.877ZM135.793 776V765.409H138.73V776H135.793ZM137.268 764.044C136.832 764.044 136.457 763.899 136.144 763.61C135.836 763.316 135.682 762.964 135.682 762.555C135.682 762.15 135.836 761.803 136.144 761.514C136.457 761.22 136.832 761.073 137.268 761.073C137.705 761.073 138.077 761.22 138.385 761.514C138.698 761.803 138.854 762.15 138.854 762.555C138.854 762.964 138.698 763.316 138.385 763.61C138.077 763.899 137.705 764.044 137.268 764.044ZM149.894 768.429L147.205 768.595C147.16 768.365 147.061 768.158 146.909 767.974C146.757 767.786 146.557 767.637 146.309 767.526C146.066 767.411 145.774 767.354 145.433 767.354C144.978 767.354 144.595 767.45 144.282 767.643C143.969 767.832 143.813 768.085 143.813 768.402C143.813 768.655 143.914 768.868 144.117 769.043C144.319 769.218 144.666 769.358 145.158 769.464L147.074 769.85C148.104 770.061 148.872 770.401 149.377 770.87C149.883 771.339 150.136 771.955 150.136 772.718C150.136 773.412 149.931 774.021 149.522 774.545C149.118 775.069 148.561 775.478 147.854 775.772C147.15 776.062 146.339 776.207 145.42 776.207C144.018 776.207 142.901 775.915 142.069 775.331C141.241 774.743 140.756 773.943 140.614 772.932L143.503 772.78C143.59 773.208 143.802 773.534 144.137 773.759C144.473 773.98 144.903 774.09 145.427 774.09C145.941 774.09 146.355 773.991 146.668 773.794C146.985 773.591 147.146 773.332 147.15 773.015C147.146 772.748 147.033 772.53 146.812 772.359C146.592 772.185 146.252 772.052 145.792 771.96L143.958 771.594C142.924 771.387 142.154 771.029 141.648 770.519C141.147 770.008 140.897 769.358 140.897 768.567C140.897 767.887 141.081 767.301 141.448 766.809C141.821 766.317 142.342 765.938 143.013 765.671C143.689 765.405 144.48 765.272 145.385 765.272C146.723 765.272 147.775 765.554 148.543 766.12C149.315 766.685 149.766 767.455 149.894 768.429ZM154.509 771.767V771.532C154.513 770.728 154.585 770.086 154.723 769.608C154.865 769.13 155.072 768.744 155.343 768.45C155.614 768.156 155.941 767.889 156.322 767.65C156.607 767.466 156.862 767.276 157.088 767.078C157.313 766.88 157.492 766.662 157.625 766.423C157.759 766.179 157.825 765.908 157.825 765.609C157.825 765.292 157.749 765.014 157.598 764.775C157.446 764.536 157.242 764.352 156.984 764.224C156.731 764.095 156.451 764.03 156.143 764.03C155.844 764.03 155.562 764.097 155.295 764.23C155.028 764.359 154.81 764.552 154.64 764.81C154.47 765.062 154.378 765.377 154.364 765.754H151.551C151.574 764.835 151.795 764.076 152.213 763.479C152.631 762.877 153.185 762.429 153.875 762.134C154.564 761.836 155.325 761.686 156.157 761.686C157.071 761.686 157.88 761.838 158.584 762.141C159.287 762.44 159.839 762.874 160.239 763.444C160.638 764.014 160.838 764.702 160.838 765.506C160.838 766.044 160.749 766.522 160.569 766.94C160.395 767.354 160.149 767.722 159.832 768.043C159.515 768.36 159.14 768.648 158.708 768.905C158.345 769.121 158.046 769.346 157.812 769.581C157.582 769.815 157.409 770.086 157.294 770.394C157.184 770.702 157.127 771.082 157.122 771.532V771.767H154.509ZM155.874 776.179C155.414 776.179 155.021 776.018 154.695 775.697C154.373 775.37 154.215 774.98 154.219 774.524C154.215 774.074 154.373 773.688 154.695 773.366C155.021 773.044 155.414 772.884 155.874 772.884C156.311 772.884 156.695 773.044 157.026 773.366C157.356 773.688 157.524 774.074 157.529 774.524C157.524 774.828 157.444 775.106 157.288 775.359C157.136 775.607 156.936 775.807 156.688 775.959C156.439 776.106 156.168 776.179 155.874 776.179Z" fill="#181717"/>
<path d="M42.0704 793.453V794.306H38.6777V793.453H42.0704ZM39.6665 791.885H40.6724V798.125C40.6724 798.409 40.7136 798.622 40.796 798.764C40.8812 798.903 40.9892 798.997 41.1199 799.045C41.2535 799.091 41.3941 799.113 41.5419 799.113C41.6527 799.113 41.7436 799.108 41.8147 799.096C41.8857 799.082 41.9425 799.071 41.9852 799.062L42.1897 799.966C42.1216 799.991 42.0264 800.017 41.9042 800.043C41.782 800.071 41.6271 800.085 41.4396 800.085C41.1554 800.085 40.877 800.024 40.6042 799.902C40.3343 799.78 40.1098 799.594 39.9308 799.344C39.7546 799.094 39.6665 798.778 39.6665 798.397V791.885ZM44.73 796.062V800H43.7242V791.271H44.73V794.476H44.8153C44.9687 794.138 45.1989 793.869 45.5058 793.671C45.8155 793.469 46.2275 793.368 46.7418 793.368C47.1879 793.368 47.5786 793.457 47.9139 793.636C48.2492 793.813 48.5092 794.084 48.6939 794.451C48.8815 794.814 48.9752 795.277 48.9752 795.84V800H47.9693V795.908C47.9693 795.388 47.8344 794.986 47.5644 794.702C47.2973 794.415 46.9265 794.272 46.452 794.272C46.1224 794.272 45.8269 794.341 45.5654 794.48C45.3069 794.62 45.1023 794.823 44.9517 795.09C44.8039 795.357 44.73 795.681 44.73 796.062ZM50.8155 800V793.453H51.8213V800H50.8155ZM51.3269 792.362C51.1309 792.362 50.9618 792.295 50.8197 792.162C50.6805 792.028 50.6109 791.868 50.6109 791.68C50.6109 791.493 50.6805 791.332 50.8197 791.198C50.9618 791.065 51.1309 790.998 51.3269 790.998C51.523 790.998 51.6906 791.065 51.8299 791.198C51.9719 791.332 52.043 791.493 52.043 791.68C52.043 791.868 51.9719 792.028 51.8299 792.162C51.6906 792.295 51.523 792.362 51.3269 792.362ZM54.6696 796.062V800H53.6637V793.453H54.6355V794.476H54.7207C54.8742 794.144 55.1072 793.877 55.4197 793.675C55.7323 793.47 56.1358 793.368 56.6302 793.368C57.0735 793.368 57.4614 793.459 57.7938 793.641C58.1263 793.82 58.3848 794.093 58.5695 794.459C58.7542 794.823 58.8466 795.283 58.8466 795.84V800H57.8407V795.908C57.8407 795.394 57.7071 794.993 57.44 794.706C57.1729 794.416 56.8064 794.272 56.3404 794.272C56.0193 794.272 55.7323 794.341 55.4794 794.48C55.2294 794.62 55.0319 794.823 54.887 795.09C54.742 795.357 54.6696 795.681 54.6696 796.062ZM61.6224 797.613L61.6053 796.369H61.8099L64.6741 793.453H65.9187L62.8669 796.539H62.7817L61.6224 797.613ZM60.6847 800V791.271H61.6906V800H60.6847ZM64.8446 800L62.2873 796.761L63.0033 796.062L66.1233 800H64.8446ZM67.2134 800V793.453H68.2193V800H67.2134ZM67.7248 792.362C67.5288 792.362 67.3597 792.295 67.2176 792.162C67.0784 792.028 67.0088 791.868 67.0088 791.68C67.0088 791.493 67.0784 791.332 67.2176 791.198C67.3597 791.065 67.5288 790.998 67.7248 790.998C67.9209 790.998 68.0885 791.065 68.2278 791.198C68.3699 791.332 68.4409 791.493 68.4409 791.68C68.4409 791.868 68.3699 792.028 68.2278 792.162C68.0885 792.295 67.9209 792.362 67.7248 792.362ZM71.0675 796.062V800H70.0616V793.453H71.0334V794.476H71.1186C71.2721 794.144 71.5051 793.877 71.8177 793.675C72.1302 793.47 72.5337 793.368 73.0281 793.368C73.4714 793.368 73.8593 793.459 74.1917 793.641C74.5242 793.82 74.7828 794.093 74.9674 794.459C75.1521 794.823 75.2445 795.283 75.2445 795.84V800H74.2386V795.908C74.2386 795.394 74.1051 794.993 73.838 794.706C73.5709 794.416 73.2043 794.272 72.7383 794.272C72.4172 794.272 72.1302 794.341 71.8773 794.48C71.6273 794.62 71.4298 794.823 71.2849 795.09C71.14 795.357 71.0675 795.681 71.0675 796.062ZM79.7252 802.591C79.2393 802.591 78.8216 802.529 78.4721 802.404C78.1226 802.282 77.8313 802.12 77.5983 801.918C77.3682 801.719 77.1849 801.506 77.0485 801.279L77.8498 800.716C77.9407 800.835 78.0558 800.972 78.195 801.125C78.3343 801.282 78.5246 801.416 78.7662 801.53C79.0105 801.647 79.3302 801.705 79.7252 801.705C80.2537 801.705 80.6899 801.577 81.0337 801.321C81.3775 801.066 81.5494 800.665 81.5494 800.119V798.79H81.4642C81.3903 798.909 81.2852 799.057 81.1488 799.233C81.0152 799.406 80.822 799.561 80.5691 799.697C80.319 799.831 79.9809 799.898 79.5547 799.898C79.0262 799.898 78.5516 799.773 78.1311 799.523C77.7134 799.273 77.3824 798.909 77.138 798.431C76.8965 797.954 76.7757 797.374 76.7757 796.693C76.7757 796.022 76.8936 795.438 77.1295 794.941C77.3653 794.441 77.6935 794.054 78.114 793.781C78.5346 793.506 79.0205 793.368 79.5717 793.368C79.998 793.368 80.3361 793.439 80.5861 793.581C80.839 793.72 81.0323 793.879 81.1658 794.058C81.3022 794.235 81.4073 794.38 81.4812 794.493H81.5835V793.453H82.5553V800.188C82.5553 800.75 82.4274 801.208 82.1717 801.56C81.9188 801.915 81.5778 802.175 81.1488 802.34C80.7225 802.508 80.248 802.591 79.7252 802.591ZM79.6911 798.994C80.0946 798.994 80.4355 798.902 80.714 798.717C80.9925 798.532 81.2042 798.267 81.3491 797.92C81.494 797.573 81.5665 797.159 81.5665 796.675C81.5665 796.204 81.4954 795.787 81.3534 795.427C81.2113 795.066 81.001 794.783 80.7225 794.578C80.4441 794.374 80.1003 794.272 79.6911 794.272C79.2649 794.272 78.9097 794.38 78.6255 794.595C78.3442 794.811 78.1325 795.101 77.9904 795.465C77.8512 795.829 77.7816 796.232 77.7816 796.675C77.7816 797.13 77.8526 797.532 77.9947 797.882C78.1396 798.228 78.3527 798.501 78.634 798.7C78.9182 798.896 79.2705 798.994 79.6911 798.994ZM85.1297 800.068C84.9194 800.068 84.739 799.993 84.5884 799.842C84.4378 799.692 84.3625 799.511 84.3625 799.301C84.3625 799.091 84.4378 798.91 84.5884 798.76C84.739 798.609 84.9194 798.534 85.1297 798.534C85.34 798.534 85.5204 798.609 85.671 798.76C85.8216 798.91 85.8969 799.091 85.8969 799.301C85.8969 799.44 85.8614 799.568 85.7903 799.685C85.7221 799.801 85.6298 799.895 85.5133 799.966C85.3996 800.034 85.2718 800.068 85.1297 800.068ZM88.4351 800.068C88.2248 800.068 88.0444 799.993 87.8938 799.842C87.7432 799.692 87.6679 799.511 87.6679 799.301C87.6679 799.091 87.7432 798.91 87.8938 798.76C88.0444 798.609 88.2248 798.534 88.4351 798.534C88.6453 798.534 88.8258 798.609 88.9764 798.76C89.127 798.91 89.2023 799.091 89.2023 799.301C89.2023 799.44 89.1667 799.568 89.0957 799.685C89.0275 799.801 88.9352 799.895 88.8187 799.966C88.705 800.034 88.5771 800.068 88.4351 800.068ZM91.7404 800.068C91.5302 800.068 91.3497 799.993 91.1991 799.842C91.0485 799.692 90.9732 799.511 90.9732 799.301C90.9732 799.091 91.0485 798.91 91.1991 798.76C91.3497 798.609 91.5302 798.534 91.7404 798.534C91.9507 798.534 92.1311 798.609 92.2817 798.76C92.4323 798.91 92.5076 799.091 92.5076 799.301C92.5076 799.44 92.4721 799.568 92.4011 799.685C92.3329 799.801 92.2405 799.895 92.124 799.966C92.0104 800.034 91.8825 800.068 91.7404 800.068ZM95.0458 800.068C94.8355 800.068 94.6551 799.993 94.5045 799.842C94.3539 799.692 94.2786 799.511 94.2786 799.301C94.2786 799.091 94.3539 798.91 94.5045 798.76C94.6551 798.609 94.8355 798.534 95.0458 798.534C95.2561 798.534 95.4365 798.609 95.5871 798.76C95.7377 798.91 95.813 799.091 95.813 799.301C95.813 799.44 95.7775 799.568 95.7064 799.685C95.6383 799.801 95.5459 799.895 95.4294 799.966C95.3157 800.034 95.1879 800.068 95.0458 800.068Z" fill="#181717"/>
<circle cx="33.27" cy="37.27" r="24.27" fill="#810100" fill-opacity="0.2"/>
<path d="M33 24.8125C30.5895 24.8125 28.2332 25.5273 26.229 26.8665C24.2248 28.2056 22.6627 30.1091 21.7402 32.336C20.8178 34.563 20.5764 37.0135 21.0467 39.3777C21.5169 41.7418 22.6777 43.9134 24.3821 45.6179C26.0866 47.3223 28.2582 48.4831 30.6223 48.9533C32.9865 49.4236 35.437 49.1822 37.664 48.2598C39.8909 47.3373 41.7944 45.7752 43.1335 43.771C44.4727 41.7668 45.1875 39.4105 45.1875 37C45.1841 33.7687 43.899 30.6708 41.6141 28.3859C39.3292 26.101 36.2313 24.8159 33 24.8125ZM37.4133 40.0867C37.5004 40.1738 37.5695 40.2772 37.6166 40.391C37.6638 40.5048 37.688 40.6268 37.688 40.75C37.688 40.8732 37.6638 40.9952 37.6166 41.109C37.5695 41.2228 37.5004 41.3262 37.4133 41.4133C37.3262 41.5004 37.2228 41.5695 37.109 41.6166C36.9952 41.6638 36.8732 41.688 36.75 41.688C36.6268 41.688 36.5048 41.6638 36.391 41.6166C36.2772 41.5695 36.1738 41.5004 36.0867 41.4133L33 38.3254L29.9133 41.4133C29.8262 41.5004 29.7228 41.5695 29.609 41.6166C29.4952 41.6638 29.3732 41.688 29.25 41.688C29.1268 41.688 29.0048 41.6638 28.891 41.6166C28.7772 41.5695 28.6738 41.5004 28.5867 41.4133C28.4996 41.3262 28.4305 41.2228 28.3834 41.109C28.3362 40.9952 28.312 40.8732 28.312 40.75C28.312 40.6268 28.3362 40.5048 28.3834 40.391C28.4305 40.2772 28.4996 40.1738 28.5867 40.0867L31.6746 37L28.5867 33.9133C28.4108 33.7374 28.312 33.4988 28.312 33.25C28.312 33.0012 28.4108 32.7626 28.5867 32.5867C28.7626 32.4108 29.0012 32.312 29.25 32.312C29.4988 32.312 29.7374 32.4108 29.9133 32.5867L33 35.6746L36.0867 32.5867C36.1738 32.4996 36.2772 32.4305 36.391 32.3834C36.5048 32.3362 36.6268 32.312 36.75 32.312C36.8732 32.312 36.9952 32.3362 37.109 32.3834C37.2228 32.4305 37.3262 32.4996 37.4133 32.5867C37.5004 32.6738 37.5695 32.7772 37.6166 32.891C37.6638 33.0048 37.688 33.1268 37.688 33.25C37.688 33.3732 37.6638 33.4952 37.6166 33.609C37.5695 33.7228 37.5004 33.8262 37.4133 33.9133L34.3254 37L37.4133 40.0867Z" fill="#810100"/>
<path d="M146.315 29.8793V44H143.737L137.593 35.1125H137.49V44H134.505V29.8793H137.125L143.22 38.7599H143.344V29.8793H146.315ZM153.553 44.2068C152.464 44.2068 151.526 43.9862 150.74 43.5449C149.959 43.0991 149.357 42.4693 148.934 41.6557C148.511 40.8375 148.299 39.87 148.299 38.753C148.299 37.6636 148.511 36.7075 148.934 35.8847C149.357 35.0619 149.952 34.4207 150.72 33.961C151.492 33.5014 152.397 33.2716 153.436 33.2716C154.135 33.2716 154.785 33.3842 155.387 33.6094C155.994 33.83 156.523 34.1633 156.973 34.6092C157.428 35.055 157.782 35.6158 158.035 36.2915C158.288 36.9626 158.414 37.7486 158.414 38.6496V39.4563H149.472V37.636H155.649C155.649 37.2131 155.557 36.8385 155.374 36.5122C155.19 36.1858 154.935 35.9307 154.608 35.7468C154.287 35.5584 153.912 35.4641 153.484 35.4641C153.039 35.4641 152.643 35.5676 152.298 35.7744C151.958 35.9766 151.692 36.2501 151.499 36.5949C151.306 36.935 151.207 37.3143 151.202 37.7325V39.4632C151.202 39.9872 151.299 40.4399 151.492 40.8215C151.689 41.203 151.968 41.4972 152.326 41.704C152.685 41.9108 153.11 42.0143 153.602 42.0143C153.928 42.0143 154.227 41.9683 154.498 41.8764C154.769 41.7844 155.001 41.6465 155.194 41.4627C155.387 41.2788 155.534 41.0536 155.636 40.787L158.352 40.9662C158.214 41.619 157.932 42.1889 157.504 42.6762C157.081 43.1588 156.534 43.5357 155.863 43.8069C155.197 44.0735 154.427 44.2068 153.553 44.2068ZM162.344 44L159.462 33.4095H162.434L164.075 40.525H164.171L165.881 33.4095H168.798L170.535 40.4836H170.625L172.238 33.4095H175.203L172.328 44H169.219L167.398 37.3395H167.267L165.447 44H162.344ZM181.319 29.8793H185.001L188.89 39.3666H189.055L192.944 29.8793H196.626V44H193.73V34.8091H193.613L189.958 43.9311H187.986L184.332 34.7746H184.215V44H181.319V29.8793ZM203.857 44.2068C202.767 44.2068 201.83 43.9862 201.044 43.5449C200.262 43.0991 199.66 42.4693 199.237 41.6557C198.814 40.8375 198.603 39.87 198.603 38.753C198.603 37.6636 198.814 36.7075 199.237 35.8847C199.66 35.0619 200.255 34.4207 201.023 33.961C201.795 33.5014 202.701 33.2716 203.74 33.2716C204.438 33.2716 205.089 33.3842 205.691 33.6094C206.298 33.83 206.826 34.1633 207.277 34.6092C207.732 35.055 208.086 35.6158 208.338 36.2915C208.591 36.9626 208.718 37.7486 208.718 38.6496V39.4563H199.775V37.636H205.953C205.953 37.2131 205.861 36.8385 205.677 36.5122C205.493 36.1858 205.238 35.9307 204.912 35.7468C204.59 35.5584 204.215 35.4641 203.788 35.4641C203.342 35.4641 202.947 35.5676 202.602 35.7744C202.262 35.9766 201.995 36.2501 201.802 36.5949C201.609 36.935 201.51 37.3143 201.506 37.7325V39.4632C201.506 39.9872 201.602 40.4399 201.795 40.8215C201.993 41.203 202.271 41.4972 202.629 41.704C202.988 41.9108 203.413 42.0143 203.905 42.0143C204.231 42.0143 204.53 41.9683 204.801 41.8764C205.073 41.7844 205.305 41.6465 205.498 41.4627C205.691 41.2788 205.838 41.0536 205.939 40.787L208.656 40.9662C208.518 41.619 208.235 42.1889 207.807 42.6762C207.385 43.1588 206.838 43.5357 206.167 43.8069C205.5 44.0735 204.73 44.2068 203.857 44.2068ZM210.634 44V33.4095H213.434V35.278H213.558C213.778 34.6574 214.146 34.1679 214.661 33.8094C215.176 33.4508 215.792 33.2716 216.509 33.2716C217.235 33.2716 217.853 33.4531 218.364 33.8163C218.874 34.1748 219.214 34.662 219.384 35.278H219.494C219.71 34.6712 220.101 34.1863 220.666 33.8231C221.236 33.4554 221.91 33.2716 222.687 33.2716C223.675 33.2716 224.477 33.5864 225.093 34.2162C225.714 34.8413 226.024 35.7284 226.024 36.8776V44H223.093V37.4568C223.093 36.8684 222.937 36.4271 222.625 36.1329C222.312 35.8388 221.921 35.6917 221.452 35.6917C220.919 35.6917 220.503 35.8617 220.204 36.2019C219.906 36.5374 219.756 36.981 219.756 37.5326V44H216.909V37.3947C216.909 36.8753 216.759 36.4616 216.461 36.1536C216.166 35.8456 215.778 35.6917 215.295 35.6917C214.969 35.6917 214.675 35.7744 214.413 35.9399C214.155 36.1008 213.951 36.3283 213.799 36.6225C213.647 36.9121 213.572 37.2522 213.572 37.6429V44H210.634ZM233.129 44.2068C232.058 44.2068 231.132 43.9793 230.35 43.5243C229.574 43.0646 228.974 42.4257 228.551 41.6075C228.128 40.7847 227.916 39.8309 227.916 38.7461C227.916 37.6521 228.128 36.696 228.551 35.8778C228.974 35.055 229.574 34.4161 230.35 33.961C231.132 33.5014 232.058 33.2716 233.129 33.2716C234.2 33.2716 235.124 33.5014 235.901 33.961C236.682 34.4161 237.284 35.055 237.707 35.8778C238.13 36.696 238.342 37.6521 238.342 38.7461C238.342 39.8309 238.13 40.7847 237.707 41.6075C237.284 42.4257 236.682 43.0646 235.901 43.5243C235.124 43.9793 234.2 44.2068 233.129 44.2068ZM233.143 41.9315C233.63 41.9315 234.037 41.7936 234.363 41.5178C234.69 41.2374 234.935 40.8559 235.101 40.3733C235.271 39.8906 235.356 39.3414 235.356 38.7254C235.356 38.1095 235.271 37.5602 235.101 37.0775C234.935 36.5949 234.69 36.2134 234.363 35.933C234.037 35.6526 233.63 35.5124 233.143 35.5124C232.651 35.5124 232.237 35.6526 231.902 35.933C231.571 36.2134 231.32 36.5949 231.15 37.0775C230.985 37.5602 230.902 38.1095 230.902 38.7254C230.902 39.3414 230.985 39.8906 231.15 40.3733C231.32 40.8559 231.571 41.2374 231.902 41.5178C232.237 41.7936 232.651 41.9315 233.143 41.9315ZM240.251 44V33.4095H243.099V35.2573H243.209C243.402 34.6 243.726 34.1035 244.181 33.768C244.637 33.4278 245.161 33.2578 245.754 33.2578C245.901 33.2578 246.059 33.267 246.229 33.2853C246.399 33.3037 246.549 33.329 246.677 33.3612V35.9675C246.54 35.9261 246.349 35.8893 246.105 35.8571C245.862 35.825 245.639 35.8089 245.436 35.8089C245.004 35.8089 244.618 35.9031 244.278 36.0916C243.942 36.2754 243.676 36.5328 243.478 36.8638C243.285 37.1947 243.189 37.5763 243.189 38.0083V44H240.251ZM250.332 47.9715C249.959 47.9715 249.61 47.9416 249.284 47.8818C248.962 47.8267 248.695 47.7554 248.484 47.6681L249.146 45.4755C249.491 45.5812 249.801 45.6387 250.077 45.6479C250.357 45.6571 250.598 45.5927 250.801 45.4548C251.007 45.3169 251.175 45.0825 251.304 44.7515L251.476 44.3034L247.677 33.4095H250.766L252.959 41.1869H253.069L255.282 33.4095H258.392L254.276 45.1446C254.078 45.7145 253.809 46.211 253.469 46.6338C253.133 47.0613 252.708 47.39 252.193 47.6198C251.679 47.8542 251.058 47.9715 250.332 47.9715Z" fill="#181717"/>
<path d="M76.1202 110.148H80.9517V124.988C80.9517 126.655 80.5538 128.113 79.7578 129.362C78.9693 130.612 77.8646 131.587 76.4438 132.286C75.023 132.978 73.3679 133.324 71.4784 133.324C69.5815 133.324 67.9226 132.978 66.5018 132.286C65.081 131.587 63.9764 130.612 63.1878 129.362C62.3993 128.113 62.0051 126.655 62.0051 124.988V110.148H66.8366V124.576C66.8366 125.446 67.0263 126.22 67.4057 126.896C67.7925 127.573 68.3355 128.105 69.0348 128.492C69.734 128.879 70.5486 129.072 71.4784 129.072C72.4157 129.072 73.2302 128.879 73.9221 128.492C74.6213 128.105 75.1606 127.573 75.54 126.896C75.9268 126.22 76.1202 125.446 76.1202 124.576V110.148ZM89.591 123.091V133H84.8376V115.861H89.3678V118.885H89.5687C89.9481 117.888 90.5841 117.1 91.4767 116.519C92.3694 115.932 93.4517 115.638 94.7238 115.638C95.914 115.638 96.9517 115.898 97.8369 116.419C98.7221 116.94 99.4102 117.683 99.9012 118.651C100.392 119.61 100.638 120.756 100.638 122.087V133H95.8842V122.935C95.8917 121.886 95.6239 121.068 95.0808 120.48C94.5378 119.885 93.7902 119.588 92.838 119.588C92.1983 119.588 91.6329 119.725 91.142 120.001C90.6585 120.276 90.2791 120.678 90.0038 121.206C89.736 121.726 89.5984 122.355 89.591 123.091ZM113.601 115.861V119.432H103.023V115.861H113.601ZM105.444 133V114.622C105.444 113.38 105.686 112.35 106.169 111.532C106.66 110.713 107.33 110.1 108.178 109.69C109.026 109.281 109.989 109.077 111.068 109.077C111.797 109.077 112.463 109.133 113.065 109.244C113.675 109.356 114.129 109.456 114.426 109.545L113.578 113.116C113.392 113.057 113.162 113.001 112.887 112.949C112.619 112.897 112.344 112.871 112.061 112.871C111.362 112.871 110.874 113.034 110.599 113.362C110.324 113.681 110.186 114.131 110.186 114.712V133H105.444ZM123.635 133.335C121.901 133.335 120.403 132.967 119.138 132.23C117.881 131.486 116.91 130.452 116.226 129.128C115.541 127.797 115.199 126.253 115.199 124.497C115.199 122.727 115.541 121.18 116.226 119.856C116.91 118.524 117.881 117.49 119.138 116.754C120.403 116.01 121.901 115.638 123.635 115.638C125.368 115.638 126.863 116.01 128.12 116.754C129.385 117.49 130.359 118.524 131.044 119.856C131.728 121.18 132.07 122.727 132.07 124.497C132.07 126.253 131.728 127.797 131.044 129.128C130.359 130.452 129.385 131.486 128.12 132.23C126.863 132.967 125.368 133.335 123.635 133.335ZM123.657 129.653C124.446 129.653 125.104 129.429 125.632 128.983C126.16 128.529 126.558 127.912 126.826 127.131C127.101 126.35 127.239 125.461 127.239 124.464C127.239 123.467 127.101 122.578 126.826 121.797C126.558 121.016 126.16 120.399 125.632 119.945C125.104 119.491 124.446 119.264 123.657 119.264C122.861 119.264 122.192 119.491 121.649 119.945C121.113 120.399 120.708 121.016 120.432 121.797C120.165 122.578 120.031 123.467 120.031 124.464C120.031 125.461 120.165 126.35 120.432 127.131C120.708 127.912 121.113 128.529 121.649 128.983C122.192 129.429 122.861 129.653 123.657 129.653ZM139.915 110.148V133H135.161V110.148H139.915ZM150.038 133.279C148.736 133.279 147.557 132.944 146.501 132.275C145.452 131.598 144.619 130.605 144.001 129.295C143.391 127.979 143.086 126.365 143.086 124.453C143.086 122.489 143.402 120.856 144.035 119.554C144.667 118.245 145.508 117.267 146.557 116.62C147.613 115.965 148.77 115.638 150.027 115.638C150.986 115.638 151.786 115.801 152.426 116.129C153.073 116.449 153.594 116.85 153.988 117.334C154.39 117.81 154.695 118.279 154.903 118.74H155.048V110.148H159.79V133H155.104V130.255H154.903C154.68 130.731 154.364 131.204 153.954 131.672C153.553 132.133 153.028 132.516 152.381 132.821C151.741 133.126 150.96 133.279 150.038 133.279ZM151.544 129.496C152.31 129.496 152.958 129.288 153.486 128.871C154.021 128.447 154.431 127.856 154.713 127.097C155.003 126.339 155.148 125.45 155.148 124.43C155.148 123.411 155.007 122.526 154.724 121.775C154.442 121.024 154.033 120.443 153.497 120.034C152.961 119.625 152.31 119.42 151.544 119.42C150.763 119.42 150.105 119.632 149.569 120.056C149.034 120.48 148.628 121.068 148.353 121.819C148.078 122.571 147.94 123.441 147.94 124.43C147.94 125.427 148.078 126.309 148.353 127.075C148.636 127.834 149.041 128.429 149.569 128.86C150.105 129.284 150.763 129.496 151.544 129.496ZM173.905 139.427C173.303 139.427 172.737 139.379 172.209 139.282C171.689 139.193 171.257 139.078 170.915 138.936L171.986 135.388C172.544 135.559 173.046 135.652 173.492 135.667C173.946 135.682 174.337 135.578 174.664 135.354C174.999 135.131 175.27 134.752 175.479 134.216L175.758 133.491L169.609 115.861H174.608L178.157 128.447H178.335L181.917 115.861H186.949L180.288 134.852C179.968 135.775 179.533 136.578 178.982 137.262C178.439 137.954 177.751 138.486 176.918 138.858C176.085 139.237 175.081 139.427 173.905 139.427ZM196.573 133.335C194.84 133.335 193.341 132.967 192.076 132.23C190.819 131.486 189.849 130.452 189.164 129.128C188.48 127.797 188.138 126.253 188.138 124.497C188.138 122.727 188.48 121.18 189.164 119.856C189.849 118.524 190.819 117.49 192.076 116.754C193.341 116.01 194.84 115.638 196.573 115.638C198.307 115.638 199.802 116.01 201.059 116.754C202.323 117.49 203.298 118.524 203.982 119.856C204.667 121.18 205.009 122.727 205.009 124.497C205.009 126.253 204.667 127.797 203.982 129.128C203.298 130.452 202.323 131.486 201.059 132.23C199.802 132.967 198.307 133.335 196.573 133.335ZM196.596 129.653C197.384 129.653 198.042 129.429 198.571 128.983C199.099 128.529 199.497 127.912 199.765 127.131C200.04 126.35 200.177 125.461 200.177 124.464C200.177 123.467 200.04 122.578 199.765 121.797C199.497 121.016 199.099 120.399 198.571 119.945C198.042 119.491 197.384 119.264 196.596 119.264C195.8 119.264 195.13 119.491 194.587 119.945C194.052 120.399 193.646 121.016 193.371 121.797C193.103 122.578 192.969 123.467 192.969 124.464C192.969 125.461 193.103 126.35 193.371 127.131C193.646 127.912 194.052 128.529 194.587 128.983C195.13 129.429 195.8 129.653 196.596 129.653ZM219.091 125.703V115.861H223.844V133H219.28V129.887H219.102C218.715 130.891 218.071 131.698 217.171 132.308C216.279 132.918 215.189 133.223 213.902 133.223C212.756 133.223 211.748 132.963 210.878 132.442C210.008 131.921 209.327 131.181 208.836 130.222C208.353 129.262 208.107 128.113 208.1 126.774V115.861H212.853V125.926C212.861 126.937 213.132 127.737 213.668 128.325C214.203 128.912 214.921 129.206 215.821 129.206C216.394 129.206 216.93 129.076 217.428 128.816C217.926 128.548 218.328 128.154 218.633 127.633C218.945 127.112 219.098 126.469 219.091 125.703ZM227.646 133V115.861H232.254V118.851H232.433C232.745 117.788 233.27 116.984 234.006 116.441C234.743 115.891 235.591 115.615 236.55 115.615C236.788 115.615 237.045 115.63 237.32 115.66C237.596 115.69 237.837 115.731 238.046 115.783V120.001C237.822 119.934 237.514 119.874 237.119 119.822C236.725 119.77 236.364 119.744 236.037 119.744C235.338 119.744 234.713 119.897 234.163 120.202C233.619 120.499 233.188 120.916 232.868 121.451C232.556 121.987 232.4 122.604 232.4 123.304V133H227.646ZM247.776 133V115.861H252.306V118.885H252.507C252.864 117.881 253.459 117.088 254.292 116.508C255.125 115.928 256.122 115.638 257.282 115.638C258.458 115.638 259.458 115.932 260.284 116.519C261.11 117.1 261.66 117.888 261.935 118.885H262.114C262.464 117.903 263.096 117.118 264.011 116.53C264.933 115.935 266.023 115.638 267.28 115.638C268.879 115.638 270.178 116.147 271.174 117.166C272.179 118.178 272.681 119.614 272.681 121.474V133H267.938V122.411C267.938 121.459 267.686 120.745 267.18 120.268C266.674 119.792 266.042 119.554 265.283 119.554C264.42 119.554 263.747 119.83 263.263 120.38C262.78 120.923 262.538 121.641 262.538 122.534V133H257.93V122.31C257.93 121.47 257.688 120.8 257.204 120.302C256.728 119.804 256.1 119.554 255.319 119.554C254.79 119.554 254.314 119.688 253.89 119.956C253.474 120.216 253.143 120.585 252.897 121.061C252.652 121.529 252.529 122.08 252.529 122.712V133H247.776ZM276.435 133V115.861H281.189V133H276.435ZM278.823 113.652C278.117 113.652 277.51 113.417 277.005 112.949C276.506 112.473 276.257 111.904 276.257 111.241C276.257 110.587 276.506 110.025 277.005 109.557C277.51 109.08 278.117 108.842 278.823 108.842C279.53 108.842 280.133 109.08 280.631 109.557C281.137 110.025 281.39 110.587 281.39 111.241C281.39 111.904 281.137 112.473 280.631 112.949C280.133 113.417 279.53 113.652 278.823 113.652ZM289.75 123.091V133H284.997V115.861H289.527V118.885H289.728C290.107 117.888 290.743 117.1 291.636 116.519C292.528 115.932 293.611 115.638 294.883 115.638C296.073 115.638 297.111 115.898 297.996 116.419C298.881 116.94 299.569 117.683 300.06 118.651C300.551 119.61 300.797 120.756 300.797 122.087V133H296.043V122.935C296.051 121.886 295.783 121.068 295.24 120.48C294.697 119.885 293.949 119.588 292.997 119.588C292.357 119.588 291.792 119.725 291.301 120.001C290.817 120.276 290.438 120.678 290.163 121.206C289.895 121.726 289.757 122.355 289.75 123.091ZM310.859 133.279C309.557 133.279 308.378 132.944 307.321 132.275C306.273 131.598 305.439 130.605 304.822 129.295C304.212 127.979 303.907 126.365 303.907 124.453C303.907 122.489 304.223 120.856 304.855 119.554C305.488 118.245 306.328 117.267 307.377 116.62C308.434 115.965 309.59 115.638 310.847 115.638C311.807 115.638 312.607 115.801 313.246 116.129C313.894 116.449 314.414 116.85 314.809 117.334C315.21 117.81 315.515 118.279 315.724 118.74H315.869V110.148H320.611V133H315.924V130.255H315.724C315.5 130.731 315.184 131.204 314.775 131.672C314.373 132.133 313.849 132.516 313.202 132.821C312.562 133.126 311.781 133.279 310.859 133.279ZM312.365 129.496C313.131 129.496 313.778 129.288 314.306 128.871C314.842 128.447 315.251 127.856 315.534 127.097C315.824 126.339 315.969 125.45 315.969 124.43C315.969 123.411 315.828 122.526 315.545 121.775C315.262 121.024 314.853 120.443 314.318 120.034C313.782 119.625 313.131 119.42 312.365 119.42C311.584 119.42 310.926 119.632 310.39 120.056C309.854 120.48 309.449 121.068 309.174 121.819C308.898 122.571 308.761 123.441 308.761 124.43C308.761 125.427 308.898 126.309 309.174 127.075C309.456 127.834 309.862 128.429 310.39 128.86C310.926 129.284 311.584 129.496 312.365 129.496ZM327.297 133.29C326.561 133.29 325.929 133.03 325.401 132.509C324.88 131.981 324.619 131.349 324.619 130.612C324.619 129.883 324.88 129.258 325.401 128.738C325.929 128.217 326.561 127.956 327.297 127.956C328.012 127.956 328.636 128.217 329.172 128.738C329.708 129.258 329.975 129.883 329.975 130.612C329.975 131.103 329.849 131.553 329.596 131.962C329.351 132.364 329.027 132.688 328.625 132.933C328.224 133.171 327.781 133.29 327.297 133.29Z" fill="#181717"/>
<rect x="17" y="173" width="358" height="400" rx="25" fill="black" fill-opacity="0.07"/>
<circle cx="95" cy="482" r="30" fill="#FDFBF7"/>
<circle cx="95" cy="482" r="29.5" stroke="black" stroke-opacity="0.25"/>
<path d="M86.8652 482.457C86.8652 484.157 87.3693 485.818 88.3136 487.232C89.2579 488.645 90.6001 489.747 92.1704 490.397C93.7408 491.047 95.4687 491.218 97.1358 490.886C98.8028 490.554 100.334 489.736 101.536 488.534C102.738 487.332 103.556 485.801 103.888 484.134C104.22 482.467 104.049 480.739 103.399 479.168C102.748 477.598 101.647 476.256 100.234 475.312C98.8204 474.367 97.1589 473.863 95.4592 473.863C93.0566 473.872 90.7506 474.81 89.0233 476.48L86.8652 478.638" stroke="#181717" stroke-width="2" stroke-linecap="round" stroke-linejoin="round"/>
<path d="M86.8652 473.863V478.638H91.6396" stroke="#181717" stroke-width="2" stroke-linecap="round" stroke-linejoin="round"/>
<circle cx="297" cy="482" r="30" fill="#FDFBF7"/>
<circle cx="297" cy="482" r="29.5" stroke="black" stroke-opacity="0.25"/>
<path d="M305.1 476.73L294.595 487.235L289.82 482.46" stroke="#181717" stroke-width="2" stroke-linecap="round" stroke-linejoin="round"/>
<path d="M242 481.5C242 509.39 219.39 532 191.5 532C163.61 532 141 509.39 141 481.5C141 453.61 163.61 431 191.5 431C219.39 431 242 453.61 242 481.5ZM171.3 481.5C171.3 492.656 180.344 501.7 191.5 501.7C202.656 501.7 211.7 492.656 211.7 481.5C211.7 470.344 202.656 461.3 191.5 461.3C180.344 461.3 171.3 470.344 171.3 481.5Z" fill="#181717"/>
<path d="M153.743 293H141.605C138.766 290.161 136.711 286.814 135.44 282.959C134.212 279.104 133.597 275.248 133.597 271.393C133.597 261.522 136.266 253.896 141.605 248.515H153.743C156.539 251.354 158.572 254.701 159.843 258.556C161.114 262.369 161.75 266.182 161.75 269.995C161.75 279.993 159.081 287.662 153.743 293ZM150.438 256.141H144.973C143.109 259.954 142.177 264.805 142.177 270.694C142.177 276.583 143.087 281.561 144.909 285.628H150.502C152.323 280.968 153.234 275.841 153.234 270.249C153.234 264.657 152.302 259.954 150.438 256.141ZM185.083 293H172.945C170.107 290.161 168.052 286.814 166.781 282.959C165.552 279.104 164.938 275.248 164.938 271.393C164.938 261.522 167.607 253.896 172.945 248.515H185.083C187.879 251.354 189.913 254.701 191.184 258.556C192.455 262.369 193.091 266.182 193.091 269.995C193.091 279.993 190.421 287.662 185.083 293ZM181.779 256.141H176.313C174.449 259.954 173.517 264.805 173.517 270.694C173.517 276.583 174.428 281.561 176.25 285.628H181.842C183.664 280.968 184.575 275.841 184.575 270.249C184.575 264.657 183.643 259.954 181.779 256.141ZM197.232 283.595H206.383V293H197.232V283.595ZM197.232 264.784H206.383V274.189H197.232V264.784ZM214.621 293V256.141H209.537V248.515H223.518V293H214.621ZM248.44 293H236.746C234.459 292.026 232.531 290.416 230.963 288.17C229.396 285.925 228.612 283.362 228.612 280.481C228.612 275.82 230.413 272.304 234.014 269.931V269.677C231.133 267.22 229.692 264.148 229.692 260.462C229.692 257.666 230.476 255.209 232.044 253.091C233.654 250.93 235.56 249.405 237.763 248.515H247.359C249.562 249.405 251.426 250.888 252.952 252.963C254.519 255.039 255.303 257.476 255.303 260.272C255.303 263.958 253.841 267.05 250.918 269.55V269.804C254.562 272.219 256.383 275.693 256.383 280.226C256.383 283.065 255.578 285.671 253.968 288.043C252.401 290.373 250.558 292.026 248.44 293ZM239.67 274.062C238.187 275.291 237.445 277.091 237.445 279.464C237.445 280.777 237.678 282.027 238.144 283.213C238.653 284.4 239.204 285.205 239.797 285.628H245.199C245.792 285.205 246.321 284.4 246.787 283.213C247.296 282.027 247.55 280.777 247.55 279.464C247.55 277.091 246.808 275.291 245.326 274.062H239.67ZM240.051 256.141C239.458 256.565 238.928 257.264 238.462 258.238C237.996 259.17 237.763 260.208 237.763 261.352C237.763 263.47 238.505 265.229 239.987 266.627H245.008C246.491 265.229 247.232 263.47 247.232 261.352C247.232 260.208 246.999 259.17 246.533 258.238C246.067 257.264 245.537 256.565 244.944 256.141H240.051Z" fill="#181717"/>
<rect x="152" y="325" width="8" height="82" rx="3" fill="#810100"/>
<rect x="232" y="332" width="8" height="69" rx="3" fill="#810100"/>
<rect x="136" y="342" width="8" height="48" rx="3" fill="#810100"/>
<rect x="168" y="341" width="8" height="51" rx="3" fill="#810100"/>
<rect x="120" y="347" width="8" height="39" rx="3" fill="#810100"/>
<rect x="200" y="338" width="8" height="57" rx="3" fill="#810100"/>
<rect x="248" y="338" width="8" height="57" rx="3" fill="#810100"/>
<rect x="184" y="344" width="8" height="44" rx="3" fill="#810100"/>
<rect x="216" y="338" width="8" height="56" rx="3" fill="#810100"/>
<rect x="264" y="349" width="8" height="34" rx="3" fill="#810100"/>
<rect x="21" y="909" width="350" height="50" rx="25" fill="#810100"/>
<path d="M174.084 926.047C173.43 925.734 173.117 925.165 172.975 924.597C172.918 924.369 173.003 924.256 173.288 924.256C175.647 924.369 178.661 923.545 180.253 923.545C181.475 923.545 182.214 924.114 182.584 924.995C182.669 925.222 182.612 925.421 182.243 925.421C180.11 925.393 178.12 925.961 176.386 926.217C175.391 927.838 174.055 930.14 172.662 932.699C173.401 932.557 174.055 932.5 174.567 932.472C175.988 932.386 176.699 932.983 176.955 933.836C177.04 934.092 176.983 934.263 176.642 934.263C175.221 934.234 173.032 934.66 171.411 935.058C170.331 937.162 169.279 939.294 168.455 941.199C168.341 941.483 168.171 941.483 167.972 941.313C167.431 940.858 167.147 939.948 167.744 938.186C168.597 935.684 171.582 930.112 174.084 926.047ZM189.84 935.172C188.674 938.043 188.362 940.488 189.641 940.574C190.977 940.659 192.967 938.64 194.047 936.48C194.218 936.11 194.53 936.082 194.644 936.48C194.786 936.935 194.644 937.532 194.36 938.214C194.019 939.038 191.915 941.426 189.669 941.341C187.765 941.256 186.684 939.948 187.338 936.906C187.423 936.508 187.509 936.167 187.622 935.798C187.395 935.826 187.196 935.826 186.969 935.826C186.627 935.826 186.286 935.798 185.974 935.741C185.263 938.043 183.586 940.602 181.652 941.199C180.601 941.54 179.122 941.512 178.042 940.005C176.82 938.328 177.246 935.826 178.525 933.609C179.634 931.676 181.311 930.055 183.017 929.913C183.87 929.828 184.382 930.084 184.95 930.851C185.632 931.761 186.428 931.931 186.286 933.978C186.258 934.319 186.229 934.66 186.144 935.058C186.4 935.087 186.656 935.115 186.94 935.115C187.224 935.115 187.537 935.115 187.821 935.087C189.186 930.794 191.972 926.53 194.502 923.886C194.9 923.46 195.355 923.374 195.724 923.744C196.492 924.512 196.691 925.535 196.35 926.843C195.923 928.435 194.758 930.482 193.678 931.818C192.512 933.268 191.318 934.49 189.84 935.172ZM190.351 933.978C191.688 933.069 192.739 931.676 193.336 930.823C194.587 929.003 195.724 926.502 195.355 926.246C195.042 926.047 192.882 929.117 190.948 932.756C190.721 933.182 190.522 933.609 190.351 933.978ZM184.438 934.12C184.666 933.239 184.751 932.5 184.666 931.988C184.524 931.079 183.955 931.249 183.813 932.074C183.699 932.813 183.927 933.552 184.438 934.12ZM184.211 934.973C183.102 934.234 182.392 933.097 182.392 932.045C181.652 932.642 180.771 933.609 180.174 934.689C178.98 936.821 178.582 939.465 179.321 940.09C180.089 940.744 181.851 939.721 183.244 937.162C183.671 936.366 183.955 935.655 184.211 934.973ZM201.11 937.93C200.343 939.579 200.314 940.744 201.281 940.687C202.446 940.63 203.982 938.726 204.977 936.764C205.119 936.508 205.318 936.508 205.431 936.736C205.545 936.992 205.573 937.731 205.204 938.498C204.436 940.062 202.674 941.569 201.11 941.483C199.575 941.398 198.808 940.545 198.808 939.209C197.898 940.346 196.619 941.398 195.282 941.398C192.639 941.398 192.127 937.788 194.458 934.376C196.704 931.079 198.978 929.799 200.4 929.799C201.565 929.799 202.134 930.681 202.105 931.732C203.64 928.804 205.801 924.938 206.824 923.488C207.109 923.09 207.364 923.119 207.507 923.488C207.905 924.426 207.819 925.649 206.625 927.781C205.261 930.226 202.532 934.916 201.11 937.93ZM200.854 931.249C199.973 931.221 197.898 933.012 196.334 935.513C194.799 937.958 194.486 940.431 195.595 940.46C196.732 940.488 198.267 938.811 199.604 936.224C201.252 933.069 201.679 931.278 200.854 931.249ZM217.488 927.951C217.857 928.691 217.658 929.458 217.289 929.856C216.919 930.254 216.123 930.169 215.697 929.43C215.242 928.662 215.384 927.809 215.839 927.326C216.294 926.843 217.118 927.184 217.488 927.951ZM212.854 941.426C210.693 941.426 210.153 939.607 210.949 937.276C211.66 935.201 213.536 931.846 214.588 930.368C214.844 930.027 215.043 929.941 215.27 930.197C215.697 930.652 215.924 931.875 215.242 933.296C214.645 934.547 213.451 936.48 212.854 937.901C212.172 939.55 212.228 940.659 213.138 940.602C214.417 940.545 215.981 938.669 216.834 936.707C216.976 936.451 217.175 936.48 217.289 936.707C217.516 937.162 217.431 937.759 217.09 938.47C216.237 940.232 214.446 941.426 212.854 941.426ZM220.165 929.941C219.198 929.941 218.544 929.515 218.317 929.202C218.033 928.804 218.203 928.605 218.63 928.634C219.426 928.662 220.222 928.605 220.989 928.52C221.87 926.956 222.666 925.62 223.15 924.995C223.406 924.625 223.69 924.654 223.832 924.995C224.145 925.791 224.145 926.729 223.462 928.207C224.571 928.179 224.998 928.691 225.225 929.06C225.424 929.401 225.31 929.6 224.884 929.6C224.258 929.515 223.377 929.6 222.666 929.714C221.558 931.619 219.937 934.376 218.857 936.764C217.919 938.839 218.232 940.602 219.426 940.659C220.705 940.716 222.325 938.697 223.377 936.565C223.548 936.224 223.86 936.167 223.974 936.565C224.116 937.02 223.974 937.532 223.69 938.186C223.32 939.01 221.444 941.512 219.17 941.426C217.293 941.37 215.787 939.266 217.151 935.997C217.748 934.575 218.942 932.187 220.165 929.941Z" fill="white"/>
<circle cx="339.5" cy="843.5" r="18.5" fill="#810100" fill-opacity="0.2"/>
<path d="M339.433 833.43C337.349 833.432 335.351 834.261 333.877 835.735C332.404 837.208 331.575 839.206 331.572 841.29C331.572 844.095 332.868 847.068 335.324 849.888C336.427 851.163 337.669 852.31 339.027 853.309C339.147 853.394 339.29 853.439 339.437 853.439C339.583 853.439 339.726 853.394 339.847 853.309C341.202 852.31 342.441 851.162 343.542 849.888C345.994 847.068 347.294 844.095 347.294 841.29C347.291 839.206 346.463 837.208 344.989 835.735C343.515 834.261 341.517 833.432 339.433 833.43ZM342.292 842.005H340.148V844.149C340.148 844.338 340.072 844.52 339.938 844.654C339.804 844.788 339.623 844.864 339.433 844.864C339.244 844.864 339.062 844.788 338.928 844.654C338.794 844.52 338.718 844.338 338.718 844.149V842.005H336.575C336.385 842.005 336.203 841.93 336.069 841.796C335.935 841.662 335.86 841.48 335.86 841.29C335.86 841.101 335.935 840.919 336.069 840.785C336.203 840.651 336.385 840.576 336.575 840.576H338.718V838.432C338.718 838.242 338.794 838.061 338.928 837.927C339.062 837.793 339.244 837.717 339.433 837.717C339.623 837.717 339.804 837.793 339.938 837.927C340.072 838.061 340.148 838.242 340.148 838.432V840.576H342.292C342.481 840.576 342.663 840.651 342.797 840.785C342.931 840.919 343.006 841.101 343.006 841.29C343.006 841.48 342.931 841.662 342.797 841.796C342.663 841.93 342.481 842.005 342.292 842.005Z" fill="#810100"/>
<defs>
<filter id="filter0_d_1979_1288" x="28" y="645" width="68" height="68" filterUnits="userSpaceOnUse" color-interpolation-filters="sRGB">
<feFlood flood-opacity="0" result="BackgroundImageFix"/>
<feColorMatrix in="SourceAlpha" type="matrix" values="0 0 0 0 0 0 0 0 0 0 0 0 0 0 0 0 0 0 127 0" result="hardAlpha"/>
<feOffset dx="2" dy="2"/>
<feGaussianBlur stdDeviation="2"/>
<feComposite in2="hardAlpha" operator="out"/>
<feColorMatrix type="matrix" values="0 0 0 0 0 0 0 0 0 0 0 0 0 0 0 0 0 0 0.25 0"/>
<feBlend mode="normal" in2="BackgroundImageFix" result="effect1_dropShadow_1979_1288"/>
<feBlend mode="normal" in="SourceGraphic" in2="effect1_dropShadow_1979_1288" result="shape"/>
</filter>
<filter id="filter1_d_1979_1288" x="96" y="645" width="68" height="68" filterUnits="userSpaceOnUse" color-interpolation-filters="sRGB">
<feFlood flood-opacity="0" result="BackgroundImageFix"/>
<feColorMatrix in="SourceAlpha" type="matrix" values="0 0 0 0 0 0 0 0 0 0 0 0 0 0 0 0 0 0 127 0" result="hardAlpha"/>
<feOffset dx="2" dy="2"/>
<feGaussianBlur stdDeviation="2"/>
<feComposite in2="hardAlpha" operator="out"/>
<feColorMatrix type="matrix" values="0 0 0 0 0 0 0 0 0 0 0 0 0 0 0 0 0 0 0.25 0"/>
<feBlend mode="normal" in2="BackgroundImageFix" result="effect1_dropShadow_1979_1288"/>
<feBlend mode="normal" in="SourceGraphic" in2="effect1_dropShadow_1979_1288" result="shape"/>
</filter>
<filter id="filter2_d_1979_1288" x="164" y="645" width="68" height="68" filterUnits="userSpaceOnUse" color-interpolation-filters="sRGB">
<feFlood flood-opacity="0" result="BackgroundImageFix"/>
<feColorMatrix in="SourceAlpha" type="matrix" values="0 0 0 0 0 0 0 0 0 0 0 0 0 0 0 0 0 0 127 0" result="hardAlpha"/>
<feOffset dx="2" dy="2"/>
<feGaussianBlur stdDeviation="2"/>
<feComposite in2="hardAlpha" operator="out"/>
<feColorMatrix type="matrix" values="0 0 0 0 0 0 0 0 0 0 0 0 0 0 0 0 0 0 0.25 0"/>
<feBlend mode="normal" in2="BackgroundImageFix" result="effect1_dropShadow_1979_1288"/>
<feBlend mode="normal" in="SourceGraphic" in2="effect1_dropShadow_1979_1288" result="shape"/>
</filter>
<filter id="filter3_d_1979_1288" x="232" y="645" width="68" height="68" filterUnits="userSpaceOnUse" color-interpolation-filters="sRGB">
<feFlood flood-opacity="0" result="BackgroundImageFix"/>
<feColorMatrix in="SourceAlpha" type="matrix" values="0 0 0 0 0 0 0 0 0 0 0 0 0 0 0 0 0 0 127 0" result="hardAlpha"/>
<feOffset dx="2" dy="2"/>
<feGaussianBlur stdDeviation="2"/>
<feComposite in2="hardAlpha" operator="out"/>
<feColorMatrix type="matrix" values="0 0 0 0 0 0 0 0 0 0 0 0 0 0 0 0 0 0 0.25 0"/>
<feBlend mode="normal" in2="BackgroundImageFix" result="effect1_dropShadow_1979_1288"/>
<feBlend mode="normal" in="SourceGraphic" in2="effect1_dropShadow_1979_1288" result="shape"/>
</filter>
<filter id="filter4_d_1979_1288" x="300" y="645" width="68" height="68" filterUnits="userSpaceOnUse" color-interpolation-filters="sRGB">
<feFlood flood-opacity="0" result="BackgroundImageFix"/>
<feColorMatrix in="SourceAlpha" type="matrix" values="0 0 0 0 0 0 0 0 0 0 0 0 0 0 0 0 0 0 127 0" result="hardAlpha"/>
<feOffset dx="2" dy="2"/>
<feGaussianBlur stdDeviation="2"/>
<feComposite in2="hardAlpha" operator="out"/>
<feColorMatrix type="matrix" values="0 0 0 0 0 0 0 0 0 0 0 0 0 0 0 0 0 0 0.25 0"/>
<feBlend mode="normal" in2="BackgroundImageFix" result="effect1_dropShadow_1979_1288"/>
<feBlend mode="normal" in="SourceGraphic" in2="effect1_dropShadow_1979_1288" result="shape"/>
</filter>
</defs>
</svg>
