<svg width="366" height="318" viewBox="0 0 366 318" fill="none" xmlns="http://www.w3.org/2000/svg">
<g filter="url(#filter0_d_2011_785)">
<rect x="4" y="2" width="358" height="310" rx="20" fill="#FDFBF7"/>
</g>
<path d="M31.7099 30.8793H33.7508L38.5497 42.6006H38.7151L43.514 30.8793H45.5549V45H43.9553V34.2716H43.8174L39.4046 45H37.8602L33.4474 34.2716H33.3095V45H31.7099V30.8793Z" fill="black" fill-opacity="0.5"/>
<path d="M80.9377 32.3961V30.8793H91.5283V32.3961H87.0879V45H85.378V32.3961H80.9377Z" fill="black" fill-opacity="0.5"/>
<path d="M129.275 45L125.414 30.8793H127.151L130.102 42.3799H130.24L133.246 30.8793H135.177L138.183 42.3799H138.321L141.272 30.8793H143.009L139.148 45H137.383L134.267 33.7475H134.156L131.04 45H129.275Z" fill="black" fill-opacity="0.5"/>
<path d="M176.938 32.3961V30.8793H187.528V32.3961H183.088V45H181.378V32.3961H176.938Z" fill="black" fill-opacity="0.5"/>
<path d="M226.71 45V30.8793H235.177V32.3961H228.42V37.1674H234.543V38.6843H228.42V45H226.71Z" fill="black" fill-opacity="0.5"/>
<path d="M282.432 34.4095C282.349 33.7108 282.014 33.1684 281.426 32.7823C280.837 32.3961 280.116 32.2031 279.261 32.2031C278.635 32.2031 278.088 32.3042 277.62 32.5065C277.155 32.7087 276.792 32.9868 276.53 33.3407C276.273 33.6947 276.144 34.0969 276.144 34.5474C276.144 34.9243 276.234 35.2483 276.413 35.5195C276.597 35.7861 276.831 36.0091 277.116 36.1883C277.401 36.363 277.7 36.5078 278.013 36.6227C278.325 36.733 278.612 36.8227 278.874 36.8916L280.309 37.2777C280.676 37.3743 281.085 37.5076 281.536 37.6776C281.991 37.8477 282.425 38.0798 282.839 38.374C283.257 38.6636 283.602 39.0359 283.873 39.491C284.144 39.946 284.28 40.5045 284.28 41.1664C284.28 41.9295 284.08 42.619 283.68 43.2349C283.285 43.8509 282.706 44.3404 281.943 44.7035C281.184 45.0667 280.263 45.2482 279.178 45.2482C278.167 45.2482 277.291 45.085 276.551 44.7587C275.815 44.4323 275.236 43.9773 274.813 43.3935C274.395 42.8097 274.158 42.1317 274.103 41.3595H275.868C275.914 41.8927 276.094 42.334 276.406 42.6833C276.723 43.0281 277.123 43.2855 277.606 43.4555C278.093 43.621 278.617 43.7038 279.178 43.7038C279.831 43.7038 280.417 43.598 280.936 43.3866C281.455 43.1706 281.867 42.8718 282.17 42.4903C282.474 42.1041 282.625 41.6537 282.625 41.1389C282.625 40.67 282.494 40.2885 282.232 39.9943C281.97 39.7001 281.626 39.4611 281.198 39.2772C280.771 39.0934 280.309 38.9325 279.812 38.7946L278.075 38.2982C276.971 37.981 276.098 37.5282 275.455 36.9399C274.811 36.3515 274.489 35.5816 274.489 34.6301C274.489 33.8395 274.703 33.15 275.131 32.5616C275.563 31.9687 276.142 31.509 276.868 31.1826C277.599 30.8517 278.415 30.6862 279.316 30.6862C280.226 30.6862 281.035 30.8494 281.743 31.1758C282.451 31.4975 283.011 31.9388 283.425 32.4996C283.843 33.0604 284.064 33.697 284.087 34.4095H282.432Z" fill="black" fill-opacity="0.5"/>
<path d="M330.432 34.4095C330.349 33.7108 330.014 33.1684 329.426 32.7823C328.837 32.3961 328.116 32.2031 327.261 32.2031C326.635 32.2031 326.088 32.3042 325.62 32.5065C325.155 32.7087 324.792 32.9868 324.53 33.3407C324.273 33.6947 324.144 34.0969 324.144 34.5474C324.144 34.9243 324.234 35.2483 324.413 35.5195C324.597 35.7861 324.831 36.0091 325.116 36.1883C325.401 36.363 325.7 36.5078 326.013 36.6227C326.325 36.733 326.612 36.8227 326.874 36.8916L328.309 37.2777C328.676 37.3743 329.085 37.5076 329.536 37.6776C329.991 37.8477 330.425 38.0798 330.839 38.374C331.257 38.6636 331.602 39.0359 331.873 39.491C332.144 39.946 332.28 40.5045 332.28 41.1664C332.28 41.9295 332.08 42.619 331.68 43.2349C331.285 43.8509 330.706 44.3404 329.943 44.7035C329.184 45.0667 328.263 45.2482 327.178 45.2482C326.167 45.2482 325.291 45.085 324.551 44.7587C323.815 44.4323 323.236 43.9773 322.813 43.3935C322.395 42.8097 322.158 42.1317 322.103 41.3595H323.868C323.914 41.8927 324.094 42.334 324.406 42.6833C324.723 43.0281 325.123 43.2855 325.606 43.4555C326.093 43.621 326.617 43.7038 327.178 43.7038C327.831 43.7038 328.417 43.598 328.936 43.3866C329.455 43.1706 329.867 42.8718 330.17 42.4903C330.474 42.1041 330.625 41.6537 330.625 41.1389C330.625 40.67 330.494 40.2885 330.232 39.9943C329.97 39.7001 329.626 39.4611 329.198 39.2772C328.771 39.0934 328.309 38.9325 327.812 38.7946L326.075 38.2982C324.971 37.981 324.098 37.5282 323.455 36.9399C322.811 36.3515 322.489 35.5816 322.489 34.6301C322.489 33.8395 322.703 33.15 323.131 32.5616C323.563 31.9687 324.142 31.509 324.868 31.1826C325.599 30.8517 326.415 30.6862 327.316 30.6862C328.226 30.6862 329.035 30.8494 329.743 31.1758C330.451 31.4975 331.011 31.9388 331.425 32.4996C331.843 33.0604 332.064 33.697 332.087 34.4095H330.432Z" fill="black" fill-opacity="0.5"/>
<rect x="66" y="113" width="40" height="40" rx="5" fill="#810100"/>
<rect x="207" y="113" width="40" height="40" rx="5" fill="#9A3433"/>
<rect x="113" y="113" width="40" height="40" rx="5" fill="#C19999"/>
<rect x="254" y="113" width="40" height="40" rx="5" fill="#C19999"/>
<rect x="160" y="113" width="40" height="40" rx="5" fill="#C19999"/>
<rect x="301" y="113" width="40" height="40" rx="5" fill="#810100"/>
<rect x="19" y="113" width="40" height="40" rx="5" fill="#810100"/>
<rect x="66" y="65" width="40" height="40" rx="5" fill="#810100"/>
<rect x="207" y="65" width="40" height="40" rx="5" fill="#810100"/>
<rect x="113" y="65" width="40" height="40" rx="5" fill="#9A3433"/>
<rect x="254" y="65" width="40" height="40" rx="5" fill="#9A3433"/>
<rect x="160" y="65" width="40" height="40" rx="5" fill="#C19999"/>
<rect x="301" y="65" width="40" height="40" rx="5" fill="#C19999"/>
<rect x="19" y="65" width="40" height="40" rx="5" fill="#C19999"/>
<rect x="66" y="161" width="40" height="40" rx="5" fill="#C19999"/>
<rect x="207" y="161" width="40" height="40" rx="5" fill="#9A3433"/>
<rect x="113" y="161" width="40" height="40" rx="5" fill="#9A3433"/>
<rect x="254" y="161" width="40" height="40" rx="5" fill="#9A3433"/>
<rect x="160" y="161" width="40" height="40" rx="5" fill="#C19999"/>
<rect x="301" y="161" width="40" height="40" rx="5" fill="#C19999"/>
<rect x="19" y="161" width="40" height="40" rx="5" fill="#C19999"/>
<rect x="66" y="209" width="40" height="40" rx="5" fill="#810100"/>
<rect x="207" y="209" width="40" height="40" rx="5" fill="#C19999"/>
<rect x="113" y="209" width="40" height="40" rx="5" fill="#C19999"/>
<rect x="254" y="209" width="40" height="40" rx="5" fill="#810100"/>
<rect x="160" y="209" width="40" height="40" rx="5" fill="#C19999"/>
<rect x="301" y="209" width="40" height="40" rx="5" fill="#810100"/>
<rect x="19" y="209" width="40" height="40" rx="5" fill="#9A3433"/>
<rect x="19" y="257" width="40" height="40" rx="5" fill="#C19999"/>
<circle cx="327.361" cy="284.361" r="12.3609" fill="#8D1A1A" fill-opacity="0.2"/>
<path d="M333.175 284.921L328.878 289.219C328.788 289.308 328.667 289.359 328.54 289.359C328.413 289.359 328.292 289.308 328.202 289.219C328.113 289.129 328.062 289.008 328.062 288.881C328.062 288.754 328.113 288.633 328.202 288.543L331.685 285.061H322.333C322.206 285.061 322.085 285.011 321.995 284.921C321.906 284.832 321.855 284.71 321.855 284.584C321.855 284.457 321.906 284.336 321.995 284.246C322.085 284.156 322.206 284.106 322.333 284.106H331.685L328.202 280.624C328.113 280.535 328.062 280.413 328.062 280.286C328.062 280.16 328.113 280.038 328.202 279.949C328.292 279.859 328.413 279.809 328.54 279.809C328.667 279.809 328.788 279.859 328.878 279.949L333.175 284.246C333.22 284.29 333.255 284.343 333.279 284.401C333.303 284.459 333.315 284.521 333.315 284.584C333.315 284.646 333.303 284.709 333.279 284.766C333.255 284.824 333.22 284.877 333.175 284.921Z" fill="#810100"/>
<defs>
<filter id="filter0_d_2011_785" x="0" y="0" width="366" height="318" filterUnits="userSpaceOnUse" color-interpolation-filters="sRGB">
<feFlood flood-opacity="0" result="BackgroundImageFix"/>
<feColorMatrix in="SourceAlpha" type="matrix" values="0 0 0 0 0 0 0 0 0 0 0 0 0 0 0 0 0 0 127 0" result="hardAlpha"/>
<feOffset dy="2"/>
<feGaussianBlur stdDeviation="2"/>
<feComposite in2="hardAlpha" operator="out"/>
<feColorMatrix type="matrix" values="0 0 0 0 0 0 0 0 0 0 0 0 0 0 0 0 0 0 0.25 0"/>
<feBlend mode="normal" in2="BackgroundImageFix" result="effect1_dropShadow_2011_785"/>
<feBlend mode="normal" in="SourceGraphic" in2="effect1_dropShadow_2011_785" result="shape"/>
</filter>
</defs>
</svg>
